<?xml version="1.0" encoding="UTF-8"?>
<svg version="1.1" xmlns="http://www.w3.org/2000/svg" width="512" height="512">
<path d="M0 0 C1.29780396 -0.0071553 2.59560791 -0.01431061 3.93273926 -0.02168274 C5.36422705 -0.02452275 6.79571511 -0.02723451 8.22720337 -0.02983093 C9.74053095 -0.03610032 11.253857 -0.04274754 12.7671814 -0.04974365 C17.73252296 -0.07074155 22.69786467 -0.08114658 27.66323853 -0.09111023 C29.37816 -0.0951603 31.09308132 -0.0992773 32.80800247 -0.10346031 C40.87204834 -0.12250782 48.93608511 -0.13673606 57.00014913 -0.14507228 C66.27770019 -0.15482342 75.55501131 -0.18108904 84.83247793 -0.22157317 C92.0217153 -0.25185652 99.21088442 -0.26655293 106.40018427 -0.26985329 C110.68476883 -0.27219115 114.96909698 -0.28098422 119.25361252 -0.30631447 C123.29370761 -0.32981318 127.33338148 -0.33374226 131.37352753 -0.32355309 C132.84434801 -0.32306275 134.31519079 -0.32923209 135.78594589 -0.34310913 C155.65960735 -0.51990155 172.00672133 5.323014 186.57730103 19.14717102 C192.99788759 26.65667438 197.85445648 34.80127746 202.35144043 43.56135559 C203.70024745 46.18515369 205.07654763 48.79420149 206.45143127 51.40440369 C207.15057845 52.73181049 207.84871485 54.05975017 208.54582214 55.38822937 C222.47285621 84.27142209 222.47285621 84.27142209 248.01480103 101.83467102 C252.08739834 102.95062682 256.17112884 103.53580326 260.34487915 104.11177063 C278.87876705 106.70921263 293.94546944 114.09390095 305.60855103 129.26435852 C315.45918706 143.68850414 317.10003506 157.81071126 317.02334595 174.81977844 C317.01480708 177.70762323 317.04372859 180.59350339 317.0753479 183.4811554 C317.12175827 195.81966443 316.32540542 205.977784 308.57730103 216.14717102 C307.97917603 216.95154602 307.38105103 217.75592102 306.76480103 218.58467102 C304.52979956 221.2028156 302.45367191 222.89739357 299.57730103 224.77217102 C298.73167603 225.34193665 297.88605103 225.91170227 297.01480103 226.49873352 C286.78867911 231.4026238 276.41226198 231.53956625 265.32730103 231.33467102 C263.88851314 231.31957884 262.44970973 231.30589855 261.01089478 231.2936554 C257.53270017 231.2610502 254.05510478 231.20952591 250.57730103 231.14717102 C250.27348511 231.92802063 249.96966919 232.70887024 249.65664673 233.51338196 C245.35864168 244.00125314 235.50538725 250.92707461 225.52651978 255.56513977 C212.07770383 260.49934112 197.58543658 260.5157718 184.47402954 254.65034485 C174.44073602 249.82115391 166.0337695 243.0680228 160.57730103 233.14717102 C160.57730103 232.48717102 160.57730103 231.82717102 160.57730103 231.14717102 C140.7320628 231.06752537 120.88738432 231.0392277 101.04200554 231.0720129 C91.82731747 231.08603944 82.6132059 231.08328062 73.39859009 231.04096985 C65.36679367 231.00413285 57.33570028 230.99882722 49.30387414 231.03134161 C45.05099376 231.04745803 40.79943193 231.04781441 36.54665756 231.01040459 C32.54211198 230.97567667 28.53984665 230.98316451 24.53536797 231.02280045 C23.06722798 231.02993409 21.59891977 231.02174498 20.13097191 230.99694633 C12.18361851 230.62179695 12.18361851 230.62179695 5.45322037 234.09544563 C3.92818819 236.38403824 2.77671307 238.67784742 1.57730103 241.14717102 C-6.3367197 250.83999817 -18.17415586 257.09225592 -30.54769897 258.45967102 C-31.28834595 258.54233215 -32.02899292 258.62499329 -32.79208374 258.7101593 C-47.64361323 260.11423413 -59.92167997 255.79379692 -71.57113647 246.73310852 C-75.95123389 242.76102018 -79.45239223 238.25784587 -82.42269897 233.14717102 C-82.42269897 232.48717102 -82.42269897 231.82717102 -82.42269897 231.14717102 C-83.41487427 231.16811829 -84.40704956 231.18906555 -85.42929077 231.21064758 C-89.17344246 231.28402697 -92.91753323 231.32931938 -96.66220093 231.36689758 C-98.27103424 231.3867934 -99.87979739 231.41392031 -101.4883728 231.44892883 C-116.77252829 231.77280623 -129.7251592 229.97893894 -141.42269897 219.14717102 C-150.59596981 208.54057662 -152.05191223 197.09378303 -152.02426147 183.62373352 C-152.03205521 182.03009096 -152.04072855 180.43645249 -152.05023193 178.84281921 C-152.06507964 175.51607243 -152.06463065 172.18975043 -152.05404663 168.86299133 C-152.04246709 164.63087327 -152.07632643 160.40050873 -152.12273598 156.16868019 C-152.1524131 152.88088575 -152.15392714 149.59350391 -152.14771652 146.30559921 C-152.14873288 144.74689131 -152.15901644 143.18815718 -152.17934036 141.62958145 C-152.3035349 130.77561931 -151.13102078 121.14638341 -143.27636719 112.89146423 C-134.46038751 105.08777018 -122.77799538 104.60713773 -111.5664978 103.41181946 C-100.53792468 102.11145159 -91.81102501 98.71844038 -84.42269897 90.14717102 C-81.51867003 85.81245985 -79.08031574 81.26897905 -76.67269897 76.64717102 C-75.98366125 75.35901643 -75.29279525 74.07183828 -74.60018921 72.78559875 C-72.85510977 69.53646791 -71.12949549 66.27746945 -69.40945435 63.01502991 C-42.19692965 11.50362436 -42.19692965 11.50362436 -14.58676147 2.09248352 C-9.61670946 0.60760378 -5.19388455 0.01970687 0 0 Z M-34.42660522 32.30732727 C-38.41587111 37.98285818 -41.59285806 44.1084025 -44.85189819 50.22236633 C-48.00934591 56.10148097 -51.25563136 61.93245221 -54.48519897 67.77217102 C-55.87092884 70.27850846 -57.25632014 72.78503263 -58.64144897 75.29170227 C-58.97270279 75.89084946 -59.3039566 76.48999664 -59.64524841 77.1072998 C-61.51427649 80.49093516 -63.36681821 83.88284611 -65.20394897 87.28388977 C-73.06032285 101.74848911 -81.53299831 110.67380485 -97.41244507 116.27705383 C-103.39492823 118.00629714 -109.54547939 118.37432451 -115.72543335 118.92451477 C-123.48804732 119.72908512 -129.77158594 120.96583538 -134.92269897 127.14717102 C-136.72084137 130.18443882 -136.72084137 130.18443882 -136.42269897 134.14717102 C-135.37815552 134.15651672 -134.33361206 134.16586243 -133.25741577 134.17549133 C-129.38246998 134.21535976 -125.50832083 134.28110843 -121.63388062 134.35469055 C-119.95690137 134.3829187 -118.27978863 134.40412412 -116.60263062 134.41816711 C-114.1916968 134.43957227 -111.78237114 134.48620528 -109.37191772 134.53779602 C-108.62181931 134.53902466 -107.87172089 134.5402533 -107.09889221 134.54151917 C-103.80255826 134.6343089 -101.90865931 134.70424645 -99.42123413 136.97138977 C-96.32916843 143.70891776 -101.20922213 153.80815013 -103.23519897 160.39717102 C-103.57873413 161.56763977 -103.92226929 162.73810852 -104.2762146 163.94404602 C-104.61974976 165.06810852 -104.96328491 166.19217102 -105.31723022 167.35029602 C-105.62507446 168.3676886 -105.9329187 169.38508118 -106.25009155 170.43330383 C-107.58497922 173.52275029 -108.72920507 175.1272713 -111.42269897 177.14717102 C-114.17172241 177.69306946 -114.17172241 177.69306946 -117.28207397 177.75654602 C-118.95463257 177.80488586 -118.95463257 177.80488586 -120.66098022 177.85420227 C-121.81984741 177.86838196 -122.9787146 177.88256165 -124.17269897 177.89717102 C-125.34703491 177.92681946 -126.52137085 177.9564679 -127.73129272 177.98701477 C-130.62849719 178.05767829 -133.52489852 178.11039368 -136.42269897 178.14717102 C-137.41739828 194.72331461 -137.41739828 194.72331461 -129.84848022 208.96748352 C-122.80192329 215.76765734 -114.44915517 216.48738865 -105.0340271 216.4108429 C-103.21548218 216.37313782 -103.21548218 216.37313782 -101.36019897 216.33467102 C-100.11303101 216.32113586 -98.86586304 216.30760071 -97.5809021 216.2936554 C-94.52770931 216.25856123 -91.47543907 216.20939369 -88.42269897 216.14717102 C-88.3840271 214.42433899 -88.3840271 214.42433899 -88.34457397 212.66670227 C-87.79876583 195.71551305 -84.36764447 181.55771866 -71.79769897 169.33467102 C-59.77903726 159.12704052 -45.80250909 156.06092883 -30.42269897 157.14717102 C-17.79795402 159.15565317 -5.31541378 165.39105154 2.47964478 175.65107727 C11.4506883 188.98436183 12.57730103 199.84392277 12.57730103 216.14717102 C59.76730103 216.14717102 106.95730103 216.14717102 155.57730103 216.14717102 C155.57730103 210.86717102 155.57730103 205.58717102 155.57730103 200.14717102 C157.88603616 187.19260164 163.41390762 175.36204775 174.08120728 167.24092102 C186.9199566 158.6208788 200.4140738 155.39257345 215.77261353 157.60810852 C229.23215414 160.59521284 240.58403363 167.93261588 248.38980103 179.33467102 C255.32252459 191.07687102 256.27876545 202.84741109 256.57730103 216.14717102 C260.38965206 216.23526303 264.20173655 216.28792592 268.01480103 216.33467102 C269.08407837 216.35980774 270.15335571 216.38494446 271.2550354 216.4108429 C279.57615063 216.4871834 287.4146891 215.76242014 293.88980103 210.02217102 C294.50468384 209.5039679 295.11956665 208.98576477 295.75308228 208.45185852 C301.12672449 201.6628887 302.14999408 195.04295236 301.82730103 186.58467102 C301.80925415 185.67137024 301.79120728 184.75806946 301.77261353 183.8170929 C301.72602804 181.59263588 301.66065588 179.37050135 301.57730103 177.14717102 C300.41714478 176.98861633 299.25698853 176.83006165 298.06167603 176.66670227 C285.21224243 174.7975935 272.45018597 172.53806761 263.57730103 162.14717102 C259.68232226 156.08326822 258.43032016 150.70216142 258.38980103 143.52217102 C258.37562134 142.3749054 258.36144165 141.22763977 258.34683228 140.04560852 C258.57730103 137.14717102 258.57730103 137.14717102 260.57730103 135.14717102 C263.37466431 134.82832336 263.37466431 134.82832336 266.89761353 134.73310852 C268.15444946 134.69443665 269.4112854 134.65576477 270.70620728 134.61592102 C272.02491821 134.58498352 273.34362915 134.55404602 274.70230103 134.52217102 C276.04217021 134.48399073 277.38201486 134.44493897 278.72183228 134.40498352 C282.00684721 134.31045072 285.2918524 134.22489946 288.57730103 134.14717102 C285.65346026 131.13132128 282.80716665 128.38074661 279.32730103 126.02217102 C278.29862915 125.30674133 278.29862915 125.30674133 277.24917603 124.57685852 C270.61043988 121.02455233 263.72277553 119.71169112 256.32730103 118.77217102 C238.52084524 116.16896909 223.60244991 108.60391892 212.57730103 94.14717102 C209.79934703 89.74032421 207.33370088 85.18199733 204.88980103 80.58467102 C204.1963311 79.30358911 203.50165037 78.02316196 202.80581665 76.74336243 C199.480394 70.61377936 196.20866292 64.4556705 192.93276978 58.29951477 C192.36453491 57.23740784 191.79630005 56.1753009 191.21084595 55.08100891 C190.16212924 53.11727082 189.1212249 51.14932921 188.09024048 49.17622375 C179.6455109 33.31446018 169.79168656 21.74475426 152.29792786 16.08647156 C145.94182946 14.55142911 139.42083044 14.8513699 132.92227173 14.85664368 C131.44466312 14.85065115 129.96705762 14.84384395 128.48945618 14.83628845 C124.49329981 14.81869217 120.49722921 14.8139357 116.50103784 14.81265688 C113.99828922 14.81123079 111.49556209 14.80695249 108.99281883 14.80166245 C100.24402875 14.7831813 91.49529943 14.77498919 82.74649048 14.77656555 C74.62013042 14.77776554 66.49403655 14.75668634 58.36774379 14.72507823 C51.36784928 14.69883179 44.36804124 14.68820179 37.36809796 14.68947637 C33.19765325 14.68998367 29.02744518 14.68443042 24.85704994 14.66312027 C20.92934382 14.6435968 17.00209661 14.6437084 13.07437325 14.65815353 C11.64303152 14.66022558 10.21165999 14.65563788 8.7803688 14.64343262 C-7.98700747 14.50985391 -23.40500989 18.97940213 -34.42660522 32.30732727 Z M-136.42269897 149.14717102 C-136.42269897 153.76717102 -136.42269897 158.38717102 -136.42269897 163.14717102 C-130.81269897 163.14717102 -125.20269897 163.14717102 -119.42269897 163.14717102 C-118.10269897 158.52717102 -116.78269897 153.90717102 -115.42269897 149.14717102 C-122.35269897 149.14717102 -129.28269897 149.14717102 -136.42269897 149.14717102 Z M273.57730103 149.14717102 C277.47731577 155.64719559 280.92942678 158.35371173 288.01870728 160.55342102 C292.48800492 161.59057101 297.00494941 161.89932392 301.57730103 162.14717102 C301.45355103 160.93029602 301.32980103 159.71342102 301.20230103 158.45967102 C301.13269165 157.77517883 301.06308228 157.09068665 300.99136353 156.38545227 C300.55493321 153.61685988 300.55493321 153.61685988 298.57730103 149.14717102 C290.32730103 149.14717102 282.07730103 149.14717102 273.57730103 149.14717102 Z M-64.09848022 182.80732727 C-71.94104098 191.35046417 -73.92276305 199.92203267 -73.70004272 211.31513977 C-73.00986925 220.85119865 -68.25755733 228.68008482 -61.31723022 235.09248352 C-53.4493204 241.56556596 -45.67341779 244.36556183 -35.42269897 244.14717102 C-25.12881449 242.68962985 -17.38274725 238.88055799 -10.42269897 231.14717102 C-9.74207397 230.40467102 -9.06144897 229.66217102 -8.36019897 228.89717102 C-2.61446864 220.74194087 -0.47433463 212.02940237 -1.42269897 202.14717102 C-3.44113496 192.38925439 -7.86306909 184.22592536 -15.98910522 178.26435852 C-32.29117929 168.20614889 -50.19384157 169.0323356 -64.09848022 182.80732727 Z M177.57730103 184.14717102 C171.55986961 191.71801544 168.89805592 200.66627981 169.23745728 210.29170227 C170.53404412 221.18601245 175.28608493 230.13749895 183.89761353 236.99482727 C192.01938005 242.30923077 201.44066125 245.17857188 211.13980103 243.71748352 C221.49005359 241.29578981 230.15523383 236.2124676 236.25698853 227.39326477 C241.34679091 218.73457729 242.83668053 210.11075756 241.57730103 200.14717102 C238.96224772 190.14489341 233.27172801 182.14683167 224.76480103 176.27217102 C208.59746309 167.07461066 190.11867862 170.88466422 177.57730103 184.14717102 Z " fill="#000000" transform="translate(173.42269897460938,115.85282897949219)"/>
<path d="M0 0 C1.37286508 -0.00389192 2.74572896 -0.00822761 4.11859131 -0.01298523 C6.98307215 -0.02041484 9.84742962 -0.02017792 12.71191406 -0.01489258 C16.38289623 -0.00907178 20.05337813 -0.02610669 23.7242775 -0.04923725 C26.55355783 -0.0639547 29.38271667 -0.06484957 32.2120285 -0.06172752 C34.22342651 -0.06248993 36.23480569 -0.07636148 38.24615479 -0.09040833 C40.07385406 -0.08106514 40.07385406 -0.08106514 41.93847656 -0.0715332 C43.01212463 -0.07216263 44.08577271 -0.07279205 45.19195557 -0.07344055 C47.859375 0.30078125 47.859375 0.30078125 49.66693115 1.6990509 C52.2726375 5.19912257 52.02718289 8.40602369 52.05224609 12.60864258 C52.06451233 13.73820122 52.06451233 13.73820122 52.07702637 14.89057922 C52.10188231 17.3879822 52.11839678 19.88532833 52.1328125 22.3828125 C52.13813618 23.23527746 52.14345985 24.08774242 52.14894485 24.96603966 C52.17567727 29.47808305 52.19505188 33.99009876 52.20947266 38.50219727 C52.22612128 43.16310204 52.27090005 47.82329983 52.3218441 52.48393726 C52.35549717 56.06732497 52.3670479 59.65054446 52.37269974 63.23407555 C52.37941759 64.9520985 52.39465364 66.67011018 52.41859055 68.38797951 C52.45020532 70.79415143 52.45028535 73.19841131 52.44287109 75.60473633 C52.45927643 76.31297546 52.47568176 77.0212146 52.49258423 77.75091553 C52.44858515 81.24338262 51.88122989 83.26561224 50.03141785 86.24234009 C45.29063238 89.31878906 41.06490925 88.99192855 35.52319336 88.93188477 C34.37796707 88.93904007 33.23274078 88.94619537 32.05281067 88.9535675 C28.26787412 88.9704743 24.48411853 88.9510396 20.69921875 88.9296875 C18.07035728 88.93051595 15.44149585 88.93297441 12.81263733 88.93699646 C7.30390826 88.94151399 1.79551913 88.92566769 -3.71313477 88.89770508 C-10.07934239 88.86563834 -16.44493755 88.86567587 -22.81118876 88.88291985 C-28.94032503 88.898789 -35.069201 88.89195257 -41.19833183 88.87498283 C-43.80468683 88.86979314 -46.41105948 88.87029232 -49.01741219 88.87652779 C-52.65660931 88.88196618 -56.29475993 88.86164736 -59.93383789 88.83422852 C-61.01498871 88.84075439 -62.09613953 88.84728027 -63.21005249 88.85400391 C-70.46556764 88.76085641 -70.46556764 88.76085641 -73.81439209 86.47851562 C-75.77826136 83.25375353 -75.57749807 81.01157662 -75.140625 77.30078125 C-73.9699707 74.31665039 -73.9699707 74.31665039 -72.31640625 71.3359375 C-71.70611572 70.21759521 -71.0958252 69.09925293 -70.46704102 67.94702148 C-69.79612203 66.75222437 -69.1248075 65.5576493 -68.453125 64.36328125 C-67.76810591 63.12191582 -67.08444752 61.87979861 -66.40209961 60.63696289 C-65.00536222 58.09597123 -63.60149047 55.55910693 -62.19335938 53.02441406 C-60.26491394 49.54160819 -58.39125164 46.03162151 -56.53125 42.51171875 C-55.96881592 41.45202881 -55.40638184 40.39233887 -54.8269043 39.30053711 C-53.7819618 37.32989905 -52.74139963 35.35692879 -51.70629883 33.38110352 C-43.61858974 18.28306019 -34.60841101 7.37354079 -18.36254883 1.25439453 C-12.40178097 -0.40837319 -6.13533361 -0.00426648 0 0 Z M-20.328125 18.92578125 C-21.08480469 19.37179688 -21.84148437 19.8178125 -22.62109375 20.27734375 C-30.26910763 26.41946962 -34.56795805 34.19366417 -39.015625 42.80078125 C-40.23314092 45.11262951 -41.45189074 47.42382836 -42.671875 49.734375 C-43.2596875 50.85312012 -43.8475 51.97186523 -44.453125 53.12451172 C-47.08927869 58.08636928 -49.8560348 62.97058771 -52.65185547 67.84375 C-54.38993072 70.41716942 -54.38993072 70.41716942 -55.140625 73.30078125 C-24.780625 73.30078125 5.579375 73.30078125 36.859375 73.30078125 C36.859375 53.83078125 36.859375 34.36078125 36.859375 14.30078125 C26.77375 14.23890625 26.77375 14.23890625 16.484375 14.17578125 C14.38271973 14.15757324 12.28106445 14.13936523 10.11572266 14.12060547 C8.41829685 14.114755 6.72086821 14.10966076 5.0234375 14.10546875 C4.1677417 14.09523682 3.3120459 14.08500488 2.43041992 14.07446289 C-5.41041693 14.07223728 -13.51837476 14.72975615 -20.328125 18.92578125 Z " fill="#000000" transform="translate(192.140625,144.69921875)"/>
<path d="M0 0 C1.20555542 -0.01268417 2.41111084 -0.02536835 3.65319824 -0.03843689 C4.9593811 -0.03550125 6.26556396 -0.03256561 7.61132812 -0.02954102 C8.97074646 -0.03410551 10.33016249 -0.03941189 11.6895752 -0.04542542 C14.54444721 -0.05436767 17.3990398 -0.05192636 20.25390625 -0.04199219 C23.88403569 -0.0305824 27.51318074 -0.05058274 31.14318085 -0.07990932 C33.95566802 -0.09842005 36.76792667 -0.09794829 39.58045959 -0.0922718 C41.56046704 -0.0920468 43.54045336 -0.10884097 45.52038574 -0.12608337 C58.12626756 -0.03000133 68.1783204 3.68203501 78.14257812 11.40405273 C85.73781435 19.1753347 90.5686761 28.14016344 95.45507812 37.71655273 C96.55811299 39.84628265 97.66512946 41.97391076 98.77243042 44.10142517 C99.5085824 45.51654312 100.24323428 46.93244248 100.97634888 48.34913635 C103.20805605 52.65254781 105.50480056 56.90854615 107.87304688 61.13842773 C108.70872192 62.63249146 108.70872192 62.63249146 109.5612793 64.15673828 C110.58325983 65.97269844 111.61286416 67.78439848 112.65161133 69.59082031 C115.20181453 74.15019165 117.24665771 78.03744925 117.14257812 83.40405273 C115.84008789 86.06602478 115.84008789 86.06602478 113.14257812 88.40405273 C109.41189141 89.16939983 105.71666558 89.07615689 101.91992188 89.03515625 C100.77484161 89.04231155 99.62976135 89.04946686 98.44998169 89.05683899 C94.65960975 89.07376694 90.87041364 89.05429758 87.08007812 89.03295898 C84.44978741 89.03378729 81.81949675 89.03624524 79.18920898 89.04026794 C73.67450383 89.04478811 68.16013794 89.02892437 62.64550781 89.00097656 C56.27193673 88.96892453 49.8989775 88.96894033 43.52536297 88.98619133 C37.39142341 89.00206134 31.25774394 88.99522279 25.12380981 88.97825432 C22.51466372 88.97306408 19.90550001 88.97356446 17.2963562 88.97979927 C13.65226094 88.98523796 10.00921065 88.96491723 6.36523438 88.9375 C4.74115158 88.94728882 4.74115158 88.94728882 3.08425903 88.95727539 C-4.05867031 88.86570681 -4.05867031 88.86570681 -7.52748108 86.86083984 C-9.37587634 83.44631668 -9.40871595 80.34868557 -9.35913086 76.56201172 C-9.36453384 75.77620728 -9.36993683 74.99040283 -9.37550354 74.18078613 C-9.3879974 71.58685489 -9.37149766 68.99403206 -9.35351562 66.40014648 C-9.35367058 64.5970097 -9.35515903 62.79387258 -9.35792542 60.99073792 C-9.35930965 57.2137274 -9.34674622 53.43709651 -9.32397461 49.66015625 C-9.29556946 44.81539777 -9.29833245 39.97126913 -9.31106472 35.12646389 C-9.31801414 31.40414536 -9.31024142 27.68197282 -9.29780769 23.95967293 C-9.29328745 22.17307151 -9.29296139 20.38645446 -9.29687309 18.59985161 C-9.29977865 16.10513963 -9.28331127 13.61130093 -9.26147461 11.11669922 C-9.26597626 10.37635941 -9.27047791 9.63601959 -9.27511597 8.87324524 C-9.23403628 6.05338716 -9.15426009 3.90514574 -7.69825745 1.44726562 C-5.06934992 -0.04255251 -3.0159732 0.01534996 0 0 Z M6.14257812 14.40405273 C6.14257812 33.87405273 6.14257812 53.34405273 6.14257812 73.40405273 C35.84257812 73.40405273 65.54257812 73.40405273 96.14257812 73.40405273 C94.67091687 68.98906896 93.30317653 65.56388443 91.13085938 61.55249023 C90.53724609 60.45291992 89.94363281 59.35334961 89.33203125 58.22045898 C88.71263672 57.08479492 88.09324219 55.94913086 87.45507812 54.77905273 C86.85501953 53.6665918 86.25496094 52.55413086 85.63671875 51.40795898 C75.08491032 29.74309741 75.08491032 29.74309741 56.14257812 16.40405273 C49.51350599 14.75790635 43.23054372 14.12292516 36.41601562 14.20874023 C35.6397583 14.21075439 34.86350098 14.21276855 34.0637207 14.21484375 C31.2149448 14.22516237 28.36625434 14.25308255 25.51757812 14.27905273 C19.12382812 14.32030273 12.73007812 14.36155273 6.14257812 14.40405273 Z " fill="#000000" transform="translate(260.857421875,144.595947265625)"/>
<path d="M0 0 C4.67691696 4.00878597 8.09107025 8.03519094 8.8828125 14.28515625 C9.26586625 21.72916739 6.96364157 26.62615824 2.0625 32.125 C-2.77237214 35.71452629 -8.95434028 36.62947097 -14.83984375 35.9765625 C-21.07013932 34.3364505 -24.8185309 30.50002581 -28.375 25.25 C-30.24295333 19.64614002 -30.11035867 13.54258879 -28.3125 7.9375 C-21.29026142 -1.80302448 -11.13384259 -5.77310357 0 0 Z M-11.375 12.25 C-12.365 12.91 -13.355 13.57 -14.375 14.25 C-14.62530977 16.83380177 -14.62530977 16.83380177 -14.375 19.25 C-12.395 20.24 -12.395 20.24 -10.375 21.25 C-9.055 20.26 -7.735 19.27 -6.375 18.25 C-6.56971111 16.30000871 -6.56971111 16.30000871 -7.375 14.25 C-9.3587767 12.96563266 -9.3587767 12.96563266 -11.375 12.25 Z " fill="#000000" transform="translate(146.375,306.75)"/>
<path d="M0 0 C3.88297792 3.26523143 7.11178062 6.39784185 8.75 11.3125 C9.25748917 17.52924229 9.5219833 23.08039413 5.75 28.3125 C1.49909676 32.97949694 -2.84176239 35.94368057 -9.25 36.3125 C-15.5401467 35.99601463 -20.3004524 34.44395685 -24.84375 30.0078125 C-28.69590384 25.36382704 -29.82824478 20.46705154 -29.59765625 14.58203125 C-28.7885767 9.30028723 -26.36181401 5.03566458 -22.4375 1.4375 C-15.2069013 -3.38289913 -7.69114714 -3.99348025 0 0 Z M-11.25 12.3125 C-12.89555699 13.54059091 -12.89555699 13.54059091 -14.25 15.3125 C-14.32642709 17.42399645 -14.32642709 17.42399645 -13.25 19.3125 C-11.2662233 20.59686734 -11.2662233 20.59686734 -9.25 21.3125 C-8.26 20.6525 -7.27 19.9925 -6.25 19.3125 C-5.99969023 16.72869823 -5.99969023 16.72869823 -6.25 14.3125 C-8.725 13.3225 -8.725 13.3225 -11.25 12.3125 Z " fill="#000000" transform="translate(389.25,306.6875)"/>
<path d="M0 0 C0.93714844 -0.02384766 1.87429688 -0.04769531 2.83984375 -0.07226562 C7.52099229 -0.06230573 9.78891288 0.02851718 13.62109375 2.90625 C15.5 5.5625 15.5 5.5625 16.0625 8.625 C15.36737704 12.25508656 14.35079259 13.26761196 11.5 15.5625 C8.99804688 16.06420898 8.99804688 16.06420898 6.21875 16.05859375 C5.21199219 16.05923828 4.20523437 16.05988281 3.16796875 16.06054688 C2.12253906 16.04056641 1.07710938 16.02058594 0 16 C-1.04542969 16.00708984 -2.09085937 16.01417969 -3.16796875 16.02148438 C-12.14311 15.9467873 -12.14311 15.9467873 -15.5 12.5625 C-16.2815534 7.09162621 -16.2815534 7.09162621 -15.5 4.5625 C-11.19139255 -0.52541898 -6.18338728 -0.07229545 0 0 Z " fill="#000000" transform="translate(267.5,242.4375)"/>
<path d="M0 0 C0.93714844 -0.02384766 1.87429687 -0.04769531 2.83984375 -0.07226562 C7.52099229 -0.06230573 9.78891288 0.02851718 13.62109375 2.90625 C15.5 5.5625 15.5 5.5625 16.0625 8.625 C15.3673384 12.25528835 14.34953671 13.26589467 11.5 15.5625 C8.99804688 16.08007812 8.99804688 16.08007812 6.21875 16.09375 C5.21199219 16.09890625 4.20523438 16.1040625 3.16796875 16.109375 C1.59982422 16.08617187 1.59982422 16.08617187 0 16.0625 C-1.04542969 16.07796875 -2.09085938 16.0934375 -3.16796875 16.109375 C-4.17472656 16.10421875 -5.18148437 16.0990625 -6.21875 16.09375 C-7.13591797 16.08923828 -8.05308594 16.08472656 -8.99804688 16.08007812 C-12.27024927 15.40315882 -13.4660597 14.16957811 -15.5 11.5625 C-16.0625 8.0625 -16.0625 8.0625 -15.5 4.5625 C-11.1408058 -0.50359056 -6.20888623 -0.07259358 0 0 Z " fill="#000000" transform="translate(132.5,242.4375)"/>
</svg>
