<?xml version="1.0" encoding="UTF-8"?>
<svg version="1.1" xmlns="http://www.w3.org/2000/svg" width="512" height="512">
<path d="M0 0 C2.0657831 -0.00599092 4.13156396 -0.01279776 6.19734192 -0.02035522 C11.78849975 -0.03796592 17.37959629 -0.04270855 22.97077918 -0.0439868 C26.47023445 -0.04541185 29.96967432 -0.04968819 33.46912575 -0.05498123 C45.695573 -0.07346585 57.92197674 -0.08165389 70.1484375 -0.08007812 C81.51598817 -0.07887746 92.88334874 -0.09996928 104.25085133 -0.13156545 C114.03465495 -0.15778328 123.81839669 -0.1684431 133.60223514 -0.16716731 C139.43489545 -0.16665926 145.26738674 -0.17225538 151.10001183 -0.19352341 C156.59046615 -0.21299846 162.08059182 -0.21296716 167.57105827 -0.19849014 C169.57563003 -0.19641235 171.58022287 -0.20104084 173.58475876 -0.21321106 C188.1952291 -0.29610623 201.55935423 0.96634166 214.7668457 7.85302734 C215.75322021 8.36119995 215.75322021 8.36119995 216.75952148 8.87963867 C234.88673564 18.65205789 247.56870188 35.13509148 253.70043945 54.66162109 C255.86355071 62.95182262 256.79215943 70.98542071 256.75537109 79.53051758 C256.75551712 80.42886826 256.75566315 81.32721893 256.7558136 82.25279236 C256.7551208 85.20159376 256.74735818 88.15033082 256.73950195 91.09912109 C256.73763552 93.15177882 256.73621268 95.204437 256.73521423 97.25709534 C256.73140677 102.64437096 256.72159167 108.03161937 256.71051025 113.41888428 C256.70025799 118.92231885 256.69570845 124.42575784 256.69067383 129.92919922 C256.67996775 140.71632051 256.66291268 151.50342166 256.6418457 162.29052734 C257.31237567 162.28591838 257.98290564 162.28130941 258.67375469 162.27656078 C274.99032106 162.16613209 291.30676905 162.08339558 307.62362194 162.03146648 C315.51435454 162.00568633 323.40483768 161.97053977 331.29541016 161.91333008 C338.1729705 161.86348889 345.05035018 161.83123494 351.9280861 161.82008487 C355.56979475 161.81356717 359.21098656 161.79825381 362.85252953 161.76187706 C366.91819545 161.72159313 370.98296329 161.72057834 375.04882812 161.72290039 C376.25579849 161.70492401 377.46276886 161.68694763 378.70631409 161.66842651 C386.80473347 161.71861285 386.80473347 161.71861285 390.88847351 164.50862122 C392.74782649 167.45867681 393.27291138 168.92146895 393.28881836 172.36865234 C393.30457916 173.35317383 393.32033997 174.33769531 393.33657837 175.35205078 C393.32139664 176.93034668 393.32139664 176.93034668 393.3059082 178.54052734 C393.31069183 179.63139648 393.31547546 180.72226563 393.32040405 181.84619141 C393.32380183 184.149266 393.31460813 186.45238889 393.29370117 188.75537109 C393.2669363 192.27860152 393.29345572 195.7986459 393.32543945 199.32177734 C393.32213534 201.5613677 393.31572907 203.80095608 393.3059082 206.04052734 C393.31602936 207.09272461 393.32615051 208.14492187 393.33657837 209.22900391 C393.32081757 210.21352539 393.30505676 211.19804687 393.28881836 212.21240234 C393.28484039 213.07446289 393.28086243 213.93652344 393.27676392 214.82470703 C392.33116943 218.49709515 390.57078537 219.92495208 387.6418457 222.29052734 C384.81834392 222.77331029 382.60436402 222.94806708 379.78947449 222.89179993 C378.61312855 222.89820811 378.61312855 222.89820811 377.41301805 222.90474576 C374.78843388 222.91297365 372.16545222 222.8854956 369.54101562 222.8581543 C367.65852903 222.85674378 365.77603968 222.85753588 363.89355469 222.86036682 C358.78426877 222.86180222 353.67556899 222.83239212 348.56641936 222.79749703 C343.22662685 222.76625436 337.88682111 222.76330443 332.54695129 222.75737 C322.43572946 222.74182544 312.32477771 222.70078856 302.21367484 222.65062255 C290.70232876 222.59474824 279.19096983 222.56724737 267.67952192 222.54214537 C244.00014166 222.48987335 220.3210202 222.40091265 196.6418457 222.29052734 C196.6418457 230.54052734 196.6418457 238.79052734 196.6418457 247.29052734 C199.02360519 247.27942429 201.40536469 247.26832123 203.85929871 247.25688171 C226.27038514 247.15479055 248.68144097 247.08033675 271.09270763 247.03146648 C282.61544658 247.00567262 294.13801502 246.97049935 305.66064453 246.91333008 C315.70246709 246.8635315 325.74416619 246.83124494 335.78610879 246.82008487 C341.10448603 246.81356014 346.42251001 246.79820039 351.74077415 246.76187706 C356.74519173 246.72797376 361.74911008 246.71746298 366.75363159 246.72498894 C368.59148686 246.72361186 370.42935858 246.71364566 372.26711464 246.69449997 C374.7751832 246.6696497 377.28136294 246.67559173 379.78947449 246.68925476 C380.88238486 246.66740845 380.88238486 246.66740845 381.99737424 246.6451208 C385.72301168 246.7000453 387.51705913 247.19783378 390.53481579 249.43947411 C392.87185661 252.60175849 393.55784015 254.65224726 394.20669556 258.50865173 C394.42654806 259.74915818 394.64640057 260.98966463 394.87291527 262.26776218 C395.09372738 263.6268079 395.31438824 264.98587819 395.53491211 266.3449707 C395.78283482 267.77777122 396.03290163 269.21020217 396.28496742 270.64227962 C396.81475421 273.66207532 397.33512271 276.68328239 397.84937286 279.70576096 C398.98164586 286.31419999 400.23492835 292.89971896 401.4769733 299.4882108 C404.42822869 315.18715906 407.26505813 330.90730819 410.08687401 346.6299448 C411.69730486 355.59547512 413.32777639 364.55639939 415.00854492 373.5090332 C421.76102202 409.53146467 427.95774174 444.93728264 427.7434082 481.69287109 C427.74084125 482.37274999 427.7382743 483.05262888 427.73562956 483.75311017 C427.71453231 488.17642314 427.63369187 492.59524102 427.51147461 497.0168457 C427.48875614 498.11223852 427.46603767 499.20763134 427.44263077 500.33621788 C427.13406154 507.49122833 427.13406154 507.49122833 424.99807739 510.95980835 C421.87823057 512.72179103 419.65500348 512.81842148 416.07250977 512.85571289 C415.4215332 512.86754105 414.77055664 512.8793692 414.09985352 512.89155579 C411.95204763 512.92439714 409.80551103 512.92739978 407.6574707 512.92724609 C406.15777066 512.93756652 404.65807557 512.9486303 403.15838623 512.96040344 C400.01439432 512.97983241 396.87084712 512.98325963 393.72680664 512.97680664 C389.71358578 512.97082372 385.70268884 513.01495868 381.68994522 513.07269573 C378.59100622 513.10982745 375.49261958 513.11458782 372.39348602 513.11042213 C370.91517493 513.11328086 369.43683921 513.12725064 367.95874786 513.15289879 C354.98884613 513.35423254 354.98884613 513.35423254 350.12231445 509.16772461 C348.9362188 507.8990895 347.77503333 506.60663666 346.6418457 505.29052734 C345.45287016 504.15468568 344.25331509 503.0298106 343.04321289 501.91650391 C339.82002088 498.81693633 336.62631204 495.68743066 333.44067383 492.54931641 C332.07469791 491.21003497 330.70161143 489.87796756 329.3215332 488.55322266 C327.30150626 486.61288308 325.30594923 484.64997748 323.3137207 482.68115234 C322.7032489 482.10367249 322.0927771 481.52619263 321.46380615 480.93121338 C316.53376041 475.97800646 314.66480141 470.89769943 312.6418457 464.29052734 C312.01503384 462.35804008 311.38819192 460.42556251 310.76078606 458.49326801 C309.55845079 454.76647324 308.38735176 451.02985587 307.2121582 447.29443359 C306.69433124 445.65407591 306.17633253 444.01377244 305.65817261 442.3735199 C304.57587367 438.94569146 303.49519364 435.51735844 302.41577148 432.08862305 C301.0512609 427.75453897 299.68339557 423.42152297 298.3144722 419.08883095 C288.84332508 389.10799544 288.84332508 389.10799544 284.8840332 376.06787109 C284.64427765 375.2868251 284.40452209 374.50577911 284.15750122 373.70106506 C283.28270219 370.78479259 282.6418457 368.35436569 282.6418457 365.29052734 C281.9818457 365.29052734 281.3218457 365.29052734 280.6418457 365.29052734 C280.40788086 366.4588208 280.17391602 367.62711426 279.93286133 368.83081055 C278.36072656 375.88491611 276.13204836 382.75092686 273.9855957 389.64599609 C273.51894444 391.15303331 273.05251867 392.66014037 272.58630371 394.16731262 C271.60680636 397.33093359 270.62476772 400.49375102 269.64086914 403.65600586 C268.65279484 406.83215378 267.66766724 410.00918639 266.68579102 413.18725586 C266.44744789 413.95856181 266.20910477 414.72986776 265.96353912 415.52454662 C265.48359402 417.07770909 265.00373048 418.63089677 264.52394867 420.18410969 C263.32552375 424.05643357 262.1164954 427.92494764 260.88659668 431.78739929 C260.39934187 433.31861106 259.91215875 434.84984565 259.42504883 436.38110352 C259.186605 437.12991382 258.94816116 437.87872412 258.70249176 438.65022564 C257.34951909 442.93414093 256.08327821 447.23069968 254.89775085 451.56383514 C249.73223486 470.38170122 242.64107388 482.0757512 228.1418457 495.10302734 C226.46534853 496.68734319 224.79344891 498.27653847 223.1262207 499.87060547 C209.91595712 512.40407832 209.91595712 512.40407832 202.23608398 512.4675293 C201.25041946 512.47738609 201.25041946 512.47738609 200.24484253 512.48744202 C198.06727996 512.50717517 195.88978632 512.51883687 193.7121582 512.52880859 C192.59707697 512.53492188 192.59707697 512.53492188 191.45946884 512.54115868 C187.52563504 512.56201842 183.59183613 512.57632112 179.65795898 512.58569336 C175.59340738 512.59676428 171.52940228 512.63117158 167.46504402 512.67086506 C164.34063696 512.69699879 161.21636084 512.70538221 158.0918541 512.70897484 C156.59351786 512.71384841 155.09518776 512.72548444 153.59695816 512.74401283 C151.4996623 512.76833972 149.40378997 512.76745238 147.30639648 512.76049805 C146.11329865 512.76636429 144.92020081 512.77223053 143.69094849 512.77827454 C139.99436866 512.18695422 138.84929947 511.26867655 136.6418457 508.29052734 C125.84608009 473.81876065 138.3690447 428.604367 144.93832743 393.86458588 C146.23679789 386.98723341 147.47891826 380.09999749 148.71852958 373.21183491 C154.86664499 339.06826626 154.86664499 339.06826626 157.6418457 325.29052734 C156.74031958 325.29329272 155.83879345 325.2960581 154.90994835 325.29890728 C132.97667527 325.36515221 111.04341942 325.41480069 89.11006737 325.44596386 C78.50327335 325.46143458 67.89654609 325.48252808 57.28979492 325.5168457 C48.04525509 325.54674171 38.80076361 325.56610085 29.55617678 325.57279283 C24.66095979 325.57670473 19.76588113 325.58590262 14.87070847 325.60771751 C10.26280275 325.62808579 5.65509231 325.63436043 1.04714584 325.62985039 C-0.64352988 325.63067543 -2.33421216 325.63663907 -4.02484894 325.64814377 C-6.33513404 325.66309345 -8.64468408 325.65947227 -10.95498657 325.65129089 C-12.89351722 325.65543896 -12.89351722 325.65543896 -14.8712101 325.65967083 C-18.68679498 325.25573597 -21.10215785 324.28848491 -24.3581543 322.29052734 C-27.13537752 317.99047449 -26.62610232 312.952396 -26.58520508 308.00219727 C-26.58549713 307.07487793 -26.58578918 306.14755859 -26.58609009 305.19213867 C-26.58469965 302.13499511 -26.56915179 299.07809695 -26.5534668 296.02099609 C-26.54973565 293.89822015 -26.54688916 291.77544247 -26.54489136 289.65266418 C-26.5372629 284.07133207 -26.51762109 278.49010439 -26.4954834 272.90881348 C-26.47500806 267.21119601 -26.46588602 261.51356164 -26.45581055 255.81591797 C-26.43437453 244.64074193 -26.40024801 233.46564333 -26.3581543 222.29052734 C-27.02356735 222.29940979 -27.68898041 222.30829224 -28.3745575 222.31744385 C-35.30121265 222.40594924 -42.22770714 222.46627525 -49.15478516 222.51025391 C-51.73981247 222.53036706 -54.32479429 222.55766121 -56.90966797 222.59228516 C-60.62568385 222.64081388 -64.34109807 222.6634997 -68.05737305 222.68115234 C-69.2127507 222.70179749 -70.36812836 222.72244263 -71.55851746 222.74371338 C-72.63926041 222.7440155 -73.72000336 222.74431763 -74.83349609 222.74462891 C-75.78169724 222.75351135 -76.72989838 222.7623938 -77.70683289 222.77154541 C-81.26133875 222.1266664 -82.80394822 220.82616635 -85.3581543 218.29052734 C-85.98456669 215.45357132 -85.98456669 215.45357132 -85.98634338 212.10870361 C-85.99899734 210.83896194 -86.01165131 209.56922028 -86.02468872 208.26100159 C-86.01337189 206.85580038 -86.00154438 205.45060322 -85.98925781 204.04541016 C-85.99439707 202.56340173 -86.0016784 201.08139941 -86.01094055 199.59941101 C-86.02948182 195.57161315 -86.0164915 191.54447603 -85.99685025 187.51670551 C-85.98044799 183.28942933 -85.98928054 179.06219453 -85.99436951 174.8348999 C-85.99889466 167.72283419 -85.98300936 160.61103104 -85.95507812 153.49902344 C-85.92317195 145.31255769 -85.92298294 137.12656937 -85.94029289 128.94007039 C-85.95625575 121.03887235 -85.94935264 113.13784688 -85.93235588 105.23665619 C-85.92553766 101.88936434 -85.92646392 98.54221301 -85.93390083 95.1949234 C-85.94166041 91.23190796 -85.92912872 87.26942306 -85.90205193 83.30649757 C-85.89526123 81.86515437 -85.8949676 80.42376069 -85.90226746 78.98241997 C-85.99327793 58.64106424 -80.16081036 40.54609457 -66.3581543 25.29052734 C-65.69299805 24.53255859 -65.0278418 23.77458984 -64.3425293 22.99365234 C-46.73915011 4.08631915 -24.71477904 -0.01431181 0 0 Z M-22.22511292 19.10328674 C-37.86895283 22.79111415 -50.55270295 32.98100882 -59.3581543 46.29052734 C-66.02385273 57.46056695 -67.81054262 68.24533573 -67.69873047 81.11547852 C-67.69788216 82.46683737 -67.69836331 83.8181976 -67.70005798 85.16955566 C-67.70091141 88.80321014 -67.68339281 92.43656166 -67.66233611 96.07014632 C-67.64345923 99.88043247 -67.64181026 103.69072716 -67.63825989 107.50105286 C-67.62897152 114.70081896 -67.60440169 121.90044682 -67.57421142 129.10015231 C-67.54056691 137.30337565 -67.52415625 145.50660592 -67.50912511 153.70988119 C-67.47784885 170.57019003 -67.42287746 187.43030868 -67.3581543 204.29052734 C-53.8281543 204.29052734 -40.2981543 204.29052734 -26.3581543 204.29052734 C-26.3581543 170.63052734 -26.3581543 136.97052734 -26.3581543 102.29052734 C-20.4181543 102.29052734 -14.4781543 102.29052734 -8.3581543 102.29052734 C-8.3581543 169.94052734 -8.3581543 237.59052734 -8.3581543 307.29052734 C47.7418457 307.29052734 103.8418457 307.29052734 161.6418457 307.29052734 C164.6118457 290.13052734 167.5818457 272.97052734 170.6418457 255.29052734 C173.6418457 249.29052734 173.6418457 249.29052734 178.6418457 247.29052734 C178.6418457 239.04052734 178.6418457 230.79052734 178.6418457 222.29052734 C176.6618457 221.30052734 174.6818457 220.31052734 172.6418457 219.29052734 C170.99419091 217.64287255 171.48933278 215.72117328 171.46484375 213.45117188 C171.4455909 211.90419113 171.4455909 211.90419113 171.4259491 210.32595825 C171.41856216 209.20309418 171.41117523 208.0802301 171.40356445 206.92333984 C171.39549271 205.77767548 171.38742096 204.63201111 171.37910461 203.45162964 C171.36524509 201.02213056 171.35453134 198.59261186 171.34667969 196.16308594 C171.32945088 192.43826647 171.28557822 188.71433049 171.24145508 184.98974609 C171.23133028 182.6342839 171.22281352 180.27881413 171.21606445 177.92333984 C171.19855637 176.80452423 171.18104828 175.68570862 171.16300964 174.5329895 C171.16739799 172.97655228 171.16739799 172.97655228 171.171875 171.38867188 C171.16600876 170.4745755 171.16014252 169.56047913 171.15409851 168.61868286 C171.6418457 166.29052734 171.6418457 166.29052734 173.48371887 164.53439331 C175.6418457 163.29052734 175.6418457 163.29052734 178.6418457 162.29052734 C178.6418457 142.49052734 178.6418457 122.69052734 178.6418457 102.29052734 C184.5818457 102.29052734 190.5218457 102.29052734 196.6418457 102.29052734 C196.6418457 122.09052734 196.6418457 141.89052734 196.6418457 162.29052734 C210.5018457 162.29052734 224.3618457 162.29052734 238.6418457 162.29052734 C238.75842945 146.50735239 238.75842945 146.50735239 238.8371582 130.72412109 C238.86095424 124.27492909 238.88892685 117.82596692 238.94360352 111.37695312 C238.98746437 106.17031863 239.01106671 100.96393103 239.02135468 95.75712585 C239.02867453 93.78305685 239.04296555 91.80899943 239.06476593 89.83503723 C239.27847894 69.65852514 236.56981575 50.69816839 221.98950195 35.41552734 C212.34348261 26.68435509 201.52312361 20.73644064 188.6418457 18.29052734 C187.62136642 18.05101349 186.60088715 17.81149963 185.54948425 17.56472778 C180.26059034 16.8827622 176.06837618 16.77256988 171.4242897 19.67775726 C165.20565092 24.59369825 159.83572967 30.42997757 154.38012695 36.15771484 C152.57614797 37.99478814 150.76864832 39.8284102 148.95780945 41.65872192 C144.69913278 45.97879843 140.47478726 50.32985204 136.26635474 54.69881642 C130.08300444 61.11429245 123.83923556 67.47055656 117.59911633 73.83073616 C113.12295291 78.39446359 108.65548195 82.96569845 104.21247864 87.56173706 C103.39577698 88.40320282 102.57907532 89.24466858 101.73762512 90.1116333 C100.21307506 91.68292904 98.69251286 93.25810781 97.17672729 94.83786011 C96.5029454 95.53057007 95.82916351 96.22328003 95.13496399 96.9369812 C94.55343724 97.53983381 93.9719105 98.14268642 93.37276173 98.7638073 C90.39930168 101.38648858 88.37573182 102.27641415 84.3918457 102.35302734 C76.44303664 100.10086478 70.59875582 92.35411762 64.99511719 86.51928711 C63.50798897 84.98258066 62.02054275 83.44618191 60.53282166 81.91004944 C59.75625654 81.10665697 58.97969143 80.3032645 58.17959404 79.47552681 C53.15444772 74.29039574 48.09125034 69.14234876 43.03446865 63.9880991 C38.60522988 59.46922539 34.19064252 54.93763426 29.8046875 50.37670898 C25.54248213 45.94599509 21.24419979 41.55332381 16.91932869 37.18379021 C15.28528138 35.51965007 13.66458356 33.84228622 12.0581646 32.15146065 C3.63600236 22.51459008 3.63600236 22.51459008 -7.54293823 17.22848511 C-12.69785826 17.14644468 -17.20246402 18.04762375 -22.22511292 19.10328674 Z M22.6418457 18.29052734 C28.44323263 25.39564741 34.98574247 31.76071354 41.4777832 38.22412109 C42.7249608 39.4694308 43.97191571 40.71496356 45.21865845 41.96070862 C48.48132675 45.219581 51.74698821 48.47543752 55.01330566 51.73065186 C58.35355632 55.06062513 61.69093501 58.39347407 65.02856445 61.72607422 C71.56353463 68.25035874 78.10167401 74.7714573 84.6418457 81.29052734 C91.73700017 75.49148545 98.11003191 68.96750903 104.57543945 62.48974609 C105.82082267 61.24503726 107.06635424 60.00047683 108.31202698 58.75605774 C110.9082127 56.16133939 113.50259801 53.56483794 116.09570312 50.96704102 C119.42703093 47.62998066 122.76287627 44.29747777 126.10005093 40.96626568 C128.66593173 38.40398608 131.22944138 35.83934492 133.79222298 33.27396584 C135.02234471 32.04317545 136.25321403 30.81313179 137.48483086 29.58383751 C139.1964124 27.87477908 140.9047838 26.16257699 142.61230469 24.44946289 C143.12494873 23.93884308 143.63759277 23.42822327 144.16577148 22.90213013 C146.58324591 20.93494892 146.58324591 20.93494892 147.6418457 18.29052734 C139.55066259 16.08284502 130.52694441 14.77789949 122.6418457 18.29052734 C112.48398394 25.01136636 104.17144391 35.15807838 96.2960968 44.33796692 C91.01001639 50.40569277 91.01001639 50.40569277 86.6418457 51.29052734 C83.4647359 51.36580288 81.52104259 51.03562413 79.06140137 48.95114136 C77.29088816 47.08693068 75.62818752 45.15759409 73.9699707 43.19287109 C72.66883718 41.73085263 71.36265744 40.27331266 70.05200195 38.81982422 C69.37282715 38.06564209 68.69365234 37.31145996 67.99389648 36.53442383 C56.43821983 23.04857304 56.43821983 23.04857304 40.7512207 16.16943359 C34.57071076 15.9546141 28.60978012 16.6775721 22.6418457 18.29052734 Z M73.6418457 18.29052734 C77.69684563 23.02136059 80.89080879 26.55756977 85.6418457 30.29052734 C87.47820148 28.48100144 89.31100778 26.66812096 91.1418457 24.85302734 C91.66649414 24.33675781 92.19114258 23.82048828 92.73168945 23.28857422 C94.05409122 21.97475947 95.35020138 20.63459229 96.6418457 19.29052734 C96.6418457 18.96052734 96.6418457 18.63052734 96.6418457 18.29052734 C89.0518457 18.29052734 81.4618457 18.29052734 73.6418457 18.29052734 Z M188.6418457 180.29052734 C188.6418457 188.21052734 188.6418457 196.13052734 188.6418457 204.29052734 C207.7818457 204.29052734 226.9218457 204.29052734 246.6418457 204.29052734 C246.6418457 196.37052734 246.6418457 188.45052734 246.6418457 180.29052734 C227.5018457 180.29052734 208.3618457 180.29052734 188.6418457 180.29052734 Z M264.6418457 180.29052734 C264.6418457 188.21052734 264.6418457 196.13052734 264.6418457 204.29052734 C275.8618457 204.29052734 287.0818457 204.29052734 298.6418457 204.29052734 C298.6418457 196.37052734 298.6418457 188.45052734 298.6418457 180.29052734 C287.4218457 180.29052734 276.2018457 180.29052734 264.6418457 180.29052734 Z M316.6418457 180.29052734 C316.6418457 188.21052734 316.6418457 196.13052734 316.6418457 204.29052734 C335.7818457 204.29052734 354.9218457 204.29052734 374.6418457 204.29052734 C374.6418457 196.37052734 374.6418457 188.45052734 374.6418457 180.29052734 C355.5018457 180.29052734 336.3618457 180.29052734 316.6418457 180.29052734 Z M186.6418457 265.29052734 C184.0018457 279.81052734 181.3618457 294.33052734 178.6418457 309.29052734 C177.05629883 317.98432739 177.05629883 317.98432739 175.4387207 326.85375977 C172.9981972 340.26589659 170.58969355 353.6834625 168.20600891 367.10581493 C166.78464616 375.10455137 165.34972969 383.10041212 163.88354492 391.09106445 C154.33528382 442.31112073 154.33528382 442.31112073 153.6418457 494.29052734 C184.36831221 498.41982277 184.36831221 498.41982277 212.72106934 488.70706177 C236.27069421 469.81884859 242.32151772 435.25763226 249.75939941 407.54064941 C253.73234177 392.7442519 258.16822233 378.11182568 262.76346397 363.49795914 C264.08996919 359.27883999 265.39662645 355.05440472 266.68284225 350.82282925 C267.28575576 348.84344942 267.89428908 346.86590189 268.50524902 344.88899231 C269.24598593 342.49156275 269.97839806 340.09153855 270.70080566 337.68852234 C271.03084595 336.63397354 271.36088623 335.57942474 271.70092773 334.49291992 C271.98098663 333.57899979 272.26104553 332.66507965 272.54959106 331.72346497 C273.81766965 328.89888909 275.29740101 327.29162696 277.6418457 325.29052734 C279.6418457 324.72412109 279.6418457 324.72412109 281.6418457 324.72802734 C282.3018457 324.70611328 282.9618457 324.68419922 283.6418457 324.66162109 C286.74955811 325.63885097 287.7921861 327.66245502 289.6418457 330.29052734 C290.91287231 333.38676453 290.91287231 333.38676453 292.01342773 336.91430664 C292.21960913 337.56432711 292.42579052 338.21434757 292.63821983 338.88406563 C293.31943205 341.04108561 293.98469208 343.20266758 294.6496582 345.36474609 C295.13115689 346.90373402 295.6135588 348.44243962 296.09680176 349.98088074 C297.12631192 353.26463318 298.14903541 356.55040406 299.1675415 359.83758545 C300.50338175 364.14244677 301.86059158 368.44020192 303.22585106 372.73581314 C308.33563612 388.81336714 313.38299913 404.87790208 317.65504265 421.20106316 C327.71406051 461.13401654 327.71406051 461.13401654 354.55978394 491.03552246 C367.59728135 498.40931198 383.92043843 496.51597824 398.27131653 495.21722412 C399.27082289 495.12857527 400.27032926 495.03992641 401.30012369 494.94859123 C403.74754986 494.73123521 406.19477381 494.51183023 408.6418457 494.29052734 C409.53700423 464.72146064 407.83898308 436.91523155 402.4149754 407.84768558 C401.52008458 403.0027661 400.67194778 398.14962443 399.81785583 393.29737854 C398.20729796 384.18647029 396.55732606 375.08321045 394.89152712 365.98225886 C392.99460364 355.60687448 391.14465649 345.22327118 389.29758561 334.83891571 C386.42771532 318.71001352 383.53363991 302.58564091 380.60107422 286.46801758 C380.45541708 285.66687027 380.30975994 284.86572296 380.15968895 284.04029846 C379.75338404 281.80669898 379.34636485 279.57323125 378.9389801 277.33982849 C378.71129724 276.0915499 378.48361437 274.84327131 378.24903202 273.5571661 C377.73604137 270.79729635 377.19237134 268.04315554 376.6418457 265.29052734 C313.9418457 265.29052734 251.2418457 265.29052734 186.6418457 265.29052734 Z " fill="#000000" transform="translate(85.358154296875,-0.29052734375)"/>
<path d="M0 0 C1.13280899 -0.00997513 2.26561798 -0.01995026 3.43275452 -0.03022766 C4.67646317 -0.03089233 5.92017181 -0.03155701 7.2015686 -0.03224182 C8.51070724 -0.04056534 9.81984589 -0.04888885 11.1686554 -0.0574646 C14.76168262 -0.07942161 18.35462473 -0.08821008 21.94771147 -0.09329104 C24.19257461 -0.09693321 26.43741542 -0.10317253 28.68227005 -0.11029243 C36.51407095 -0.13479113 44.34580557 -0.14783972 52.17764282 -0.15138245 C59.47763535 -0.15501807 66.77720752 -0.18491383 74.07707155 -0.22678703 C80.3446889 -0.26147853 86.61216687 -0.27693068 92.87987959 -0.27762848 C96.62321414 -0.2784217 100.36612058 -0.28718011 104.10935593 -0.31562614 C108.28492656 -0.34664777 112.45949539 -0.33775281 116.63516235 -0.32521057 C117.87482254 -0.34004486 119.11448273 -0.35487915 120.39170837 -0.37016296 C121.53015701 -0.36039932 122.66860565 -0.35063568 123.84155273 -0.34057617 C125.32209924 -0.34359316 125.32209924 -0.34359316 126.83255577 -0.3466711 C130.70008992 0.53763249 132.1723117 2.14133898 134.54776001 5.27415466 C135.17696571 8.38982391 135.17696571 8.38982391 135.18267822 11.95396423 C135.19047818 12.61216046 135.19827813 13.27035668 135.20631444 13.94849825 C135.22620668 16.14681805 135.21048346 18.34340118 135.19473267 20.54173279 C135.20151012 22.12055469 135.21041398 23.69936869 135.22128296 25.27816772 C135.24406802 29.56132596 135.23524349 33.8438817 135.21938753 38.1270504 C135.20672433 42.61038709 135.21846981 47.09367238 135.22631836 51.57701111 C135.23541371 59.10587318 135.22343007 66.63448999 135.19961548 74.16331482 C135.17240433 82.86641804 135.18121858 91.5689356 135.20874751 100.27202463 C135.23144089 107.74565343 135.23463757 115.21910596 135.22155416 122.69275808 C135.21376087 127.15586541 135.21271459 131.61869749 135.2292366 136.08178711 C135.24368556 140.27795372 135.23365256 144.47336564 135.20476532 148.66945076 C135.19815668 150.20894683 135.20004851 151.74850648 135.21107864 153.28797722 C135.22475652 155.39095561 135.20759774 157.49152035 135.18267822 159.59434509 C135.18079309 160.7705114 135.17890797 161.9466777 135.17696571 163.15848541 C134.32891099 167.35784028 133.01612926 168.78904214 129.54776001 171.27415466 C126.67569218 171.76503168 124.39834824 171.94785302 121.53248596 171.90234375 C120.73065984 171.90943814 119.92883371 171.91653252 119.10270983 171.92384189 C116.41845827 171.94143098 113.73565299 171.92331327 111.05142212 171.90525818 C109.12615804 171.91039662 107.20089867 171.91767733 105.27565002 171.92694092 C100.04839467 171.94547139 94.82164869 171.93250632 89.59441447 171.91285062 C84.12699831 171.89647885 78.65961479 171.90527485 73.19218445 171.91036987 C64.01139171 171.91489209 54.83080264 171.89901204 45.65005493 171.87107849 C35.03046046 171.83901656 24.41123314 171.83904565 13.79161257 171.85629326 C3.58111137 171.87214662 -6.62925501 171.86543306 -16.83975029 171.84835625 C-21.18778502 171.84147728 -25.53571195 171.84252685 -29.88374519 171.8499012 C-35.00152465 171.8575519 -40.11888527 171.8454776 -45.23659325 171.81805229 C-47.11675905 171.81115497 -48.99696387 171.81108486 -50.8771286 171.81826782 C-53.43987254 171.8269317 -56.00131473 171.81105953 -58.56394958 171.78881836 C-59.31151349 171.79705913 -60.05907739 171.80529989 -60.82929474 171.81379038 C-64.23907872 171.75900738 -66.13506987 171.50817969 -68.91191769 169.45927334 C-71.1237527 166.32153913 -71.04462416 163.35368553 -71.01864624 159.64915466 C-71.02484482 158.90641296 -71.0310434 158.16367126 -71.03742981 157.39842224 C-71.0445256 155.82494919 -71.04135799 154.25140103 -71.02865601 152.67796326 C-71.01494064 150.30881484 -71.04867143 147.94374139 -71.08700562 145.57493591 C-71.15527118 132.45879893 -68.45829333 122.10630709 -58.99911499 112.46165466 C-50.88818288 105.49520991 -41.79705026 103.36207057 -31.48226929 101.74143982 C-25.02959008 100.6726338 -20.74270172 98.7554882 -16.20223999 93.83665466 C-12.77492168 88.81808142 -12.15956674 84.51880501 -12.18099976 78.53392029 C-12.17315964 77.38907417 -12.17315964 77.38907417 -12.16516113 76.22109985 C-12.15494898 74.57003832 -12.1491456 72.91894484 -12.14727974 71.26785278 C-12.14360796 68.6531428 -12.12686024 66.03880933 -12.10652161 63.42417908 C-12.05118 55.99256895 -12.02040524 48.56090431 -11.99594116 41.12913513 C-11.98005865 36.57802942 -11.94983615 32.02719297 -11.91117668 27.47622681 C-11.89953668 25.74433247 -11.89359642 24.01238999 -11.89349556 22.28045654 C-11.8933033 19.85814812 -11.87502355 17.43658203 -11.85287476 15.01438904 C-11.85745193 14.3015123 -11.86202911 13.58863556 -11.866745 12.85415649 C-11.80341648 8.4932481 -11.13839798 5.73390426 -8.45223999 2.27415466 C-5.08146675 0.0269725 -3.94593828 0.01860594 0 0 Z M6.54776001 18.27415466 C6.53358032 23.33243591 6.51940063 28.39071716 6.50479126 33.60227966 C6.48470691 36.82891012 6.46316397 40.05540157 6.43643188 43.28196716 C6.39424524 48.39042002 6.35712641 53.49852003 6.35220337 58.60716248 C6.34788848 62.73129681 6.31916552 66.85463757 6.27432823 70.97852325 C6.26145417 72.54273078 6.25700928 74.10703378 6.26160622 75.67128754 C6.29023314 88.38395336 4.34417082 98.92707134 -4.60848999 108.55540466 C-13.63236417 116.96749076 -23.03656471 119.42054526 -35.08895874 120.76243591 C-40.8443182 121.63810617 -44.38035912 123.88207255 -48.26473999 128.21165466 C-54.40857436 136.81302279 -52.45223999 141.11063559 -52.45223999 153.27415466 C-38.92223999 153.27415466 -25.39223999 153.27415466 -11.45223999 153.27415466 C-10.95582858 146.44056228 -10.95582858 146.44056228 -10.4961853 139.60447693 C-9.62430602 128.94368152 -5.64929943 119.97535008 2.29776001 112.64915466 C10.02046241 106.19457129 17.61677601 104.29258496 27.41885376 102.85227966 C34.77895653 101.69383744 39.04128884 99.89455634 44.29776001 94.39915466 C48.01586351 89.23512202 48.79854209 84.73140681 48.77481079 78.44261169 C48.77510284 77.78824631 48.7753949 77.13388092 48.7756958 76.45968628 C48.77431289 74.3169739 48.75880148 72.17461809 48.74307251 70.03196716 C48.73933867 68.53838796 48.73649345 67.04480629 48.73449707 65.55122375 C48.72688979 61.63525028 48.70726654 57.71942702 48.68508911 53.80351257 C48.66095478 49.09696049 48.65183585 44.39035795 48.6401825 39.6837616 C48.6208402 32.54712173 48.58249766 25.41081096 48.54776001 18.27415466 C34.68776001 18.27415466 20.82776001 18.27415466 6.54776001 18.27415466 Z M66.54776001 18.27415466 C66.5103772 23.12747498 66.47299438 27.98079529 66.43447876 32.98118591 C66.40416437 36.07562089 66.37299399 39.17000075 66.33877563 42.26438904 C66.2846714 47.16434274 66.23355422 52.06418743 66.20132446 56.96434021 C66.17510884 60.91974325 66.13458127 64.8747753 66.08457375 68.82994652 C66.06802736 70.33078546 66.05643761 71.83168839 66.0501461 73.33260536 C65.98809628 86.7879773 64.67204168 97.8717635 55.54776001 108.27415466 C46.79083317 116.89890148 36.77300755 119.47022418 24.80947876 120.68431091 C17.2058936 122.05933051 12.87920862 126.17126929 8.54776001 132.27415466 C5.3371079 139.25383316 6.54776001 145.10518864 6.54776001 153.27415466 C26.34776001 153.27415466 46.14776001 153.27415466 66.54776001 153.27415466 C68.52776001 147.33415466 70.50776001 141.39415466 72.54776001 135.27415466 C74.84038174 131.54864434 76.80314297 128.54006053 79.54776001 125.27415466 C80.25352173 124.33056091 80.25352173 124.33056091 80.97354126 123.36790466 C89.81694509 112.00849017 103.24511871 107.26494705 116.54776001 103.27415466 C116.54776001 75.22415466 116.54776001 47.17415466 116.54776001 18.27415466 C100.04776001 18.27415466 83.54776001 18.27415466 66.54776001 18.27415466 Z M94.81338501 133.80931091 C89.32352215 139.7819031 86.77341576 145.48435955 84.54776001 153.27415466 C95.10776001 153.27415466 105.66776001 153.27415466 116.54776001 153.27415466 C116.54776001 143.04415466 116.54776001 132.81415466 116.54776001 122.27415466 C107.83299614 122.27415466 100.92221683 128.03665694 94.81338501 133.80931091 Z " fill="#000000" transform="translate(70.45223999023438,340.72584533691406)"/>
<path d="M0 0 C5.94 0 11.88 0 18 0 C18 5.94 18 11.88 18 18 C12.06 18 6.12 18 0 18 C0 12.06 0 6.12 0 0 Z " fill="#000000" transform="translate(162,273)"/>
<path d="M0 0 C5.94 0 11.88 0 18 0 C18 5.94 18 11.88 18 18 C12.06 18 6.12 18 0 18 C0 12.06 0 6.12 0 0 Z " fill="#000000" transform="translate(128,273)"/>
<path d="M0 0 C5.94 0 11.88 0 18 0 C18 5.94 18 11.88 18 18 C12.06 18 6.12 18 0 18 C0 12.06 0 6.12 0 0 Z " fill="#000000" transform="translate(93,273)"/>
</svg>
