<?xml version="1.0" encoding="UTF-8"?>
<svg version="1.1" xmlns="http://www.w3.org/2000/svg" width="512" height="512">
<path d="M0 0 C0.65464233 1.73842163 0.65464233 1.73842163 1.32250977 3.51196289 C14.34606741 38.08607931 27.46215036 72.62340078 41 107 C43.05362827 103.9195576 43.99768115 101.24230107 45.1875 97.75 C47.73887946 90.99900479 50.75512666 86.09065309 57.34765625 82.84375 C63.16025858 80.99467474 69.62316348 81.20772116 75.375 83.125 C81.50683393 87.50488138 84.06732419 90.64101628 86.68359375 97.7265625 C87.33992798 99.48734131 87.33992798 99.48734131 88.00952148 101.28369141 C88.33637939 102.18007324 88.6632373 103.07645508 89 104 C88.87318848 103.28424805 88.74637695 102.56849609 88.61572266 101.83105469 C85.18309492 77.82121526 93.90882836 59.15932585 104.5625 38.3125 C105.07490612 37.30131355 105.07490612 37.30131355 105.59766388 36.2696991 C107.91731932 31.69318605 110.28730615 27.14592675 112.69140625 22.61328125 C113.60925148 20.86042564 113.60925148 20.86042564 114.54563904 19.07215881 C118.50052061 11.83394156 122.81253787 4.72915404 131 2 C133.26763574 1.85351918 135.54032366 1.7790374 137.8125 1.75 C139.01519531 1.72421875 140.21789062 1.6984375 141.45703125 1.671875 C148.09836396 2.28694881 151.26560316 5.07975881 155.33778381 9.96005249 C155.88631516 10.63323517 156.4348465 11.30641785 157 12 C157.81705666 12.9990184 157.81705666 12.9990184 158.65061951 14.01821899 C187.89326646 50.86697519 188.58106208 90.70506775 187.8125 135.625 C187.80044368 136.34142276 187.78838736 137.05784553 187.77596569 137.79597807 C187.45268511 156.54173127 186.82390125 175.26924973 186 194 C196.56 194 207.12 194 218 194 C217.95286865 188.45191528 217.95286865 188.45191528 217.90478516 182.79174805 C217.80522031 170.55031447 217.73872702 158.30888677 217.68912697 146.06715679 C217.65826135 138.6473436 217.61622221 131.22791552 217.54736328 123.80834961 C217.48733572 117.33725025 217.44879788 110.86642995 217.43546903 104.39505988 C217.42768421 100.97212991 217.40954527 97.54999785 217.36561966 94.12732506 C217.32185307 90.29493925 217.31607488 86.46418863 217.31884766 82.6315918 C217.297276 81.51164825 217.27570435 80.39170471 217.253479 79.23782349 C217.3441489 67.6020198 222.82714326 59.53806037 230.6484375 51.28515625 C237.02956477 45.08422692 243.77786388 40.43217609 252 37 C252.76054687 36.67902344 253.52109375 36.35804687 254.3046875 36.02734375 C267.81672425 31.38662825 284.98043592 32.39100092 298 38 C298.85207031 38.32742187 299.70414062 38.65484375 300.58203125 38.9921875 C313.76406525 44.68018328 324.26953034 57.08741378 330 70 C330.39872742 73.037323 330.39872742 73.037323 330.43237305 76.28076172 C330.45216721 77.5015744 330.47196136 78.72238708 330.49235535 79.98019409 C330.50194023 81.93519333 330.50194023 81.93519333 330.51171875 83.9296875 C330.52858055 85.28876351 330.5467328 86.64782407 330.56611633 88.00686646 C330.61346024 91.56761851 330.64336991 95.1283079 330.66955566 98.68927002 C330.69944054 102.32943087 330.74594342 105.96937612 330.79101562 109.609375 C330.8768706 116.73945961 330.94429458 123.86961089 331 131 C331.93344238 130.37383789 332.86688477 129.74767578 333.82861328 129.10253906 C342.11716161 123.55314468 350.45679583 118.10127049 358.875 112.75 C360.97709882 111.41230075 363.07867077 110.07377316 365.1796875 108.734375 C366.16549805 108.10595703 367.15130859 107.47753906 368.16699219 106.83007812 C371.53695483 104.65313569 374.85910329 102.41120198 378.16455078 100.13769531 C383.49930138 96.83097307 389.96374429 97.61200829 396 98 C401.83688936 99.7294487 405.47981041 104.19004397 409 109 C412.95007216 120.85021649 408.51012256 131.82491605 404.125 142.75 C403.52714734 144.28487214 402.93130622 145.8205292 402.33740234 147.35693359 C401.1419662 150.4418557 399.93450306 153.52166589 398.71875 156.59863281 C397.13526115 160.62523757 395.63455911 164.67577545 394.15625 168.7421875 C393.72554199 169.91297852 393.29483398 171.08376953 392.85107422 172.29003906 C392.06179488 174.436904 391.2814421 176.58708273 390.51220703 178.74121094 C387.99368096 185.44458891 384.70621309 190.60540041 380 196 C380.76183594 196.40089844 381.52367187 196.80179688 382.30859375 197.21484375 C395.90057299 204.69806827 404.94042435 214.27050814 409.35166943 229.27151322 C410.34770371 233.46330439 410.41803114 237.48590355 410.38768005 241.77755737 C410.39575836 243.17424847 410.39575836 243.17424847 410.40399987 244.59915555 C410.41820402 247.69107895 410.41119439 250.78256966 410.40405273 253.87451172 C410.40976026 256.10279685 410.41672599 258.33107906 410.42485046 260.55935669 C410.44275509 266.59247804 410.44161845 272.62545374 410.43590808 278.65859365 C410.4328122 283.70319126 410.43891317 288.74776106 410.44494683 293.7923547 C410.45978324 306.37723188 410.45618608 318.96202159 410.44408352 331.54689218 C410.43415451 342.45371161 410.44708981 353.36036131 410.47101771 364.26715456 C410.49545356 375.49082679 410.50460659 386.71442218 410.49836498 397.93812764 C410.49500024 404.22954557 410.49737855 410.52082331 410.51461601 416.81222153 C410.53012372 422.73029709 410.52608687 428.64804954 410.50731087 434.56611252 C410.50363555 436.73158203 410.50670242 438.89707569 410.51719666 441.06252289 C410.59783329 459.08472252 408.35792598 472.09343237 395.6875 485.75 C383.76904032 497.02997077 370.57932916 498.44915296 354.93338013 498.38768005 C353.20088223 498.39185701 351.46838707 498.39733652 349.73589694 498.40399987 C344.99294193 498.41842565 340.2501611 498.41421871 335.50719666 498.40683305 C330.38506083 498.40209659 325.26296241 498.41461548 320.14083862 498.42485046 C310.11305709 498.44203443 300.08533823 498.4428793 290.0575458 498.43763756 C281.90570639 498.43359386 273.75388549 498.4350418 265.60204697 498.44038582 C263.86079875 498.44150845 263.86079875 498.44150845 262.08437379 498.44265376 C259.72603791 498.44418526 257.36770202 498.44572361 255.00936614 498.44726873 C232.90018661 498.46099233 210.79104249 498.45555707 188.68186377 498.44408352 C168.46327634 498.43415141 148.24478042 498.4470917 128.0262071 498.47101771 C107.25619513 498.49541074 86.48622577 498.50501606 65.71619976 498.49836498 C54.05923798 498.49487321 42.40234659 498.49710212 30.74539566 498.51461601 C20.82208043 498.52934051 10.89888513 498.52997012 0.97557224 498.5125451 C-4.08517491 498.50403483 -9.14570782 498.50188635 -14.20644379 498.51719666 C-18.84397272 498.53105269 -23.48110405 498.52626873 -28.11861004 498.50695742 C-29.79145992 498.50319993 -31.46434173 498.50611211 -33.13716315 498.51656907 C-49.49921892 498.61153371 -61.55922442 494.99797888 -73.75 483.6875 C-82.68049658 474.25150362 -86.47833499 463.04108056 -86.38768005 450.22244263 C-86.39575836 448.82575153 -86.39575836 448.82575153 -86.40399987 447.40084445 C-86.41820402 444.30892105 -86.41119439 441.21743034 -86.40405273 438.12548828 C-86.40976026 435.89720315 -86.41672599 433.66892094 -86.42485046 431.44064331 C-86.44275509 425.40752196 -86.44161845 419.37454626 -86.43590808 413.34140635 C-86.4328122 408.29680874 -86.43891317 403.25223894 -86.44494683 398.2076453 C-86.45978324 385.62276812 -86.45618608 373.03797841 -86.44408352 360.45310782 C-86.43415451 349.54628839 -86.44708981 338.63963869 -86.47101771 327.73284544 C-86.49545356 316.50917321 -86.50460659 305.28557782 -86.49836498 294.06187236 C-86.49500024 287.77045443 -86.49737855 281.47917669 -86.51461601 275.18777847 C-86.53012372 269.26970291 -86.52608687 263.35195046 -86.50731087 257.43388748 C-86.50363555 255.26841797 -86.50670242 253.10292431 -86.51719666 250.93747711 C-86.59783329 232.91527748 -84.35792598 219.90656763 -71.6875 206.25 C-61.58922674 196.69270566 -49.95094861 193.62969506 -36.375 193.3125 C-35.37082031 193.27833984 -34.36664063 193.24417969 -33.33203125 193.20898438 C-30.88813282 193.12752109 -28.44454719 193.05805078 -26 193 C-26.64509521 191.35753296 -26.64509521 191.35753296 -27.30322266 189.68188477 C-36.58392767 166.04372316 -45.8028354 142.38250082 -54.9375 118.6875 C-55.39519775 117.50027344 -55.85289551 116.31304687 -56.32446289 115.08984375 C-56.78264404 113.90132813 -57.2408252 112.7128125 -57.71289062 111.48828125 C-58.63801 109.08853749 -59.56314019 106.6887979 -60.48828125 104.2890625 C-60.94421661 103.1063678 -61.40015198 101.9236731 -61.86990356 100.70513916 C-66.36197748 89.05567756 -70.86829123 77.41175194 -75.38137817 65.77041626 C-76.20017404 63.65833643 -77.01876263 61.54617623 -77.83712769 59.43392944 C-78.96635383 56.51952766 -80.0963277 53.60541699 -81.2265625 50.69140625 C-81.55162277 49.85229706 -81.87668304 49.01318787 -82.21159363 48.14865112 C-82.52155777 47.35008698 -82.83152191 46.55152283 -83.15087891 45.72875977 C-83.44955872 44.95791046 -83.74823853 44.18706116 -84.05596924 43.39285278 C-84.73042637 41.68329343 -85.4213896 39.98020877 -86.12322998 38.28170776 C-86.49039124 37.39073395 -86.85755249 36.49976013 -87.23583984 35.58178711 C-87.57304047 34.7759166 -87.91024109 33.97004608 -88.25765991 33.13975525 C-89 31 -89 31 -89 28 C-78.1370719 24.34041297 -67.27145898 20.68892442 -56.40234089 17.04776001 C-51.35550216 15.35678149 -46.30963198 13.66302394 -41.26586914 11.96289062 C-36.39865883 10.32238306 -31.52904485 8.68920832 -26.65767479 7.06109619 C-24.7992619 6.43854493 -22.94173142 5.81335311 -21.0851078 5.18548584 C-18.48521095 4.30676184 -15.88233972 3.43746481 -13.27856445 2.5703125 C-12.5110788 2.30849182 -11.74359314 2.04667114 -10.95285034 1.7769165 C-7.2005194 0.53818583 -3.96436348 -0.32122295 0 0 Z M137 18 C132.57204367 21.68654896 130.50877538 26.43984135 128.015625 31.5078125 C127.32493927 32.89055862 127.32493927 32.89055862 126.62030029 34.30123901 C125.65175999 36.24434755 124.68709769 38.1893933 123.72607422 40.13623047 C122.24977923 43.12544702 120.76068943 46.10801839 119.26953125 49.08984375 C118.32997148 50.97878998 117.39114372 52.86810053 116.453125 54.7578125 C116.00632385 55.65364044 115.55952271 56.54946838 115.09918213 57.47244263 C114.6916571 58.30025238 114.28413208 59.12806213 113.86425781 59.98095703 C113.50325989 60.71057648 113.14226196 61.44019592 112.77032471 62.19192505 C111.86934791 63.97910573 111.86934791 63.97910573 112 66 C129.16 66 146.32 66 164 66 C162.76204204 62.28612611 161.68759636 59.11918298 160.01635742 55.67871094 C159.6322319 54.88478943 159.24810638 54.09086792 158.8523407 53.27288818 C158.44087296 52.43517883 158.02940521 51.59746948 157.60546875 50.734375 C157.17623611 49.85976624 156.74700348 48.98515747 156.30476379 48.08404541 C155.39851142 46.24398226 154.48982727 44.40511502 153.57885742 42.56738281 C152.64948893 40.68548908 151.7273029 38.80003162 150.81225586 36.91113281 C149.48801111 34.1776066 148.14310205 31.45518947 146.79296875 28.734375 C146.3875737 27.88856873 145.98217865 27.04276245 145.5644989 26.17132568 C143.27783084 21.5019051 143.27783084 21.5019051 139.20043945 18.45410156 C138.47429443 18.30424805 137.74814941 18.15439453 137 18 Z M-18.29760742 22.53881836 C-19.37850143 22.89926743 -20.45939545 23.25971649 -21.57304382 23.63108826 C-22.73874405 24.02997757 -23.90444427 24.42886688 -25.10546875 24.83984375 C-26.89698112 25.44125938 -26.89698112 25.44125938 -28.72468567 26.05482483 C-31.89815119 27.12195709 -35.0687871 28.1968041 -38.23834229 29.27545166 C-41.47375948 30.3743892 -44.71260119 31.46313314 -47.95117188 32.55273438 C-54.30398648 34.69242171 -60.65326767 36.84234287 -67 39 C-61.42158564 54.27795081 -55.68322846 69.48144455 -49.75 84.625 C-43.17875424 101.39740451 -36.66688757 118.19188901 -30.1875 135 C-28.29971002 139.89592238 -26.41167671 144.79175086 -24.5234375 149.6875 C-24.05819168 150.89377045 -23.59294586 152.10004089 -23.11360168 153.34286499 C-16.61502454 170.1875759 -10.08205967 187.01894339 -3.54890442 203.8502655 C-1.05951215 210.26514098 1.42541059 216.68173294 3.90760803 223.09939575 C5.64441329 227.58974703 7.38232189 232.07967094 9.12026978 236.56958008 C9.94452151 238.69990445 10.76824801 240.83043214 11.59140015 242.96118164 C17.60889501 258.55582635 17.60889501 258.55582635 24 274 C24.66 274 25.32 274 26 274 C26.00054477 273.36776677 26.00108953 272.73553354 26.00165081 272.08414173 C26.01666524 256.64912785 26.05929921 241.21446882 26.13209057 225.77962971 C26.16663777 218.31521194 26.19208252 210.85097687 26.19555664 203.38647461 C26.19861093 196.87492232 26.21929634 190.36369627 26.26052457 183.85226983 C26.28172482 180.40937471 26.29452307 176.96694184 26.28615379 173.52398109 C26.28122357 169.66563642 26.30745177 165.80862034 26.34057617 161.95043945 C26.33195053 160.82833572 26.32332489 159.70623199 26.31443787 158.55012512 C26.41929099 151.21372172 27.95527854 145.64556867 31.02708912 138.97439861 C32.9713213 133.03046106 30.2889214 127.63406768 28.1484375 122.03515625 C27.85774384 121.26194031 27.56705017 120.48872437 27.26754761 119.69207764 C26.30883865 117.14678066 25.34207133 114.60463028 24.375 112.0625 C23.69854217 110.27251219 23.02244102 108.48238955 22.34667969 106.69213867 C17.07991555 92.76045068 11.75041909 78.85219902 6.37353516 64.96264648 C3.43782673 57.37463084 0.53209142 49.77886569 -2.28125 42.14453125 C-2.79053431 40.77036868 -3.29997006 39.39626223 -3.80957031 38.0222168 C-4.74850523 35.4900125 -5.67242616 32.95393054 -6.58886719 30.41333008 C-6.99782227 29.31013428 -7.40677734 28.20693848 -7.828125 27.0703125 C-8.1777832 26.10883301 -8.52744141 25.14735352 -8.88769531 24.15673828 C-11.15899413 19.75273175 -14.36144096 21.20841244 -18.29760742 22.53881836 Z M243 63 C242.67 63.99 242.34 64.98 242 66 C263.12 66 284.24 66 306 66 C302.59763816 59.19527631 295.86921334 55.54588323 289 52.5625 C273.13367968 47.39358545 254.79455355 50.91917087 243 63 Z M106 82 C106 87.28 106 92.56 106 98 C127.12 98 148.24 98 170 98 C170 92.72 170 87.44 170 82 C148.88 82 127.76 82 106 82 Z M234 82 C234 97.84 234 113.68 234 130 C239.28 130 244.56 130 250 130 C250.0825 127.69 250.165 125.38 250.25 123 C250.72874861 114.71444554 252.24326944 109.27942833 258.4375 103.625 C265.15355428 98.04646767 272.62704334 98.25089063 281 99 C287.20594371 100.63211433 291.53618117 104.69395906 295 110 C297.09932852 114.1694997 297.41347958 118.22370991 297.625 122.8125 C297.74875 125.184375 297.8725 127.55625 298 130 C303.28 130 308.56 130 314 130 C314 114.16 314 98.32 314 82 C287.6 82 261.2 82 234 82 Z M64 99 C60.14219187 108.04638916 56.57065651 117.18811521 53.06860352 126.37670898 C52.17401835 128.7228571 51.27564687 131.06753238 50.37695312 133.41210938 C49.80706921 134.90356085 49.23739941 136.39509416 48.66796875 137.88671875 C48.39929489 138.58762131 48.13062103 139.28852386 47.85380554 140.01066589 C46.5570119 142.92556373 46.5570119 142.92556373 46 146 C59.2 146 72.4 146 86 146 C80.27884194 129.72833566 80.27884194 129.72833566 74.4375 113.5 C74.20973877 112.85047363 73.98197754 112.20094727 73.74731445 111.53173828 C73.07859875 109.62888873 72.38154824 107.73607043 71.68359375 105.84375 C71.28712646 104.74224609 70.89065918 103.64074219 70.48217773 102.50585938 C69.22359913 99.74738615 69.22359913 99.74738615 66.33227539 99.13476562 C65.56262451 99.09029297 64.79297363 99.04582031 64 99 Z M106 114 C106 166.8 106 219.6 106 274 C127.12 274 148.24 274 170 274 C170 221.2 170 168.4 170 114 C148.88 114 127.76 114 106 114 Z M268.6875 116.8125 C265.42732453 121.03865339 265.86393314 125.32717143 265.88647461 130.41870117 C265.88632858 131.27745346 265.88618256 132.13620575 265.8860321 133.02098083 C265.88672921 135.8616691 265.89451217 138.70229193 265.90234375 141.54296875 C265.90420865 143.51166244 265.90563221 145.48035659 265.90663147 147.4490509 C265.91045099 152.63253051 265.92027648 157.81598214 265.93133545 162.99945068 C265.9415617 168.2880414 265.9461317 173.57663663 265.95117188 178.86523438 C265.96189923 189.24350188 265.9789689 199.62174862 266 210 C266.76593475 209.22768539 267.53186951 208.45537079 268.3210144 207.65965271 C270.1211431 205.87251464 271.97080739 204.13405305 273.86376953 202.44555664 C283.25117921 192.97295473 283.2279243 181.97536801 283.17657471 169.38272095 C283.13517978 165.51968426 283.03619357 161.65926459 282.93017578 157.79754639 C282.85627031 154.63637056 282.83534412 151.47581511 282.81632805 148.31390285 C282.79119891 144.52014707 282.73705115 140.72697776 282.6796875 136.93359375 C282.67101528 136.21935179 282.66234306 135.50510983 282.65340805 134.76922417 C282.62320497 132.74095153 282.56963821 130.71306793 282.51513672 128.68530273 C282.4886203 127.53585678 282.46210388 126.38641083 282.43478394 125.20213318 C281.94370737 121.58541129 280.8767499 119.1161283 279 116 C275.20468521 114.10234261 272.02678035 114.19522621 268.6875 116.8125 Z M382.18359375 117.82421875 C381.26328369 118.43515381 380.34297363 119.04608887 379.39477539 119.67553711 C378.41887451 120.33948486 377.44297363 121.00343262 376.4375 121.6875 C374.3830403 123.0576333 372.32834797 124.42741785 370.2734375 125.796875 C369.23413086 126.49490234 368.19482422 127.19292969 367.12402344 127.91210938 C362.30129109 131.13530468 357.43218844 134.28589837 352.5625 137.4375 C350.89694266 138.51923452 349.23155872 139.6012361 347.56640625 140.68359375 C346.37762191 141.45575648 345.18882736 142.22790349 344 143 C347.9011017 147.12747124 352.11051967 150.46312035 356.6875 153.8125 C362.90393344 158.41357241 369.01072552 163.10491989 375 168 C377.09019701 165.90980299 377.66544747 164.65569058 378.69580078 161.93676758 C379.01598175 161.09862015 379.33616272 160.26047272 379.66604614 159.39692688 C380.00570404 158.48863632 380.34536194 157.58034576 380.6953125 156.64453125 C381.04761932 155.70953293 381.39992615 154.77453461 381.76290894 153.811203 C382.5071491 151.82925616 383.24837019 149.84617342 383.98681641 147.86206055 C385.11566572 144.83750955 386.26238103 141.82014518 387.41015625 138.80273438 C388.13131921 136.8754153 388.8514062 134.94769321 389.5703125 133.01953125 C389.91401886 132.12136185 390.25772522 131.22319244 390.61184692 130.29780579 C392.44489673 125.31095399 393.50172735 121.32123004 393 116 C391.96639503 114.7567715 391.96639503 114.7567715 389.73852539 114.76098633 C386.45209547 115.04782014 384.90883003 115.9885126 382.18359375 117.82421875 Z M234 146 C234 180.98 234 215.96 234 252 C237.6797456 248.3202544 240.63657364 245.00851314 243.6875 240.875 C244.45449219 239.84117187 245.22148437 238.80734375 246.01171875 237.7421875 C249.63052281 232.75122394 250.28182492 229.80845911 250.22705078 223.76489258 C250.22734283 222.92564743 250.22763489 222.08640228 250.22793579 221.22172546 C250.22654171 218.44588913 250.21097683 215.67032073 250.1953125 212.89453125 C250.19158265 210.97067919 250.18873555 209.04682522 250.18673706 207.12297058 C250.17909842 202.05781821 250.15944791 196.99278042 250.1373291 191.92767334 C250.11687568 186.7597407 250.10773642 181.59178956 250.09765625 176.42382812 C250.07620225 166.28249363 250.04101819 156.14127426 250 146 C244.72 146 239.44 146 234 146 Z M298 146 C298 153.26 298 160.52 298 168 C301.94384008 164.05615992 305.38591443 160.22113657 308.8125 155.875 C309.31458984 155.25496094 309.81667969 154.63492188 310.33398438 153.99609375 C313.28915335 150.43777618 313.28915335 150.43777618 314 146 C308.72 146 303.44 146 298 146 Z M330 155 C322.67130334 164.3432766 315.41415519 173.73266655 308.3125 183.25 C303.63939529 189.51087313 298.91502065 195.71863594 294.06396484 201.8425293 C288.79472541 208.50082536 283.66379135 215.26447223 278.51513672 222.01611328 C276.35092264 224.84988763 274.17591107 227.67519486 272 230.5 C268.15615386 235.49200797 264.32560211 240.49399939 260.5 245.5 C256.48418205 250.75385661 252.46647738 256.00622489 248.4375 261.25 C247.67308594 262.24515625 246.90867187 263.2403125 246.12109375 264.265625 C244.68724291 266.1140515 243.21977329 267.93680738 241.72265625 269.734375 C239.79824758 271.79098406 239.79824758 271.79098406 240 274 C252.50171843 275.60151511 252.50171843 275.60151511 264.046875 272.04296875 C266.36283748 269.15646807 268.17419222 266.21798621 270 263 C271.14061909 261.38808344 272.28214913 259.77656068 273.45141602 258.18530273 C274.72821517 256.44448808 275.97324514 254.68403371 277.21484375 252.91796875 C280.3349415 248.50640611 283.53966088 244.15863497 286.75 239.8125 C287.34184082 239.01078369 287.93368164 238.20906738 288.54345703 237.38305664 C290.36153795 234.92147012 292.18064603 232.46064572 294 230 C301.41674455 219.96617806 308.80466394 209.91479708 316.0925293 199.78686523 C320.14625117 194.1610526 324.25242706 188.57550312 328.375 183 C333.01096635 176.72933892 337.59769628 170.43795545 342 164 C339.28292866 161.03592217 336.84763188 158.77466633 333.31640625 156.828125 C332.22199219 156.22484375 331.12757813 155.6215625 330 155 Z M42 162 C42 198.96 42 235.92 42 274 C57.84 274 73.68 274 90 274 C90 237.04 90 200.08 90 162 C74.16 162 58.32 162 42 162 Z M355 175 C353.49128037 176.73212031 352.07080093 178.54116407 350.6875 180.375 C350.03152832 181.2419751 350.03152832 181.2419751 349.36230469 182.12646484 C344.617815 188.43421581 340.02366075 194.85243188 335.41796875 201.26171875 C331.9997439 206.01192332 328.53777209 210.728926 325.0625 215.4375 C324.48218018 216.22390869 323.90186035 217.01031738 323.30395508 217.82055664 C320.94687428 221.0130007 318.58815032 224.20422905 316.22949219 227.39550781 C308.7388877 237.53326132 301.29690762 247.70294582 293.93359375 257.93359375 C292.10329597 260.47557499 290.26433779 263.01054436 288.41015625 265.53515625 C287.30994141 267.03369141 287.30994141 267.03369141 286.1875 268.5625 C285.56230469 269.40941406 284.93710937 270.25632812 284.29296875 271.12890625 C282.90525079 272.75805271 282.90525079 272.75805271 283 274 C291.84260235 275.06398624 291.84260235 275.06398624 300.1328125 272.78125 C302.00041935 270.64147933 303.46890026 268.39445113 305 266 C306.32602153 264.19333555 307.68270732 262.41196378 309.0402832 260.62890625 C310.60568464 258.56815003 312.1494882 256.4924341 313.69140625 254.4140625 C317.06333793 249.89194425 320.52429492 245.44258738 324 241 C328.39480166 235.37758334 332.73640522 229.72256812 337 224 C341.30900722 218.21830325 345.69158126 212.49936169 350.125 206.8125 C350.71039551 206.06025146 351.29579102 205.30800293 351.89892578 204.53295898 C354.62201045 201.03692135 357.35451142 197.54918219 360.109375 194.078125 C361.03126431 192.90626125 361.95314021 191.73438697 362.875 190.5625 C363.67679687 189.55316406 364.47859375 188.54382813 365.3046875 187.50390625 C367.28032409 185.0899469 367.28032409 185.0899469 367 182 C364.848524 180.07445655 364.848524 180.07445655 362.125 178.3125 C361.22007812 177.68988281 360.31515625 177.06726563 359.3828125 176.42578125 C357.17676324 174.82884633 357.17676324 174.82884633 355 175 Z M-60.81640625 219.59765625 C-66.84876036 225.99285872 -69.21698346 233.31139215 -69.5 242 C-69.21698346 250.68860785 -66.84876036 258.00714128 -60.81640625 264.40234375 C-47.7997263 275.85142354 -32.10101047 274.26616443 -15.8125 274.125 C-13.79102005 274.11495176 -11.76953528 274.10582916 -9.74804688 274.09765625 C-4.83191064 274.07578514 0.08399065 274.04135645 5 274 C4.3610384 268.63325946 2.62794389 264.02470694 0.6484375 259.04296875 C0.31131744 258.18173904 -0.02580261 257.32050934 -0.37313843 256.43318176 C-1.45165548 253.68244962 -2.53835684 250.9350306 -3.625 248.1875 C-4.33253413 246.38366071 -5.03956983 244.57962583 -5.74609375 242.77539062 C-10.05232469 231.80350885 -14.47386459 220.88291658 -19 210 C-41.46240435 209.24734706 -41.46240435 209.24734706 -60.81640625 219.59765625 Z M186 210 C186 231.12 186 252.24 186 274 C196.56 274 207.12 274 218 274 C218 252.88 218 231.76 218 210 C207.44 210 196.88 210 186 210 Z M368 211 C360.625323 220.06384882 353.49354274 229.27861296 346.51074219 238.64770508 C341.54856373 245.29643802 336.45953015 251.83188489 331.31152344 258.33691406 C328.9621136 261.31609868 326.63416448 264.31166697 324.3125 267.3125 C323.87768311 267.8705835 323.44286621 268.42866699 322.99487305 269.00366211 C320.90262952 271.25827524 320.90262952 271.25827524 320 274 C325.78001685 274.04983765 331.55990564 274.08592481 337.34008789 274.10986328 C339.30202415 274.11985425 341.26394578 274.13345163 343.22583008 274.15087891 C364.3695046 274.80556039 364.3695046 274.80556039 383 266 C390.04024268 258.82717271 393.09228241 252.10394593 393.4375 242.125 C393.21862129 233.22710455 390.83129692 226.08037127 384.69921875 219.53125 C379.61282046 214.9476451 374.60006465 212.75525185 368 211 Z M-70 279 C-70.04678152 301.10564301 -70.08201897 323.21127782 -70.10362434 345.31696033 C-70.11392404 355.58168508 -70.12795935 365.84637902 -70.15087891 376.11108398 C-70.17085283 385.06085328 -70.18372593 394.01060026 -70.18817699 402.96039122 C-70.19077759 407.69644446 -70.19686283 412.43243385 -70.21146011 417.16846657 C-70.22510732 421.63272421 -70.22920829 426.09689214 -70.22621536 430.56116867 C-70.22676235 432.19329886 -70.23069704 433.82543227 -70.23841095 435.45754433 C-70.34149971 454.41647611 -70.34149971 454.41647611 -62 471 C-34.16705444 498.31847336 41.53663555 482 58 482 C58 418.64 58 355.28 58 290 C23.65584426 289.82962378 23.65584426 289.82962378 -10.68847656 289.70214844 C-17.36279297 289.65673828 -17.36279297 289.65673828 -20.49700928 289.63043213 C-22.66477901 289.61591159 -24.83260896 289.60905019 -27.00042725 289.60845947 C-41.22105673 289.59796114 -52.87359001 289.44153863 -65.31890869 281.85394287 C-66.20099125 281.31815487 -67.08307381 280.78236687 -67.99188614 280.23034286 C-68.65456371 279.82432972 -69.31724129 279.41831657 -70 279 Z M389.1875 281.75 C376.0553697 290.33658325 362.82870852 289.60523633 347.640625 289.609375 C345.54800171 289.62339218 343.45538949 289.63917467 341.36279297 289.65673828 C333.65864424 289.70915512 325.9542944 289.72757319 318.25 289.75 C292.38625 289.87375 292.38625 289.87375 266 290 C266 353.36 266 416.72 266 482 C314.30139239 489.09260199 314.30139239 489.09260199 383 474 C391.94006075 464.89157652 394.12946206 455.1978596 394.12025452 442.66639709 C394.12110894 441.96212867 394.12196337 441.25786024 394.12284368 440.53225034 C394.12448053 438.19082592 394.11900674 435.84947438 394.11352539 433.50805664 C394.11324311 431.8223165 394.11340206 430.13657625 394.1139679 428.45083618 C394.11425425 423.88733582 394.10838359 419.32386187 394.10139394 414.76036763 C394.09513354 409.98644092 394.09455448 405.21251356 394.09336853 400.43858337 C394.09026313 391.40419741 394.08206041 382.36982358 394.07201904 373.33544296 C394.06083332 363.04769084 394.05534126 352.75993813 394.05032361 342.47218144 C394.03987714 321.31478086 394.02229303 300.1573912 394 279 C392.14842617 279 390.6285075 280.7010504 389.1875 281.75 Z M74 290 C74 353.36 74 416.72 74 482 C132.08 482 190.16 482 250 482 C250 418.64 250 355.28 250 290 C191.92 290 133.84 290 74 290 Z " fill="#000000" transform="translate(94,6)"/>
<path d="M0 0 C2.38404511 1.60183879 4.6892791 3.22599958 6.9296875 5.0234375 C9.02584948 6.28564673 9.02584948 6.28564673 11.5234375 5.31640625 C13.69969389 4.15962643 15.71964526 2.95511511 17.75 1.5625 C28.2143119 -4.9632148 40.29258141 -5.82824803 52.29296875 -3.30859375 C62.89722497 0.26604269 72.16949398 6.84509109 77.5078125 16.81640625 C82.70255001 27.96282874 84.4441919 41.17573197 80.375 53.0625 C75.78709421 64.53226448 66.66339223 72.73373043 58.0703125 81.22265625 C56.71059569 82.57676862 55.35154652 83.9315517 53.99313354 85.28697205 C50.43894978 88.82977391 46.87584634 92.36346803 43.31072998 95.89526367 C39.66520357 99.50994496 36.02829484 103.1332747 32.390625 106.75585938 C25.26876643 113.84567138 18.13744307 120.92587982 11 128 C6.92730924 126.37551985 4.17427117 123.46992893 1.13330078 120.42382812 C0.5571402 119.85438477 -0.01902039 119.28494141 -0.61264038 118.69824219 C-2.51533081 116.81454194 -4.41039519 114.92339304 -6.3046875 113.03125 C-7.62966515 111.71270275 -8.95479152 110.39430493 -10.28005981 109.0760498 C-13.05926562 106.30882162 -15.83430298 103.53748727 -18.60693359 100.76367188 C-22.14280544 97.22759755 -25.69218941 93.70544043 -29.24537468 90.18677521 C-31.98908957 87.4654202 -34.7235418 84.73489831 -37.45557022 82.0018158 C-38.75915745 80.70057375 -40.0659545 79.40253844 -41.37612534 78.10792542 C-53.30390125 66.30852265 -62.18090902 55.51438446 -62.4375 38.125 C-62.35789666 25.95688292 -58.50078317 16.08656803 -50.22265625 7.0625 C-37.34734654 -5.1545628 -15.77222401 -8.54221594 0 0 Z M-41.3359375 23.68359375 C-44.6490491 28.29550732 -45.31282629 32.17334475 -45.375 37.8125 C-45.40335938 38.97394531 -45.43171875 40.13539063 -45.4609375 41.33203125 C-44.16495204 51.6450003 -36.71704547 57.81185848 -29.671875 64.71875 C-28.5557046 65.82744826 -27.44042279 66.93704174 -26.32598877 68.04748535 C-23.40852461 70.94976991 -20.47924644 73.83983305 -17.54724121 76.72741699 C-14.55022856 79.68331054 -11.56468645 82.65074128 -8.578125 85.6171875 C-2.7298416 91.42273566 3.13098806 97.21540811 9 103 C12.64573814 101.45963114 14.99841954 99.26645846 17.796875 96.49365234 C18.25920532 96.03803925 18.72153564 95.58242615 19.19787598 95.11300659 C20.72057922 93.60925659 22.2356698 92.09811616 23.75 90.5859375 C24.81072665 89.53164249 25.87160136 88.47749642 26.93261719 87.42349243 C29.15527093 85.21280613 31.37375907 82.9980321 33.58984375 80.78076172 C36.41745935 77.95294339 39.25855217 75.13910739 42.10345459 72.3286953 C44.29978346 70.15471053 46.48685366 67.97158699 48.67150879 65.78587723 C49.71438926 64.74534315 50.76048283 63.70801838 51.80993652 62.67411423 C61.18507865 53.53568839 61.18507865 53.53568839 65.53125 41.4375 C65.45300651 32.83071598 64.9481145 27.12489574 58.90625 20.8125 C52.88949805 15.19686485 48.55614409 12.7172673 40.1875 12.625 C38.44533203 12.58246094 38.44533203 12.58246094 36.66796875 12.5390625 C28.26959403 13.59444931 23.15074154 18.28398104 17.5 24.25 C16.86835938 24.8996875 16.23671875 25.549375 15.5859375 26.21875 C14.04763961 27.80366297 12.51956494 29.39715368 11 31 C6.90703334 29.13707737 4.29378702 26.35510192 1.25 23.125 C-5.57680131 16.18102685 -9.95911538 12.88372807 -20 12.5 C-30.17330153 12.85790933 -34.74619644 16.13558358 -41.3359375 23.68359375 Z " fill="#000000" transform="translate(246,332)"/>
</svg>
