<?xml version="1.0" encoding="UTF-8"?>
<svg version="1.1" xmlns="http://www.w3.org/2000/svg" width="600" height="454">
<path d="M0 0 C49.82603736 -0.06850041 99.65207799 -0.13217936 149.47814941 -0.16937256 C150.58500436 -0.1702009 150.58500436 -0.1702009 151.71422001 -0.17104598 C167.75236163 -0.1830187 183.79050376 -0.19409928 199.82864663 -0.20426132 C207.69419552 -0.20925049 215.55974428 -0.21443673 223.42529297 -0.21972656 C224.59934337 -0.22051112 224.59934337 -0.22051112 225.79711197 -0.22131152 C251.14874457 -0.23834495 276.50034142 -0.26838125 301.85195238 -0.30518888 C327.91257016 -0.34295703 353.97316818 -0.36755053 380.03381286 -0.37565996 C383.71801213 -0.37681251 387.40221134 -0.37811506 391.08641052 -0.37950897 C392.17402337 -0.37991351 392.17402337 -0.37991351 393.2836082 -0.38032622 C404.93686518 -0.38504587 416.59006087 -0.40357856 428.2432929 -0.42732814 C439.96991572 -0.45093064 451.69647266 -0.45953564 463.42311835 -0.45400551 C469.77235636 -0.45144595 476.12141506 -0.45534388 482.47062111 -0.4768219 C488.29051658 -0.49636507 494.11011308 -0.49721954 499.93002266 -0.48359558 C502.02854982 -0.48191309 504.12709606 -0.48692099 506.225586 -0.49953273 C529.6612798 -0.63211825 549.12534538 4.72000543 568 19 C568.98033203 19.70189453 568.98033203 19.70189453 569.98046875 20.41796875 C585.87427714 32.68753579 596.05795578 53.94213286 599.60546875 73.3046875 C600.11605835 78.08704158 600.30276124 82.8178391 600.375 87.625 C600.41238281 88.51445313 600.44976563 89.40390625 600.48828125 90.3203125 C600.74909539 111.41727863 591.52070504 133.06717046 585.41640472 153.04827118 C584.17440167 157.11935124 582.94000902 161.19273552 581.70556641 165.26611328 C581.45791409 166.08326183 581.21026176 166.90041039 580.95510483 167.74232101 C580.45522804 169.39178301 579.95538186 171.04125428 579.45556641 172.69073486 C578.70832402 175.15589139 577.96032163 177.62081623 577.2121582 180.08569336 C573.04134315 193.83165737 568.94153003 207.59780471 564.875 221.375 C563.61242928 225.64596646 562.34912854 229.91671697 561.0859375 234.1875 C560.60804527 235.80361427 560.60804527 235.80361427 560.12049866 237.45237732 C556.25170767 250.53408777 552.37798826 263.61432248 548.48781395 276.68969154 C547.40104642 280.34269885 546.31556227 283.99607316 545.23382568 287.65057373 C530.56533328 337.19384555 530.56533328 337.19384555 523.625 351.0625 C523.16222656 352.00601318 522.69945312 352.94952637 522.22265625 353.92163086 C518.12571489 362.09388463 513.4619341 369.67703978 508 377 C507.56187988 377.59071289 507.12375977 378.18142578 506.67236328 378.79003906 C498.20054686 390.10816615 489.03273688 401.09040149 478 410 C477.50661133 410.40573242 477.01322266 410.81146484 476.50488281 411.22949219 C468.40932942 417.87138448 460.15003421 423.86146304 451 429 C450.29746094 429.39574219 449.59492188 429.79148437 448.87109375 430.19921875 C419.79486317 446.40809515 389.23277132 454.31352595 355.95166016 454.29052734 C354.19379903 454.29652799 352.4359405 454.30333699 350.67808533 454.31088257 C345.94862973 454.32838919 341.21924671 454.33323127 336.48976183 454.33451414 C333.52445141 454.33594455 330.55915893 454.34023071 327.593853 454.34550858 C317.21945797 454.36395493 306.84511401 454.37218559 296.47070312 454.37060547 C286.84637992 454.3694041 277.22228097 454.39051959 267.59801447 454.4220928 C259.2934705 454.44835223 250.98899938 454.4589688 242.68441427 454.45769465 C237.74266027 454.45718805 232.80110617 454.46270315 227.85939407 454.48405075 C223.20850222 454.50359833 218.5579977 454.50344632 213.90709114 454.48901749 C212.21457787 454.48694892 210.52203924 454.49151154 208.82956886 454.5037384 C182.888778 454.67879329 159.51573166 446.25057667 140.8125 427.93359375 C123.80308443 410.54450372 114.48075497 387.95144722 113.75 363.5625 C114.1664597 352.15750514 116.41570781 341.37936418 119.73828125 330.5 C120.13098671 329.18435501 120.5227376 327.86842481 120.91365051 326.55224609 C122.01728984 322.8486189 123.13617934 319.14974739 124.25782013 315.45153809 C125.30725287 311.98509493 126.34846444 308.51619737 127.39016533 305.04742432 C130.9899039 293.06230853 134.61544029 281.08504832 138.24523926 269.10900879 C140.73505959 260.89379516 143.22275124 252.67793823 145.7088871 244.46160889 C146.54604583 241.69628714 147.38451839 238.93136701 148.22319031 236.16650391 C154.89333121 214.13383723 161.42805488 192.06295862 168 170 C213.87 170 259.74 170 307 170 C296.68602739 205.52590566 296.68602739 205.52590566 293.265625 216.66015625 C292.86447055 217.97260639 292.46355583 219.28512982 292.06285095 220.59771729 C291.22387952 223.34497473 290.38384201 226.09190228 289.54281616 228.83853149 C287.27378684 236.24987939 285.01349074 243.66389304 282.75390625 251.078125 C282.40456496 252.22417678 282.40456496 252.22417678 282.04816628 253.39338112 C273.26040222 282.23056996 264.64630372 311.12016922 256 340 C300.55 340 345.1 340 391 340 C391.99 336.04 392.98 332.08 394 328 C395.19747071 323.93257488 396.41737869 319.88024401 397.67578125 315.83203125 C398.03288177 314.67322449 398.3899823 313.51441772 398.75790405 312.32049561 C399.53261717 309.80678489 400.30835743 307.29341801 401.08578491 304.7805481 C403.23544597 297.83042487 405.37143172 290.87608948 407.5078125 283.921875 C407.73196272 283.19251299 407.95611294 282.46315098 408.18705559 281.71168709 C412.4505303 267.83516321 416.65487105 253.94121173 420.83653259 240.0398407 C421.06845957 239.26894488 421.30038656 238.49804905 421.53934163 237.70379275 C422.68557994 233.89370495 423.83156876 230.0835423 424.97714806 226.2732563 C432.24431996 202.10273752 439.5600224 177.94720526 446.90225601 153.79938889 C448.27556381 149.2823417 449.64831189 144.76512443 451.02111816 140.2479248 C453.68022213 131.49845741 456.33990548 122.74916628 459 114 C457.99629575 114.00170874 457.99629575 114.00170874 456.97231466 114.003452 C417.23957094 114.07070928 377.50683462 114.12212168 337.77404543 114.15319599 C332.99430167 114.15694773 328.21455803 114.16083073 323.43481445 114.16479492 C322.00758214 114.16597532 322.00758214 114.16597532 320.55151685 114.16717956 C305.18181928 114.18020353 289.81215565 114.20384064 274.44247816 114.23145839 C258.65045557 114.2595966 242.85845067 114.27619398 227.06640404 114.28226548 C217.33612908 114.28636454 207.60595011 114.29927106 197.87570473 114.3237494 C191.18685793 114.33971071 184.49806015 114.34437707 177.80919573 114.34050413 C173.96054708 114.3385986 170.11206516 114.34134292 166.26344681 114.35761642 C146.20624416 114.43822512 126.42457723 113.93476147 107 108.375 C106.10249023 108.12194092 105.20498047 107.86888184 104.28027344 107.6081543 C66.0889145 96.36618163 29.27959915 70.14747277 9.6640625 34.9375 C4.68380271 25.53874019 -0.1207126 15.60210313 -0.03710938 4.79638672 C-0.03175171 3.89765839 -0.02639404 2.99893005 -0.02087402 2.07296753 C-0.0139856 1.38888824 -0.00709717 0.70480896 0 0 Z " fill="#3FA577" transform="translate(0,0)"/>
<path d="M0 0 C45.87 0 91.74 0 139 0 C138.34 2.64 137.68 5.28 137 8 C136.67 8 136.34 8 136 8 C136 6.02 136 4.04 136 2 C91.12 2.33 46.24 2.66 0 3 C0 2.01 0 1.02 0 0 Z " fill="#42B49A" transform="translate(168,170)"/>
<path d="M0 0 C0 0.66 0 1.32 0 2 C-22.38850081 7.76303063 -22.38850081 7.76303063 -34 8 C-34 7.34 -34 6.68 -34 6 C-32.83984375 5.81824219 -31.6796875 5.63648438 -30.484375 5.44921875 C-22.3426249 4.14755143 -14.33913255 2.76087015 -6.3828125 0.55078125 C-4 0 -4 0 0 0 Z " fill="#3BB496" transform="translate(410,445)"/>
<path d="M0 0 C1.125 1.625 1.125 1.625 2 4 C1.2890625 6.7265625 1.2890625 6.7265625 0 10 C-0.44034579 11.35857064 -0.86946343 12.72081655 -1.2890625 14.0859375 C-1.50820312 14.78847656 -1.72734375 15.49101562 -1.953125 16.21484375 C-2.28570312 17.28412109 -2.28570312 17.28412109 -2.625 18.375 C-2.85445312 19.11105469 -3.08390625 19.84710938 -3.3203125 20.60546875 C-3.88073239 22.40348257 -4.44043971 24.20171847 -5 26 C-5.66 26 -6.32 26 -7 26 C-5.55993623 17.05870856 -2.79194029 8.58894609 0 0 Z " fill="#3FB495" transform="translate(141,260)"/>
<path d="M0 0 C0.66 0.99 1.32 1.98 2 3 C1.67 3.33 1.34 3.66 1 4 C0.87625 5.19625 0.7525 6.3925 0.625 7.625 C0.15232998 11.81900863 -1.19433159 15.17198296 -3 19 C-3.350625 19.94875 -3.70125 20.8975 -4.0625 21.875 C-5 24 -5 24 -7 25 C-4.95838673 16.5537319 -2.92608728 8.19304439 0 0 Z " fill="#3FB494" transform="translate(407,286)"/>
<path d="M0 0 C3 2 3 2 3.73046875 5.08203125 C3.88128906 6.31308594 4.03210938 7.54414063 4.1875 8.8125 C4.34605469 10.03582031 4.50460938 11.25914063 4.66796875 12.51953125 C4.94098658 15.38140049 5.07106862 18.1299211 5 21 C1.17744085 17.17744085 0.21239739 10.77850463 -0.19140625 5.49609375 C-0.18812693 3.66295479 -0.10359692 1.83021225 0 0 Z " fill="#3BB492" transform="translate(0,2)"/>
<path d="M0 0 C1.60332791 -0.08121924 3.20784026 -0.13929134 4.8125 -0.1875 C6.15248047 -0.23970703 6.15248047 -0.23970703 7.51953125 -0.29296875 C10 0 10 0 13 3 C8.38 3 3.76 3 -1 3 C-0.67 2.01 -0.34 1.02 0 0 Z " fill="#3CB38F" transform="translate(361,451)"/>
<path d="M0 0 C-2.45334555 1.36396462 -4.91191234 2.71634169 -7.375 4.0625 C-8.42300781 4.64741211 -8.42300781 4.64741211 -9.4921875 5.24414062 C-11.29610184 6.22415178 -13.14583482 7.11875071 -15 8 C-15.66 7.67 -16.32 7.34 -17 7 C-16.67 6.34 -16.34 5.68 -16 5 C-14.68 5 -13.36 5 -12 5 C-12 4.34 -12 3.68 -12 3 C-10.68 3 -9.36 3 -8 3 C-8 2.34 -8 1.68 -8 1 C-4.85571151 -0.9090323 -3.47925125 -1.04523725 0 0 Z " fill="#3EB79A" transform="translate(449,430)"/>
<path d="M0 0 C1.95402 6.80946365 -0.45277753 12.68731823 -3 19 C-3.66 19 -4.32 19 -5 19 C-3.64746536 12.54945018 -1.96939767 6.28894321 0 0 Z " fill="#3FB698" transform="translate(439,180)"/>
<path d="M0 0 C0.66 0 1.32 0 2 0 C0.98408579 5.46864457 -0.07091057 10.76390013 -2 16 C-3.125 14.5 -3.125 14.5 -4 12 C-3.57598348 9.2226918 -2.81108065 6.70360217 -2 4 C-1.34 4 -0.68 4 0 4 C0 2.68 0 1.36 0 0 Z " fill="#3DB597" transform="translate(581,158)"/>
<path d="M0 0 C1.31225809 3.93677426 0.3393954 5.7794262 -0.9375 9.6875 C-1.50791016 11.45673828 -1.50791016 11.45673828 -2.08984375 13.26171875 C-2.39019531 14.16535156 -2.69054687 15.06898438 -3 16 C-3.33 16 -3.66 16 -4 16 C-3.67 12.04 -3.34 8.08 -3 4 C-2.34 4 -1.68 4 -1 4 C-0.67 2.68 -0.34 1.36 0 0 Z " fill="#3CB799" transform="translate(554,252)"/>
<path d="M0 0 C1.31225809 3.93677426 0.3393954 5.7794262 -0.9375 9.6875 C-1.50791016 11.45673828 -1.50791016 11.45673828 -2.08984375 13.26171875 C-2.39019531 14.16535156 -2.69054687 15.06898438 -3 16 C-3.33 16 -3.66 16 -4 16 C-3.40546697 4.29384966 -3.40546697 4.29384966 0 0 Z " fill="#3BB799" transform="translate(280,254)"/>
<path d="M0 0 C0.66 0 1.32 0 2 0 C0.84941444 5.39795989 -0.42421759 10.70987333 -2 16 C-2.33 16 -2.66 16 -3 16 C-3.45496035 10.23716896 -1.79099852 5.39431697 0 0 Z " fill="#3CB89A" transform="translate(593,118)"/>
<path d="M0 0 C3.625 -0.1875 3.625 -0.1875 7 0 C7 0.99 7 1.98 7 3 C4.03 3 1.06 3 -2 3 C-1.34 2.01 -0.68 1.02 0 0 Z " fill="#3CB38F" transform="translate(195,451)"/>
<path d="M0 0 C0.66 0 1.32 0 2 0 C1.71517632 1.41805831 1.42181856 2.83440379 1.125 4.25 C0.88136719 5.43335938 0.88136719 5.43335938 0.6328125 6.640625 C0.00849925 8.96831144 -0.84838542 10.89031952 -2 13 C-2.19294408 8.17639811 -1.75747614 4.50353262 0 0 Z " fill="#3DB799" transform="translate(267,294)"/>
<path d="M0 0 C1.18414294 3.55242882 0.69535532 4.69830562 -0.4375 8.1875 C-0.72496094 9.08855469 -1.01242187 9.98960937 -1.30859375 10.91796875 C-1.53675781 11.60503906 -1.76492188 12.29210937 -2 13 C-2.33 13 -2.66 13 -3 13 C-3 10.03 -3 7.06 -3 4 C-2.34 4 -1.68 4 -1 4 C-0.67 2.68 -0.34 1.36 0 0 Z " fill="#3FB698" transform="translate(548,272)"/>
<path d="M0 0 C0.66 0 1.32 0 2 0 C1.71517632 1.41805831 1.42181856 2.83440379 1.125 4.25 C0.88136719 5.43335938 0.88136719 5.43335938 0.6328125 6.640625 C0.00849925 8.96831144 -0.84838542 10.89031952 -2 13 C-2.19294408 8.17639811 -1.75747614 4.50353262 0 0 Z " fill="#3EB698" transform="translate(293,208)"/>
<path d="M0 0 C0.66 0 1.32 0 2 0 C4.15305957 3.85756507 5.39253254 6.55129785 5 11 C2.03947516 7.63576723 1.07710178 4.30840713 0 0 Z " fill="#3DB697" transform="translate(121,396)"/>
<path d="M0 0 C1.18414294 3.55242882 0.69535532 4.69830562 -0.4375 8.1875 C-0.72496094 9.08855469 -1.01242187 9.98960937 -1.30859375 10.91796875 C-1.53675781 11.60503906 -1.76492188 12.29210937 -2 13 C-2.33 13 -2.66 13 -3 13 C-3.27429625 7.60550707 -3.36055646 4.48074195 0 0 Z " fill="#3DB698" transform="translate(576,178)"/>
<path d="M0 0 C0.66 0 1.32 0 2 0 C2.24042276 4.08718695 1.42258812 7.17679443 0 11 C-1.125 9.4375 -1.125 9.4375 -2 7 C-1.125 3.25 -1.125 3.25 0 0 Z " fill="#3CB393" transform="translate(147,240)"/>
<path d="M0 0 C1.45880109 0.14107747 2.91703551 0.28802415 4.375 0.4375 C5.59316406 0.55931641 5.59316406 0.55931641 6.8359375 0.68359375 C9 1 9 1 11 2 C11 2.66 11 3.32 11 4 C7.0507432 3.44894091 3.65079826 2.61064629 0 1 C0 0.67 0 0.34 0 0 Z " fill="#3BB899" transform="translate(168,446)"/>
<path d="M0 0 C0.33 0 0.66 0 1 0 C0.9129995 1.62600941 0.8048219 3.25089678 0.6875 4.875 C0.62949219 5.77992188 0.57148438 6.68484375 0.51171875 7.6171875 C0 10 0 10 -3 12 C-2.68950274 10.56206608 -2.3765224 9.1246682 -2.0625 7.6875 C-1.88847656 6.88699219 -1.71445312 6.08648437 -1.53515625 5.26171875 C-1 3 -1 3 0 0 Z " fill="#3FB79A" transform="translate(443,167)"/>
<path d="M0 0 C0.66 0 1.32 0 2 0 C2.1875 2.8125 2.1875 2.8125 2 6 C1.01 6.99 0.02 7.98 -1 9 C-0.67 6.03 -0.34 3.06 0 0 Z " fill="#3DAF8F" transform="translate(393,332)"/>
<path d="M0 0 C1.60156595 4.00391487 0.4087561 7.07031192 -1 11 C-1.99 11.495 -1.99 11.495 -3 12 C-2.68950274 10.56206608 -2.3765224 9.1246682 -2.0625 7.6875 C-1.88847656 6.88699219 -1.71445312 6.08648437 -1.53515625 5.26171875 C-1 3 -1 3 0 0 Z " fill="#40B89B" transform="translate(397,319)"/>
<path d="M0 0 C1.32 0.33 2.64 0.66 4 1 C4 1.99 4 2.98 4 4 C4.99 4 5.98 4 7 4 C6.67 5.32 6.34 6.64 6 8 C4.9970458 6.85675161 3.99770973 5.71032809 3 4.5625 C2.443125 3.92441406 1.88625 3.28632812 1.3125 2.62890625 C0 1 0 1 0 0 Z " fill="#3CB99C" transform="translate(26,56)"/>
<path d="M0 0 C1.32 0 2.64 0 4 0 C4 0.66 4 1.32 4 2 C5.32 2.33 6.64 2.66 8 3 C8 3.66 8 4.32 8 5 C4.62496331 3.8141763 2.35277269 2.72426311 0 0 Z " fill="#3BB698" transform="translate(153,437)"/>
<path d="M0 0 C0.99 0.33 1.98 0.66 3 1 C0.36 2.98 -2.28 4.96 -5 7 C-4.67 5.68 -4.34 4.36 -4 3 C-3.01 2.67 -2.02 2.34 -1 2 C-0.67 1.34 -0.34 0.68 0 0 Z " fill="#3BB899" transform="translate(477,407)"/>
<path d="M0 0 C0.66 0 1.32 0 2 0 C1.34 2.97 0.68 5.94 0 9 C-0.33 9 -0.66 9 -1 9 C-1.09765625 2.84765625 -1.09765625 2.84765625 -1 1 C-0.67 0.67 -0.34 0.34 0 0 Z " fill="#44B496" transform="translate(534,316)"/>
<path d="M0 0 C2.31 0 4.62 0 7 0 C6.01 1.485 6.01 1.485 5 3 C3.35 2.67 1.7 2.34 0 2 C0 1.34 0 0.68 0 0 Z " fill="#40B48D" transform="translate(518,0)"/>
</svg>
