<?xml version="1.0" encoding="UTF-8"?>
<svg version="1.1" xmlns="http://www.w3.org/2000/svg" width="512" height="512">
<path d="M0 0 C9.25792217 22.65104957 15.52389351 48.2885955 6 72 C0.54758891 83.65021509 -7.23238922 92.54396098 -19 98 C-26.07764801 100.54069416 -32.44307486 102.24965699 -40 102 C-40.09748535 102.67562988 -40.1949707 103.35125977 -40.29541016 104.04736328 C-41.16340152 107.68474634 -42.66192262 110.89001087 -44.2734375 114.2421875 C-44.59784821 114.92878448 -44.92225891 115.61538147 -45.25650024 116.32278442 C-46.29080194 118.50936581 -47.33257863 120.69227957 -48.375 122.875 C-49.4087834 125.05125898 -50.4409805 127.22825873 -51.47207642 129.40579224 C-52.11241857 130.75684838 -52.75453725 132.10706454 -53.39877319 133.45626831 C-53.69563019 134.0802652 -53.99248718 134.70426208 -54.29833984 135.34716797 C-54.55513519 135.88501923 -54.81193054 136.42287048 -55.07650757 136.97702026 C-60.62431619 149.12991295 -59.17724288 149.72210042 -60 167 C-41.52 167 -23.04 167 -4 167 C-6.70511636 186.93407824 -6.70511636 186.93407824 -7.86132812 195.45117188 C-8.64931053 201.25575892 -9.43724047 207.06035306 -10.22485352 212.86499023 C-10.86006205 217.54639478 -11.49550958 222.22776684 -12.13112068 226.90911674 C-12.37320475 228.6924061 -12.61520367 230.47570702 -12.85711479 232.25901985 C-13.19675199 234.76263598 -13.53669584 237.2662103 -13.87670898 239.76977539 C-13.97597183 240.50201828 -14.07523468 241.23426117 -14.17750549 241.98869324 C-14.44985275 243.99271001 -14.72486353 245.99636426 -15 248 C-15.25131432 249.95618507 -15.25131432 249.95618507 -15.50770569 251.95188904 C-16 255 -16 255 -17 256 C-19.86091818 256.09522418 -22.69763621 256.12553326 -25.55883789 256.11352539 C-26.45631241 256.11367142 -27.35378693 256.11381744 -28.27845764 256.1139679 C-31.25988134 256.11326842 -34.2412434 256.10547441 -37.22265625 256.09765625 C-39.28388942 256.09579219 -41.34512304 256.09436823 -43.40635681 256.09336853 C-48.8430401 256.08954237 -54.27969686 256.07971126 -59.71636963 256.06866455 C-65.25947714 256.05845253 -70.80258892 256.05387136 -76.34570312 256.04882812 C-87.23048043 256.03808908 -98.11523802 256.02101149 -109 256 C-110.56619295 244.69136929 -112.13093818 233.38253931 -113.69381714 222.07345009 C-114.41950994 216.8226302 -115.14570799 211.57188121 -115.87304688 206.32128906 C-116.57448297 201.25755167 -117.27460998 196.19363488 -117.97381592 191.12958908 C-118.24128251 189.19416177 -118.5092269 187.25880043 -118.77764893 185.3235054 C-119.15249679 182.62030113 -119.52567037 179.91687077 -119.8984375 177.21337891 C-120.06675079 176.00389336 -120.06675079 176.00389336 -120.23846436 174.76997375 C-121 169.22810432 -121 169.22810432 -121 167 C-105.49 167 -89.98 167 -74 167 C-74.08706002 148.69904769 -74.08706002 148.69904769 -81.0625 134.3125 C-82.18052397 132.55995619 -83.29652552 130.80611996 -84.41015625 129.05078125 C-84.90652588 128.31512939 -85.40289551 127.57947754 -85.91430664 126.8215332 C-87 125 -87 125 -87 123 C-88.546875 123.0928125 -88.546875 123.0928125 -90.125 123.1875 C-104.48204391 123.1365885 -116.47173759 118.08841322 -126.74609375 108.3125 C-139.35470033 95.37611335 -143.39943923 78.29518467 -143.21875 60.6328125 C-142.46370657 48.09369831 -140.25233893 35.8288413 -136 24 C-112.46177756 29.55195029 -88.60495042 38.16010949 -74.5703125 59.27734375 C-67.483938 71.56391843 -64.83184997 84.76032113 -67.7890625 98.7265625 C-69.10131308 103.08403578 -70.48272622 107.07009633 -72.69921875 111.0546875 C-74.18596881 114.42108253 -74.19506054 115.58003412 -73 119 C-71.83935432 121.47243227 -71.83935432 121.47243227 -70.4375 123.8125 C-69.98246094 124.60269531 -69.52742188 125.39289063 -69.05859375 126.20703125 C-68.70925781 126.79871094 -68.35992187 127.39039063 -68 128 C-65.66993951 123.44881692 -63.39058575 118.8766401 -61.14306641 114.28417969 C-60.03676114 112.07345948 -58.87430548 109.90130473 -57.69921875 107.7265625 C-53.81155918 100.77682426 -53.81155918 100.77682426 -53.76171875 93.16015625 C-55.35448375 90.62055865 -57.14392696 88.35155016 -59 86 C-64.54130251 75.08633713 -65.72495674 61.67523754 -62 50 C-59.23127692 41.8338829 -55.59341247 35.52346466 -50 29 C-48.9171875 27.515 -48.9171875 27.515 -47.8125 26 C-38.18347789 14.80203179 -15.15545265 0 0 0 Z M-37 36 C-44.80634435 44.1176021 -49.56579932 52.44723572 -50.16015625 63.8125 C-49.69059104 73.157993 -46.24375419 81.11105788 -40 88 C-28.66950538 86.56480402 -19.70130214 83.86286218 -12 75 C-1.82869573 59.04545414 -3.08616328 42.72788188 -7 25 C-7.62528285 22.98667792 -8.2749885 20.97959662 -9 19 C-18.07193514 19 -30.57392283 30.25352135 -37 36 Z M-126 43 C-128.96735224 59.95629851 -130.76597741 78.63325895 -120.78515625 93.71484375 C-114.17453454 102.17701815 -106.65054103 106.86584957 -95.99609375 108.4453125 C-93.16297379 108.61884581 -90.77344074 108.59865163 -88 108 C-82.41249242 102.6918678 -80.85207328 93.5967774 -80.5 86.125 C-80.83501342 75.67258118 -85.38460775 67.62446314 -92.56640625 60.2421875 C-98.67544907 54.6136312 -105.29070793 50.67752209 -112.75 47.125 C-113.37600098 46.82634033 -114.00200195 46.52768066 -114.64697266 46.2199707 C-118.41496364 44.50319671 -121.89135831 43.49152462 -126 43 Z M-105 181 C-103.865625 189.600625 -102.73125 198.20125 -101.5625 207.0625 C-101.02798218 211.11736694 -101.02798218 211.11736694 -100.48266602 215.25415039 C-100.19810905 217.41032292 -99.91352432 219.56649179 -99.62890625 221.72265625 C-99.40986633 223.38548645 -99.40986633 223.38548645 -99.18640137 225.08190918 C-98.91171946 227.16177721 -98.63548081 229.24144063 -98.35720825 231.3208313 C-98.13683692 232.97368221 -97.92080287 234.62712618 -97.71188354 236.28146362 C-97.51364894 239.41959414 -97.51364894 239.41959414 -96 242 C-93.91380978 242.09417773 -91.82439523 242.11742878 -89.73608398 242.11352539 C-89.08244873 242.11367142 -88.42881348 242.11381744 -87.75537109 242.1139679 C-85.58557872 242.11326883 -83.41587121 242.10547678 -81.24609375 242.09765625 C-79.74536689 242.09579205 -78.24463943 242.09436816 -76.74391174 242.09336853 C-72.78681774 242.08954352 -68.82976022 242.0797134 -64.87268066 242.06866455 C-60.83765151 242.05845006 -56.80261647 242.05387083 -52.76757812 242.04882812 C-44.84503531 242.03809111 -36.92252219 242.0210149 -29 242 C-27.31611569 234.95155706 -26.21342271 227.92873089 -25.2734375 220.74609375 C-25.07004761 219.22634949 -25.07004761 219.22634949 -24.86254883 217.67590332 C-24.36242934 213.93033653 -23.86910427 210.18386505 -23.375 206.4375 C-22.26125 198.043125 -21.1475 189.64875 -20 181 C-48.05 181 -76.1 181 -105 181 Z " fill="#000000" transform="translate(172,214)"/>
<path d="M0 0 C2.89529722 1.31787303 5.03026052 2.75650964 7.328125 4.94921875 C7.95460938 5.5421875 8.58109375 6.13515625 9.2265625 6.74609375 C9.89429688 7.38675781 10.56203125 8.02742187 11.25 8.6875 C12.69259165 10.05611259 14.13530329 11.4245987 15.578125 12.79296875 C16.68124023 13.84363525 16.68124023 13.84363525 17.80664062 14.91552734 C21.18745332 18.12850362 24.59411775 21.3136482 28 24.5 C29.33217875 25.74854055 30.66420952 26.99723902 31.99609375 28.24609375 C32.65593262 28.86468262 33.31577148 29.48327148 33.99560547 30.12060547 C36.0090627 32.00849753 38.02215353 33.89677957 40.03515625 35.78515625 C46.51633988 41.86440601 53.00177023 47.93897045 59.5 54 C66.67305034 60.69044827 73.83002849 67.39792758 80.98388672 74.10888672 C84.32192667 77.23996658 87.66100073 80.36994324 91 83.5 C95.01223745 87.26116612 99.02425161 91.0225688 103.03515625 94.78515625 C109.51633988 100.86440601 116.00177023 106.93897045 122.5 113 C128.31355923 118.42242358 134.12184544 123.85042652 139.9140625 129.2956543 C143.44940042 132.61784746 146.99783753 135.92443619 150.56640625 139.2109375 C151.30834229 139.89744385 152.05027832 140.5839502 152.81469727 141.29125977 C154.24738938 142.61639193 155.68395228 143.93735402 157.12475586 145.25366211 C158.08393921 146.14323608 158.08393921 146.14323608 159.0625 147.05078125 C159.63097656 147.57325439 160.19945312 148.09572754 160.78515625 148.6340332 C162 150 162 150 162 152 C152.83750503 152.27962563 143.67650554 152.49203492 134.5106554 152.62174606 C130.25303437 152.68404544 125.99835781 152.76833372 121.74243164 152.90527344 C117.62483641 153.03691342 113.5100475 153.10765742 109.39050865 153.13852692 C107.82942225 153.16048379 106.26846771 153.20336326 104.70859718 153.26876068 C96.58959816 153.59520788 90.71463751 153.3291502 84.40161419 147.80473709 C81.81374807 145.30209781 79.41106116 142.67408727 77 140 C75.62568488 138.74682031 74.23574924 137.50981491 72.8125 136.3125 C68.14868871 132.27444117 63.57902945 128.13365273 59 124 C57.33359149 122.49971321 55.66692647 120.99971128 54 119.5 C44 110.5 34 101.5 24 92.5 C22.76830078 91.39205078 22.76830078 91.39205078 21.51171875 90.26171875 C19.80444202 88.72437314 18.09876956 87.18524445 16.39453125 85.64453125 C11.65161631 81.36083954 6.87486661 77.13303908 2 73 C-0.81351786 74.28895717 -2.9325707 75.66268505 -5.171875 77.79296875 C-5.74953613 78.33711426 -6.32719727 78.88125977 -6.92236328 79.44189453 C-7.82704346 80.30596924 -7.82704346 80.30596924 -8.75 81.1875 C-10.01223105 82.37714061 -11.27524532 83.5659508 -12.5390625 84.75390625 C-13.14137695 85.32125488 -13.74369141 85.88860352 -14.36425781 86.47314453 C-16.83549106 88.77987479 -19.38608663 90.98756829 -21.9453125 93.1953125 C-24.66924703 95.58781774 -27.33343269 98.04405942 -30 100.5 C-33.90976768 104.1001789 -37.85866603 107.64417723 -41.875 111.125 C-44.61823418 113.54550075 -47.30884568 116.02200642 -50 118.5 C-53.90981595 122.10012756 -57.85866468 125.64417605 -61.875 129.125 C-64.6182372 131.54550341 -67.30871254 134.02214798 -70 136.5 C-79.46785617 145.20947971 -79.46785617 145.20947971 -84 149 C-84.54976501 149.51762405 -85.09953003 150.03524811 -85.66595459 150.56855774 C-88.89572156 152.54933537 -91.2885051 152.36037497 -95.06347656 152.34057617 C-96.11773834 152.34123329 -96.11773834 152.34123329 -97.19329834 152.34190369 C-99.50935948 152.33981874 -101.8246908 152.31650259 -104.140625 152.29296875 C-105.74916183 152.28737173 -107.35770378 152.28310213 -108.96624756 152.28010559 C-113.19468366 152.26866513 -117.42280937 152.239205 -121.65112305 152.20599365 C-125.96789349 152.17527544 -130.28471421 152.16159652 -134.6015625 152.14648438 C-143.06785058 152.11433438 -151.53388665 152.06314789 -160 152 C-158.18734862 148.04987178 -155.64901193 145.59970564 -152.4375 142.75 C-151.25433886 141.67934548 -150.07209357 140.60767824 -148.890625 139.53515625 C-148.25962891 138.9642627 -147.62863281 138.39336914 -146.97851562 137.80517578 C-143.50970693 134.64027308 -140.10107137 131.41173215 -136.6875 128.1875 C-135.23450725 126.81756805 -133.78138155 125.44777709 -132.328125 124.078125 C-131.60818359 123.39943359 -130.88824219 122.72074219 -130.14648438 122.02148438 C-126.74854719 118.82142525 -123.34344631 115.62903041 -119.9375 112.4375 C-119.28160889 111.82285889 -118.62571777 111.20821777 -117.94995117 110.57495117 C-116.62797315 109.33621663 -115.30595176 108.09752838 -113.98388672 106.85888672 C-110.65524888 103.73997846 -107.32768094 100.61992913 -104 97.5 C-102.66667174 96.24999459 -101.33333841 94.99999459 -100 93.75 C-99.34 93.13125 -98.68 92.5125 -98 91.875 C-96 90 -94 88.125 -92 86.25 C-91.33991943 85.63116943 -90.67983887 85.01233887 -89.99975586 84.37475586 C-88.66725663 83.125548 -87.33473712 81.87636178 -86.00219727 80.62719727 C-82.65593489 77.49025515 -79.31003281 74.35293042 -75.96484375 71.21484375 C-68.86597102 64.55621119 -61.75963107 57.90576365 -54.64208984 51.26708984 C-48.08916039 45.15342458 -41.55231303 39.0226535 -35.01611328 32.89111328 C-31.67807332 29.76003341 -28.338974 26.63008373 -25 23.5 C-24.35095703 22.89148193 -23.70191406 22.28296387 -23.03320312 21.65600586 C-19.51351486 18.35608052 -15.99336771 15.05664618 -12.47265625 11.7578125 C-11.73466797 11.06623047 -10.99667969 10.37464844 -10.23632812 9.66210938 C-8.81197562 8.32733879 -7.38750094 6.99269855 -5.96289062 5.65820312 C-5.32673828 5.06201172 -4.69058594 4.46582031 -4.03515625 3.8515625 C-3.19029663 3.05999756 -3.19029663 3.05999756 -2.32836914 2.25244141 C-1.54267139 1.51165305 -0.76357329 0.76357329 0 0 Z M-5.125 24.5 C-5.64288086 24.98629883 -6.16076172 25.47259766 -6.69433594 25.97363281 C-7.84453584 27.05534446 -8.9914988 28.14050507 -10.13574219 29.22851562 C-12.08608173 31.08179793 -14.04582651 32.92467975 -16.0078125 34.765625 C-18.88754403 37.46903959 -21.76366893 40.1762042 -24.63671875 42.88671875 C-28.77132614 46.78647823 -32.91503543 50.67642168 -37.0625 54.5625 C-37.71831055 55.17706055 -38.37412109 55.79162109 -39.04980469 56.42480469 C-40.37186154 57.66362333 -41.6939643 58.90239297 -43.01611328 60.14111328 C-45.6772441 62.63457256 -48.33767095 65.12878222 -50.99804688 67.62304688 C-52.99731471 69.49748238 -54.99670414 71.37178814 -56.99609375 73.24609375 C-59.676208 75.75865995 -62.35585061 78.27172781 -65.03515625 80.78515625 C-72.13402898 87.44378881 -79.24036893 94.09423635 -86.35791016 100.73291016 C-91.55191831 105.57874704 -96.73799032 110.43300053 -101.91625977 115.2956543 C-105.44617797 118.6099058 -108.98319596 121.91609928 -112.53125 125.2109375 C-113.63738647 126.24069702 -113.63738647 126.24069702 -114.76586914 127.29125977 C-116.18740566 128.61435149 -117.61099493 129.93524197 -119.03686523 131.25366211 C-119.67309814 131.84671143 -120.30933105 132.43976074 -120.96484375 133.05078125 C-121.80970337 133.83449097 -121.80970337 133.83449097 -122.67163086 134.6340332 C-124.11780276 135.98313882 -124.11780276 135.98313882 -125 138 C-120.57106883 138.17406614 -116.14398753 138.30053094 -111.71264648 138.38452148 C-110.20806165 138.41955689 -108.70371231 138.46720379 -107.19995117 138.52807617 C-98.54330634 139.12252573 -98.54330634 139.12252573 -90.5402832 136.52490234 C-88.80200406 134.77530417 -87.43316849 133.00030896 -86 131 C-84.79751251 129.88712731 -83.57007401 128.8002235 -82.3125 127.75 C-78.81285787 124.73283281 -75.39742911 121.63120277 -72 118.5 C-68.09036721 114.89967552 -64.14133061 111.35581986 -60.125 107.875 C-57.38176582 105.45449925 -54.69115432 102.97799358 -52 100.5 C-48.09018405 96.89987244 -44.14133532 93.35582395 -40.125 89.875 C-37.38176582 87.45449925 -34.69115432 84.97799358 -32 82.5 C-28.09288708 78.90236137 -24.14749422 75.35996362 -20.1328125 71.8828125 C-16.83619512 68.97261181 -13.61017889 65.98493632 -10.38671875 62.99414062 C-7.01212741 59.8773934 -3.54725146 56.91569333 0 54 C2.90121088 55.32972165 5.12744003 56.8094802 7.5 58.9375 C8.1909375 59.55496094 8.881875 60.17242187 9.59375 60.80859375 C12.92976457 63.84674988 16.25644618 66.89499065 19.57617188 69.95092773 C22.35335141 72.50440948 25.14906812 75.02919237 28 77.5 C31.9308925 80.9067735 35.75196573 84.43002785 39.578125 87.953125 C42.35494057 90.50555143 45.14980717 93.02983288 48 95.5 C51.9308925 98.9067735 55.75196573 102.43002785 59.578125 105.953125 C62.35494057 108.50555143 65.14980717 111.02983288 68 113.5 C71.39051225 116.43844395 74.69954682 119.46129279 78 122.5 C84.90216512 128.86048775 84.90216512 128.86048775 92 135 C92.5475293 135.51860596 93.09505859 136.03721191 93.65917969 136.5715332 C96.91902894 138.56083003 99.37288571 138.33967763 103.171875 138.29296875 C103.8542926 138.28872391 104.53671021 138.28447906 105.23980713 138.28010559 C107.41028004 138.26336972 109.57980979 138.22572959 111.75 138.1875 C113.22524697 138.17244646 114.70050855 138.15875922 116.17578125 138.14648438 C119.78415844 138.11348377 123.3919871 138.06173767 127 138 C120.78751071 130.65538834 114.23182777 123.98876423 106.93359375 117.71484375 C104.43430862 115.49830603 102.11718116 113.12837719 99.77734375 110.74609375 C97.93406426 108.93522357 96.02177201 107.24678646 94.0625 105.5625 C91.25423653 103.14382221 88.60029407 100.64100317 86 98 C83.41990785 95.37959391 80.78896393 92.89676588 78 90.5 C74.48998489 87.48358077 71.24948724 84.26904868 68.00390625 80.97265625 C65.41753849 78.42662171 62.6846472 76.07978443 59.93359375 73.71484375 C57.43430862 71.49830603 55.11718116 69.12837719 52.77734375 66.74609375 C50.93406426 64.93522357 49.02177201 63.24678646 47.0625 61.5625 C44.25423653 59.14382221 41.60029407 56.64100317 39 54 C36.41990785 51.37959391 33.78896393 48.89676588 31 46.5 C27.48858352 43.48237647 24.24692598 40.26640919 21 36.96875 C18.44443026 34.45311104 15.74533094 32.13654496 13.01953125 29.80859375 C10.10346108 27.19710344 7.43486299 24.36140526 4.76171875 21.50390625 C0.59425564 17.94631579 -1.90212008 21.44769033 -5.125 24.5 Z " fill="#000000" transform="translate(320,192)"/>
<path d="M0 0 C4.62 0 9.24 0 14 0 C14 33.33 14 66.66 14 101 C29.84 101 45.68 101 62 101 C62 69.65 62 38.3 62 6 C86.75 6 111.5 6 137 6 C137 37.35 137 68.7 137 101 C152.51 101 168.02 101 184 101 C184 67.67 184 34.34 184 0 C188.62 0 193.24 0 198 0 C198 37.95 198 75.9 198 115 C132.66 115 67.32 115 0 115 C0 77.05 0 39.1 0 0 Z M76 20 C76 46.73 76 73.46 76 101 C91.51 101 107.02 101 123 101 C123 74.27 123 47.54 123 20 C107.49 20 91.98 20 76 20 Z " fill="#000000" transform="translate(222,355)"/>
<path d="M0 0 C2.47327964 2.21926714 4.78635784 4.52247996 7 7 C8.175625 6.5978125 8.175625 6.5978125 9.375 6.1875 C10.57125 5.795625 11.7675 5.40375 13 5 C14.10794922 4.58621094 14.10794922 4.58621094 15.23828125 4.1640625 C23.78086466 1.19391388 31.13317244 1.38587907 39.375 5.25 C46.50423442 9.19694208 52.34057092 15.68114184 56 23 C58.31293307 23.54475671 58.31293307 23.54475671 61.0625 23.875 C69.94166323 25.37974823 76.41515382 28.79923385 82 36 C86.67334377 43.87387616 87.92454005 51.51594716 85.84375 60.4140625 C82.98166919 69.18581017 78.16927475 74.79459943 70 79 C69.32767838 79.34785553 68.65535675 79.69571106 67.96266174 80.05410767 C63.74453634 81.40083329 59.75411877 81.29492421 55.35131836 81.29052734 C54.38475311 81.29724457 53.41818787 81.30396179 52.42233276 81.31088257 C49.22811733 81.32987174 46.03411212 81.33378794 42.83984375 81.3359375 C40.61129165 81.34236722 38.3827404 81.34909571 36.15419006 81.35610962 C31.47948248 81.36808644 26.8048488 81.37179027 22.13012695 81.37060547 C16.16415714 81.37040282 10.19866657 81.39764748 4.23281002 81.43214989 C-0.3734094 81.45448646 -4.97951499 81.45844086 -9.585783 81.45738602 C-11.78363119 81.45973401 -13.98148291 81.46851196 -16.17927742 81.48405075 C-33.57341096 81.59546581 -46.94684239 80.27613423 -60.22265625 67.93359375 C-68.49211813 59.29316536 -72.82763144 48.60828885 -73.06640625 36.68359375 C-72.6354897 24.78768527 -68.85533772 14.94150787 -61 6 C-60.48824219 5.39542969 -59.97648438 4.79085937 -59.44921875 4.16796875 C-44.28552327 -12.44333489 -17.58752492 -13.55770127 0 0 Z M-52 17 C-57.25031695 24.0560618 -59.77029157 31.06461784 -59 40 C-57.06370739 49.90926218 -52.27836663 57.15644709 -44 63 C-35.78270184 67.52946044 -27.71863681 68.15087319 -18.5078125 68.14526367 C-17.7001947 68.14862228 -16.8925769 68.1519809 -16.06048584 68.15544128 C-13.41530786 68.16486882 -10.77019369 68.16688996 -8.125 68.16796875 C-6.27229792 68.17118603 -4.41959609 68.17455045 -2.56689453 68.17805481 C1.3063211 68.18402484 5.17951447 68.1858968 9.05273438 68.18530273 C14.00212403 68.185201 18.95137059 68.19887405 23.90072632 68.21607494 C27.72355804 68.22721989 31.54635536 68.22922121 35.36920166 68.22869301 C37.19354751 68.22986855 39.01789439 68.23426632 40.84222412 68.24202538 C43.39752116 68.25187985 45.95250995 68.24892629 48.5078125 68.24291992 C49.6240097 68.25134918 49.6240097 68.25134918 50.76275635 68.25994873 C56.93474437 68.22329138 62.8029937 67.70878268 67.8125 63.8125 C70.98600573 59.73227835 73.04490342 56.20026753 72.9375 50.9375 C71.40254921 46.12798751 69.10461728 42.99941564 65.375 39.625 C59.38201065 36.73948661 53.35479081 37.60670362 47 39 C46.90203125 38.34773438 46.8040625 37.69546875 46.703125 37.0234375 C45.21459891 28.32325912 42.09253104 23.21083913 35 18 C30.56409313 15.48232313 25.9735298 15.35303677 21 16 C14.55799768 17.86786229 10.40381265 21.03159598 6 26 C2.41629769 24.80543256 2.17601822 24.02536031 0.3125 20.875 C-4.90085263 12.77107562 -11.18368007 7.92255177 -20.4375 5.3125 C-33.04394708 3.7751284 -43.46633233 7.37227237 -52 17 Z " fill="#000000" transform="translate(300,75)"/>
<path d="M0 0 C4.30909405 3.43929543 8.04876639 7.09268083 11.109375 11.68359375 C13.44175736 11.93484201 13.44175736 11.93484201 16.109375 11.68359375 C24.34435667 11.46773578 31.67564756 13.36877543 38.109375 18.68359375 C46.16990269 26.51205251 49.33649934 32.30739196 49.546875 43.55859375 C49.48044235 52.85916448 47.22676406 60.29767319 40.80859375 67.15234375 C32.1263459 74.97634641 23.32812065 75.99683492 12.03515625 76.01953125 C10.29482368 76.02951645 10.29482368 76.02951645 8.51933289 76.03970337 C6.06930113 76.04980405 3.61924201 76.05452119 1.16918945 76.05419922 C-2.54848485 76.05855899 -6.26495833 76.09487166 -9.98242188 76.1328125 C-12.37239181 76.1386841 -14.76236734 76.14265119 -17.15234375 76.14453125 C-18.24963303 76.15890228 -19.3469223 76.17327332 -20.47746277 76.18807983 C-33.74976452 76.11086128 -43.42275281 71.94402505 -52.859375 62.76953125 C-60.519377 54.62266471 -63.79448803 44.83387282 -63.92578125 33.703125 C-63.26176373 21.1839655 -58.94183268 11.30229241 -49.7890625 2.7109375 C-35.20349754 -9.42652027 -15.6248606 -11.10916507 0 0 Z M-43.890625 16.68359375 C-48.3293229 23.14889318 -50.29200506 29.83948057 -49.890625 37.68359375 C-48.31310147 45.8405447 -44.16699228 51.80408552 -38.0625 57.2890625 C-31.06435588 61.78247518 -24.36320384 62.16166876 -16.26953125 62.1875 C-14.62053078 62.2024778 -14.62053078 62.2024778 -12.93821716 62.21775818 C-10.62283063 62.23288565 -8.30737925 62.23998565 -5.99194336 62.23950195 C-2.46683368 62.24606821 1.05546517 62.30062483 4.58007812 62.35742188 C6.83853211 62.36622452 9.09699937 62.37217835 11.35546875 62.375 C12.92149086 62.40733482 12.92149086 62.40733482 14.51914978 62.44032288 C21.87498756 62.37205775 26.56010267 60.56398188 32.109375 55.68359375 C34.97681978 51.87670775 36.11256289 47.82266477 36.10546875 43.0625 C35.22241398 36.95547914 32.84664474 32.63314197 28.109375 28.68359375 C22.37079005 25.15215686 17.49629046 25.37067295 11.109375 26.68359375 C9.10008865 27.32172602 7.09753294 27.98240017 5.109375 28.68359375 C4.75746094 27.88695312 4.40554688 27.0903125 4.04296875 26.26953125 C-0.10874517 17.35906431 -3.7674946 12.34800213 -12.765625 8.30859375 C-24.46016953 4.08015783 -35.77918882 7.29977542 -43.890625 16.68359375 Z " fill="#000000" transform="translate(432.890625,151.31640625)"/>
<path d="M0 0 C10.45079341 6.85735243 16.50249869 15.49542036 20.6015625 27.20703125 C23.20407388 39.76478032 21.27713619 52.63023 14.3515625 63.45703125 C6.92419782 73.62566768 -2.46731986 80.09695866 -14.6484375 83.20703125 C-28.26573611 84.31864746 -39.36489895 82.38092532 -50.7109375 74.45703125 C-51.7628125 73.73515625 -52.8146875 73.01328125 -53.8984375 72.26953125 C-63.4365056 62.73146315 -68.01101166 50.83395133 -68.02563477 37.51879883 C-67.77792851 25.28152342 -63.16223901 15.31070084 -54.83203125 6.4609375 C-40.04230197 -7.43244455 -17.56299799 -9.99623085 0 0 Z M-46.7109375 18.20703125 C-53.11898052 26.49518469 -54.99923887 35.0855546 -53.7109375 45.45703125 C-52.77896245 48.75133878 -51.46872133 51.52739153 -49.7109375 54.45703125 C-49.15019531 55.41222656 -49.15019531 55.41222656 -48.578125 56.38671875 C-44.34270567 62.92216712 -38.59176075 66.75380418 -31.16015625 68.94921875 C-22.72281018 70.69858875 -15.22020326 69.7160178 -7.7109375 65.45703125 C-0.09732258 59.90790259 5.32417922 53.81496459 7.2890625 44.45703125 C8.30817852 35.34637964 6.95378199 27.85916957 1.78125 20.234375 C-2.95039275 14.34733112 -9.17725398 9.86184975 -16.7109375 8.45703125 C-28.54980084 7.25178614 -38.27762667 9.39771293 -46.7109375 18.20703125 Z " fill="#000000" transform="translate(135.7109375,86.54296875)"/>
<path d="M0 0 C0.70429659 1.38743406 1.38777598 2.78544635 2.0625 4.1875 C2.44535156 4.96480469 2.82820313 5.74210937 3.22265625 6.54296875 C4.18958393 9.59923766 4.10097538 10.9880293 3 14 C0.40795898 15.57739258 0.40795898 15.57739258 -3.00390625 16.89453125 C-4.21884766 17.37470703 -5.43378906 17.85488281 -6.68554688 18.34960938 C-7.97770225 18.83766958 -9.27002221 19.32529425 -10.5625 19.8125 C-11.85943395 20.31784307 -13.15566886 20.82498414 -14.45117188 21.33398438 C-17.62766859 22.57388086 -20.81019361 23.79484959 -24 25 C-26.23758441 22.12272657 -27.60861681 19.74352653 -28.6875 16.25 C-28.93886719 15.45078125 -29.19023437 14.6515625 -29.44921875 13.828125 C-29.63097656 13.22484375 -29.81273437 12.6215625 -30 12 C-23.83304423 8.71196707 -17.51047999 5.87056586 -11.0625 3.1875 C-10.31685791 2.87353271 -9.57121582 2.55956543 -8.80297852 2.23608398 C-5.72955441 0.97302818 -3.35570106 0 0 0 Z " fill="#000000" transform="translate(191,86)"/>
<path d="M0 0 C4.26941071 0.57866851 7.87456091 1.60263608 11.8359375 3.28515625 C12.89941406 3.73310547 13.96289062 4.18105469 15.05859375 4.64257812 C16.15300781 5.11115234 17.24742188 5.57972656 18.375 6.0625 C19.49261719 6.53494141 20.61023438 7.00738281 21.76171875 7.49414062 C24.51031485 8.6570082 27.25623832 9.82578186 30 11 C29.35974468 14.44043811 28.56848893 17.20835977 26.9375 20.3125 C26.57527344 21.00988281 26.21304688 21.70726563 25.83984375 22.42578125 C25.56269531 22.94527344 25.28554688 23.46476562 25 24 C21.16022316 23.35952645 17.84403286 22.22822779 14.26171875 20.71484375 C12.66166992 20.04291992 12.66166992 20.04291992 11.02929688 19.35742188 C9.92650391 18.88884766 8.82371094 18.42027344 7.6875 17.9375 C6.56537109 17.46505859 5.44324219 16.99261719 4.28710938 16.50585938 C1.52295723 15.34138677 -1.239304 14.17263728 -4 13 C-3.23342104 8.14596415 -2.04191486 4.43894535 0 0 Z " fill="#000000" transform="translate(34,86)"/>
<path d="M0 0 C1.71360021 3.94902814 3.42247068 7.90005812 5.12695312 11.85302734 C5.70768151 13.19799169 6.28970745 14.54239653 6.87304688 15.88623047 C7.71043745 17.81593154 8.54316833 19.74758484 9.375 21.6796875 C9.87773438 22.84226074 10.38046875 24.00483398 10.8984375 25.20263672 C12 28 12 28 12 30 C5.565 32.475 5.565 32.475 -1 35 C-4.10717291 28.9955983 -6.75900082 22.90785348 -9.25 16.625 C-9.61351563 15.72394531 -9.97703125 14.82289062 -10.3515625 13.89453125 C-10.69445312 13.03472656 -11.03734375 12.17492187 -11.390625 11.2890625 C-11.70032227 10.51256348 -12.01001953 9.73606445 -12.32910156 8.93603516 C-13 7 -13 7 -13 5 C-11.21046815 4.16209211 -9.41830305 3.32980604 -7.625 2.5 C-6.62726563 2.0359375 -5.62953125 1.571875 -4.6015625 1.09375 C-2 0 -2 0 0 0 Z " fill="#000000" transform="translate(86,42)"/>
<path d="M0 0 C1.3503418 2.45263672 1.3503418 2.45263672 2.69921875 5.6796875 C3.42915039 7.41412109 3.42915039 7.41412109 4.17382812 9.18359375 C4.67333984 10.40175781 5.17285156 11.61992187 5.6875 12.875 C6.19861328 14.08542969 6.70972656 15.29585937 7.23632812 16.54296875 C11 25.57779122 11 25.57779122 11 29 C9.42274653 29.70133599 7.83788667 30.385583 6.25 31.0625 C4.92742187 31.63677734 4.92742187 31.63677734 3.578125 32.22265625 C0.68321204 33.09551637 -0.27464079 33.25033453 -3 32 C-4.46386719 29.40795898 -4.46386719 29.40795898 -5.796875 25.99609375 C-6.28027344 24.78115234 -6.76367188 23.56621094 -7.26171875 22.31445312 C-7.75814742 21.02226404 -8.25423683 19.72994456 -8.75 18.4375 C-9.26029995 17.14071683 -9.77200229 15.84448458 -10.28515625 14.54882812 C-11.53736741 11.37104697 -12.77487358 8.18829983 -14 5 C-11.76621926 2.6697174 -10.04378434 1.37988964 -7 0.25 C-5.9790625 -0.14445313 -5.9790625 -0.14445313 -4.9375 -0.546875 C-3 -1 -3 -1 0 0 Z " fill="#000000" transform="translate(141,175)"/>
<path d="M0 0 C4.85403585 0.76657896 8.56105465 1.95808514 13 4 C12.42133149 8.26941071 11.39736392 11.87456091 9.71484375 15.8359375 C9.04291992 17.43115234 9.04291992 17.43115234 8.35742188 19.05859375 C7.88884766 20.15300781 7.42027344 21.24742187 6.9375 22.375 C6.46505859 23.49261719 5.99261719 24.61023438 5.50585938 25.76171875 C4.3429918 28.51031485 3.17421814 31.25623832 2 34 C-2.85403585 33.23342104 -6.56105465 32.04191486 -11 30 C-10.42133149 25.73058929 -9.39736392 22.12543909 -7.71484375 18.1640625 C-7.26689453 17.10058594 -6.81894531 16.03710938 -6.35742188 14.94140625 C-5.88884766 13.84699219 -5.42027344 12.75257813 -4.9375 11.625 C-4.46505859 10.50738281 -3.99261719 9.38976562 -3.50585938 8.23828125 C-2.3429918 5.48968515 -1.17421814 2.74376168 0 0 Z " fill="#000000" transform="translate(84,174)"/>
<path d="M0 0 C1.41791408 0.45445964 2.83428046 0.91374944 4.25 1.375 C5.43335938 1.75785156 5.43335938 1.75785156 6.640625 2.1484375 C8.86627958 2.95173667 10.90931672 3.89711662 13 5 C11.96869585 11.11401112 9.44398139 16.55849327 7.0625 22.25 C6.60681641 23.36375 6.15113281 24.4775 5.68164062 25.625 C5.24142578 26.68203125 4.80121094 27.7390625 4.34765625 28.828125 C3.94554932 29.7965332 3.54344238 30.76494141 3.12915039 31.76269531 C2 34 2 34 0 35 C-2.07196631 34.26821134 -4.1108552 33.44100997 -6.125 32.5625 C-7.22070312 32.08941406 -8.31640625 31.61632812 -9.4453125 31.12890625 C-10.28835937 30.75636719 -11.13140625 30.38382813 -12 30 C-8.28723055 19.86229618 -4.35381971 9.88100928 0 0 Z " fill="#000000" transform="translate(139,42)"/>
<path d="M0 0 C9.8969501 3.58272135 19.51351367 7.41919667 29 12 C28.29120484 16.85834353 27.03597876 20.57395923 25 25 C18.89654102 23.96421938 13.44238254 21.48346366 7.75 19.125 C6.079375 18.45404297 6.079375 18.45404297 4.375 17.76953125 C3.31796875 17.33253906 2.2609375 16.89554688 1.171875 16.4453125 C0.2034668 16.04844238 -0.76494141 15.65157227 -1.76269531 15.24267578 C-4 14 -4 14 -5 11 C-4.00390625 8.30078125 -4.00390625 8.30078125 -2.5625 5.3125 C-2.08941406 4.31863281 -1.61632812 3.32476562 -1.12890625 2.30078125 C-0.75636719 1.54152344 -0.38382813 0.78226563 0 0 Z " fill="#000000" transform="translate(166,140)"/>
<path d="M0 0 C1.16796875 2.21484375 1.16796875 2.21484375 2.1875 4.9375 C2.53167969 5.83339844 2.87585937 6.72929687 3.23046875 7.65234375 C4 10 4 10 4 12 C0.31571664 13.63236282 -3.37296329 15.25455012 -7.0625 16.875 C-8.10083984 17.33519531 -9.13917969 17.79539063 -10.20898438 18.26953125 C-15.41956831 20.55226326 -20.47275617 22.63582918 -26 24 C-27.65 19.71 -29.3 15.42 -31 11 C-27.27122435 9.37409783 -23.54199772 7.74924436 -19.8125 6.125 C-18.75740234 5.66480469 -17.70230469 5.20460937 -16.61523438 4.73046875 C-15.59365234 4.28574219 -14.57207031 3.84101563 -13.51953125 3.3828125 C-12.58214111 2.97434082 -11.64475098 2.56586914 -10.67895508 2.14501953 C-9.7948999 1.76716309 -8.91084473 1.38930664 -8 1 C-6.684552 0.40034424 -6.684552 0.40034424 -5.3425293 -0.21142578 C-3 -1 -3 -1 0 0 Z " fill="#000000" transform="translate(60,141)"/>
</svg>
