<?xml version="1.0" encoding="UTF-8"?>
<!DOCTYPE svg PUBLIC "-//W3C//DTD SVG 1.1//EN" "http://www.w3.org/Graphics/SVG/1.1/DTD/svg11.dtd">
<svg xmlns="http://www.w3.org/2000/svg" version="1.1" width="512px" height="512px" style="shape-rendering:geometricPrecision; text-rendering:geometricPrecision; image-rendering:optimizeQuality; fill-rule:evenodd; clip-rule:evenodd" xmlns:xlink="http://www.w3.org/1999/xlink">
<g><path style="opacity:0.982" fill="#000000" d="M 224.5,15.5 C 249.502,15.3334 274.502,15.5 299.5,16C 301.333,16.5 302.5,17.6667 303,19.5C 303.667,54.1667 303.667,88.8333 303,123.5C 302.5,125.333 301.333,126.5 299.5,127C 284.837,127.5 270.17,127.667 255.5,127.5C 255.5,159.5 255.5,191.5 255.5,223.5C 271.5,223.5 287.5,223.5 303.5,223.5C 303.333,212.495 303.5,201.495 304,190.5C 311.413,167.529 327.246,157.196 351.5,159.5C 348.776,145.284 353.776,134.95 366.5,128.5C 367.332,118.851 367.832,109.184 368,99.5C 369.539,96.4792 372.039,95.1459 375.5,95.5C 375.5,84.8333 375.5,74.1667 375.5,63.5C 368.825,63.6663 362.158,63.4996 355.5,63C 354.584,62.6258 353.75,62.1258 353,61.5C 351.387,51.9339 351.053,42.2672 352,32.5C 354.833,24.3333 360.333,18.8333 368.5,16C 399.833,15.3333 431.167,15.3333 462.5,16C 477.758,22.356 482.925,33.5226 478,49.5C 474.686,56.1487 469.519,60.6487 462.5,63C 449.504,63.4999 436.504,63.6666 423.5,63.5C 423.5,74.1667 423.5,84.8333 423.5,95.5C 426.961,95.1459 429.461,96.4792 431,99.5C 431.168,109.184 431.668,118.851 432.5,128.5C 445.224,134.95 450.224,145.284 447.5,159.5C 468.425,156.876 483.591,164.876 493,183.5C 493.822,185.788 494.489,188.122 495,190.5C 495.667,281.833 495.667,373.167 495,464.5C 490.833,480.667 480.667,490.833 464.5,495C 320.753,495.997 177.086,495.663 33.5,494C 27.5567,358.637 21.7234,223.137 16,87.5C 15.0513,77.4002 15.3846,67.4002 17,57.5C 17.7504,56.8742 18.5838,56.3742 19.5,56C 70.1667,55.3333 120.833,55.3333 171.5,56C 172.416,56.3742 173.25,56.8742 174,57.5C 175.118,62.7258 175.618,68.0591 175.5,73.5C 173.355,123.497 171.355,173.497 169.5,223.5C 182.167,223.5 194.833,223.5 207.5,223.5C 207.333,159.832 207.5,96.1658 208,32.5C 211.019,24.3156 216.519,18.649 224.5,15.5 Z M 231.5,31.5 C 237.925,31.1304 244.258,31.6304 250.5,33C 253.094,34.339 254.594,36.5056 255,39.5C 255.667,60.8333 255.667,82.1667 255,103.5C 254.5,108 252,110.5 247.5,111C 239.507,111.5 231.507,111.666 223.5,111.5C 223.333,87.4977 223.5,63.4977 224,39.5C 224.68,34.9895 227.18,32.3228 231.5,31.5 Z M 270.5,32.5 C 275.975,31.5111 281.642,31.1778 287.5,31.5C 287.5,36.8333 287.5,42.1667 287.5,47.5C 281.842,47.1578 279.176,49.8244 279.5,55.5C 279.176,61.1756 281.842,63.8422 287.5,63.5C 287.5,68.8333 287.5,74.1667 287.5,79.5C 281.842,79.1578 279.176,81.8244 279.5,87.5C 279.176,93.1756 281.842,95.8422 287.5,95.5C 287.5,100.833 287.5,106.167 287.5,111.5C 281.824,111.666 276.157,111.499 270.5,111C 271.832,84.7356 271.832,58.569 270.5,32.5 Z M 375.5,31.5 C 402.169,31.3334 428.835,31.5 455.5,32C 462.592,34.1593 464.258,38.4926 460.5,45C 458.913,45.8624 457.246,46.5291 455.5,47C 426.169,47.5 396.835,47.6666 367.5,47.5C 367.001,42.6355 368.001,38.1355 370.5,34C 372.315,33.2432 373.981,32.4098 375.5,31.5 Z M 391.5,63.5 C 396.833,63.5 402.167,63.5 407.5,63.5C 407.5,74.1667 407.5,84.8333 407.5,95.5C 402.167,95.5 396.833,95.5 391.5,95.5C 391.5,84.8333 391.5,74.1667 391.5,63.5 Z M 32.5,71.5 C 74.5,71.5 116.5,71.5 158.5,71.5C 158.805,76.7616 158.471,81.9283 157.5,87C 116.167,87.6667 74.8333,87.6667 33.5,87C 32.5286,81.9283 32.1953,76.7616 32.5,71.5 Z M 33.5,103.5 C 74.8333,103.5 116.167,103.5 157.5,103.5C 155.486,143.482 153.82,183.482 152.5,223.5C 129.498,223.333 106.498,223.5 83.5,224C 81.6667,224.5 80.5,225.667 80,227.5C 79.5,295.499 79.3333,363.499 79.5,431.5C 68.8333,431.5 58.1667,431.5 47.5,431.5C 43.0935,322.152 38.4269,212.818 33.5,103.5 Z M 383.5,111.5 C 394.167,111.5 404.833,111.5 415.5,111.5C 415.5,116.833 415.5,122.167 415.5,127.5C 404.833,127.5 394.167,127.5 383.5,127.5C 383.5,122.167 383.5,116.833 383.5,111.5 Z M 223.5,127.5 C 228.833,127.5 234.167,127.5 239.5,127.5C 239.5,159.5 239.5,191.5 239.5,223.5C 234.167,223.5 228.833,223.5 223.5,223.5C 223.5,191.5 223.5,159.5 223.5,127.5 Z M 375.5,143.5 C 391.503,143.333 407.503,143.5 423.5,144C 428,144.5 430.5,147 431,151.5C 431.497,154.146 431.664,156.813 431.5,159.5C 410.167,159.5 388.833,159.5 367.5,159.5C 367.001,154.636 368.001,150.136 370.5,146C 372.315,145.243 373.981,144.41 375.5,143.5 Z M 343.5,175.5 C 380.835,175.333 418.168,175.5 455.5,176C 469.333,177.833 477.167,185.667 479,199.5C 479.667,284.833 479.667,370.167 479,455.5C 478.037,466.795 472.204,474.295 461.5,478C 443.872,479.581 426.206,479.914 408.5,479C 411.882,474.735 414.048,469.902 415,464.5C 415.808,454.453 415.641,444.453 414.5,434.5C 413.91,433.201 412.91,432.368 411.5,432C 402.5,431.667 393.5,431.333 384.5,431C 387.882,426.735 390.048,421.902 391,416.5C 391.667,394.5 391.667,372.5 391,350.5C 387.44,335.939 378.606,326.106 364.5,321C 349.558,319.566 334.558,319.066 319.5,319.5C 319.034,277.466 319.534,235.466 321,193.5C 324.866,182.786 332.366,176.786 343.5,175.5 Z M 398.5,215.5 C 412.587,215.387 424.754,220.054 435,229.5C 440.736,238.932 439.236,247.099 430.5,254C 411.965,264.756 392.965,265.756 373.5,257C 358.236,248.315 356.569,237.648 368.5,225C 377.818,219.343 387.818,216.177 398.5,215.5 Z M 95.5,239.5 C 106.167,239.5 116.833,239.5 127.5,239.5C 127.334,243.514 127.501,247.514 128,251.5C 129.529,254.516 132.029,255.849 135.5,255.5C 137.926,255.596 140.093,254.93 142,253.5C 143.379,248.964 143.879,244.297 143.5,239.5C 196.833,239.5 250.167,239.5 303.5,239.5C 303.5,266.167 303.5,292.833 303.5,319.5C 273.831,319.333 244.165,319.5 214.5,320C 198.333,324.167 188.167,334.333 184,350.5C 183.333,372.5 183.333,394.5 184,416.5C 184.952,421.902 187.118,426.735 190.5,431C 181.5,431.333 172.5,431.667 163.5,432C 162.584,432.374 161.75,432.874 161,433.5C 159.383,443.734 159.05,454.067 160,464.5C 160.952,469.902 163.118,474.735 166.5,479C 158.841,479.5 151.174,479.666 143.5,479.5C 143.666,475.486 143.499,471.486 143,467.5C 141.471,464.484 138.971,463.151 135.5,463.5C 133.074,463.404 130.907,464.07 129,465.5C 127.621,470.036 127.121,474.703 127.5,479.5C 116.833,479.5 106.167,479.5 95.5,479.5C 95.5,399.5 95.5,319.5 95.5,239.5 Z M 223.5,335.5 C 266.168,335.333 308.835,335.5 351.5,336C 365.333,337.833 373.167,345.667 375,359.5C 375.667,375.5 375.667,391.5 375,407.5C 373.167,421.333 365.333,429.167 351.5,431C 308.833,431.667 266.167,431.667 223.5,431C 209.667,429.167 201.833,421.333 200,407.5C 199.333,391.5 199.333,375.5 200,359.5C 202.012,345.656 209.845,337.656 223.5,335.5 Z M 47.5,447.5 C 58.1667,447.5 68.8333,447.5 79.5,447.5C 79.5,458.167 79.5,468.833 79.5,479.5C 68.8333,479.5 58.1667,479.5 47.5,479.5C 47.5,468.833 47.5,458.167 47.5,447.5 Z M 175.5,447.5 C 250.167,447.5 324.833,447.5 399.5,447.5C 401.03,462.293 395.03,472.46 381.5,478C 350.199,479.144 318.866,479.644 287.5,479.5C 256.134,479.644 224.801,479.144 193.5,478C 179.97,472.46 173.97,462.293 175.5,447.5 Z"/></g>
<g><path style="opacity:0.937" fill="#000000" d="M 386.5,199.5 C 404.59,197.085 421.59,200.252 437.5,209C 456.438,221.808 460.605,238.308 450,258.5C 441.43,268.705 430.597,275.205 417.5,278C 397.809,282.12 379.142,279.453 361.5,270C 342.562,257.192 338.395,240.692 349,220.5C 359.121,209.191 371.621,202.191 386.5,199.5 Z M 398.5,215.5 C 387.818,216.177 377.818,219.343 368.5,225C 356.569,237.648 358.236,248.315 373.5,257C 392.965,265.756 411.965,264.756 430.5,254C 439.236,247.099 440.736,238.932 435,229.5C 424.754,220.054 412.587,215.387 398.5,215.5 Z"/></g>
<g><path style="opacity:0.95" fill="#000000" d="M 131.5,271.5 C 134.187,271.336 136.854,271.503 139.5,272C 141.333,272.5 142.5,273.667 143,275.5C 143.667,283.5 143.667,291.5 143,299.5C 142.5,301.333 141.333,302.5 139.5,303C 136.833,303.667 134.167,303.667 131.5,303C 129.667,302.5 128.5,301.333 128,299.5C 127.333,291.5 127.333,283.5 128,275.5C 128.69,273.65 129.856,272.316 131.5,271.5 Z"/></g>
<g><path style="opacity:0.95" fill="#000000" d="M 131.5,319.5 C 134.187,319.336 136.854,319.503 139.5,320C 141.333,320.5 142.5,321.667 143,323.5C 143.667,331.5 143.667,339.5 143,347.5C 142.5,349.333 141.333,350.5 139.5,351C 136.833,351.667 134.167,351.667 131.5,351C 129.667,350.5 128.5,349.333 128,347.5C 127.333,339.5 127.333,331.5 128,323.5C 128.69,321.65 129.856,320.316 131.5,319.5 Z"/></g>
<g><path style="opacity:0.95" fill="#000000" d="M 131.5,367.5 C 134.187,367.336 136.854,367.503 139.5,368C 141.333,368.5 142.5,369.667 143,371.5C 143.667,379.5 143.667,387.5 143,395.5C 142.5,397.333 141.333,398.5 139.5,399C 136.833,399.667 134.167,399.667 131.5,399C 129.667,398.5 128.5,397.333 128,395.5C 127.333,387.5 127.333,379.5 128,371.5C 128.69,369.65 129.856,368.316 131.5,367.5 Z"/></g>
<g><path style="opacity:0.95" fill="#000000" d="M 131.5,415.5 C 134.187,415.336 136.854,415.503 139.5,416C 141.333,416.5 142.5,417.667 143,419.5C 143.667,427.5 143.667,435.5 143,443.5C 142.5,445.333 141.333,446.5 139.5,447C 136.833,447.667 134.167,447.667 131.5,447C 129.667,446.5 128.5,445.333 128,443.5C 127.333,435.5 127.333,427.5 128,419.5C 128.69,417.65 129.856,416.316 131.5,415.5 Z"/></g>
</svg>
