<?xml version="1.0" encoding="UTF-8"?>
<svg version="1.1" xmlns="http://www.w3.org/2000/svg" width="512" height="512">
<path d="M0 0 C1.03388206 -0.00297112 2.06776412 -0.00594224 3.13297594 -0.0090034 C6.59650186 -0.01767321 10.05999314 -0.01919721 13.52352905 -0.02069092 C16.00737583 -0.02532033 18.4912219 -0.03034515 20.97506714 -0.03573608 C27.72323756 -0.04885076 34.47139446 -0.05534032 41.21957445 -0.05974674 C45.43726126 -0.06251364 49.6549458 -0.06675182 53.87263107 -0.07125092 C65.56172097 -0.08344074 77.25080905 -0.09374034 88.93990517 -0.09712601 C90.06122085 -0.09745536 90.06122085 -0.09745536 91.20518937 -0.09779136 C92.32911339 -0.09811878 92.32911339 -0.09811878 93.47574294 -0.09845281 C94.99395029 -0.09889626 96.51215764 -0.09934283 98.03036499 -0.09979248 C99.15997812 -0.10012463 99.15997812 -0.10012463 100.31241171 -0.10046348 C112.50628655 -0.10440884 124.70010154 -0.12185614 136.89395328 -0.145152 C149.4283011 -0.16890405 161.96261893 -0.18132962 174.49698961 -0.18249393 C181.52844847 -0.18340857 188.55982934 -0.1891075 195.59126663 -0.20731354 C202.20851052 -0.22438735 208.82563298 -0.22593841 215.44290161 -0.21717453 C217.86638154 -0.21640538 220.28986949 -0.2207307 222.71332932 -0.23063278 C242.3367788 -0.30608552 258.59404153 0.71548996 273.6499939 14.88262939 C283.09551075 25.2030618 287.87783402 37.9478573 287.8140564 51.85137939 C287.81083374 53.09532471 287.80761108 54.33927002 287.80429077 55.62091064 C287.79591187 56.90610596 287.78753296 58.19130127 287.77890015 59.51544189 C287.77438843 60.82384033 287.76987671 62.13223877 287.76522827 63.48028564 C287.75347609 66.7003847 287.73704558 69.9203896 287.71640015 73.14044189 C288.38389282 73.32655029 289.0513855 73.51265869 289.73910522 73.70440674 C300.29520456 76.74018538 308.02222523 81.44233377 313.71640015 91.14044189 C317.38620335 98.51458055 318.29643648 104.85214327 318.23397827 113.02496338 C318.24449219 114.74166229 318.24449219 114.74166229 318.25521851 116.49304199 C318.27272103 120.24945859 318.26120164 124.00511232 318.24765015 127.76153564 C318.25034745 130.38890222 318.25423185 133.01626781 318.25924683 135.64363098 C318.26649998 141.14012805 318.2569984 146.63640932 318.23788452 152.13287354 C318.21613086 158.46097424 318.22316516 164.78855901 318.24519014 171.11664718 C318.26562748 177.23667306 318.26333927 183.35647272 318.25166321 189.47651863 C318.24900556 192.06592952 318.25223161 194.65535369 318.26158142 197.24474907 C318.27180608 200.87235627 318.25616113 204.49899062 318.23397827 208.12652588 C318.2420752 209.18400528 318.25017212 210.24148468 318.2585144 211.33100891 C318.10623994 224.85774024 312.29711727 236.47313086 303.21640015 246.32794189 C293.69213955 255.44997128 281.83513811 260.14044189 268.71640015 260.14044189 C268.71640015 272.35044189 268.71640015 284.56044189 268.71640015 297.14044189 C271.8462439 297.11723877 274.97608765 297.09403564 278.20077515 297.07012939 C281.23234654 297.05453154 284.26391347 297.04238754 287.29550171 297.03057861 C289.4022929 297.02052156 291.50907014 297.00687422 293.61581421 296.98956299 C296.64416956 296.96530189 299.67234034 296.95395581 302.70077515 296.94512939 C303.64257629 296.93480682 304.58437744 296.92448425 305.55471802 296.91384888 C306.87563446 296.91362228 306.87563446 296.91362228 308.22323608 296.91339111 C308.99600891 296.90894989 309.76878174 296.90450867 310.56497192 296.89993286 C313.0286212 297.17534521 314.61878984 297.83266008 316.71640015 299.14044189 C318.24132012 302.19028185 317.95202563 304.78277879 317.71640015 308.14044189 C316.71722221 309.83950293 316.71722221 309.83950293 314.71640015 311.14044189 C311.88890954 311.43468084 309.28181236 311.54270372 306.45324707 311.51796532 C305.59636724 311.52232564 304.73948741 311.52668596 303.85664153 311.53117841 C300.95963949 311.54220461 298.06310646 311.53167851 295.16610718 311.52139282 C293.07850461 311.52484648 290.99090386 311.52960906 288.90330696 311.53557456 C283.14663132 311.54815437 277.39010395 311.54188256 271.63342762 311.5326159 C265.43294558 311.52585421 259.23248983 311.53629228 253.03201294 311.54455566 C241.58062245 311.55715245 230.12929842 311.55602169 218.67790824 311.54782126 C208.10009657 311.54028332 197.52230233 311.5383004 186.94448853 311.54188919 C186.24363865 311.54211835 185.54278877 311.5423475 184.82070102 311.5425836 C181.97593334 311.54351757 179.13116566 311.54447277 176.286398 311.54546289 C149.58426086 311.55464597 122.88215402 311.54630989 96.18002155 311.5301722 C72.44148048 311.51593471 48.70298768 311.51720856 24.96444702 311.53155518 C-1.68793288 311.54760884 -28.340286 311.55399479 -54.99267006 311.54471838 C-57.83234278 311.54375619 -60.6720155 311.54281767 -63.51168823 311.54188919 C-64.21092061 311.54165196 -64.91015298 311.54141473 -65.63057421 311.54117031 C-76.20337964 311.53775365 -86.77616575 311.54175658 -97.34896851 311.54932785 C-109.36718613 311.55789113 -121.38533424 311.55550231 -133.40354967 311.53948562 C-139.54053263 311.5315776 -145.67741739 311.52855423 -151.81439972 311.53843307 C-157.4249883 311.54732827 -163.035387 311.54253313 -168.64595819 311.52650042 C-170.68291861 311.52313055 -172.71989486 311.52489567 -174.75684524 311.53212778 C-177.51161179 311.54116328 -180.26571569 311.53198305 -183.02044678 311.51796532 C-183.82350699 311.52498882 -184.6265672 311.53201231 -185.45396256 311.53924865 C-190.7566172 311.48478831 -190.7566172 311.48478831 -193.28051567 309.83559668 C-194.97382051 306.97400854 -194.57174229 304.36763713 -194.28359985 301.14044189 C-192.28359985 298.14044189 -192.28359985 298.14044189 -189.28359985 297.14044189 C-187.38889169 297.0718924 -185.49191646 297.05563817 -183.59609985 297.07794189 C-182.60223267 297.08696533 -181.60836548 297.09598877 -180.5843811 297.10528564 C-179.44549438 297.12268799 -179.44549438 297.12268799 -178.28359985 297.14044189 C-178.3300061 295.86169189 -178.37641235 294.58294189 -178.42422485 293.26544189 C-178.46177012 291.5571321 -178.49816731 289.84879681 -178.53359985 288.14044189 C-178.58387329 286.88167236 -178.58387329 286.88167236 -178.63516235 285.59747314 C-178.74428948 278.55877347 -177.16501221 273.40604257 -172.4671936 268.08184814 C-171.89098267 267.62680908 -171.31477173 267.17177002 -170.72109985 266.70294189 C-170.14231079 266.22985596 -169.56352173 265.75677002 -168.9671936 265.26934814 C-165.30457552 262.8134395 -161.91832263 263.02413306 -157.6468811 263.04278564 C-155.6987854 263.04761963 -155.6987854 263.04761963 -153.71133423 263.05255127 C-152.33958877 263.06090658 -150.96784398 263.06937153 -149.59609985 263.07794189 C-148.2126379 263.08295854 -146.82917422 263.08752116 -145.44570923 263.09161377 C-142.05829591 263.1034166 -138.67096952 263.11988171 -135.28359985 263.14044189 C-135.28636523 262.25676532 -135.28913061 261.37308874 -135.29197979 260.46263409 C-135.35817405 238.98105462 -135.40784845 217.49949267 -135.43903637 196.01783276 C-135.4545187 185.62954742 -135.47563427 175.24133008 -135.50991821 164.85308838 C-135.5397788 155.80085036 -135.55916491 146.74866157 -135.56586534 137.69637567 C-135.56978327 132.90129874 -135.57901921 128.10636267 -135.60079002 123.3113308 C-135.62110246 118.80110562 -135.62744432 114.29107978 -135.6229229 109.78081322 C-135.62375046 108.12274087 -135.62974729 106.46466207 -135.64121628 104.80662918 C-135.65607874 102.54783556 -135.65257686 100.28980072 -135.6443634 98.0309906 C-135.64712878 96.76536883 -135.64989416 95.49974707 -135.65274334 94.19577312 C-135.28359985 91.14044189 -135.28359985 91.14044189 -133.88214588 89.23907948 C-131.90759672 87.88202508 -130.67018078 87.67660221 -128.28359985 87.64044189 C-127.60297485 87.60950439 -126.92234985 87.57856689 -126.22109985 87.54669189 C-124.28359985 88.14044189 -124.28359985 88.14044189 -122.68505383 90.23660564 C-120.97149694 93.78712439 -120.91411838 96.25797576 -120.9228363 100.1955719 C-120.92027303 100.89404792 -120.91770975 101.59252395 -120.91506881 102.31216592 C-120.91013818 104.64619338 -120.92661125 106.97957001 -120.94302368 109.3135376 C-120.94387011 110.9891305 -120.9433945 112.66472452 -120.94169617 114.34031677 C-120.94083541 118.88542785 -120.95847416 123.43030141 -120.97941804 127.97535729 C-120.99817146 132.72659619 -120.99993423 137.47784052 -121.00349426 142.22911072 C-121.01281864 151.22465241 -121.03743778 160.22008473 -121.06754273 169.21557826 C-121.10107448 179.4573219 -121.11756967 189.69907076 -121.13262904 199.94085562 C-121.16398696 221.00744543 -121.21675514 242.07393677 -121.28359985 263.14044189 C-120.47729126 263.11949463 -119.67098267 263.09854736 -118.84024048 263.07696533 C-115.15482258 262.99335016 -111.46960491 262.94163641 -107.78359985 262.89044189 C-106.51516235 262.85692627 -105.24672485 262.82341064 -103.93984985 262.78887939 C-96.54095781 262.7118076 -91.53262363 263.05477946 -85.28359985 267.14044189 C-83.4437561 268.95684814 -83.4437561 268.95684814 -82.34609985 270.70294189 C-81.96582642 271.28173096 -81.58555298 271.86052002 -81.1937561 272.45684814 C-76.89984026 280.39967101 -79.28359985 286.66064791 -79.28359985 297.14044189 C-64.43359985 297.14044189 -49.58359985 297.14044189 -34.28359985 297.14044189 C-34.28359985 284.93044189 -34.28359985 272.72044189 -34.28359985 260.14044189 C-36.92359985 260.14044189 -39.56359985 260.14044189 -42.28359985 260.14044189 C-57.53426665 257.36602681 -69.21512241 249.72135118 -77.97109985 237.07794189 C-86.54733646 222.52414645 -85.87717889 207.60474392 -85.81484985 191.22247314 C-85.81754931 188.7129247 -85.8214355 186.20337729 -85.82644653 183.6938324 C-85.83306489 177.7892847 -85.81919909 171.88502536 -85.79784346 165.98051995 C-85.78280588 161.28932661 -85.7881629 156.59846861 -85.80508423 151.9072876 C-85.82834341 145.40066047 -85.83187483 138.89435567 -85.81886292 132.38770103 C-85.81620751 129.92109792 -85.8194233 127.45448085 -85.82878113 124.98789406 C-85.83901022 121.53552951 -85.82335716 118.08418602 -85.80117798 114.63189697 C-85.8092749 113.62745544 -85.81737183 112.62301392 -85.82571411 111.58813477 C-85.6863047 99.79565466 -81.51288277 90.6919291 -73.47109985 82.23419189 C-68.22038108 77.23754016 -61.72847491 73.14044189 -54.28359985 73.14044189 C-54.30454712 72.23390869 -54.32549438 71.32737549 -54.34707642 70.39337158 C-54.41598709 66.97138945 -54.46575047 63.55016353 -54.50332642 60.12774658 C-54.52321962 58.6575748 -54.55034457 57.18747975 -54.58535767 55.71759033 C-54.95776693 39.66017913 -51.30512851 26.29810621 -40.03359985 14.39044189 C-28.42287306 3.36414765 -15.62289438 -0.01406235 0 0 Z M-32.02578735 27.01934814 C-39.94444259 36.76993109 -40.83995085 46.61255563 -40.53359985 58.76544189 C-40.51348809 60.16515569 -40.49524564 61.56489765 -40.47891235 62.96466064 C-40.43211704 66.35732104 -40.36656348 69.74850573 -40.28359985 73.14044189 C-39.05927246 73.63616699 -39.05927246 73.63616699 -37.81021118 74.14190674 C-36.73537476 74.58228271 -35.66053833 75.02265869 -34.5531311 75.47637939 C-33.48941284 75.90998779 -32.42569458 76.34359619 -31.32974243 76.79034424 C-22.57419857 80.67093714 -17.56325549 86.61583054 -13.28359985 95.14044189 C-11.39975948 100.63382411 -10.95131823 105.57140953 -10.86953735 111.35528564 C-10.8501712 112.21102676 -10.83080505 113.06676788 -10.81085205 113.94844055 C-10.75149071 116.65817572 -10.7048462 119.36795439 -10.65859985 122.07794189 C-10.62038 123.92496473 -10.58132599 125.77197051 -10.54141235 127.61895752 C-10.44582538 132.12597898 -10.36163561 136.63308377 -10.28359985 141.14044189 C-8.52793685 141.14402442 -8.52793685 141.14402442 -6.73680592 141.14767933 C21.04172799 141.20502845 48.82018864 141.27775134 76.59863112 141.36942818 C80.01703749 141.38069646 83.43544427 141.39183489 86.85385132 141.40289307 C87.53439993 141.40509675 88.21494855 141.40730043 88.91611985 141.4095709 C99.93815774 141.44495162 110.96019556 141.46981137 121.98226919 141.49078891 C133.2903715 141.51254481 144.59840021 141.54581611 155.90644389 141.58914346 C162.25866825 141.61311645 168.61081086 141.63181852 174.96307945 141.6380558 C180.93925938 141.64408818 186.91523005 141.66402118 192.89133263 141.69471741 C195.08713327 141.70352729 197.28296123 141.70721415 199.47877884 141.70545006 C202.47255149 141.70380398 205.46568119 141.72043998 208.45936584 141.74171448 C209.76822385 141.73444311 209.76822385 141.73444311 211.10352343 141.72702485 C215.72774371 141.78140286 219.05533948 141.97736131 222.71640015 145.14044189 C223.34140015 148.64044189 223.34140015 148.64044189 222.71640015 152.14044189 C218.39228184 155.86456951 213.93223974 155.5818362 208.51986694 155.57281494 C207.60230118 155.58300659 206.68473541 155.59319824 205.73936462 155.60369873 C202.71472059 155.63382731 199.69039328 155.64309456 196.6656189 155.65216064 C194.56525113 155.66900741 192.46489346 155.68715765 190.36454773 155.70655823 C184.84247996 155.75406447 179.32045308 155.78386993 173.79824829 155.80999756 C168.16085741 155.83979982 162.52360738 155.88633134 156.88632202 155.93145752 C145.82973886 156.01749795 134.77317043 156.08329362 123.71640015 156.14044189 C123.71640015 168.02044189 123.71640015 179.90044189 123.71640015 192.14044189 C162.98640015 192.14044189 202.25640015 192.14044189 242.71640015 192.14044189 C242.92629988 163.63004527 242.92629988 163.63004527 243.1043396 135.1194458 C243.15426636 129.57867432 243.15426636 129.57867432 243.18141174 126.97671509 C243.19745729 125.17719426 243.20781556 123.37761678 243.21351624 121.57803345 C243.26597199 106.94390933 243.77123303 94.56856405 254.38046265 83.38653564 C260.06809252 78.20533857 266.46595093 75.48526803 273.71640015 73.14044189 C275.20031378 49.0942518 275.20031378 49.0942518 265.40390015 27.91387939 C258.3566077 20.50769706 250.22216315 14.66592626 239.63155752 14.01164073 C238.50524527 14.00895787 238.50524527 14.00895787 237.35617924 14.00622082 C236.04998523 13.99953405 236.04998523 13.99953405 234.71740347 13.9927122 C233.28907624 13.99298874 233.28907624 13.99298874 231.83189392 13.99327087 C230.30919377 13.98775584 230.30919377 13.98775584 228.755732 13.9821294 C225.34360913 13.97108923 221.93151672 13.96724809 218.51937866 13.96343994 C216.07685754 13.95717542 213.63433736 13.95052863 211.19181824 13.94352722 C203.85335122 13.92429662 196.5148923 13.91369717 189.17640749 13.90479943 C185.71680083 13.90041273 182.25719571 13.8950468 178.79759026 13.88981056 C167.28958867 13.87279749 155.78158802 13.85830575 144.27357578 13.85106182 C141.28812725 13.84915205 138.30267873 13.84723171 135.31723022 13.84527588 C134.57524857 13.84479214 133.83326692 13.8443084 133.06880098 13.84381 C121.06298363 13.83551884 109.05726622 13.81019779 97.05149246 13.7776952 C84.71269566 13.74456477 72.37394952 13.72660754 60.03510803 13.72341758 C53.11254584 13.72125767 46.19012924 13.71258589 39.26761055 13.68695641 C32.74968208 13.66288015 26.23196755 13.65946118 19.71398735 13.66971779 C17.32801315 13.67021218 14.94202589 13.66392059 12.55609131 13.65016174 C-4.63007089 13.55664052 -19.55576577 13.57073742 -32.02578735 27.01934814 Z M-66.9593811 95.96856689 C-71.14047356 102.82605187 -71.72398374 109.02251922 -71.68765259 116.86407471 C-71.69451584 117.9091066 -71.70137909 118.95413849 -71.70845032 120.03083801 C-71.72667675 123.46855451 -71.72288557 126.90581266 -71.7171936 130.34356689 C-71.72175833 132.74719388 -71.72706477 135.15081956 -71.733078 137.55444336 C-71.74200171 142.58788357 -71.73959538 147.62116507 -71.72964478 152.65460205 C-71.71817355 159.08122813 -71.73834274 165.50730324 -71.76756191 171.93385696 C-71.78597823 176.89780111 -71.7856203 181.86161465 -71.77992439 186.82558441 C-71.77977175 189.19368002 -71.78576847 191.56178481 -71.79821587 193.92984772 C-71.87514609 210.96870486 -71.77779937 224.26691185 -59.28359985 237.14044189 C-50.60320479 245.4925005 -38.51547014 246.73548751 -27.02514648 246.64164734 C-25.74379716 246.64718174 -24.46244783 246.65271613 -23.14226973 246.65841824 C-19.61983964 246.67305429 -16.09786199 246.66306335 -12.57544708 246.64868152 C-8.76354877 246.63750762 -4.95171064 246.64953531 -1.13981628 246.65852356 C6.31360792 246.67241381 13.76686202 246.66493152 21.22027804 246.64984798 C29.9084281 246.63293859 38.59653637 246.63620427 47.28469782 246.63994206 C62.78996098 246.64581274 78.29514279 246.63167928 93.80038452 246.60699463 C108.83134001 246.5830679 123.86218685 246.57599462 138.89315796 246.58648682 C155.28087032 246.59790565 171.6685325 246.59981479 188.05624425 246.58538872 C189.80480345 246.58386295 191.55336264 246.5823426 193.30192184 246.58082771 C194.16214138 246.5800699 195.02236092 246.57931208 195.90864772 246.57853131 C201.95895905 246.5737966 208.0092479 246.57563408 214.05955887 246.57989311 C221.43531104 246.58482841 228.81096066 246.57879674 236.18668939 246.55899882 C239.94695564 246.54915284 243.707066 246.54399248 247.46734047 246.55189133 C251.54901178 246.56028969 255.63027036 246.54531905 259.71191406 246.52812195 C260.89246703 246.53413199 262.07301999 246.54014204 263.28934729 246.54633421 C275.36612125 246.45390941 284.62302407 243.52019865 293.6578064 235.39434814 C305.75008412 222.83196028 304.4433696 207.83252572 304.3453064 191.53106689 C304.34613609 189.03389381 304.34859925 186.53672078 304.35261536 184.03955078 C304.35546383 178.82480286 304.34086012 173.61048672 304.31332397 168.39581299 C304.28597508 163.05151283 304.27779095 157.70792434 304.29281616 152.36358643 C304.31096338 145.8851925 304.30948537 139.40715569 304.29060173 132.92876434 C304.28543165 130.4680611 304.2858874 128.0073392 304.29214668 125.54663849 C304.29761355 122.10777428 304.27717715 118.67000189 304.24984741 115.23126221 C304.25637329 114.2222435 304.26289917 113.21322479 304.2696228 112.17362976 C304.17092208 104.84770813 302.627499 99.46245132 297.7515564 93.89825439 C297.10057983 93.35942627 296.44960327 92.82059814 295.77890015 92.26544189 C295.13050171 91.71114502 294.48210327 91.15684814 293.8140564 90.58575439 C287.61837569 86.31684962 281.00836258 86.18342476 273.71640015 87.14044189 C267.13308358 89.63694926 261.85089827 93.76696239 258.71640015 100.14044189 C256.55267334 105.38826313 256.43463071 110.00860507 256.46102905 115.58648682 C256.4574086 116.51888687 256.45378815 117.45128693 256.45005798 118.41194153 C256.44318423 120.42859611 256.44065475 122.4452692 256.44200516 124.46193504 C256.44297196 127.65163618 256.43001196 130.84100184 256.4130249 134.03065491 C256.36678343 143.0964402 256.34212458 152.16218914 256.33554077 161.22808838 C256.33053805 166.77887296 256.30635837 172.32930372 256.27021408 177.87996864 C256.26039384 179.99590243 256.25809619 182.11188474 256.26338577 184.2278347 C256.27042314 187.17980462 256.25324541 190.13071127 256.2305603 193.08258057 C256.24281898 194.39876877 256.24281898 194.39876877 256.25532532 195.74154663 C256.17374239 201.68651579 256.17374239 201.68651579 253.97938776 203.8644796 C251.40451638 205.31629435 249.94012818 205.51707048 247.00307465 205.52075863 C246.05357705 205.52919857 245.10407945 205.53763851 244.12580919 205.54633421 C243.08574205 205.54032416 242.04567491 205.53431412 240.97409058 205.52812195 C239.86685245 205.53350749 238.75961432 205.53889302 237.61882353 205.54444176 C233.89537781 205.55879017 230.17228415 205.5516005 226.44882202 205.54449463 C223.78479377 205.55019456 221.12079112 205.55705627 218.45677185 205.56529236 C211.96416233 205.58250107 205.47164951 205.58331617 198.9790231 205.57807945 C193.70311254 205.5740407 188.4272306 205.5754778 183.15132141 205.58082771 C182.02568234 205.58195035 182.02568234 205.58195035 180.87730309 205.58309566 C179.35290515 205.58462711 177.82850721 205.58616545 176.30410928 205.58771063 C162.00431503 205.60144293 147.70457548 205.59599265 133.40478247 205.58452541 C120.31620186 205.57459019 107.22776255 205.58753736 94.13920373 205.61145961 C80.70545563 205.63582815 67.2717734 205.64546415 53.83800364 205.63880688 C46.29367876 205.63530991 38.74946262 205.63757818 31.20515442 205.65505791 C24.78348641 205.6697518 18.36200371 205.67045231 11.94033945 205.652987 C8.66279953 205.6444515 5.38566068 205.64454172 2.10812569 205.65763855 C-1.44199646 205.67074504 -4.99120819 205.659392 -8.54129028 205.64164734 C-9.58135743 205.65125235 -10.62142457 205.66085735 -11.6930089 205.67075342 C-18.6015526 205.59934465 -18.6015526 205.59934465 -21.92381954 203.36401939 C-23.37037134 200.99854902 -23.78322055 199.80611267 -23.78239441 197.06199646 C-23.79197174 196.25885513 -23.80154907 195.45571381 -23.81141663 194.62823486 C-23.80167313 193.75594238 -23.79192963 192.8836499 -23.78189087 191.98492432 C-23.78740967 191.05924149 -23.79292847 190.13355865 -23.7986145 189.17982483 C-23.80793664 187.17079476 -23.80803792 185.1617056 -23.80002022 183.15266991 C-23.78740442 179.97025913 -23.7986682 176.78871754 -23.8160553 173.6063385 C-23.84278874 167.99479069 -23.84834999 162.38345519 -23.84695435 156.77185059 C-23.84472841 147.80054529 -23.85888866 138.82950362 -23.90254021 129.85830116 C-23.91236633 126.72793833 -23.90366585 123.59799032 -23.8938446 120.46763611 C-23.8999911 118.53980235 -23.90690359 116.61197084 -23.91470337 114.68414307 C-23.9069841 113.81792328 -23.89926483 112.95170349 -23.89131165 112.05923462 C-23.95632088 104.25139294 -26.22617078 98.50842607 -31.57266235 92.71856689 C-37.44410514 87.3028982 -43.29601563 86.47961518 -51.1625061 86.76153564 C-58.16518161 87.61167272 -62.42618077 90.72096537 -66.9593811 95.96856689 Z M-10.28359985 156.14044189 C-10.28359985 168.02044189 -10.28359985 179.90044189 -10.28359985 192.14044189 C29.31640015 192.14044189 68.91640015 192.14044189 109.71640015 192.14044189 C109.71640015 180.26044189 109.71640015 168.38044189 109.71640015 156.14044189 C70.11640015 156.14044189 30.51640015 156.14044189 -10.28359985 156.14044189 Z M-20.28359985 260.14044189 C-20.28359985 272.35044189 -20.28359985 284.56044189 -20.28359985 297.14044189 C-4.44359985 297.14044189 11.39640015 297.14044189 27.71640015 297.14044189 C27.71640015 284.93044189 27.71640015 272.72044189 27.71640015 260.14044189 C11.87640015 260.14044189 -3.96359985 260.14044189 -20.28359985 260.14044189 Z M41.71640015 260.14044189 C41.71640015 272.35044189 41.71640015 284.56044189 41.71640015 297.14044189 C91.87640015 297.14044189 142.03640015 297.14044189 193.71640015 297.14044189 C193.71640015 284.93044189 193.71640015 272.72044189 193.71640015 260.14044189 C143.55640015 260.14044189 93.39640015 260.14044189 41.71640015 260.14044189 Z M207.71640015 260.14044189 C207.71640015 272.35044189 207.71640015 284.56044189 207.71640015 297.14044189 C223.22640015 297.14044189 238.73640015 297.14044189 254.71640015 297.14044189 C254.71640015 284.93044189 254.71640015 272.72044189 254.71640015 260.14044189 C239.20640015 260.14044189 223.69640015 260.14044189 207.71640015 260.14044189 Z M-164.28359985 281.14044189 C-164.28359985 286.42044189 -164.28359985 291.70044189 -164.28359985 297.14044189 C-140.85359985 297.14044189 -117.42359985 297.14044189 -93.28359985 297.14044189 C-93.28359985 291.53044189 -93.28359985 285.92044189 -93.28359985 280.14044189 C-96.87252053 276.55152122 -97.65430173 276.75958087 -102.54336548 276.73638916 C-103.83480469 276.72370499 -105.1262439 276.71102081 -106.45681763 276.69795227 C-107.86782999 276.70000356 -109.27884127 276.70299147 -110.68984985 276.70684814 C-112.13569383 276.70228778 -113.58153563 276.69698264 -115.02737427 276.69096375 C-118.05704558 276.68202831 -121.08645335 276.68446086 -124.11611938 276.69439697 C-128.0003552 276.70589391 -131.88368289 276.6856676 -135.76779938 276.65647984 C-138.75324285 276.63814282 -141.73846761 276.63840508 -144.72395325 276.64411736 C-146.1561053 276.64427085 -147.58827192 276.6382036 -149.02037048 276.62582588 C-151.02147452 276.610966 -153.02272782 276.62419697 -155.02383423 276.63873291 C-156.1628418 276.63889908 -157.30184937 276.63906525 -158.47537231 276.63923645 C-161.81870911 276.90651224 -161.81870911 276.90651224 -164.28359985 281.14044189 Z " fill="#000000" transform="translate(194.28359985351563,200.85955810546875)"/>
<path d="M0 0 C1.93220398 -0.01879967 1.93220398 -0.01879967 3.90344238 -0.03797913 C5.30608124 -0.02571081 6.70871044 -0.01229079 8.11132812 0.00219727 C9.55334655 0.00136836 10.99536487 -0.00109185 12.43737793 -0.00511169 C15.45707701 -0.00796828 18.47603378 0.00671608 21.49560547 0.03417969 C25.36297764 0.06826376 29.22902272 0.06224381 33.09645844 0.04351711 C36.0734154 0.03293966 39.05006445 0.04189139 42.0269928 0.05690193 C43.45271388 0.06207884 44.87846718 0.06160786 46.30418396 0.05535698 C48.29788377 0.04989694 50.29159961 0.07314748 52.28515625 0.09765625 C53.418927 0.10385483 54.55269775 0.11005341 55.7208252 0.11643982 C59.37225782 0.75963582 60.45158075 1.67036235 62.64257812 4.63110352 C63.81558228 7.4269104 63.81558228 7.4269104 64.77392578 10.69604492 C65.14205887 11.92845413 65.51019196 13.16086334 65.88948059 14.43061829 C66.27877332 15.78123189 66.66781969 17.13191652 67.05664062 18.48266602 C67.47153885 19.88833022 67.88759291 21.29365371 68.30473328 22.69865417 C69.41275812 26.4423862 70.504987 30.19054729 71.59366226 33.93994522 C72.71411393 37.7907871 73.84721536 41.63790152 74.97924805 45.48535156 C76.31744218 50.03673065 77.65397271 54.58857376 78.98326111 59.14256287 C81.35020366 67.25028201 83.74873758 75.34640764 86.21679688 83.42407227 C86.91964484 85.74012693 87.62173316 88.05641059 88.32366943 90.3727417 C88.74061472 91.74021744 89.16148033 93.10650474 89.58648682 94.47149658 C90.15440506 96.29851949 90.70569661 98.13068701 91.25585938 99.96313477 C91.55274658 100.92968994 91.84963379 101.89624512 92.15551758 102.89208984 C92.73420618 106.1463793 92.51262367 108.44697278 91.64257812 111.63110352 C90.43103027 113.28689575 90.43103027 113.28689575 88.64257812 114.63110352 C86.19380188 114.99186707 86.19380188 114.99186707 83.25317383 114.97167969 C82.15225906 114.97145309 81.0513443 114.9712265 79.91706848 114.97099304 C78.72949448 114.95550919 77.54192047 114.94002533 76.31835938 114.92407227 C75.10182175 114.91982742 73.88528412 114.91558258 72.63188171 114.91120911 C68.73939042 114.89439202 64.84741342 114.8567331 60.95507812 114.81860352 C58.31901788 114.80356065 55.68294954 114.78987156 53.046875 114.77758789 C46.57860003 114.74447851 40.11062581 114.69424856 33.64257812 114.63110352 C33.65368118 115.47190964 33.66478424 116.31271576 33.67622375 117.17900085 C33.77647918 125.10935546 33.85256996 133.03949673 33.90163898 140.97033978 C33.92771441 145.04755918 33.96307349 149.12425424 34.01977539 153.20117188 C34.07417065 157.13694714 34.10401412 161.07221864 34.11696434 165.00834084 C34.12619094 166.50868472 34.14420903 168.00900154 34.17122841 169.50913048 C34.20762265 171.61378547 34.21251974 173.71636917 34.21020508 175.82128906 C34.22130814 177.0181987 34.23241119 178.21510834 34.24385071 179.44828796 C33.46182304 183.5879243 31.94539928 185.09364659 28.64257812 187.63110352 C24.62222889 187.562962 22.52489562 187.51342101 19.64257812 184.63110352 C19.40206909 181.73312378 19.40206909 181.73312378 19.41552734 177.97827148 C19.41523529 177.29522949 19.41494324 176.6121875 19.41464233 175.90844727 C19.41603773 173.64660011 19.43160845 171.38508076 19.44726562 169.12329102 C19.45099502 167.55673401 19.45384234 165.99017467 19.45584106 164.4236145 C19.46348336 160.29715554 19.48313689 156.17083701 19.50524902 152.04443359 C19.52569466 147.83506164 19.53484003 143.62566704 19.54492188 139.41625977 C19.56638229 131.15447652 19.60052534 122.89280748 19.64257812 114.63110352 C18.94766769 114.63776535 18.25275726 114.64442719 17.53678894 114.65129089 C10.98908303 114.71139289 4.44145405 114.75707311 -2.10646534 114.78654003 C-5.47287065 114.80219862 -8.8390481 114.82343972 -12.20532227 114.85742188 C-16.07509437 114.89372101 -19.94454213 114.91081101 -23.81445312 114.92407227 C-25.6286248 114.94729805 -25.6286248 114.94729805 -27.47944641 114.97099304 C-28.60038193 114.97121964 -29.72131744 114.97144623 -30.8762207 114.97167969 C-32.35847893 114.98167244 -32.35847893 114.98167244 -33.87068176 114.99186707 C-36.35742187 114.63110352 -36.35742187 114.63110352 -38.1714325 113.34324646 C-40.43845011 110.07048679 -39.84692401 106.389261 -39.35742188 102.63110352 C-38.16007131 97.47448725 -36.61287745 92.44125811 -35.04492188 87.38891602 C-34.59214957 85.89738102 -34.14051297 84.40550085 -33.68994141 82.91329956 C-32.500516 78.98466629 -31.29643156 75.06068195 -30.08892822 71.13757324 C-28.89277447 67.2434116 -27.70927364 63.34541603 -26.52539062 59.44750977 C-25.13551611 54.87196443 -23.74379097 50.29704666 -22.34033203 45.72564697 C-20.1780953 38.67550687 -18.04853044 31.62000487 -16.02539062 24.52856445 C-15.66719238 23.28251434 -15.30899414 22.03646423 -14.93994141 20.75265503 C-14.28106535 18.44865866 -13.63161844 16.14193539 -12.99365234 13.83206177 C-12.70248535 12.81683441 -12.41131836 11.80160706 -12.11132812 10.75561523 C-11.86713135 9.88057343 -11.62293457 9.00553162 -11.37133789 8.10397339 C-8.89541064 2.06536091 -6.55209171 0.00555805 0 0 Z M2.64257812 14.63110352 C0.71360512 19.13204054 -0.91260842 23.11878141 -2.27099609 27.73974609 C-2.61500458 28.9023848 -2.95901306 30.0650235 -3.31344604 31.26289368 C-3.67600494 32.50459824 -4.03856384 33.7463028 -4.41210938 35.02563477 C-4.79907104 36.34024306 -5.18637645 37.65475021 -5.57400513 38.96916199 C-6.38513056 41.72281924 -7.19345155 44.47727772 -7.99951172 47.23242188 C-9.01632193 50.70781515 -10.03793406 54.18177061 -11.06147575 57.65518665 C-12.0551402 61.02814469 -13.04616145 64.40187785 -14.03710938 67.77563477 C-14.39561981 68.99507278 -14.75413025 70.2145108 -15.12350464 71.47090149 C-17.96078925 81.16828108 -20.65237577 90.89293754 -23.35742188 100.63110352 C9.31257813 100.63110352 41.98257813 100.63110352 75.64257812 100.63110352 C72.64042825 88.43824159 72.64042825 88.43824159 69.26074219 76.38891602 C69.0553331 75.70382965 68.84992401 75.01874329 68.63829041 74.31289673 C67.98174885 72.12623137 67.32007846 69.9411596 66.65820312 67.75610352 C66.19277003 66.20965177 65.7276684 64.66310023 65.26287842 63.11645508 C64.05623652 59.10435288 62.84518851 55.09359478 61.63311768 51.08312988 C60.17033973 46.23967475 58.71321693 41.39451551 57.25511169 36.5496521 C55.05518967 29.24217714 52.84823565 21.93686035 50.64257812 14.63110352 C34.80257812 14.63110352 18.96257813 14.63110352 2.64257812 14.63110352 Z " fill="#000000" transform="translate(39.357421875,82.368896484375)"/>
<path d="M0 0 C14.5879766 10.71662943 25.91338736 26.99070892 29 45 C31.83590676 66.28121626 26.87317883 84.804397 14.41796875 102.2109375 C3.355687 115.83019435 -12.51305409 123.20082255 -29.3125 126.6875 C-49.20335953 128.37316606 -67.15859146 124.46922752 -83 112 C-83.76054687 111.41605469 -84.52109375 110.83210938 -85.3046875 110.23046875 C-99.54746326 98.52576548 -106.56837593 81.96385843 -109 64 C-110.17022528 50.39011971 -107.55943014 36.98668466 -101 25 C-100.51917969 24.10925781 -100.03835938 23.21851563 -99.54296875 22.30078125 C-90.0151649 6.0501961 -74.84309653 -5.34230798 -56.6171875 -10.15625 C-36.94985068 -14.36879872 -16.85362 -10.7242494 0 0 Z M-82 22 C-91.89573117 34.942027 -96.02983596 48.95780361 -94.59765625 65.15625 C-92.13219842 81.01252779 -83.48054411 94.26025608 -70.625 103.75390625 C-62.65985271 108.84700524 -53.46334899 112.28578498 -44 113 C-43.04480469 113.07734375 -43.04480469 113.07734375 -42.0703125 113.15625 C-27.23834628 113.80820456 -13.78451649 108.21186075 -2.625 98.6875 C8.11539492 88.38229126 14.94644503 75.45479252 15.29248047 60.46459961 C15.42890349 43.66959473 10.75601183 30.50136334 -0.81640625 18.09765625 C-13.07067694 6.32566455 -27.60916098 2.46991145 -44.0859375 2.72265625 C-59.14563474 3.30410057 -71.89917807 11.20315504 -82 22 Z " fill="#000000" transform="translate(472,11)"/>
<path d="M0 0 C0.72699097 -0.0049649 1.45398193 -0.00992981 2.20300293 -0.01504517 C4.61263976 -0.02967393 7.02221079 -0.03646942 9.43188477 -0.04199219 C11.10335798 -0.04774239 12.77483116 -0.05350014 14.44630432 -0.05926514 C17.95265002 -0.0697767 21.45897278 -0.07561856 24.96533203 -0.07910156 C29.462575 -0.08459121 33.95951595 -0.10862845 38.45666409 -0.13707352 C41.90958041 -0.15567724 45.3624236 -0.16090425 48.81538582 -0.16243744 C50.47361976 -0.16546888 52.13185226 -0.17351393 53.79003716 -0.18662262 C56.10765605 -0.20363869 58.42453184 -0.20181431 60.7421875 -0.1953125 C62.0618602 -0.19895813 63.3815329 -0.20260376 64.74119568 -0.20635986 C67.93579102 0.16113281 67.93579102 0.16113281 69.86112976 1.23480225 C71.54211205 4.24796341 71.31775938 6.91026184 71.32397461 10.33886719 C71.32923157 11.06600418 71.33448853 11.79314117 71.33990479 12.54231262 C71.35311243 14.94672097 71.34436441 17.35046769 71.33422852 19.75488281 C71.33624904 21.42492805 71.3391603 23.09497243 71.34292603 24.76501465 C71.3473504 28.26546629 71.34091479 31.76568832 71.3269043 35.26611328 C71.30981221 39.75553413 71.3196528 44.24441695 71.33762169 48.73381805 C71.34845655 52.1824754 71.34501459 55.63100496 71.33723831 59.07966614 C71.33523547 60.73509281 71.33769852 62.39053104 71.34467697 64.04594421 C71.35228673 66.35874207 71.3406949 68.67066578 71.32397461 70.98339844 C71.32158783 72.30005493 71.31920105 73.61671143 71.31674194 74.9732666 C70.93579102 78.16113281 70.93579102 78.16113281 69.59902954 80.04724121 C65.94713954 82.49295753 62.50849582 82.29846028 58.2487793 82.32226562 C57.23604446 82.32971298 57.23604446 82.32971298 56.20285034 82.33731079 C53.97059101 82.35190879 51.73840273 82.35873028 49.50610352 82.36425781 C47.95295205 82.37001101 46.3998006 82.37576873 44.84664917 82.38153076 C41.59006418 82.39203389 38.33350384 82.39788112 35.0769043 82.40136719 C30.90833031 82.40685189 26.74008296 82.43088205 22.5716114 82.45933914 C19.36309869 82.4779817 16.15466444 82.48317197 12.94610214 82.48470306 C11.40953663 82.48772625 9.87297238 82.49574354 8.33646011 82.50888824 C6.18458588 82.52598393 4.03350678 82.52406047 1.8815918 82.51757812 C0.04650558 82.52304657 0.04650558 82.52304657 -1.82565308 82.52862549 C-5.3784328 82.1254765 -7.26093529 81.35437705 -10.06420898 79.16113281 C-11.2162888 75.70489337 -11.1982857 73.01320923 -11.20947266 69.36645508 C-11.21283127 68.67993866 -11.21618988 67.99342224 -11.21965027 67.28610229 C-11.22914963 65.01656282 -11.23110281 62.74709718 -11.23217773 60.47753906 C-11.23539082 58.89957143 -11.23875494 57.32160409 -11.24226379 55.74363708 C-11.24825238 52.43577382 -11.25010395 49.12793667 -11.24951172 45.82006836 C-11.24941007 41.58196762 -11.26306663 37.34403429 -11.28028393 33.10597324 C-11.29140311 29.84689057 -11.29343096 26.5878484 -11.29290199 23.3287487 C-11.29408206 21.76624919 -11.29850537 20.20374862 -11.30623436 18.64126778 C-11.31603346 16.45579423 -11.31315678 14.2706845 -11.30712891 12.08520508 C-11.30855392 10.84182877 -11.30997894 9.59845245 -11.31144714 8.31739807 C-11.07607655 5.31263522 -10.74510897 3.62950185 -9.06420898 1.16113281 C-6.07235977 -0.33479179 -3.33707923 0.0172765 0 0 Z M2.93579102 14.16113281 C2.93579102 31.98113281 2.93579102 49.80113281 2.93579102 68.16113281 C20.75579102 68.16113281 38.57579102 68.16113281 56.93579102 68.16113281 C56.93579102 50.34113281 56.93579102 32.52113281 56.93579102 14.16113281 C39.11579102 14.16113281 21.29579102 14.16113281 2.93579102 14.16113281 Z " fill="#000000" transform="translate(253.064208984375,82.8388671875)"/>
<path d="M0 0 C1.03218407 -0.00788544 1.03218407 -0.00788544 2.08522034 -0.01593018 C4.35977885 -0.02913383 6.6336375 -0.02039136 8.90820312 -0.01025391 C10.48856745 -0.01227455 12.06893086 -0.01518591 13.64929199 -0.01895142 C16.96143471 -0.02337524 20.27333471 -0.01694201 23.58544922 -0.00292969 C27.83274403 0.01416245 32.07947014 0.00432155 36.32674408 -0.01364708 C39.5901112 -0.02448346 42.85334331 -0.0210393 46.11671448 -0.0132637 C47.68282641 -0.01126128 49.24895056 -0.01372246 50.81504822 -0.02070236 C53.00333156 -0.02831472 55.19069174 -0.01671701 57.37890625 0 C58.62450317 0.00238678 59.8701001 0.00477356 61.15344238 0.00723267 C64.18945312 0.38818359 64.18945312 0.38818359 66.08985901 1.48678589 C67.7671908 4.38719685 67.57905005 6.86610691 67.59350586 10.19873047 C67.60036911 10.88685318 67.60723236 11.57497589 67.61430359 12.28395081 C67.63260488 14.55848829 67.62873007 16.83233829 67.62304688 19.10693359 C67.62760677 20.68729884 67.63291177 22.2676621 67.63893127 23.84802246 C67.64786863 27.16015682 67.6454319 30.47205014 67.63549805 33.78417969 C67.62400123 38.03159118 67.64422676 42.27817219 67.67341518 46.52547455 C67.69174772 49.78885188 67.6914908 53.05202905 67.68577766 56.31544495 C67.68562412 57.88156805 67.69169586 59.44770445 67.70406914 61.01377869 C67.71892464 63.20226398 67.70834522 65.38920039 67.69116211 67.57763672 C67.69099594 68.82323364 67.69082977 70.06883057 67.69065857 71.35217285 C67.18945312 74.38818359 67.18945312 74.38818359 65.5783844 76.28858948 C62.41531945 77.7445073 59.94801159 77.77661628 56.46484375 77.79223633 C55.46411079 77.8025312 55.46411079 77.8025312 54.44316101 77.81303406 C52.24379027 77.8312954 50.04513321 77.82746632 47.84570312 77.82177734 C46.31400318 77.82633912 44.78230528 77.83164468 43.25061035 77.83766174 C40.0428027 77.8465912 36.83524403 77.84417131 33.62744141 77.83422852 C29.51803006 77.82273181 25.4094771 77.84296093 21.30017853 77.87214565 C18.13798573 77.89049608 14.97599916 77.89021771 11.81376648 77.88450813 C10.29870905 77.88435481 8.78363774 77.89040815 7.26863098 77.90279961 C5.14989411 77.91768923 3.03274972 77.90705085 0.9140625 77.88989258 C-0.29076782 77.88972641 -1.49559814 77.88956024 -2.73693848 77.88938904 C-5.81054688 77.38818359 -5.81054688 77.38818359 -8.19947815 75.78384399 C-10.36327557 72.56627561 -10.31173174 70.42167493 -10.31225586 66.5559082 C-10.31765884 65.87739304 -10.32306183 65.19887787 -10.32862854 64.49980164 C-10.34110932 62.26292957 -10.32463282 60.02734619 -10.30664062 57.79052734 C-10.30679561 56.23401319 -10.30828455 54.67749864 -10.31105042 53.12098694 C-10.31243404 49.86181541 -10.2998816 46.60308417 -10.27709961 43.34399414 C-10.24869102 39.16508047 -10.25145895 34.98689695 -10.26418972 30.80792904 C-10.27114156 27.59515639 -10.26336378 24.38255278 -10.25093269 21.16980171 C-10.246415 19.62881684 -10.24608417 18.08781384 -10.24999809 16.54682732 C-10.25290618 14.39452724 -10.23642542 12.24323696 -10.21459961 10.09106445 C-10.20919662 8.86624863 -10.20379364 7.6414328 -10.19822693 6.37950134 C-9.81054688 3.38818359 -9.81054688 3.38818359 -8.71095276 1.49351501 C-5.8106942 -0.19335985 -3.33663478 0.00639357 0 0 Z M4.18945312 14.38818359 C4.18945312 30.55818359 4.18945312 46.72818359 4.18945312 63.38818359 C20.35945313 63.38818359 36.52945313 63.38818359 53.18945312 63.38818359 C53.18945312 47.21818359 53.18945312 31.04818359 53.18945312 14.38818359 C37.01945312 14.38818359 20.84945312 14.38818359 4.18945312 14.38818359 Z " fill="#000000" transform="translate(140.810546875,-0.38818359375)"/>
<path d="M0 0 C3.62085028 0.52666913 4.31191174 0.72066383 6.4375 3.5 C6.84536743 5.3634491 6.84536743 5.3634491 6.88916016 7.47729492 C6.9115274 8.27209763 6.93389465 9.06690033 6.9569397 9.88578796 C6.96665298 11.17015495 6.96665298 11.17015495 6.9765625 12.48046875 C6.98891937 13.36728836 7.00127625 14.25410797 7.01400757 15.1678009 C7.03358254 17.04645184 7.04480745 18.92520549 7.04833984 20.80395508 C7.06236885 23.66079321 7.12961557 26.51318871 7.19921875 29.36914062 C7.38718598 44.6626693 7.38718598 44.6626693 3.32421875 49.3671875 C2.06043835 50.44971688 0.76452108 51.49599511 -0.5625 52.5 C-1.73061338 53.68122551 -2.88333311 54.87788816 -4.01953125 56.08984375 C-5.13542272 57.2083273 -6.25389411 58.32424316 -7.375 59.4375 C-7.94669922 60.01306641 -8.51839844 60.58863281 -9.10742188 61.18164062 C-14.30085096 66.36286423 -14.30085096 66.36286423 -18.4375 66.8125 C-21.5625 66.5 -21.5625 66.5 -23.9375 64.875 C-25.5625 62.5 -25.5625 62.5 -26.25 59.75 C-25.021537 53.94272036 -20.57141101 50.07873119 -16.00292969 46.48852539 C-11.71991442 42.91868675 -8.94313064 40.23511707 -7.72412109 34.67822266 C-7.38525156 30.34372732 -7.51864173 26.02706275 -7.6875 21.6875 C-7.74158321 19.45198033 -7.780965 17.2178741 -7.79855347 14.98176575 C-7.81917393 12.96673016 -7.88317898 10.95227503 -7.94970703 8.93823242 C-7.33839997 3.51008781 -5.48056209 0.7692017 0 0 Z " fill="#000000" transform="translate(432.5625,27.5)"/>
</svg>
