<?xml version="1.0" encoding="UTF-8"?>
<svg version="1.1" xmlns="http://www.w3.org/2000/svg" width="512" height="512">
<path d="M0 0 C10.42291484 7.99934954 16.42879627 17.37474448 20 30 C20 30.99 20 31.98 20 33 C21.093125 32.938125 22.18625 32.87625 23.3125 32.8125 C34.00025122 32.85026591 44.52482663 37.39852112 52.5234375 44.4140625 C57.03014539 49.2546006 63 56.14433602 63 63 C63.8559375 63.09539062 64.711875 63.19078125 65.59375 63.2890625 C88.06671585 67.97952097 110.3790518 93.64404528 122.31640625 111.71484375 C134.98059813 131.62478523 141.77811726 152.89074712 146 176 C146.94746094 175.1646875 146.94746094 175.1646875 147.9140625 174.3125 C158.17429388 165.56025651 173.67308289 154 188 154 C188.09796875 153.24976563 188.1959375 152.49953125 188.296875 151.7265625 C189.77345736 141.61961083 191.98756119 131.95310195 200 125 C204.72463254 122.14739168 208.44963614 121.50198141 213.796875 122.375 C219.41731824 123.96945198 222.75664477 127.154127 225.6875 132.125 C230.46386201 141.58345371 234.55067609 152.26181616 234 163 C235.32 163 236.64 163 238 163 C242.89598638 148.62094891 242.89598638 148.62094891 247 134 C245.7625 133.690625 244.525 133.38125 243.25 133.0625 C219.09413924 124.79766428 198.55301571 94.51764896 187.125 72.75 C183.3353618 64.73799674 179.75941073 55.57239519 182.76171875 46.765625 C184.5218888 42.95308276 186.21813198 40.07392762 190 38 C196.85395545 35.71534818 202.96553305 36.79990142 209.47265625 39.6875 C221.28399114 45.82136171 231.72967256 55.6620907 240 66 C241.31489803 62.11562234 242.55504276 58.2145242 243.74951172 54.29150391 C247.86284541 40.86617355 251.9673657 27.4775378 264 19 C269.56820872 17.14393043 275.03109702 17.08847084 280.375 19.5625 C287.72089281 26.38368618 289.76465267 35.8024765 290.32421875 45.53125 C291.20193864 72.07902095 286.74193045 108.54647773 268 129 C267.33911377 129.58128662 266.67822754 130.16257324 265.99731445 130.76147461 C263.6411576 133.40217895 263.1054561 135.25032164 262.33203125 138.68359375 C261.95208008 140.32231445 261.95208008 140.32231445 261.56445312 141.99414062 C261.31630859 143.13044922 261.06816406 144.26675781 260.8125 145.4375 C260.55275391 146.56994141 260.29300781 147.70238281 260.02539062 148.86914062 C258.95386311 153.56780264 257.93101849 158.27142031 257 163 C258.10859375 162.43410156 259.2171875 161.86820313 260.359375 161.28515625 C261.82280903 160.54405825 263.28635667 159.80318456 264.75 159.0625 C265.47960937 158.68931641 266.20921875 158.31613281 266.9609375 157.93164062 C267.66992188 157.57392578 268.37890625 157.21621094 269.109375 156.84765625 C270.08342285 156.3527771 270.08342285 156.3527771 271.07714844 155.84790039 C277.38693251 153.06553877 284.8935525 152.9645175 291.375 155.125 C295.25899257 157.8992804 298.20089232 160.44089441 299.63671875 165.0390625 C301.30118795 175.16905782 296.48113271 184.75672167 291 193 C286.38120847 199.08034461 281.33235697 204.88549369 275.7421875 210.08984375 C275.22873779 210.57259766 274.71528809 211.05535156 274.1862793 211.55273438 C272.77333559 212.85819402 271.33082895 214.13144621 269.88671875 215.40234375 C267.61910224 217.90790645 267.61910224 217.90790645 268.37597656 221.23681641 C268.68486816 223.09959229 268.68486816 223.09959229 269 225 C269.07653199 227.26847407 269.10811588 229.53885316 269.09765625 231.80859375 C269.09443359 233.04931641 269.09121094 234.29003906 269.08789062 235.56835938 C269.07951172 236.84517578 269.07113281 238.12199219 269.0625 239.4375 C269.05798828 240.74138672 269.05347656 242.04527344 269.04882812 243.38867188 C269.03709251 246.59249552 269.02067363 249.79622363 269 253 C269.9446814 252.9685791 269.9446814 252.9685791 270.90844727 252.93652344 C273.79296571 252.85279901 276.67722768 252.80116379 279.5625 252.75 C280.55314453 252.71648437 281.54378906 252.68296875 282.56445312 252.6484375 C288.98888193 252.56306303 292.77699938 253.1818544 298 257 C302.92195434 262.31052968 303.50081568 266.83962688 303.3828125 273.89453125 C302.73906576 279.11676245 300.35749383 282.06676265 297 286 C296.53303711 286.55059082 296.06607422 287.10118164 295.58496094 287.66845703 C292.83093301 290.90560243 290.04425955 294.11204483 287.234375 297.30078125 C284.56666535 300.33487495 281.97970579 303.42185525 279.4375 306.5625 C275.07495546 311.94589591 270.56878013 317.19663256 266.05078125 322.44921875 C259.80572679 329.71031003 253.6036885 337.00553429 247.5625 344.4375 C244.10725391 348.68392946 240.57289051 352.85284488 237 357 C231.90123909 362.92137492 226.90179062 368.91388412 222 375 C221.33387695 375.68433105 220.66775391 376.36866211 219.98144531 377.07373047 C213.59765174 384.04546774 212.95382401 389.37205347 213.25 398.625 C213.53386163 413.85334181 213.53386163 413.85334181 209 420 C207.18359375 421.83984375 207.18359375 421.83984375 205.4375 422.9375 C204.85871094 423.31777344 204.27992188 423.69804687 203.68359375 424.08984375 C200.35314437 425.8902955 197.61363116 426.12699648 193.90552235 426.13422108 C192.84553054 426.13867892 191.78553873 426.14313676 190.69342595 426.14772969 C189.52477315 426.14754533 188.35612035 426.14736097 187.15205383 426.14717102 C185.91373517 426.15084771 184.6754165 426.1545244 183.39957303 426.1583125 C179.9557042 426.1674425 176.51188304 426.17204972 173.06800663 426.17470181 C169.3562077 426.17860407 165.64442257 426.18818247 161.93263245 426.19691467 C152.96528669 426.21668142 143.99793979 426.22674561 135.03057769 426.23564246 C130.80823317 426.24002506 126.5858899 426.24539195 122.36354637 426.25063133 C108.32838991 426.2676439 94.29323423 426.28213821 80.25806904 426.28938007 C76.61548677 426.29128998 72.97290451 426.29321031 69.33032227 426.29516602 C67.97229441 426.29589163 67.97229441 426.29589163 66.58683165 426.2966319 C51.91983932 426.30493267 37.25292853 426.33027026 22.58597181 426.36274669 C7.52955133 426.39581384 -7.52682769 426.41382853 -22.58328468 426.41702431 C-31.03767281 426.41918974 -39.49194203 426.42794317 -47.94629478 426.45348549 C-55.14628449 426.4751878 -62.3461264 426.48324525 -69.5461451 426.47351871 C-73.21908089 426.46897259 -76.89171171 426.47087797 -80.56460571 426.49028015 C-84.54890902 426.51114537 -88.53279181 426.50093093 -92.51713562 426.48774719 C-94.25338441 426.50420106 -94.25338441 426.50420106 -96.02470893 426.52098733 C-103.44390981 426.4616569 -109.32297176 425.63018712 -114.83984375 420.18359375 C-115.20207031 419.60738281 -115.56429687 419.03117187 -115.9375 418.4375 C-116.31777344 417.85871094 -116.69804688 417.27992188 -117.08984375 416.68359375 C-119.03759746 413.08066736 -119.07908643 410.19619352 -119 406.1875 C-118.22262762 391.54015741 -118.22262762 391.54015741 -123.8125 378.6875 C-125.51364418 377.09453669 -127.2453115 375.53378351 -129 374 C-131.06960987 371.72474914 -133.02858782 369.36036224 -135 367 C-136.0298095 365.80084476 -137.06104 364.60290825 -138.09375 363.40625 C-141.3499287 359.60737485 -144.5029853 355.72820651 -147.65625 351.84375 C-150.39302049 348.52313514 -153.1910295 345.25953218 -156 342 C-160.29972713 337.01059233 -164.50485409 331.95778844 -168.65625 326.84375 C-171.39302049 323.52313514 -174.1910295 320.25953218 -177 317 C-181.29563619 312.01533946 -185.50024294 306.97050279 -189.640625 301.85546875 C-191.93290024 299.08120849 -194.28033429 296.36589787 -196.64746094 293.65576172 C-199.13176846 290.7982782 -201.5755753 287.90837716 -204 285 C-204.61875 284.25878906 -205.2375 283.51757812 -205.875 282.75390625 C-209.864886 277.30181771 -209.97444777 271.55947714 -209 265 C-207.35246703 260.10121846 -204.27190527 256.84793685 -200 254 C-196.28720531 252.76240177 -192.68693654 252.64391103 -188.8125 252.4375 C-188.06291016 252.39431641 -187.31332031 252.35113281 -186.54101562 252.30664062 C-184.69421625 252.20077315 -182.84713166 252.0999024 -181 252 C-181.2165625 251.41476562 -181.433125 250.82953125 -181.65625 250.2265625 C-185.93340178 237.03867784 -185.47181082 222.75605109 -180 210 C-179.01142522 208.26427616 -178.01195719 206.53469627 -177 204.8125 C-175.40683383 201.85307315 -174.87407532 200.63053589 -175.5390625 197.30078125 C-176.56335017 194.77690695 -177.7524949 192.41863234 -179 190 C-180.08894633 186.68581552 -180.22990624 183.47763216 -180.3125 180 C-180.34988281 178.96875 -180.38726562 177.9375 -180.42578125 176.875 C-179.89375109 173.28257617 -178.86892241 172.16060942 -176 170 C-172.5 169.5 -172.5 169.5 -169 170 C-165.19640827 172.94673865 -164.40628633 175.40308951 -163.625 180.0625 C-162.65130432 184.90921985 -161.32632238 188.61857475 -158.8125 192.875 C-154.74594654 199.98378615 -154.74594654 199.98378615 -156 205 C-157.89377958 207.84719964 -159.9392639 210.54035398 -162.01953125 213.25390625 C-167.62488687 221.02622381 -167.96694452 229.64608404 -167 239 C-166.14130866 242.32696427 -165.10893507 245.46707142 -163.875 248.671875 C-163 251 -163 251 -163 253 C-141.22 252.67 -119.44 252.34 -97 252 C-108.32339592 244.45106939 -117.58640773 241.71897675 -130.90795898 240.77050781 C-135.09755169 240.42970331 -138.03959816 240.13409889 -141 237 C-142.16379881 233.43101699 -142.30920437 231.71605223 -140.8125 228.25 C-138.8102378 225.76443313 -137.98458655 225.04629286 -135 224 C-132.10819985 223.9392722 -129.37412673 223.99107009 -126.5 224.1875 C-125.29331665 224.26532715 -125.29331665 224.26532715 -124.06225586 224.34472656 C-115.15761311 225.01086045 -107.275065 226.84053087 -99.15234375 230.609375 C-98.18159912 231.05764648 -97.21085449 231.50591797 -96.21069336 231.96777344 C-95.48116455 232.3084082 -94.75163574 232.64904297 -94 233 C-94.90817772 229.11842087 -95.83237395 225.24103228 -96.77099609 221.36669922 C-97.24239748 219.4066113 -97.70138188 217.4435505 -98.16015625 215.48046875 C-98.46308594 214.23652344 -98.76601562 212.99257813 -99.078125 211.7109375 C-99.35043945 210.56931152 -99.62275391 209.42768555 -99.90332031 208.25146484 C-102.35336468 200.98750874 -106.37572761 197.31842108 -113 194 C-117.42286234 192.2988991 -121.43961109 191.88848153 -126.125 191.625 C-129.9095307 191.35027812 -131.81307321 191.10262647 -135.1875 189.25 C-137.29781743 186.6302956 -138 185.37054322 -138 182 C-135.72289157 176.36144578 -135.72289157 176.36144578 -133 175 C-123.73949983 174.3912187 -115.83459531 175.05376136 -107 178 C-107.15146484 177.37544922 -107.30292969 176.75089844 -107.45898438 176.10742188 C-108.14867304 173.24043913 -108.82441184 170.37033672 -109.5 167.5 C-109.85771484 166.02660156 -109.85771484 166.02660156 -110.22265625 164.5234375 C-113.38030443 150.99065959 -113.38030443 150.99065959 -110.875 145.5625 C-108.2377954 143.3648295 -106.41464098 143.06829282 -103 143 C-99.47093933 144.60411848 -98.17227092 145.74159362 -96 149 C-95.43804426 150.90405279 -94.94360495 152.82847444 -94.4921875 154.76171875 C-94.22792969 155.87998047 -93.96367188 156.99824219 -93.69140625 158.15039062 C-93.42199219 159.31763672 -93.15257813 160.48488281 -92.875 161.6875 C-92.59785156 162.86634766 -92.32070312 164.04519531 -92.03515625 165.25976562 C-91.35132376 168.17194882 -90.67317451 171.085338 -90 174 C-89.40324463 173.45730469 -88.80648926 172.91460937 -88.19165039 172.35546875 C-87.39750732 171.64003906 -86.60336426 170.92460937 -85.78515625 170.1875 C-84.61158569 169.12595703 -84.61158569 169.12595703 -83.41430664 168.04296875 C-78.74576804 164.09248528 -73.93322414 160.79605083 -67.6875 160.4375 C-64 161 -64 161 -61.5 162.5625 C-59.38993161 165.99136114 -59.37508477 168.04220351 -60 172 C-62.72430827 175.72322131 -66.07090425 177.6738717 -70 179.9375 C-77.24339945 184.14577516 -81.56203949 189.61686577 -83.76171875 197.8515625 C-84.54079659 203.80437555 -82.49087891 209.70835658 -81.0625 215.4375 C-80.77181641 216.64599609 -80.48113281 217.85449219 -80.18164062 219.09960938 C-79.46562286 222.0693224 -78.73812837 225.03571972 -78 228 C-74.56632004 224.59745466 -74.56632004 224.59745466 -71.25390625 221.078125 C-65.07484501 214.39960154 -54.23584928 205.21539656 -45 203.6640625 C-41.49409602 203.59558781 -39.53375509 203.66640307 -36.5 205.5625 C-34.38993161 208.99136114 -34.37508477 211.04220351 -35 215 C-37.77323555 218.92078129 -40.95693532 220.56281004 -45.1875 222.75 C-58.42205444 229.74184008 -64.8506231 239.26832828 -70 253 C-58.12 252.67 -46.24 252.34 -34 252 C-31.36568311 246.05997418 -28.73248905 240.11947536 -26.10205078 234.17773438 C-25.20848709 232.16019729 -24.31429258 230.14293946 -23.41943359 228.12597656 C-22.12688422 225.21233684 -20.83667207 222.29767146 -19.546875 219.3828125 C-19.15191833 218.49385284 -18.75696167 217.60489319 -18.35003662 216.68899536 C-17.21991396 214.13156209 -16.10482486 211.56845822 -15 209 C-14.60572815 208.08669418 -14.2114563 207.17338837 -13.80523682 206.23240662 C-13.43251648 205.34175003 -13.05979614 204.45109344 -12.67578125 203.53344727 C-12.33812744 202.73286392 -12.00047363 201.93228058 -11.65258789 201.10743713 C-10.77386954 198.88351185 -10.77386954 198.88351185 -11.640625 196.08203125 C-17.55980675 187.73483563 -23.41977774 182.27331443 -32.8984375 178.23828125 C-35.50649078 176.70156584 -36.12407951 175.89540384 -37 173 C-37.03987998 170.47046983 -36.99193336 168.02076198 -36.875 165.5 C-36.68632847 156.12824822 -38.23136078 147.99231061 -44.25 140.5 C-48.67517374 135.92256222 -53.80637189 133.32066357 -60 132 C-63.60623544 132.03904389 -67.19913429 132.12234628 -70.80078125 132.30273438 C-74.23691057 132.38397386 -76.51196117 132.31312571 -79.44140625 130.43359375 C-81.46819262 127.2689624 -81.88500323 124.58625416 -82.4375 120.875 C-83.55729702 114.20560877 -85.63020626 108.83875154 -89 103 C-89.34546875 102.27167969 -89.6909375 101.54335937 -90.046875 100.79296875 C-91.32515094 98.3883431 -92.50745296 98.07785818 -95 97 C-96.670625 96.01 -96.670625 96.01 -98.375 95 C-105.60586292 90.88562364 -112.39524666 89.82831138 -120.4375 92 C-127.40070688 94.56602606 -133.0925638 99.66885066 -136.5 106.25 C-140.13001297 114.38391795 -140.5582746 124.57052233 -137.5 132.9375 C-137.23058594 133.63101563 -136.96117187 134.32453125 -136.68359375 135.0390625 C-135.59410996 138.16432457 -135.55346231 140.74665401 -136 144 C-138.74689758 147.36083552 -141.21604377 148.70211288 -145.3125 150 C-148.77283372 151.15497841 -151.7539018 152.32577661 -154.8125 154.3125 C-158 156 -158 156 -161.25 155.9375 C-165.56855576 154.46526508 -165.56855576 154.46526508 -167 152 C-167.39884912 148.9089193 -167.61985482 146.96024125 -167 144 C-164.20643964 140.40827953 -161.03712796 138.07311977 -157 136 C-156.34 136 -155.68 136 -155 136 C-155.15855469 135.18660156 -155.31710938 134.37320313 -155.48046875 133.53515625 C-157.53266757 119.57094626 -156.69696408 105.63919612 -148.6875 93.625 C-147.48913462 92.05927103 -146.26119547 90.51557672 -145 89 C-144.19755859 88.02933594 -144.19755859 88.02933594 -143.37890625 87.0390625 C-135.99314191 78.9271199 -126.20517272 74.68272995 -115.41796875 73.78515625 C-107.21502271 73.49177478 -99.73682328 75.42105891 -92 78 C-91.63648437 77.28714844 -91.27296875 76.57429688 -90.8984375 75.83984375 C-85.15118953 64.89059954 -79.71884048 59.27490839 -69 53 C-69.165 51.9275 -69.33 50.855 -69.5 49.75 C-71.28615947 34.83031505 -69.20583276 20.61728967 -60.02734375 8.3671875 C-44.71202648 -9.73027735 -19.78730679 -13.72787201 0 0 Z M-47.1875 18.8125 C-52.3454064 26.07677655 -55.09062893 34.00930254 -54 43 C-53.02535357 46.58325894 -51.94336939 50.10725351 -50.77734375 53.6328125 C-49.94885777 57.22153068 -50.01946219 59.47006387 -51 63 C-53.95722655 65.48025453 -57.43518578 66.56151359 -61 67.9375 C-69.32441664 71.25002674 -73.05887961 76.06849521 -77 84 C-78.48582895 87.4769504 -78.48582895 87.4769504 -78 91 C-76.70670056 93.37177965 -75.22750959 95.4907526 -73.62890625 97.66796875 C-69.95757184 102.92405183 -67.97416793 108.94761675 -66 115 C-64.44152344 115.23783203 -64.44152344 115.23783203 -62.8515625 115.48046875 C-49.15467469 117.7092766 -37.80650128 121.78595897 -29.2109375 133.421875 C-24.57465783 140.77597379 -22.15886282 147.35250469 -21.54541016 156.03076172 C-21.20805598 162.53939287 -21.20805598 162.53939287 -18.15625 168.08203125 C-15.8952461 169.5377992 -15.8952461 169.5377992 -13.46484375 170.6953125 C-9.23878127 172.93224573 -6.23055819 176.53177131 -3 180 C-2.34 179.67 -1.68 179.34 -1 179 C-3.36962403 167.32336578 -5.91745783 155.6847353 -8.53076172 144.06045532 C-8.88393123 142.48438772 -9.23437613 140.90770698 -9.58203125 139.33041382 C-10.0795976 137.07655812 -10.5874233 134.82523625 -11.09765625 132.57421875 C-11.31791222 131.56258667 -11.31791222 131.56258667 -11.5426178 130.53051758 C-13.34526344 122.69592093 -16.27219946 117.35833794 -23 113 C-29.38864847 109.87511759 -35.50816243 108.54460645 -42.58984375 108.2734375 C-45.1769773 107.97992154 -46.80562716 107.38436945 -49 106 C-50.52491998 102.95016004 -50.23562548 100.3576631 -50 97 C-48.953125 95.30078125 -48.953125 95.30078125 -47 94 C-44.39946115 93.69580853 -42.09552346 93.57439091 -39.5 93.625 C-38.43555664 93.63370117 -38.43555664 93.63370117 -37.34960938 93.64257812 C-31.26919332 93.79088096 -25.7377103 94.95776413 -20 97 C-20.97294263 90.64725694 -22.11110868 84.42075375 -23.6875 78.1875 C-24.82061893 73.33542663 -25.65381392 69.75471503 -24 65 C-21.21888789 62.45726893 -19.62862953 62.02514518 -15.875 61.875 C-13 63 -13 63 -11.48828125 65.85546875 C-9.50368326 70.88913092 -8.44865274 76.16176958 -7.3125 81.4375 C-6.97508789 82.96407227 -6.97508789 82.96407227 -6.63085938 84.52148438 C-6.08107931 87.01304086 -5.53763921 89.50580075 -5 92 C-1.79313338 90.44391299 0.98480169 88.65586793 3.875 86.5625 C9.97531372 82.27531027 14.27777234 79.27148796 22 80 C25 82 25 82 25.609375 83.953125 C25.76803606 86.54458905 25.72953614 88.49752138 25 91 C22.99799929 92.93887456 20.93393125 94.16270905 18.515625 95.54296875 C11.95716785 99.34157825 4.97486328 105.44339709 2.37109375 112.76953125 C1.41021224 118.54493486 2.21880274 123.81663322 3.53125 129.46484375 C3.68662231 130.14301651 3.84199463 130.82118927 4.0020752 131.51991272 C4.49427257 133.66082609 4.99693616 135.79911692 5.5 137.9375 C5.83793784 139.39892725 6.17518406 140.86051462 6.51171875 142.32226562 C7.333163 145.88339555 8.16400441 149.44225435 9 153 C12.01994362 151.49002819 12.3727307 149.05458731 13.6875 146 C16.51297916 140.17633513 16.51297916 140.17633513 20.625 138.6875 C23.25016657 138.93057098 25.47863118 139.32286383 28 140 C30.52474257 149.4836969 26.10037702 156.72872185 22.125 165.125 C21.3943745 166.70908407 20.66623263 168.29431575 19.94042969 169.88061523 C18.80188031 172.3682619 17.66181342 174.85508482 16.51416016 177.33854675 C12.65314773 185.69844269 8.97741497 194.13514571 5.32144165 202.58627319 C3.55932515 206.65873024 1.79022418 210.72814078 0.01953125 214.796875 C-0.31957779 215.57620895 -0.65868683 216.35554291 -1.0080719 217.15849304 C-3.22612908 222.24733094 -5.47098731 227.32354387 -7.73828125 232.390625 C-8.02551056 233.03305649 -8.31273987 233.67548798 -8.6086731 234.33738708 C-9.93308309 237.29721988 -11.26247096 240.25467991 -12.59863281 243.20922852 C-13.05206055 244.21912842 -13.50548828 245.22902832 -13.97265625 246.26953125 C-14.36718994 247.14198486 -14.76172363 248.01443848 -15.16821289 248.91333008 C-16.12342828 250.93524876 -16.12342828 250.93524876 -16 253 C-11.23528254 253.12508346 -6.47155322 253.21502373 -1.70556641 253.2746582 C-0.08983683 253.2995576 1.52578305 253.33349066 3.14111328 253.37719727 C20.98204354 253.84727757 32.9628923 248.53172817 46.1875 236.3125 C59.36003768 222.46513969 64.47350446 205.0290388 64.22265625 186.33984375 C63.9715603 179.11175466 62.03487235 172.49493792 59.375 165.8125 C56.52710919 158.51948861 56.35079839 151.38366588 59 144 C62.33000601 137.05205514 67.32318596 131.34589184 74.6953125 128.51171875 C83.33567828 126.59326465 92.25009182 126.88383593 99.92578125 131.4765625 C112.92647202 141.02509244 115.88162797 159.28582357 118.58984375 174.26171875 C121.70216713 202.6283233 115.58130153 227.76295137 103 253 C104.76949095 253.10815225 106.54087487 253.18566083 108.3125 253.25 C109.29863281 253.29640625 110.28476562 253.3428125 111.30078125 253.390625 C114.04949883 253.25748135 114.04949883 253.25748135 115.671875 251.41796875 C117.33728726 248.38593879 118.68787191 245.28198519 119.9375 242.0625 C120.19764893 241.39500732 120.45779785 240.72751465 120.72583008 240.03979492 C133.53717605 206.69861355 132.95742451 172.65424321 119.04150391 139.73242188 C112.45251573 124.93821534 103.18689853 112.61716386 92 101 C91.43023437 100.36707031 90.86046875 99.73414063 90.2734375 99.08203125 C82.88547433 91.10681973 72.76053246 83.7756891 63 79 C60.91499436 78.86148887 60.91499436 78.86148887 59 80 C57.32253302 82.7558877 57.32253302 82.7558877 55.9765625 86.23828125 C55.70790375 86.87428757 55.439245 87.51029388 55.16244507 88.16557312 C54.30226546 90.20888544 53.46288983 92.25995918 52.625 94.3125 C51.51927904 96.97789321 50.40568927 99.63994016 49.2890625 102.30078125 C49.01676819 102.95088165 48.74447388 103.60098206 48.46392822 104.27078247 C41.23480895 121.38259552 41.23480895 121.38259552 38 123 C34.4182378 123.38932198 32.63718279 123.43596718 29.625 121.375 C27.4608871 118.21206577 27.61827323 116.82296915 28 113 C29.07027448 109.77334969 30.45836427 106.7124085 31.8671875 103.62109375 C32.45936569 102.28655907 32.45936569 102.28655907 33.06350708 100.92506409 C34.32365999 98.09112649 35.59891184 95.26429279 36.875 92.4375 C37.72629656 90.5323637 38.57656824 88.62676908 39.42578125 86.72070312 C40.62314328 84.03332431 41.82192373 81.34670165 43.02902222 78.66368103 C46.75594602 71.99142172 46.75594602 71.99142172 47.3828125 65.0078125 C42.70013372 57.9983368 37.14361861 51.85797966 28.83984375 49.40625 C24.1981316 48.74223616 19.5263255 48.9198802 14.85180664 49.19750977 C9.52215512 49.41412302 9.52215512 49.41412302 7.07421875 47.47265625 C5.64539494 44.18376363 5.1728735 40.89591002 4.6875 37.375 C3.03791116 27.38601133 -0.79059215 19.92658004 -8.80078125 13.47265625 C-21.76256781 4.79309403 -37.27958521 6.20242663 -47.1875 18.8125 Z M270 35 C261.31116744 45.4161306 258.23734251 60.88075268 255.5 73.8125 C255.22325439 75.07489502 255.22325439 75.07489502 254.94091797 76.36279297 C254.05309767 80.88819755 253.6219744 83.83845519 256 88 C256.474375 88.83660156 256.94875 89.67320312 257.4375 90.53515625 C258.2109375 91.78619141 258.2109375 91.78619141 259 93.0625 C260.80537691 95.99172403 262.50962629 98.8974432 264 102 C273.87596892 87.18604662 275.37393098 60.34364826 274 43 C273.43963738 40.29011683 272.74419851 37.66844086 272 35 C271.34 35 270.68 35 270 35 Z M198 53 C200.49812338 72.984987 217.73107681 90.02173186 231 104 C231.61359375 104.67804688 232.2271875 105.35609375 232.859375 106.0546875 C238.07235052 111.64001841 244.71450847 116.57150282 252 119 C251.47977796 113.48422112 250.07928235 109.29108257 247.5625 104.375 C247.03124512 103.33013428 247.03124512 103.33013428 246.48925781 102.26416016 C242.76125028 95.1815925 238.1252413 89.11345929 233 83 C232.02719995 81.81131558 231.05454762 80.62251027 230.08203125 79.43359375 C221.49320411 69.05717332 212.34061191 58.94088166 200 53 C199.34 53 198.68 53 198 53 Z M209 139 C208.32471777 140.57967807 207.66010306 142.16391903 207 143.75 C206.62875 144.63171875 206.2575 145.5134375 205.875 146.421875 C204.78574117 149.17753771 204.78574117 149.17753771 205 153 C208.63 153.33 212.26 153.66 216 154 C214.90458352 147.97520937 213.8223431 143.80875423 210 139 C209.67 139 209.34 139 209 139 Z M74 148 C71.30071335 153.39857329 72.93727402 159.27981793 74.74169922 164.70043945 C75.19724976 166.00139589 75.66082808 167.29957567 76.13330078 168.59448242 C82.53982708 186.19042612 80.04786796 207.53689773 72.26342773 224.31542969 C67.38216646 234.23552607 61.36589465 243.18539293 53.25 250.7578125 C52.8375 251.16773438 52.425 251.57765625 52 252 C52 252.33 52 252.66 52 253 C54.78938212 253.41890218 54.78938212 253.41890218 58 253 C58.825 252.175 59.65 251.35 60.5 250.5 C63 248 63 248 66 247.375 C69 248 69 248 71.25 250.5 C74.11219805 253.10199823 75.10294062 253.63794335 78.8125 254.125 C82.48009266 253.91822178 83.6565928 253.3704859 86.1796875 250.6484375 C88.384926 247.1904176 90.23431752 243.69589238 92 240 C92.31598145 239.36368652 92.63196289 238.72737305 92.95751953 238.07177734 C97.740454 228.3563651 100.81353423 218.60318348 103 208 C103.19335938 207.071875 103.38671875 206.14375 103.5859375 205.1875 C105.78592938 188.25171342 103.8232388 171.3668192 98.1875 155.3125 C97.96368652 154.65266113 97.73987305 153.99282227 97.50927734 153.31298828 C95.60440812 148.29436555 93.34405881 145.93457965 89 143 C82.54671848 141.17157024 78.40530759 143.37442703 74 148 Z M147 198 C145.36715264 200.81642233 144.68238307 203.16254776 144.32421875 206.38671875 C144.22117432 207.23443848 144.11812988 208.0821582 144.01196289 208.95556641 C143.90489014 209.85710449 143.79781738 210.75864258 143.6875 211.6875 C141.9842679 224.71671899 138.43312078 236.74033949 133.69921875 248.99609375 C132.89018384 250.96099255 132.89018384 250.96099255 133 253 C135.64 253 138.28 253 141 253 C141.556875 251.14375 141.556875 251.14375 142.125 249.25 C147.03915372 234.66828217 154.13438221 224.10365633 168 217 C179.95277896 211.90315463 192.03121703 211.08751233 204.25390625 215.74609375 C215.41889952 220.84419167 222.98812095 228.75317933 227.9921875 239.93359375 C229.38766666 244.1795284 230.12348322 248.61741612 231 253 C238.26 253 245.52 253 253 253 C253.53296866 226.74635843 251.54746664 201.44125044 232.48828125 181.29296875 C221.97053159 171.60078813 211.34255286 168.18237708 197.28515625 168.65234375 C177.04419634 169.9064472 159.92703402 183.35273445 147 198 Z M272.3125 173.5625 C271.60222656 173.92021484 270.89195312 174.27792969 270.16015625 174.64648438 C264.5704117 177.53825916 259.78868805 180.89541024 255 185 C257.31 189.95 259.62 194.9 262 200 C271.8456326 192.56107759 280.55376068 181.96534291 284 170 C279.33905908 170 276.35545467 171.49969134 272.3125 173.5625 Z M165 238 C161.35517994 242.89796575 159.20362025 246.98189875 158 253 C176.81 253 195.62 253 215 253 C212.65816045 242.46172201 209.69153907 237.27120072 200.9296875 231.1875 C188.8671944 223.76442732 174.34366998 228.58620867 165 238 Z M-193 269 C-191.97159973 274.14200135 -191.43361745 275.06023743 -188 278.625 C-184.76435864 282.07974779 -181.659877 285.56577403 -178.6875 289.25 C-175.23157641 293.51731435 -171.70613096 297.71303684 -168.125 301.875 C-160.85499605 310.32739092 -153.5952034 318.78575697 -146.5625 327.4375 C-142.60491812 332.30129025 -138.53457554 337.05881231 -134.44165039 341.80834961 C-131.41054711 345.33298919 -128.43014684 348.89039882 -125.5 352.5 C-121.91785943 356.91030518 -118.25916858 361.24824956 -114.5625 365.5625 C-114.04171875 366.1709375 -113.5209375 366.779375 -112.984375 367.40625 C-111.04218357 369.6661614 -109.10786466 371.89213534 -107 374 C-104.12618671 374.2035735 -101.34781835 374.28066398 -98.47232056 374.27174377 C-97.13254373 374.27937403 -97.13254373 374.27937403 -95.7657007 374.28715843 C-92.7547275 374.30189221 -89.74391696 374.30235429 -86.73291016 374.30297852 C-84.58149393 374.31063492 -82.4300807 374.31918037 -80.27867126 374.32855225 C-75.63674206 374.34686859 -70.99485346 374.35888313 -66.35289383 374.36609077 C-59.01731198 374.37754676 -51.68182005 374.40299024 -44.34628296 374.43040466 C-32.74531693 374.47210454 -21.14434662 374.50449487 -9.54334104 374.53287882 C11.23339613 374.58379812 32.0100958 374.64594568 52.78676951 374.71821922 C60.08311052 374.74317308 67.37943971 374.76259098 74.67580771 374.77760136 C79.21129592 374.7877917 83.74676579 374.8019381 88.28223991 374.81707764 C90.38978202 374.8232436 92.49732991 374.82769704 94.60487938 374.83033562 C97.47607148 374.83413619 100.34718234 374.84394217 103.21835327 374.85523987 C104.05745534 374.85485374 104.89655741 374.8544676 105.76108682 374.85406977 C109.34244664 374.87380577 112.55355812 375.03489471 116 376 C116.91464004 380.66466418 117.36608693 383.76594971 115 388 C111.73964166 389.63017917 108.14284991 389.15401874 104.55929565 389.15821838 C103.67553949 389.16315636 102.79178334 389.16809434 101.88124669 389.17318195 C98.90244117 389.18861225 95.92365729 389.1969325 92.94482422 389.20532227 C90.8164755 389.21489645 88.68812871 389.22490625 86.55978394 389.23532104 C80.76671093 389.26242604 74.97362974 389.28340525 69.18052816 389.30332303 C63.13198435 389.32514816 57.08346596 389.35255379 51.03494263 389.37937927 C39.5744161 389.42935324 28.1138755 389.47427458 16.65332139 389.51740164 C3.60876638 389.56673387 -9.43576314 389.62166685 -22.48029351 389.67708123 C-49.3201719 389.79097348 -76.16007474 389.89779669 -103 390 C-103.05379226 392.95857409 -103.09357093 395.91617721 -103.125 398.875 C-103.15013672 400.13763672 -103.15013672 400.13763672 -103.17578125 401.42578125 C-103.18222656 402.23144531 -103.18867187 403.03710938 -103.1953125 403.8671875 C-103.20578613 404.61081543 -103.21625977 405.35444336 -103.22705078 406.12060547 C-103.1665597 408.24490235 -103.1665597 408.24490235 -101 410 C-98.76558842 410.30320083 -98.76558842 410.30320083 -96.13674927 410.25168228 C-94.58599858 410.25950552 -94.58599858 410.25950552 -93.0039196 410.26748681 C-91.85938883 410.26302537 -90.71485806 410.25856392 -89.53564453 410.25396729 C-87.72210071 410.25864726 -87.72210071 410.25864726 -85.87191963 410.26342177 C-82.50535543 410.27004148 -79.13901285 410.2676284 -75.77246189 410.26144934 C-72.14596843 410.25694044 -68.51949492 410.26390081 -64.89300537 410.26940918 C-57.78451382 410.2783216 -50.6760644 410.27637297 -43.56757116 410.2705839 C-37.79246009 410.26607466 -32.01736086 410.2654513 -26.24224854 410.26763153 C-25.42159003 410.267938 -24.60093153 410.26824446 -23.75540459 410.26856022 C-22.08846712 410.26919964 -20.42152965 410.26984807 -18.75459218 410.2705054 C-3.10860799 410.27621411 12.5373528 410.26964234 28.18333316 410.25890467 C41.62028071 410.24996866 55.0571937 410.25152055 68.49414062 410.26074219 C84.08256919 410.27143529 99.67097723 410.27566473 115.25940895 410.26951766 C116.92035548 410.26888053 118.581302 410.26825179 120.24224854 410.26763153 C121.05955377 410.26732298 121.87685901 410.26701443 122.71893108 410.26669653 C128.48985146 410.2649667 134.26075887 410.26789087 140.03167725 410.27259064 C147.06056206 410.27818882 154.08940218 410.2767055 161.11828184 410.26602915 C164.7073408 410.26075805 168.29632513 410.25873999 171.88538361 410.26532745 C175.7688465 410.27234769 179.65218608 410.26398881 183.53564453 410.25396729 C185.25244069 410.26065945 185.25244069 410.26065945 187.0039196 410.26748681 C188.03775339 410.26227132 189.07158718 410.25705582 190.13674927 410.25168228 C191.03408342 410.25135758 191.93141758 410.25103287 192.85594368 410.25069833 C195.21381378 410.19965391 195.21381378 410.19965391 197 408 C197.27654388 406.06318864 197.27654388 406.06318864 197.1953125 403.8671875 C197.18886719 403.06152344 197.18242187 402.25585938 197.17578125 401.42578125 C197.15902344 400.58402344 197.14226562 399.74226562 197.125 398.875 C197.11146484 397.60076172 197.11146484 397.60076172 197.09765625 396.30078125 C197.07405647 394.20040116 197.03818483 392.10016556 197 390 C195.92005013 389.99120064 195.92005013 389.99120064 194.81828308 389.98222351 C188.03486974 389.92433137 181.25173902 389.85227486 174.46865368 389.76428509 C170.9813232 389.71954792 167.49411043 389.68029968 164.0065918 389.65356445 C159.99758213 389.62259149 155.98920633 389.56780184 151.98046875 389.51171875 C150.72727341 389.50532883 149.47407806 389.4989389 148.1829071 389.49235535 C147.02193008 389.47256119 145.86095306 389.45276703 144.66479492 389.43237305 C143.64109299 389.42126999 142.61739105 389.41016693 141.56266785 389.39872742 C138.62498918 388.94165178 137.74628079 388.35828358 136 386 C135.125 383.625 135.125 383.625 135 381 C137.19402985 376.40298507 137.19402985 376.40298507 140 375 C141.8831229 374.94123018 143.76842688 374.94792126 145.65209961 374.98510742 C147.43051491 375.01328804 147.43051491 375.01328804 149.24485779 375.04203796 C150.53432816 375.06297012 151.82379852 375.08390228 153.15234375 375.10546875 C156.58637067 375.13086687 160.02046359 375.13898517 163.454566 375.14846325 C167.0435549 375.16184382 170.62987771 375.19630981 174.21801758 375.27758789 C190.54027613 376.50231361 190.54027613 376.50231361 205.23901367 371.4375 C208.10788817 368.65124576 210.04208352 365.48229041 212 362 C213.44929088 360.18408166 214.92460019 358.38827469 216.4375 356.625 C217.51837891 355.28308594 217.51837891 355.28308594 218.62109375 353.9140625 C221.35905042 350.56017798 224.17216465 347.2780711 227 344 C230.55475873 339.87552198 234.06792942 335.72791303 237.5 331.5 C241.4337857 326.65403211 245.48447759 321.91901472 249.55859375 317.19140625 C252.58958284 313.66682097 255.56992581 310.10951168 258.5 306.5 C261.89618779 302.31913345 265.36433447 298.20949743 268.875 294.125 C269.37620361 293.53984619 269.87740723 292.95469238 270.39379883 292.35180664 C272.96872821 289.34875349 275.55915004 286.36133759 278.17578125 283.39453125 C279.17975526 282.24224653 280.18366405 281.08990499 281.1875 279.9375 C281.65720215 279.41365723 282.1269043 278.88981445 282.61083984 278.35009766 C285.50503877 275.00614649 286.08585601 273.57071993 287 269 C128.6 269 -29.8 269 -193 269 Z " fill="#000000" transform="translate(209,47)"/>
<path d="M0 0 C3.26737472 1.46172027 3.84356919 2.59154176 5.125 5.9375 C5.69519317 11.71380468 1.99480477 17.3010087 -1 22 C-4 24 -4 24 -7.5 23.8125 C-11 23 -11 23 -12.875 21.875 C-14.76368881 18.72718532 -15 16.71351815 -15 13 C-12.13337 4.48234938 -9.86225769 -0.86511032 0 0 Z " fill="#000000" transform="translate(251,222)"/>
<path d="M0 0 C2.29520279 1.58289848 2.87770676 2.59305869 3.6796875 5.26171875 C4.06364017 8.54404583 3.46594735 10.47949389 2.3125 13.5625 C1.97863281 14.49191406 1.64476562 15.42132813 1.30078125 16.37890625 C-0.12983247 19.26161438 -1.49653206 20.98422062 -4 23 C-6.7639018 23.78274563 -9.21027184 23.65741545 -12 23 C-14.85397308 20.57412289 -15.79864273 18.96204031 -16.5625 15.3125 C-15.55351807 9.37071753 -13.08057657 3.8671841 -8.5625 -0.1875 C-5.26625825 -1.23264982 -3.29586266 -1.00308863 0 0 Z " fill="#000000" transform="translate(237,257)"/>
<path d="M0 0 C2.875 1.5 2.875 1.5 5 4 C5.94237143 7.99893269 5.61136591 10.98105682 3.5 14.5 C-0.04101433 16.6246086 -2.97168467 16.66173558 -7 16 C-9.4375 14.9375 -9.4375 14.9375 -11 13 C-11.87281149 9.57109774 -12.32922829 7.10740423 -11.3125 3.6875 C-8.30559049 -0.17852651 -4.702479 -0.57581376 0 0 Z " fill="#000000" transform="translate(304,236)"/>
<path d="M0 0 C3.46895276 1.96071243 4.71249004 3.15543949 6 6.9375 C6 10.57241294 5.19961414 12.14864833 3 15 C-0.10048928 16.55024464 -2.57894218 16.28992015 -6 16 C-8.9375 14.5 -8.9375 14.5 -11 12 C-11.65479266 9.19702789 -11.61001518 6.80837176 -11 4 C-8.1553332 -0.55146687 -5.11689336 -0.71816047 0 0 Z " fill="#000000" transform="translate(296,267)"/>
<path d="M0 0 C2.33030405 1.60710624 2.89531369 2.69399385 3.8125 5.375 C4.04244451 8.5942232 3.61716739 10.20671087 2 13 C-1.07731302 15.63769688 -2.53967894 16.01587314 -6.625 15.875 C-10 15 -10 15 -11.9375 13.9375 C-13.68745559 10.74640452 -13.64773492 7.49213609 -13 4 C-9.31962546 -0.94946921 -5.80935167 -1.45233792 0 0 Z " fill="#000000" transform="translate(302,205)"/>
</svg>
