<?xml version="1.0" encoding="UTF-8"?>
<svg version="1.1" xmlns="http://www.w3.org/2000/svg" width="512" height="512">
<path d="M0 0 C3.31606774 -1.46272662 6.13801341 -3.47090043 9.07299805 -5.57910156 C42.46007052 -29.42408399 82.43128355 -38.81466227 123.125 -33.1640625 C161.04759888 -26.67090301 196.30029837 -5.55347823 219 25.625 C242.32218317 58.71048044 251.85028126 99.0167257 245 139 C239.54308293 166.90060095 227.39159528 191.79827018 208.10546875 212.7109375 C206.24916088 214.72911266 204.46278192 216.78592733 202.6875 218.875 C199.60944655 222.40402407 196.36387195 225.74411864 193.0625 229.0625 C192.58449951 229.54509277 192.10649902 230.02768555 191.61401367 230.52490234 C188.92046296 233.20714511 186.15162779 235.75468768 183.26751518 238.23127937 C179.20180257 241.77768173 175.36266774 245.50246741 171.55960083 249.32687378 C170.85588911 250.03043664 170.15217739 250.7339995 169.42714107 251.45888245 C167.09113405 253.79557893 164.75871194 256.13582004 162.42626953 258.47607422 C160.74384994 260.16041466 159.06120129 261.84452632 157.37834167 263.52842712 C153.76638586 267.14353516 150.15598735 270.76018871 146.54678726 274.37804794 C141.3269145 279.61031844 136.10396685 284.8395084 130.88003884 290.06772973 C122.40068501 298.55413561 113.92320369 307.04240919 105.44726562 315.53222656 C104.94091913 316.03940087 104.43457264 316.54657517 103.91288231 317.0691184 C100.31687322 320.67103069 96.72093067 324.27300942 93.125 327.875 C89.00688529 332.00004927 84.88873556 336.12506358 80.77050781 340.25 C80.00919234 341.01255766 80.00919234 341.01255766 79.23249675 341.79052053 C70.77925026 350.25743769 62.32405129 358.72240246 53.86744964 367.18596852 C49.12186073 371.93563968 44.37737108 376.68639987 39.63544083 381.43972397 C35.18384298 385.90196059 30.73004621 390.36198992 26.27451515 394.82029915 C24.63610718 396.46058681 22.99856761 398.1017424 21.36194038 399.74380684 C19.13640569 401.97650517 16.90785516 404.20614817 14.67849731 406.43502808 C14.0244278 407.09269256 13.37035828 407.75035703 12.69646847 408.42795074 C12.10175932 409.02128554 11.50705017 409.61462034 10.89431953 410.22593498 C10.37995814 410.74121817 9.86559675 411.25650135 9.33564866 411.78739917 C6.84005497 414.05308405 4.65670835 414.29679824 1.375 414.5 C0.55773437 414.5721875 -0.25953125 414.644375 -1.1015625 414.71875 C-8.94820951 412.77295074 -15.68254827 403.45008276 -21.2265625 397.87109375 C-22.11220886 396.98398712 -22.99785522 396.09688049 -23.91033936 395.18289185 C-25.821136 393.26830796 -27.73100903 391.35285475 -29.63934326 389.43582153 C-32.66382676 386.39769493 -35.69222887 383.36349417 -38.72119141 380.32983398 C-45.69591819 373.34311903 -52.66559769 366.35137627 -59.63522339 359.35957336 C-66.02860535 352.94595275 -72.42307701 346.53342841 -78.82162285 340.12495899 C-81.82562495 337.11600842 -84.82718009 334.10464534 -87.82681274 331.09133911 C-90.14034571 328.76852368 -92.45716923 326.44899361 -94.7734375 324.12890625 C-96.00184357 322.8927507 -96.00184357 322.8927507 -97.25506592 321.63162231 C-101.36106244 317.5252516 -105.5497705 313.60988397 -109.94890213 309.82133865 C-114.00923811 306.21583207 -117.81285042 302.34330453 -121.65380859 298.50732422 C-122.58501022 297.58108749 -123.51621185 296.65485077 -124.47563171 295.70054626 C-127.00923957 293.17994057 -129.53961105 290.6561117 -132.06895781 288.13123083 C-133.65595968 286.5471793 -135.24353879 284.96370847 -136.83128738 283.38040543 C-141.81839434 278.40694081 -146.80351746 273.43150045 -151.78574598 268.45314872 C-157.50087996 262.74248871 -163.22248248 257.03841727 -168.94985902 251.34003627 C-173.40136505 246.91027204 -177.84696769 242.47463789 -182.28828108 238.03465474 C-184.92966628 235.39430859 -187.57333183 232.75635611 -190.22321701 230.12453842 C-223.05395613 197.50484904 -245.02585265 161.03574072 -245.375 113.5625 C-245.14301095 78.41482583 -233.6687876 43.43938147 -210 17 C-209.14664063 16.01515625 -208.29328125 15.0303125 -207.4140625 14.015625 C-181.4314376 -15.57870233 -143.91427143 -32.24941809 -104.875 -34.8125 C-66.13317323 -36.65886807 -30.04333072 -24.11754273 0 0 Z M-126 -9 C-126.96776367 -8.75854248 -126.96776367 -8.75854248 -127.95507812 -8.51220703 C-149.94063091 -2.83024068 -168.6709364 8.36638204 -185 24 C-185.74636719 24.68320313 -186.49273437 25.36640625 -187.26171875 26.0703125 C-202.50551668 40.48940234 -211.84134856 59.20107611 -218 79 C-218.31839844 80.00289063 -218.63679688 81.00578125 -218.96484375 82.0390625 C-227.72876887 112.99621094 -222.04866219 147.20707237 -206.875 175.1875 C-196.99231391 192.09326617 -182.76924667 205.65633215 -168.98046875 219.34765625 C-167.06627346 221.25720147 -165.15421137 223.1688778 -163.24201965 225.08042908 C-159.26247359 229.05631674 -155.27740054 233.02658933 -151.28833008 236.99291992 C-146.18954587 242.0626947 -141.1001844 247.1418222 -136.01366711 252.22390079 C-131.60160751 256.63196528 -127.18531069 261.03577776 -122.76832032 265.43890071 C-121.36532532 266.83782825 -119.96292917 268.2373563 -118.56053734 269.6368885 C-115.93901523 272.25149913 -113.31415363 274.86270881 -110.68823242 277.47290039 C-109.92390396 278.23611099 -109.1595755 278.99932159 -108.37208557 279.78565979 C-105.01654567 283.11474358 -101.6360905 286.35996362 -98.05305481 289.44396973 C-93.2987289 293.54744046 -88.89254872 297.97519417 -84.46289062 302.42358398 C-83.54488678 303.3414418 -82.62688293 304.25929962 -81.68106079 305.20497131 C-79.18763553 307.69811208 -76.69728479 310.19430285 -74.20751381 312.69109225 C-71.59616557 315.3087324 -68.98194604 317.92350194 -66.36804199 320.53858948 C-61.42930975 325.48041793 -56.49313007 330.42478776 -51.55788374 335.37009722 C-45.93464619 341.00454925 -40.30853637 346.63612957 -34.68219471 352.26748168 C-23.11828543 363.84181661 -11.55795196 375.41971611 0 387 C3.36836666 385.53834494 5.56500093 383.68023201 8.14764404 381.08613586 C8.96616852 380.26891556 9.78469299 379.45169525 10.62802124 378.60971069 C11.51744415 377.71152618 12.40686707 376.81334167 13.32324219 375.88793945 C14.2759193 374.93306021 15.22904571 373.97862904 16.18258667 373.02461243 C18.23385936 370.97040805 20.28193686 368.91308823 22.32759857 366.85329628 C25.56792322 363.59066619 28.81535674 360.33517442 32.06378174 357.08061218 C37.20740281 351.92560879 42.34633324 346.76595841 47.4832356 341.60426062 C56.66497415 332.37826352 65.8521721 323.1577116 75.04474378 313.9425084 C78.26656462 310.71232425 81.48555409 307.47935319 84.70223188 304.24404776 C86.71358165 302.22197478 88.72702671 300.20199743 90.74097061 298.18250847 C92.10568623 296.8127253 93.46782877 295.44038005 94.8298645 294.06793213 C99.10761055 289.78237268 103.45324077 285.67113788 108.04427528 281.72442913 C111.65392427 278.54167861 115.03656159 275.12804706 118.44458008 271.73242188 C119.247379 270.93619415 120.05017792 270.13996643 120.87730408 269.3196106 C123.51093907 266.70554904 126.14066658 264.08760842 128.76953125 261.46875 C129.67520025 260.56715652 130.58086926 259.66556305 131.51398277 258.73664856 C135.81615845 254.45313211 140.11628763 250.16758311 144.41332799 245.87891531 C149.33108632 240.97090409 154.25699577 236.07127076 159.19007951 231.17866468 C163.49701453 226.9058307 167.79263601 222.62177658 172.08456993 218.33387756 C173.89464189 216.5286372 175.70805426 214.72673907 177.52503395 212.92845154 C204.84760987 185.8695612 224.06832776 155.09935455 225.03125 115.59375 C225.15266866 80.32162788 211.41698263 48.7666526 187 23.5625 C180.06091153 16.61730139 172.34136702 11.13489038 164 6 C163.39462402 5.62504395 162.78924805 5.25008789 162.16552734 4.86376953 C133.57759152 -12.47105074 99.16162078 -15.97537124 66.96044922 -8.52832031 C45.50557924 -3.18460176 26.00118807 7.97838683 10.0859375 23.1875 C7.15995562 25.7299262 4.96737635 26.87382048 1.125 27.375 C-4.81669416 26.6619967 -8.22742702 22.80672105 -12.4375 18.875 C-38.34745989 -4.67599339 -71.616885 -13.16104609 -105.92285156 -12.15234375 C-112.8038183 -11.81168021 -119.32621481 -10.6684463 -126 -9 Z " fill="#000000" transform="translate(255,66)"/>
<path d="M0 0 C2.02651475 2.375235 2.79009933 4.05195596 3.67642212 7.02580261 C3.98461884 8.03681534 4.29281555 9.04782806 4.61035156 10.08947754 C5.10977768 11.79879707 5.10977768 11.79879707 5.61929321 13.54264832 C5.99309113 14.78326523 6.36688904 16.02388214 6.75201416 17.30209351 C7.63147735 20.22243094 8.50188426 23.14530399 9.36697388 26.06993103 C11.08731177 31.88370688 12.82985248 37.69077653 14.57144165 43.49821472 C19.56307588 60.15730068 24.52735289 76.82453841 29.48892212 93.49259949 C31.2864877 99.5308253 33.08677992 105.56823276 34.88872147 111.60515404 C35.56834646 113.88412041 36.24690934 116.16340381 36.92435837 118.44301796 C37.86618132 121.61216703 38.81145414 124.78026837 39.75747681 127.94816589 C40.03177521 128.87437241 40.30607361 129.80057892 40.58868408 130.75485229 C42.15942115 135.99969489 43.91065199 141.11429042 45.89273071 146.21842957 C47.22805933 143.69863878 48.56088478 141.17756131 49.89273071 138.65592957 C50.32480835 137.84051697 50.75688599 137.02510437 51.20205688 136.1849823 C53.81045824 131.24196988 56.37615749 126.2801437 58.88934326 121.28817749 C60.30194216 118.48328354 61.72300032 115.68270426 63.14395142 112.8820343 C63.84903698 111.48611654 64.54991919 110.08806735 65.24649048 108.68788147 C66.23904212 106.69380827 67.24605346 104.7076367 68.25601196 102.72233582 C68.83649292 101.56548279 69.41697388 100.40862976 70.01504517 99.21672058 C72.35515707 95.48002648 74.95915838 93.18521573 78.89273071 91.21842957 C81.22961842 91.1055729 83.5697871 91.05901081 85.90933228 91.04142761 C86.63150436 91.03485641 87.35367645 91.02828522 88.09773254 91.02151489 C90.49294129 91.00176976 92.88808725 90.99011558 95.28335571 90.98014832 C96.10147484 90.97607279 96.91959396 90.97199726 97.76250458 90.96779823 C102.09415943 90.94693056 106.42578255 90.93263287 110.75747681 90.92326355 C115.22761283 90.91220815 119.69724982 90.87782065 124.16720963 90.83809185 C127.60738029 90.81191815 131.04743231 90.80357098 134.48769379 90.79998207 C136.1350923 90.79511665 137.78248553 90.78350386 139.42978668 90.76494408 C141.73977389 90.74053949 144.04847379 90.74151959 146.35855103 90.74845886 C147.67156189 90.74259262 148.98457275 90.73672638 150.33737183 90.73068237 C154.51646077 91.3039969 156.64211907 92.57527527 159.89273071 95.21842957 C162.36056231 98.92017696 162.57345804 101.92336432 161.89273071 106.21842957 C158.89273071 111.71842957 158.89273071 111.71842957 155.89273071 113.21842957 C153.76856071 113.31017991 151.64143617 113.3359365 149.51528931 113.33195496 C148.53461739 113.332174 148.53461739 113.332174 147.53413391 113.33239746 C145.36977844 113.33169992 143.20550868 113.32391496 141.04116821 113.31608582 C139.5418706 113.31422107 138.04257237 113.31279743 136.54327393 113.3117981 C132.59441449 113.30797736 128.64559175 113.29815084 124.69674683 113.28709412 C120.66832984 113.27687048 116.63990693 113.27229843 112.61148071 113.26725769 C104.70521386 113.25652819 96.79897685 113.23945707 88.89273071 113.21842957 C88.58496704 113.99628815 88.27720337 114.77414673 87.96011353 115.57557678 C86.95367461 118.06753175 85.84283024 120.44754272 84.64273071 122.85124207 C84.2046106 123.72949646 83.76649048 124.60775085 83.31509399 125.51261902 C82.84571411 126.4467865 82.37633423 127.38095398 81.89273071 128.34342957 C81.40143677 129.32335876 80.91014282 130.30328796 80.40396118 131.31291199 C76.94908121 138.17880573 73.42926699 145.00709874 69.81362915 151.78971863 C67.34491379 156.4260865 64.94285189 161.08942036 62.58804321 165.78483582 C62.01682739 166.9130072 61.44561157 168.04117859 60.85708618 169.20353699 C59.73837145 171.41563526 58.63011061 173.63306047 57.53384399 175.85636902 C54.65802547 181.5105283 52.33929824 185.81524365 46.89273071 189.21842957 C44.51382446 189.84733582 44.51382446 189.84733582 42.33023071 189.78092957 C41.60706665 189.78221863 40.88390259 189.78350769 40.13882446 189.78483582 C36.89905035 188.9678493 35.30602609 187.53215004 32.89273071 185.21842957 C31.74970918 182.69578329 30.90522849 180.4355225 30.12710571 177.80436707 C29.88296936 177.02757599 29.63883301 176.25078491 29.38729858 175.45045471 C28.53517533 172.71233931 27.71271195 169.9663361 26.89273071 167.21842957 C26.57731323 166.17561829 26.26189575 165.13280701 25.93692017 164.05839539 C23.50432088 156.01483932 21.1209711 147.95706467 18.74753189 139.8959198 C17.08694835 134.26046201 15.418214 128.62740687 13.75090981 122.99393463 C13.32122883 121.54196751 12.89166254 120.08996644 12.4622097 118.63793182 C7.7838343 102.81986458 3.05211779 87.01794555 -1.69352722 71.21994781 C-2.29545213 69.21615641 -2.89723945 67.21232373 -3.49899292 65.20848083 C-5.70040871 57.87805989 -7.90305505 50.54800953 -10.10726929 43.21842957 C-12.68116325 46.53187626 -14.34338363 49.72348321 -16.00570679 53.58952332 C-16.27706955 54.21606812 -16.54843231 54.84261292 -16.82801819 55.48814392 C-17.41249199 56.83872446 -17.99468873 58.19029225 -18.5748291 59.54273987 C-19.49170888 61.6779119 -20.41628176 63.80958834 -21.34335327 65.94035339 C-22.62650449 68.88975159 -23.90823202 71.83975599 -25.18783569 74.79069519 C-25.50641541 75.52538025 -25.82499512 76.26006531 -26.15322876 77.01701355 C-26.78184464 78.46752327 -27.41006878 79.91820283 -28.03787231 81.36906433 C-29.7927694 85.42342115 -31.55825374 89.4728071 -33.34024048 93.51533508 C-33.88887991 94.76574938 -34.43318788 96.01807402 -34.97293091 97.27235413 C-35.7268681 99.0234331 -36.49684577 100.76757904 -37.26742554 102.51139832 C-37.69676392 103.49648376 -38.12610229 104.48156921 -38.56845093 105.49650574 C-40.40526499 108.74553635 -42.25037556 110.80621103 -45.10726929 113.21842957 C-48.14254761 113.85334778 -48.14254761 113.85334778 -51.56234741 113.86540222 C-52.84718018 113.88116302 -54.13201294 113.89692383 -55.45578003 113.91316223 C-56.8500352 113.90421215 -58.24428253 113.89395708 -59.63851929 113.88249207 C-61.07671519 113.88586288 -62.5149083 113.89071771 -63.95309448 113.89698792 C-66.9626079 113.904347 -69.9713777 113.89368647 -72.98080444 113.87028503 C-76.83141519 113.84179591 -80.68028352 113.85820533 -84.53083038 113.88814735 C-87.499268 113.90624758 -90.467295 113.90045025 -93.43574524 113.88750839 C-94.85506905 113.88418181 -96.2744306 113.88823521 -97.69371033 113.89990616 C-99.67986298 113.91265578 -101.666147 113.88976465 -103.65219116 113.86540222 C-104.7807251 113.86142426 -105.90925903 113.85744629 -107.07199097 113.85334778 C-111.04480628 113.02231598 -112.54364119 111.28729691 -115.10726929 108.21842957 C-116.71033852 105.01229109 -116.5946739 101.69702959 -116.10726929 98.21842957 C-113.93557893 94.65065255 -111.94499737 92.76977498 -108.10726929 91.21842957 C-105.69009399 90.97792053 -105.69009399 90.97792053 -102.9715271 90.99137878 C-101.44039276 90.99160538 -101.44039276 90.99160538 -99.87832642 90.99183655 C-98.78340881 91.00215912 -97.68849121 91.01248169 -96.56039429 91.02311707 C-94.87088654 91.02736191 -94.87088654 91.02736191 -93.14724731 91.0316925 C-89.55047982 91.04288583 -85.9539615 91.0679892 -82.35726929 91.09342957 C-79.9184708 91.10346045 -77.47966841 91.11258611 -75.04086304 91.12077332 C-69.06291347 91.14282241 -63.08510918 91.17629173 -57.10726929 91.21842957 C-56.93833664 90.6784584 -56.76940399 90.13848724 -56.59535217 89.58215332 C-54.73469957 83.80131809 -52.49567192 78.29484035 -50.00180054 72.76139832 C-49.40688812 71.42712799 -49.40688812 71.42712799 -48.79995728 70.06590271 C-47.51086742 67.17729729 -46.21573479 64.2914561 -44.91976929 61.40592957 C-43.1113998 57.36995349 -41.30463732 53.33325894 -39.49789429 49.29655457 C-39.04410904 48.28399094 -38.59032379 47.27142731 -38.12278748 46.22817993 C-35.17222994 39.63431954 -32.2722306 33.02039635 -29.40414429 26.39030457 C-28.33202932 23.92579043 -27.25884237 21.46174627 -26.1852417 18.99787903 C-25.51256765 17.44651377 -24.84455207 15.89311962 -24.18139648 14.33766174 C-23.26385957 12.18695755 -22.33003417 10.04403665 -21.39242554 7.90202332 C-20.61717529 6.10075989 -20.61717529 6.10075989 -19.82626343 4.2631073 C-17.67786163 0.45786389 -15.19033093 -1.809475 -11.23226929 -3.65657043 C-6.94310908 -3.90887398 -3.27033834 -2.76487592 0 0 Z " fill="#000000" transform="translate(233.10726928710938,142.7815704345703)"/>
</svg>
