<?xml version="1.0" encoding="UTF-8"?>
<svg version="1.1" xmlns="http://www.w3.org/2000/svg" width="512" height="512">
<path d="M0 0 C1.16465507 -0.00424107 1.16465507 -0.00424107 2.35283852 -0.00856781 C6.45227004 -0.02345719 10.55166722 -0.03275446 14.65112305 -0.03710938 C18.86749877 -0.04261631 23.08355523 -0.06672002 27.29983044 -0.09508133 C30.56245342 -0.11374275 33.82499944 -0.1189149 37.08767128 -0.12044525 C38.64212118 -0.12345829 40.19657016 -0.13144093 41.75096703 -0.14463043 C43.92561517 -0.16178504 46.09948062 -0.15978971 48.27416992 -0.15332031 C49.50753586 -0.15696594 50.74090179 -0.16061157 52.01164246 -0.16436768 C57.47973468 0.4084794 61.27531965 2.06710571 65.39453125 5.828125 C68.03896026 10.02810049 68.81335583 13.2686004 68.51953125 18.203125 C67.03128814 22.99857504 64.63727833 26.69283485 61.60546875 30.625 C60.32172587 32.33441592 60.32172587 32.33441592 59.51953125 35.203125 C61.00839844 35.13738281 61.00839844 35.13738281 62.52734375 35.0703125 C66.75641801 35.21100577 70.40127574 36.042088 74.39453125 37.328125 C75.4472522 37.66481201 75.4472522 37.66481201 76.52124023 38.00830078 C82.18888663 39.91520921 86.91253698 42.34166092 91.51953125 46.203125 C92.14085937 46.70328125 92.7621875 47.2034375 93.40234375 47.71875 C104.22771208 57.37254167 107.52505222 72.64571428 108.3984375 86.56640625 C108.68073382 95.04440223 108.64014762 103.51188938 108.5423584 111.99316406 C108.51659279 114.48760575 108.49892294 116.98204924 108.48144531 119.4765625 C108.44460627 124.38871451 108.38362159 129.30018222 108.30999756 134.21191406 C108.28316199 136.19556042 108.262788 138.1793054 108.24908447 140.16308594 C108.22766296 142.98953849 108.18104951 145.81459285 108.12890625 148.640625 C108.12766754 149.48568604 108.12642883 150.33074707 108.12515259 151.20141602 C107.94930951 158.37171642 105.83170236 163.52587425 101.14453125 168.953125 C95.27697501 173.98245892 91.06676087 176.34879414 83.33203125 176.265625 C82.24535156 176.25660156 81.15867187 176.24757813 80.0390625 176.23828125 C79.20761719 176.22667969 78.37617188 176.21507812 77.51953125 176.203125 C77.17921875 178.059375 77.17921875 178.059375 76.83203125 179.953125 C73.28995052 195.48005422 64.47640394 208.78825915 52.51953125 219.203125 C51.85953125 219.533125 51.19953125 219.863125 50.51953125 220.203125 C49.95252607 229.36970879 50.44445968 236.81607917 56.12109375 244.3203125 C65.73801002 254.16711521 81.16044807 257.73064504 93.7578125 262.27685547 C110.15779027 268.19788508 125.91053455 273.92900518 139.51953125 285.203125 C140.2465625 285.80511719 140.97359375 286.40710938 141.72265625 287.02734375 C152.46687299 296.80786166 156.91503134 310.15796938 157.69046021 324.32626343 C157.93615134 331.81234625 157.94684533 339.29601247 157.91064453 346.78540039 C157.89983442 349.455661 157.8970593 352.12412479 157.91064453 354.79418945 C157.92916803 358.68198743 157.92694381 362.5692093 157.91796875 366.45703125 C157.92404144 367.64768692 157.93011414 368.83834259 157.93637085 370.06507874 C157.88026781 376.66429618 157.67518296 381.74341309 153.01953125 386.84765625 C148.79409954 390.13777104 146.00118082 391.32637627 140.70616627 391.33734608 C139.70887558 391.34180392 138.71158489 391.34626176 137.68407327 391.35085469 C136.03614967 391.35057815 136.03614967 391.35057815 134.35493469 391.35029602 C132.60771261 391.35581105 132.60771261 391.35581105 130.82519311 391.3614375 C127.5865596 391.37056568 124.34795587 391.37517433 121.1093117 391.37782681 C117.61837325 391.3817298 114.12744947 391.39130816 110.63652039 391.40003967 C102.20310625 391.41980444 93.76969091 391.4298704 85.33625939 391.43876746 C81.36495671 391.44315042 77.39365537 391.44851722 73.42235374 391.45375633 C60.22101398 391.47076877 47.01967504 391.48526293 33.818326 391.49250507 C30.39231172 391.49441497 26.96629745 391.4963353 23.5402832 391.49829102 C22.68876237 391.49877476 21.83724153 391.4992585 20.95991703 391.4997569 C7.16590329 391.50805716 -6.62802373 391.53339392 -20.4219996 391.56587169 C-34.58345035 391.59894288 -48.74485704 391.61695389 -62.90634662 391.62014931 C-70.85771582 391.62231438 -78.80895857 391.63106245 -86.76029015 391.65661049 C-93.53208807 391.67831833 -100.30372884 391.68636755 -107.07555761 391.67664371 C-110.52977195 391.67209916 -113.98366202 391.67399367 -117.43783188 391.69340515 C-121.18581372 391.71105382 -124.93297205 391.70405122 -128.68095398 391.69087219 C-130.31214716 391.70732606 -130.31214716 391.70732606 -131.97629374 391.72411233 C-138.27726022 391.6705972 -143.27618857 390.96151858 -148.48046875 387.203125 C-153.81107206 381.00174579 -153.04424704 374.01838956 -152.9765625 366.16015625 C-152.97671781 364.78643212 -152.97821202 363.41270757 -152.98097229 362.03898621 C-152.98235253 359.16503427 -152.96987039 356.29158358 -152.94702148 353.41772461 C-152.91877179 349.7677421 -152.92134226 346.11859974 -152.9341116 342.4685564 C-152.94113478 339.63115002 -152.9332026 336.7939311 -152.92085457 333.95654869 C-152.91425184 331.96720317 -152.91844576 329.97783098 -152.92295837 327.98847961 C-152.76736219 312.80435486 -149.05964764 299.39348848 -138.5 288.09765625 C-123.88261491 274.38502227 -105.40417134 268.10353708 -86.93847656 261.45117188 C-81.56250176 259.51090195 -76.20101375 257.53820432 -70.85546875 255.515625 C-69.48068359 255.01784546 -69.48068359 255.01784546 -68.078125 254.51000977 C-60.75836923 251.71698073 -54.15144874 247.96726817 -49.54296875 241.47265625 C-49.19234375 240.66183594 -48.84171875 239.85101563 -48.48046875 239.015625 C-48.10921875 238.19707031 -47.73796875 237.37851562 -47.35546875 236.53515625 C-46.56193247 234.42024036 -45.95078778 232.40966849 -45.48046875 230.203125 C-45.33222656 229.52894531 -45.18398437 228.85476563 -45.03125 228.16015625 C-44.74285642 225.56461401 -44.78221786 223.73479489 -45.48046875 221.203125 C-47.70298413 218.6554721 -50.13428418 216.63979574 -52.75 214.5 C-64.26036954 204.81745738 -70.68532056 190.7378956 -73.48046875 176.203125 C-74.25390625 176.24953125 -75.02734375 176.2959375 -75.82421875 176.34375 C-83.93486935 176.62481215 -89.37339183 176.02038802 -95.41796875 170.40234375 C-101.49551765 163.88164024 -103.94281585 157.9138632 -103.86865234 149.01147461 C-103.8739093 148.22339417 -103.87916626 147.43531372 -103.88458252 146.62335205 C-103.89771736 144.03385209 -103.88906178 141.44497435 -103.87890625 138.85546875 C-103.88093027 137.03813053 -103.88384444 135.2207931 -103.88760376 133.40345764 C-103.89201952 129.59644836 -103.88562546 125.78965063 -103.87158203 121.98266602 C-103.85457607 117.14021962 -103.86428131 112.29827532 -103.88229942 107.45584774 C-103.89323081 103.70050904 -103.889647 99.94528583 -103.88191605 96.18994331 C-103.87993531 94.4068451 -103.88229722 92.6237359 -103.88935471 90.84065056 C-103.96508925 66.30950484 -97.95957612 45.82289783 -80.8203125 27.51171875 C-58.54442954 5.53334341 -30.16105822 0.07463797 0 0 Z M-71.73046875 42.54296875 C-83.79806954 56.64469164 -87.01378063 72.89261022 -86.66796875 90.953125 C-86.65287459 92.34373529 -86.63919466 93.73436167 -86.62695312 95.125 C-86.59195523 98.48479834 -86.54285728 101.84374274 -86.48046875 105.203125 C-84.20758803 105.13468168 -81.93549002 105.03984003 -79.6640625 104.93359375 C-78.39876709 104.88356201 -77.13347168 104.83353027 -75.82983398 104.78198242 C-72.47300546 104.51980042 -72.47300546 104.51980042 -70.62548828 102.44995117 C-69.50219268 100.5021616 -69.50219268 100.5021616 -68.5390625 98.3359375 C-65.58761164 92.38947193 -59.48580916 89.31611515 -53.48046875 87.203125 C-49.52775018 86.24366169 -45.72585522 86.04721378 -41.66796875 85.890625 C-35.58760023 85.46714819 -31.53589544 84.52384646 -26.48046875 81.203125 C-25.59617188 80.63722656 -24.711875 80.07132813 -23.80078125 79.48828125 C-21.89629686 78.26765643 -19.99390766 77.04375567 -18.09375 75.81640625 C-9.35804323 70.42351104 -0.09195705 68.91484515 10.03515625 70.62890625 C18.52590593 72.86115173 25.87572479 77.69643353 33.08203125 82.578125 C37.06243891 85.2317301 40.33829327 85.36063385 45.01953125 85.578125 C53.94179833 86.18583359 64.15000746 87.1752525 70.51953125 94.203125 C71.37225291 95.94376 72.20425625 97.69463954 73.01953125 99.453125 C74.31840617 102.16752432 74.31840617 102.16752432 76.51953125 104.203125 C81.58607152 105.38709546 86.34164487 105.42710482 91.51953125 105.203125 C91.99033782 90.16347063 91.580216 75.05173771 83.51953125 61.953125 C76.15783525 54.17389998 65.56782549 52.24051974 55.46264648 50.67138672 C50.45839387 49.8441003 47.14894054 49.02134749 43.51953125 45.203125 C40.49807412 40.62935962 40.59760506 35.46352739 41.51953125 30.203125 C43.4820614 26.23801306 45.90362197 22.76000884 48.51953125 19.203125 C48.84953125 18.543125 49.17953125 17.883125 49.51953125 17.203125 C41.20783442 17.13295523 32.89626573 17.07997968 24.58434391 17.04768848 C20.72286928 17.03217372 16.86160041 17.0112028 13.00024414 16.97680664 C-18.48128554 16.70381092 -48.4086476 18.28989432 -71.73046875 42.54296875 Z M-16.48046875 94.265625 C-25.48218599 100.35735314 -32.20396987 101.33697941 -43.0078125 101.91015625 C-48.49310474 102.37291994 -51.7616084 103.37007874 -55.62304688 107.48803711 C-58.81908853 112.53344706 -58.04926732 118.70353093 -58.01171875 124.45703125 C-58.01554565 125.7494725 -58.01937256 127.04191376 -58.02331543 128.3735199 C-58.02919937 131.10801365 -58.02069419 133.84198345 -58.00195312 136.57641602 C-57.97932167 140.04377773 -57.99219046 143.50988983 -58.01624298 146.97720432 C-58.03438597 150.32473975 -58.02157977 153.6719606 -58.01171875 157.01953125 C-58.01981567 158.24603897 -58.0279126 159.47254669 -58.03625488 160.73622131 C-57.86246797 177.01271228 -52.07759025 190.97918456 -40.66796875 202.578125 C-28.03686318 214.86599401 -13.18534742 219.47277554 4.15063477 219.44970703 C20.07953878 219.22828268 33.92662955 213.14980076 45.51953125 202.203125 C59.22377504 187.93602834 62.64204393 170.88428308 62.72265625 151.8515625 C62.72835632 150.79329254 62.7340564 149.73502258 62.7399292 148.64468384 C62.74932261 146.42101017 62.75589048 144.19732294 62.75976562 141.97363281 C62.76952259 138.58113555 62.80062054 135.18923184 62.83203125 131.796875 C62.83855777 129.62760773 62.84380962 127.45833618 62.84765625 125.2890625 C62.86617645 123.77788345 62.86617645 123.77788345 62.8850708 122.23617554 C62.86677971 116.43734606 62.33928365 112.31023489 59.51953125 107.203125 C54.41541723 102.2298857 50.31038825 102.13914142 43.39453125 101.890625 C32.05866977 101.22636661 24.36458462 96.74339172 15.05102539 90.64477539 C14.39352295 90.21672607 13.73602051 89.78867676 13.05859375 89.34765625 C12.47287598 88.95940674 11.8871582 88.57115723 11.28369141 88.17114258 C1.19741848 82.6366737 -8.14935318 88.51747283 -16.48046875 94.265625 Z M-84.37890625 122.828125 C-87.78964605 128.30559561 -87.20152736 133.88887244 -87.10546875 140.203125 C-87.12480469 141.47414062 -87.14414063 142.74515625 -87.1640625 144.0546875 C-87.18848584 151.16506296 -87.18848584 151.16506296 -84.37890625 157.515625 C-81.01536214 159.71703705 -81.01536214 159.71703705 -74.48046875 160.203125 C-74.48046875 147.333125 -74.48046875 134.463125 -74.48046875 121.203125 C-81.01664001 120.63258665 -81.01664001 120.63258665 -84.37890625 122.828125 Z M79.51953125 121.203125 C79.51953125 134.073125 79.51953125 146.943125 79.51953125 160.203125 C85.19083174 159.63111729 85.19083174 159.63111729 88.35546875 157.515625 C91.88676953 152.11031261 91.24046971 146.50947963 91.14453125 140.203125 C91.16386719 138.93210938 91.18320312 137.66109375 91.203125 136.3515625 C91.43212368 129.09173287 91.43212368 129.09173287 88.35546875 122.828125 C85.19662898 120.70595677 85.19662898 120.70595677 79.51953125 121.203125 Z M-27.48046875 231.203125 C-27.72796875 231.96625 -27.97546875 232.729375 -28.23046875 233.515625 C-28.64296875 234.7325 -29.05546875 235.949375 -29.48046875 237.203125 C-29.77179688 238.07324219 -30.063125 238.94335938 -30.36328125 239.83984375 C-33.25723775 248.1913009 -33.25723775 248.1913009 -35.79296875 251.578125 C-37.74160699 254.02137228 -37.74160699 254.02137228 -37.2734375 256.59375 C-34.84248 264.59315696 -27.38114343 270.92874716 -20.48046875 275.203125 C-8.68440845 281.00348077 2.32489714 283.21774319 15.20703125 279.578125 C25.98042947 275.90128503 35.09428316 268.88446461 41.39453125 259.328125 C42.39764299 257.35524083 42.39764299 257.35524083 42.51953125 255.203125 C41.38658215 252.56878806 39.91040892 250.4229288 38.26171875 248.078125 C35.13322505 242.91540895 33.94527436 237.02351158 32.51953125 231.203125 C30.60140625 231.63625 30.60140625 231.63625 28.64453125 232.078125 C26.93847747 232.46336295 25.22951577 232.83572779 23.51953125 233.203125 C22.44348633 233.45340454 22.44348633 233.45340454 21.34570312 233.70874023 C15.10058763 235.08456333 9.1565576 235.5523808 2.76953125 235.515625 C1.81377197 235.51361084 0.8580127 235.51159668 -0.12670898 235.50952148 C-7.92647335 235.39973972 -14.94337465 234.24905912 -22.48046875 232.203125 C-24.14447199 231.85674065 -25.81035998 231.51876023 -27.48046875 231.203125 Z M-57.90112305 268.5390625 C-67.02858424 272.50420232 -76.26804295 275.93913952 -85.66796875 279.203125 C-112.59072271 288.41679585 -112.59072271 288.41679585 -131.69921875 308.50390625 C-134.22688685 314.01963914 -135.60799155 318.60318399 -135.59399414 324.70605469 C-135.59391861 325.80689392 -135.59384308 326.90773315 -135.59376526 328.04193115 C-135.58860397 329.22434387 -135.58344269 330.40675659 -135.578125 331.625 C-135.57671005 332.84012268 -135.5752951 334.05524536 -135.57383728 335.30718994 C-135.56823863 339.18919331 -135.55568635 343.07113906 -135.54296875 346.953125 C-135.53795358 349.58463458 -135.5333907 352.21614507 -135.52929688 354.84765625 C-135.51912043 361.29951924 -135.49954457 367.7512576 -135.48046875 374.203125 C-117.66046875 374.203125 -99.84046875 374.203125 -81.48046875 374.203125 C-81.27056756 365.4528451 -81.27056756 365.4528451 -81.0925293 356.7019043 C-81.04286011 355.06862183 -81.04286011 355.06862183 -80.9921875 353.40234375 C-80.96600342 352.28690186 -80.93981934 351.17145996 -80.9128418 350.0222168 C-80.48046875 347.203125 -80.48046875 347.203125 -79.06958008 345.33837891 C-77.07515085 343.91356774 -75.91364282 343.83071731 -73.48046875 343.890625 C-72.45953125 343.89642578 -72.45953125 343.89642578 -71.41796875 343.90234375 C-69.48046875 344.203125 -69.48046875 344.203125 -66.48046875 346.203125 C-63.52148995 355.08006141 -64.85445418 364.85348915 -64.48046875 374.203125 C-20.26046875 374.203125 23.95953125 374.203125 69.51953125 374.203125 C69.84953125 365.623125 70.17953125 357.043125 70.51953125 348.203125 C73.51953125 344.203125 73.51953125 344.203125 75.67578125 343.671875 C76.44921875 343.6821875 77.22265625 343.6925 78.01953125 343.703125 C78.79296875 343.6928125 79.56640625 343.6825 80.36328125 343.671875 C82.51953125 344.203125 82.51953125 344.203125 85.51953125 348.203125 C85.84953125 356.783125 86.17953125 365.363125 86.51953125 374.203125 C104.33953125 374.203125 122.15953125 374.203125 140.51953125 374.203125 C140.56078125 365.80875 140.60203125 357.414375 140.64453125 348.765625 C140.66273926 346.13279541 140.68094727 343.49996582 140.69970703 340.78735352 C140.70555373 338.67724816 140.71064887 336.56714053 140.71484375 334.45703125 C140.72507568 333.38030151 140.73530762 332.30357178 140.74584961 331.19421387 C140.74862131 319.09991406 138.3487467 308.88878073 130.0546875 299.65625 C116.59345657 286.91432149 97.27852775 281.46707966 80.18334961 275.4152832 C78.79539692 274.92272611 77.40745716 274.43013256 76.01953125 273.9375 C75.35381607 273.7027446 74.68810089 273.4679892 74.00221252 273.22612 C70.34406783 271.91933348 66.83032451 270.4667913 63.33203125 268.78125 C60.72215043 267.58372041 59.56825231 267.203125 56.625 267.203125 C53.9631743 268.46736875 53.2457021 269.63443601 51.83203125 272.203125 C43.82084651 284.9362675 30.208929 292.46285501 15.89453125 296.203125 C-0.90139863 299.39248776 -18.11008197 296.71263377 -32.48046875 287.203125 C-39.66525716 281.87084576 -45.44768577 275.5536833 -50.2734375 268.00390625 C-50.67175781 267.40964844 -51.07007813 266.81539063 -51.48046875 266.203125 C-53.74335481 266.203125 -55.85016159 267.64521481 -57.90112305 268.5390625 Z " fill="#000000" transform="translate(273.48046875,98.796875)"/>
<path d="M0 0 C2.72829806 3.82622148 2.37996301 7.26718933 2.33807373 11.86047363 C2.34508301 12.80245102 2.35209229 13.74442841 2.35931396 14.71495056 C2.3769305 17.83187274 2.36525325 20.94788774 2.35174561 24.06481934 C2.35444059 26.23472772 2.35832306 28.40463493 2.36334229 30.57453918 C2.36924325 35.12667313 2.3606591 39.67849333 2.34197998 44.23059082 C2.31925825 50.05009223 2.33226703 55.86885297 2.35626984 61.68832684 C2.37076954 66.17264821 2.3661015 70.65679602 2.35575867 75.14112282 C2.35309938 77.28561301 2.35633291 79.4301192 2.36567688 81.57459068 C2.37590335 84.58306525 2.36025293 87.590367 2.33807373 90.59875488 C2.34617065 91.4764856 2.35426758 92.35421631 2.36260986 93.25854492 C2.26180485 100.68692901 0.28502944 106.7094077 -4.61700439 112.36560059 C-5.88544189 113.44841309 -5.88544189 113.44841309 -7.17950439 114.55310059 C-7.98387939 115.27497559 -8.78825439 115.99685059 -9.61700439 116.74060059 C-16.63776294 121.70650297 -24.92530969 121.27932802 -33.17950439 120.55310059 C-36.24352698 119.65246364 -38.59622054 118.40842664 -41.17950439 116.55310059 C-42.06637939 115.97560059 -42.95325439 115.39810059 -43.86700439 114.80310059 C-50.37873578 108.46736195 -52.70081774 101.57809534 -53.17950439 92.55310059 C-52.84139138 85.08189356 -50.1541359 79.11235759 -45.17950439 73.55310059 C-35.75545283 65.2804839 -26.23785636 65.29924054 -14.17950439 65.55310059 C-14.67450439 58.12810059 -14.67450439 58.12810059 -15.17950439 50.55310059 C-28.70950439 54.18310059 -42.23950439 57.81310059 -56.17950439 61.55310059 C-56.21817627 67.1179834 -56.21817627 67.1179834 -56.25762939 72.79528809 C-56.29610941 76.41287626 -56.34125068 80.03032477 -56.38702393 83.64782715 C-56.41514228 86.15003727 -56.43640194 88.6523347 -56.45050049 91.15466309 C-56.47205598 94.76448984 -56.51877361 98.37327678 -56.57012939 101.98278809 C-56.57197235 103.64433426 -56.57197235 103.64433426 -56.57385254 105.33944702 C-56.74638094 114.61694565 -58.80299178 123.12828464 -65.37872314 130.01403809 C-72.44194127 136.05071475 -79.36423262 137.38170979 -88.55450439 137.02966309 C-96.83425664 135.94116117 -102.63576971 132.14961715 -107.77325439 125.64294434 C-112.42387475 118.73160575 -113.11346866 111.77835407 -112.17950439 103.55310059 C-110.25363049 95.49423537 -106.15356528 89.70879105 -99.15997314 85.27185059 C-93.02863385 81.989298 -87.23110552 81.41992098 -80.30450439 81.49060059 C-78.57587158 81.50413574 -78.57587158 81.50413574 -76.81231689 81.51794434 C-75.50907471 81.53534668 -75.50907471 81.53534668 -74.17950439 81.55310059 C-74.18838684 80.78746292 -74.19726929 80.02182526 -74.2064209 79.23298645 C-74.28665036 72.00895289 -74.34751074 64.78513609 -74.38675308 57.5607729 C-74.40760651 53.8468401 -74.43588194 50.13327618 -74.48126221 46.41955566 C-74.52480186 42.8339241 -74.54865839 39.24864679 -74.55901337 35.66277122 C-74.56639033 34.29642347 -74.5807962 32.93009457 -74.60242462 31.56389809 C-74.63156012 29.64683654 -74.63313916 27.72941667 -74.63360596 25.81213379 C-74.6424884 24.72181351 -74.65137085 23.63149323 -74.66052246 22.50813293 C-74.04846092 18.74806284 -72.92075622 17.17676174 -70.17950439 14.55310059 C-67.4744873 13.34440613 -67.4744873 13.34440613 -64.34454346 12.51672363 C-63.169422 12.19676926 -61.99430054 11.87681488 -60.78356934 11.54716492 C-58.88354156 11.06090385 -58.88354156 11.06090385 -56.94512939 10.56481934 C-55.62444591 10.21456102 -54.30411757 9.86296115 -52.98413086 9.51008606 C-50.21976331 8.77524102 -47.45253458 8.05288826 -44.68243408 7.33996582 C-41.1491137 6.430148 -37.62291929 5.49570405 -34.09839249 4.55246258 C-31.37223352 3.82476816 -28.6434429 3.10739774 -25.91368866 2.39332008 C-23.98510821 1.88779862 -22.05814624 1.37611539 -20.13122559 0.86430359 C-4.66485617 -3.09684058 -4.66485617 -3.09684058 0 0 Z M-24.21075439 19.92419434 C-25.11700562 20.16597916 -26.02325684 20.40776398 -26.95697021 20.65687561 C-28.87720148 21.1698417 -30.79723997 21.68352989 -32.71710205 22.19787598 C-35.66592277 22.98696621 -38.61603865 23.77107999 -41.56622314 24.55505371 C-43.42698242 25.0527934 -45.28766224 25.5508303 -47.14825439 26.04919434 C-48.03678101 26.28464462 -48.92530762 26.52009491 -49.84075928 26.76268005 C-50.65830688 26.98283279 -51.47585449 27.20298553 -52.31817627 27.42980957 C-53.04130005 27.62300278 -53.76442383 27.81619598 -54.50946045 28.01524353 C-56.19708622 28.41858431 -56.19708622 28.41858431 -57.17950439 29.55310059 C-57.25222181 31.90623613 -57.26321307 34.26143727 -57.24200439 36.61560059 C-57.23298096 37.90595215 -57.22395752 39.19630371 -57.21466064 40.52575684 C-57.20305908 41.52478027 -57.19145752 42.52380371 -57.17950439 43.55310059 C-42.73083575 40.31321806 -28.46163113 36.45520121 -14.17950439 32.55310059 C-14.17950439 27.60310059 -14.17950439 22.65310059 -14.17950439 17.55310059 C-17.42380236 17.55310059 -21.05520531 19.0808178 -24.21075439 19.92419434 Z M-34.05450439 87.24060059 C-35.71355415 90.65086954 -35.85693001 93.88189078 -35.17950439 97.55310059 C-33.38586529 100.36313519 -32.16069504 102.06250526 -29.17950439 103.55310059 C-23.46615573 104.04312771 -23.46615573 104.04312771 -18.30450439 101.92810059 C-13.2342968 96.26139798 -13.94932315 89.73987052 -14.17950439 82.55310059 C-24.96152073 81.99482723 -24.96152073 81.99482723 -34.05450439 87.24060059 Z M-92.17950439 101.55310059 C-94.41222282 104.30678665 -95.11482767 106.03568683 -95.55450439 109.55310059 C-95.12647634 112.977325 -94.24032505 114.80533971 -92.17950439 117.55310059 C-88.48701878 120.01475766 -85.46439037 120.36156964 -81.17950439 119.55310059 C-77.65462073 117.5864273 -75.47828963 115.44945628 -74.17950439 111.55310059 C-74.11013377 109.32491617 -74.09493356 107.09475534 -74.11700439 104.86560059 C-74.12602783 103.6861084 -74.13505127 102.50661621 -74.14434814 101.29138184 C-74.15594971 100.38774902 -74.16755127 99.48411621 -74.17950439 98.55310059 C-83.6927976 97.88591249 -83.6927976 97.88591249 -92.17950439 101.55310059 Z " fill="#000000" transform="translate(510.17950439453125,164.4468994140625)"/>
<path d="M0 0 C1.08925781 -0.01933594 2.17851562 -0.03867188 3.30078125 -0.05859375 C10.28433242 -0.01637155 15.15578009 0.97566296 20.5 5.625 C24.72646582 10.48543569 24.5 11.70123639 24.5 18.625 C42.65 18.625 60.8 18.625 79.5 18.625 C79.5 16.645 79.5 14.665 79.5 12.625 C80.3125 10.4296875 80.3125 10.4296875 81.5 8.5 C82.056875 7.53707031 82.056875 7.53707031 82.625 6.5546875 C87.09353996 1.95581513 91.98731387 0.40754999 98.3203125 0.12890625 C100.42196535 0.12759107 102.52372672 0.14753713 104.625 0.1875 C105.68332031 0.18041016 106.74164063 0.17332031 107.83203125 0.16601562 C113.42845351 0.21165771 117.72669751 0.37884734 122.5 3.625 C127.23280388 8.57293133 129.73762305 12.79045735 129.7746582 19.67138672 C129.78419022 20.64945282 129.79372223 21.62751892 129.80354309 22.63522339 C129.80217598 24.20410812 129.80217598 24.20410812 129.80078125 25.8046875 C129.80506638 26.89081329 129.8093515 27.97693909 129.81376648 29.09597778 C129.81950236 31.39063826 129.82001552 33.68531693 129.81567383 35.97998047 C129.81251762 39.48046092 129.83597022 42.98009295 129.86132812 46.48046875 C129.86360164 48.7135406 129.86430437 50.94661472 129.86328125 53.1796875 C129.872491 54.22156219 129.88170074 55.26343689 129.89118958 56.33688354 C129.84447281 63.7197936 129.03487809 68.70014067 124.0625 74.4375 C117.88537305 79.71065715 111.97011367 78.99175933 104.125 79 C102.29582031 79.03673828 102.29582031 79.03673828 100.4296875 79.07421875 C91.89666118 79.10216534 88.34281183 78.26009227 82.1875 72.4375 C80.5 69.625 80.5 69.625 79.5 60.625 C61.35 60.625 43.2 60.625 24.5 60.625 C24.5 62.935 24.5 65.245 24.5 67.625 C21.88513784 72.56418408 18.52530244 76.11234878 13.5 78.625 C9.08926223 78.92408201 4.6696757 78.90315019 0.25 78.9375 C-0.97847656 78.96650391 -2.20695312 78.99550781 -3.47265625 79.02539062 C-14.72660905 79.10464381 -14.72660905 79.10464381 -19.5 74.625 C-23.278397 70.33600881 -24.61962256 68.01980332 -24.67700195 62.35253906 C-24.68983719 61.25089417 -24.70267242 60.14924927 -24.71589661 59.01422119 C-24.72328354 57.81843445 -24.73067047 56.62264771 -24.73828125 55.390625 C-24.746353 54.16470642 -24.75442474 52.93878784 -24.76274109 51.67572021 C-24.77659237 49.07647114 -24.78730983 46.4772038 -24.79516602 43.87792969 C-24.80838057 39.90531928 -24.85624754 35.93332218 -24.90039062 31.9609375 C-24.91051809 29.43750613 -24.91903402 26.91406767 -24.92578125 24.390625 C-24.94328934 23.20293518 -24.96079742 22.01524536 -24.97883606 20.79156494 C-24.96214411 14.43414398 -24.88827406 10.39237476 -20.5 5.625 C-14.59512825 -0.12902973 -7.85067134 -0.13936103 0 0 Z M-8.5 18.625 C-8.59268999 19.97594982 -8.61747326 21.33167091 -8.61352539 22.68579102 C-8.61344986 23.54660782 -8.61337433 24.40742462 -8.61329651 25.29432678 C-8.60813522 26.22973801 -8.60297394 27.16514923 -8.59765625 28.12890625 C-8.5962413 29.08192123 -8.59482635 30.03493622 -8.59336853 31.01683044 C-8.58775152 34.07375165 -8.57519616 37.13060077 -8.5625 40.1875 C-8.55748719 42.25455624 -8.55292391 44.32161362 -8.54882812 46.38867188 C-8.53777656 51.46747588 -8.52050055 56.5462257 -8.5 61.625 C-2.89 61.625 2.72 61.625 8.5 61.625 C8.52464513 55.5194529 8.54283371 49.41393449 8.55493164 43.30834961 C8.55997288 41.22956844 8.56680574 39.15079084 8.57543945 37.07202148 C8.58751422 34.09097414 8.59323024 31.10997351 8.59765625 28.12890625 C8.60281754 27.19349503 8.60797882 26.2580838 8.61329651 25.29432678 C8.61337204 24.43350998 8.61344757 23.57269318 8.61352539 22.68579102 C8.61685631 21.54328636 8.61685631 21.54328636 8.62025452 20.37770081 C8.69090955 18.59689395 8.69090955 18.59689395 7.5 17.625 C4.98863896 17.52524968 2.51096585 17.48617817 0 17.5 C-0.70253906 17.49613281 -1.40507812 17.49226563 -2.12890625 17.48828125 C-5.60428808 17.18109069 -5.60428808 17.18109069 -8.5 18.625 Z M96.5 17.625 C96.5 32.145 96.5 46.665 96.5 61.625 C101.78 61.625 107.06 61.625 112.5 61.625 C112.5 47.105 112.5 32.585 112.5 17.625 C107.22 17.625 101.94 17.625 96.5 17.625 Z M24.5 35.625 C24.5 38.595 24.5 41.565 24.5 44.625 C42.65 44.625 60.8 44.625 79.5 44.625 C79.5 41.655 79.5 38.685 79.5 35.625 C61.35 35.625 43.2 35.625 24.5 35.625 Z " fill="#000000" transform="translate(24.5,222.375)"/>
<path d="M0 0 C0.99278961 -0.00511093 1.98557922 -0.01022186 3.00845337 -0.01548767 C6.27596132 -0.02933806 9.54325728 -0.02843041 12.81079102 -0.02612305 C15.09090757 -0.03001226 17.3710234 -0.03434739 19.65113831 -0.03910828 C24.42483878 -0.04656054 29.19846528 -0.04628622 33.97216797 -0.04101562 C40.07964117 -0.03522009 46.18681119 -0.0521591 52.29423428 -0.0753603 C57.00150818 -0.09011426 61.70870934 -0.0909671 66.41600227 -0.08785057 C68.66738549 -0.08836287 70.91877288 -0.09358337 73.17013359 -0.10366249 C76.32195448 -0.11604258 79.47318803 -0.10922561 82.625 -0.09765625 C84.01004982 -0.10912186 84.01004982 -0.10912186 85.42308044 -0.12081909 C92.41284619 -0.06430475 98.11243185 0.94974183 103.62719727 5.5871582 C109.66716873 12.80156856 111.01939781 17.78150973 111.05419922 27.02734375 C111.06077042 27.7922966 111.06734161 28.55724945 111.07411194 29.34538269 C111.09375978 31.86738194 111.10548935 34.38932184 111.11547852 36.91137695 C111.11955404 37.77691507 111.12362957 38.64245319 111.1278286 39.53421974 C111.1486545 44.11688622 111.16297043 48.69952307 111.17236328 53.28222656 C111.18341192 57.99512848 111.21780388 62.70755625 111.25753498 67.42029095 C111.28378529 71.06220833 111.29206262 74.70401419 111.29564476 78.34601784 C111.30049009 80.08221445 111.31204492 81.81840678 111.33068275 83.55451012 C111.53811912 104.15994386 111.53811912 104.15994386 105.12690735 111.19535828 C98.80411294 117.113761 92.84138562 117.57037346 84.49072266 117.54931641 C83.44624466 117.55442734 82.40176666 117.55953827 81.32563782 117.56480408 C77.87531799 117.5786965 74.42519798 117.5777436 70.97485352 117.57543945 C68.57498602 117.57932644 66.17511921 117.58366112 63.7752533 117.58842468 C58.74581675 117.59588605 53.7164504 117.59559609 48.68701172 117.59033203 C42.2429892 117.58453622 35.79925398 117.60147177 29.35527897 117.6246767 C24.39931051 117.63941025 19.44341132 117.64028627 14.48742485 117.63716698 C12.1115811 117.63768033 9.73573348 117.64292073 7.35991096 117.6529789 C4.0374396 117.66531887 0.71552884 117.6585659 -2.60693359 117.64697266 C-3.58738647 117.65461639 -4.56783936 117.66226013 -5.57800293 117.6701355 C-12.28619533 117.61841435 -16.53353325 116.49403205 -21.74780273 112.0246582 C-26.97748267 105.96923933 -28.72317603 101.54952094 -28.64038086 93.71240234 C-28.64739014 92.88542343 -28.65439941 92.05844452 -28.66162109 91.20640564 C-28.67913172 88.49052697 -28.66760226 85.77570252 -28.65405273 83.05981445 C-28.65674991 81.16084088 -28.6606342 79.26186865 -28.66564941 77.36289978 C-28.67153529 73.38942269 -28.66301185 69.41630615 -28.64428711 65.44287109 C-28.62151372 60.36430386 -28.63461623 55.28658303 -28.65857697 50.20804691 C-28.67307288 46.28822015 -28.66841132 42.36859202 -28.6580658 38.44875908 C-28.65540818 36.57696875 -28.65863412 34.70516005 -28.66798401 32.83339119 C-28.67821063 30.2105488 -28.6625636 27.58905151 -28.64038086 24.96630859 C-28.64847778 24.2019046 -28.65657471 23.43750061 -28.66491699 22.64993286 C-28.5654528 16.26109029 -26.53057912 11.18194997 -22.44702148 6.2512207 C-21.9069043 5.80520508 -21.36678711 5.35918945 -20.81030273 4.8996582 C-20.27791992 4.43817383 -19.74553711 3.97668945 -19.19702148 3.5012207 C-13.16312957 -0.06684344 -6.80373536 -0.01821467 0 0 Z M-11.12280273 20.2746582 C-11.41358208 22.8454322 -11.52258058 25.17316609 -11.49511719 27.74365234 C-11.49876785 28.50165634 -11.50241852 29.25966034 -11.50617981 30.04063416 C-11.51428888 32.54725516 -11.5006739 35.0532305 -11.48608398 37.55981445 C-11.48556547 39.29951477 -11.48608283 41.03921567 -11.4875946 42.77891541 C-11.48750487 46.42480211 -11.47707177 50.07046774 -11.45898438 53.71630859 C-11.43628027 58.39630681 -11.43575597 63.0759824 -11.44250202 67.75602055 C-11.44583849 71.34788394 -11.43921829 74.93967337 -11.42937279 78.53152275 C-11.4255162 80.25754853 -11.42437447 81.98358253 -11.42595863 83.70961189 C-11.42632827 86.11825454 -11.4137387 88.52647864 -11.39746094 90.93505859 C-11.39993835 91.65251251 -11.40241577 92.36996643 -11.40496826 93.10916138 C-11.47234477 97.13974612 -11.47234477 97.13974612 -9.12280273 100.2746582 C-7.26033838 100.58002942 -7.26033838 100.58002942 -5.10609436 100.53535461 C-4.26626511 100.54243942 -3.42643585 100.54952423 -2.56115723 100.55682373 C-1.63798706 100.55434631 -0.71481689 100.5518689 0.23632812 100.54931641 C1.69257347 100.5569828 1.69257347 100.5569828 3.17823792 100.56480408 C6.39956767 100.5787473 9.62068461 100.57773974 12.84204102 100.57543945 C15.0740212 100.5793238 17.30600065 100.58365792 19.53797913 100.58842468 C24.22130731 100.5958971 28.90456012 100.59558824 33.58789062 100.59033203 C39.59847496 100.5845363 45.60875125 100.60146616 51.61928463 100.6246767 C56.23028883 100.63938711 60.84121839 100.64028941 65.4522419 100.63716698 C67.66868258 100.63768155 69.8851273 100.64294469 72.10154533 100.6529789 C75.19745953 100.66527366 78.29276785 100.65859338 81.38867188 100.64697266 C82.77039078 100.65843826 82.77039078 100.65843826 84.18002319 100.6701355 C85.02267227 100.66312119 85.86532135 100.65610687 86.73350525 100.64888 C87.46557662 100.64904775 88.19764799 100.64921549 88.95190334 100.64938831 C91.4648813 100.16027416 92.34948583 99.30117913 93.87719727 97.2746582 C94.17312941 94.77398059 94.28727768 92.52191781 94.26538086 90.02099609 C94.27063782 89.28571182 94.27589478 88.55042755 94.28131104 87.79286194 C94.2945212 85.36079704 94.28576882 82.92938609 94.27563477 80.49731445 C94.27765544 78.80724461 94.28056681 77.11717562 94.28433228 75.42710876 C94.28875717 71.88377589 94.28232015 68.34066981 94.26831055 64.79736328 C94.25123152 60.25647676 94.26105047 55.71612268 94.27902794 51.17525578 C94.28987253 47.68452448 94.28641613 44.19391923 94.27864456 40.70318413 C94.27664374 39.02904637 94.27909771 37.35489716 94.28608322 35.68077278 C94.29370748 33.3394456 94.28208006 30.99897805 94.26538086 28.65771484 C94.27145355 27.96615295 94.27752625 27.27459106 94.28378296 26.56207275 C94.24689079 23.76821577 93.94730951 21.45630675 92.9392395 18.84457397 C89.47926515 16.21035621 85.72015772 16.72808581 81.49633789 16.77294922 C80.5351152 16.76754623 79.57389252 16.76214325 78.58354187 16.75657654 C75.3998657 16.74404881 72.21708671 16.76060747 69.03344727 16.77856445 C66.8253169 16.77840956 64.61718625 16.77692219 62.40905762 16.77415466 C57.77868651 16.77276885 53.14862448 16.7853594 48.51831055 16.80810547 C42.57609721 16.83649038 36.63439765 16.83375508 30.6921463 16.82101536 C26.13173008 16.81406809 21.5714331 16.82183661 17.0110321 16.83427238 C14.81972205 16.83879614 12.62839925 16.83911566 10.43708801 16.83520699 C7.37714293 16.83230413 4.31791165 16.84875772 1.25805664 16.87060547 C0.34783249 16.86610382 -0.56239166 16.86160217 -1.50019836 16.85696411 C-2.33298813 16.86686874 -3.16577789 16.87677338 -4.02380371 16.88697815 C-4.74720192 16.88940804 -5.47060013 16.89183794 -6.21591949 16.89434147 C-8.71491162 17.39275087 -9.60267525 18.25628045 -11.12280273 20.2746582 Z " fill="#000000" transform="translate(72.122802734375,21.725341796875)"/>
<path d="M0 0 C11.98708023 9.37043145 22.04553766 22.00118297 24.75 37.3828125 C26.51964602 55.90879429 23.43337369 71.58860474 11.93359375 86.71875 C2.39213337 98.0524346 -11.44251941 105.87756584 -26.31347656 107.20678711 C-44.28498727 107.94129153 -59.32184482 104.71785254 -73.375 92.6875 C-85.03287476 81.50198645 -91.79916159 67.06958881 -92.28369141 50.92163086 C-92.50340545 33.88262056 -87.26621209 19.67335787 -75.3125 7.21484375 C-55.01390836 -12.22654385 -23.60023812 -16.43979435 0 0 Z M-64.875 20.8125 C-73.08840889 30.97585489 -75.96998394 42.09767393 -75 55 C-73.11216384 66.00973354 -66.80671261 76.16821464 -58 83 C-46.43439486 89.82340972 -35.00737485 91.99906646 -21.75390625 89.3515625 C-11.20775674 85.85113841 -1.80134949 78.00196758 3.5078125 68.22265625 C8.44006966 57.72399459 9.8525884 47.10856162 6.4375 35.8125 C2.25574446 24.7534322 -5.03097324 16.04906367 -15.65234375 10.65234375 C-32.98119921 3.38204199 -51.85526683 6.92103524 -64.875 20.8125 Z " fill="#000000" transform="translate(461,32)"/>
<path d="M0 0 C2.84480643 1.44903326 5.60980487 2.99274172 8.37255859 4.5925293 C9.31035156 5.11459961 10.24814453 5.63666992 11.21435547 6.17456055 C29.19354681 16.29488368 29.19354681 16.29488368 32.43505859 21.9675293 C33.5434124 26.54872501 33.66323939 29.02220885 32.56005859 33.5925293 C27.88290954 41.0209425 18.17164184 44.96694423 10.68505859 49.2175293 C9.76595703 49.74604492 8.84685547 50.27456055 7.89990234 50.8190918 C7.00916016 51.32698242 6.11841797 51.83487305 5.20068359 52.3581543 C4.40436523 52.81222656 3.60804687 53.26629883 2.78759766 53.73413086 C-2.51874532 56.51616124 -6.64708565 57.77415454 -12.56494141 55.9675293 C-16.29260718 53.77189319 -19.07860935 51.06192947 -20.56494141 46.9675293 C-20.78121875 44.11539451 -20.89282732 41.36336508 -20.90087891 38.51049805 C-20.90753571 37.68930984 -20.9141925 36.86812164 -20.92105103 36.02204895 C-20.93116248 34.28636916 -20.93586851 32.55065062 -20.93554688 30.81494141 C-20.93990942 28.17438764 -20.97621339 25.53552071 -21.01416016 22.89526367 C-21.02003099 21.20451414 -21.0239986 19.51375672 -21.02587891 17.82299805 C-21.04024994 17.04047165 -21.05462097 16.25794525 -21.06942749 15.45170593 C-21.02326562 9.84507823 -19.78751531 6.58038428 -16.56494141 1.9675293 C-11.37017708 -1.6924183 -5.85955814 -2.35865899 0 0 Z M-3.56494141 18.9675293 C-3.56494141 24.9075293 -3.56494141 30.8475293 -3.56494141 36.9675293 C2.03325234 34.24408369 7.36051204 31.57312816 12.43505859 27.9675293 C8.41312004 24.46455055 2.04072715 18.9675293 -3.56494141 18.9675293 Z " fill="#000000" transform="translate(113.56494140625,53.032470703125)"/>
<path d="M0 0 C2.50868203 2.20241564 3.85106402 3.93058707 4.31811523 7.28417969 C4.39365499 9.9710552 4.34870921 12.6264704 4.25 15.3125 C4.23195313 16.24384766 4.21390625 17.17519531 4.1953125 18.13476562 C4.14834888 20.42424197 4.08269475 22.71158184 4 25 C4.57967529 24.97905273 5.15935059 24.95810547 5.7565918 24.93652344 C8.40004924 24.85303193 11.0432288 24.80123847 13.6875 24.75 C15.05551758 24.69972656 15.05551758 24.69972656 16.45117188 24.6484375 C20.7579916 24.58579285 23.29840703 24.59007052 27.08203125 26.80078125 C29.7462241 29.85565003 30 31.98368783 30 36 C28.65437601 38.94755732 27.91445456 40.54277272 25 42 C20.34438657 42.28263541 15.688041 42.31367651 11.0246582 42.35009766 C9.47177123 42.36664362 7.91896 42.39391642 6.36645508 42.43212891 C4.12280959 42.48704414 1.88094675 42.50879138 -0.36328125 42.5234375 C-1.05303543 42.54610687 -1.74278961 42.56877625 -2.45344543 42.59213257 C-6.11926319 42.57615385 -7.92229709 42.05489697 -10.93798828 39.92431641 C-13.52244496 36.25907581 -13.63142765 34.14758131 -13.62890625 29.6875 C-13.63131821 28.99615967 -13.63373016 28.30481934 -13.63621521 27.5925293 C-13.63523956 26.13682292 -13.62191289 24.68107814 -13.59692383 23.22558594 C-13.56259081 21.0058709 -13.57627843 18.7901374 -13.59570312 16.5703125 C-13.58880414 15.15102484 -13.57913126 13.73174738 -13.56640625 12.3125 C-13.55552979 11.02988281 -13.54465332 9.74726562 -13.53344727 8.42578125 C-12.91483694 4.45308556 -11.85040131 2.78863992 -9 0 C-5.39297148 -1.20234284 -3.64185324 -1.0405295 0 0 Z " fill="#000000" transform="translate(432,47)"/>
</svg>
