<?xml version="1.0" encoding="UTF-8"?>
<svg version="1.1" xmlns="http://www.w3.org/2000/svg" width="512" height="512">
<path d="M0 0 C1.2065625 0.59167969 1.2065625 0.59167969 2.4375 1.1953125 C8.87544654 4.55511585 15.01507451 8.43206727 21.1875 12.25 C22.09298584 12.80953369 22.99847168 13.36906738 23.93139648 13.94555664 C28.23953322 16.62022196 32.51795592 19.32525706 36.73828125 22.13671875 C37.82363159 22.84876465 37.82363159 22.84876465 38.9309082 23.57519531 C40.27697278 24.46145376 41.61345912 25.36249372 42.93823242 26.28027344 C44.92518327 27.63857827 44.92518327 27.63857827 48 29 C51.61338413 27.90800081 54.68394888 26.09861129 57.88671875 24.12890625 C58.81629395 23.55978516 59.74586914 22.99066406 60.70361328 22.40429688 C61.6882959 21.79650391 62.67297852 21.18871094 63.6875 20.5625 C64.70827637 19.93794922 65.72905273 19.31339844 66.78076172 18.66992188 C71.55344124 15.747782 76.31447978 12.80812689 81.05859375 9.83984375 C105.22734989 -5.23614392 130.2969441 -13.07125881 158.9375 -7.875 C184.55108257 -1.72660684 205.90641527 12.3014983 220.12988281 34.78613281 C233.24475255 56.49632235 237.36351902 82.22720746 231.52734375 107.00683594 C224.28126518 134.71637714 205.56703097 155.12139751 184.1953125 173.2890625 C177.77489965 178.80555954 171.94857459 184.98629503 166 191 C152.27348843 204.87680185 152.27348843 204.87680185 146.1328125 210.08984375 C140.68527636 214.96868107 135.63990499 220.30154442 130.5 225.5 C117.13127766 239.02101047 117.13127766 239.02101047 110.89160156 244.32226562 C106.08248633 248.58765539 101.70042615 253.34632007 97.2421875 257.97265625 C83.83683531 271.61895431 68.57770879 280.12264761 49.125 280.4375 C28.91806539 280.2580983 13.80884216 270.8292896 0 257 C-0.78955078 256.21206055 -1.57910156 255.42412109 -2.39257812 254.61230469 C-9.40228305 247.61052332 -9.40228305 247.61052332 -12.84594727 244.1184082 C-16.39060842 240.53496906 -19.92042982 237.00433893 -23.76171875 233.73828125 C-30.66551777 227.8144542 -36.90906851 221.14322851 -43.30029297 214.67919922 C-51.91276422 205.95485661 -51.91276422 205.95485661 -61.00195312 197.73583984 C-65.48656253 193.83975323 -69.73782405 189.69828039 -74 185.5625 C-74.72630615 184.88368774 -74.72630615 184.88368774 -75.46728516 184.19116211 C-83.52655997 176.64857666 -83.52655997 176.64857666 -84.67602539 172.64599609 C-84.74678531 169.38363054 -84.16300218 167.26080348 -82.4375 164.5 C-78.89383548 162.31928337 -77.10900306 162.24668277 -73 163 C-71.16503906 164.31713867 -71.16503906 164.31713867 -69.265625 166.04296875 C-68.56727539 166.6774292 -67.86892578 167.31188965 -67.14941406 167.96557617 C-63.0000084 171.89299523 -59.00015147 175.96078307 -55 180.0390625 C-51.88282947 183.19276237 -48.7561855 186.25458933 -45.375 189.125 C-38.22963996 195.27949957 -31.75419282 202.19375397 -25.12695312 208.89355469 C-16.31201461 217.81912328 -16.31201461 217.81912328 -6.99902344 226.21484375 C-4.40674099 228.5297887 -1.97324063 230.99043326 0.4609375 233.46875 C0.94177795 233.95746582 1.42261841 234.44618164 1.91802979 234.94970703 C3.90338787 236.97135404 5.88588832 238.99559352 7.85839844 241.02978516 C19.28530585 252.79277808 31.38266282 262.94625067 48.5 263.3125 C64.65772192 263.14506247 76.42358345 255.01626947 87.43016052 243.90956116 C89.18947642 242.11292602 90.93911578 240.30726951 92.6875 238.5 C95.02043706 236.1103496 97.35898315 233.72625122 99.69921875 231.34375 C100.26091766 230.77027832 100.82261658 230.19680664 101.40133667 229.60595703 C104.74174268 226.21387122 108.17949968 223.03806891 111.81176758 219.95898438 C117.45376354 214.90806664 122.67640989 209.38187759 128 204 C141.69737347 190.15265529 141.69737347 190.15265529 147.8359375 184.94140625 C153.46540506 179.89114383 158.68322842 174.37498441 164 169 C178.25183372 154.59212431 178.25183372 154.59212431 184.34033203 149.41503906 C202.01749526 134.34342416 214.89940584 114.73158539 216.87109375 91.11328125 C216.93490234 90.06720703 216.93490234 90.06720703 217 89 C217.05285156 88.35417969 217.10570312 87.70835938 217.16015625 87.04296875 C218.02531803 67.36994229 210.21386636 47.42975086 197.27734375 32.87109375 C183.75295075 18.31890122 165.0500071 8.7376599 145.0703125 7.6796875 C116.44438929 6.76721319 96.58905252 19.92491922 73.12744141 34.82421875 C70.29748379 36.61870936 67.46139075 38.40320155 64.625 40.1875 C63.33299683 41.01640747 63.33299683 41.01640747 62.01489258 41.86206055 C52.97662174 47.54206252 52.97662174 47.54206252 48 48 C44.3877844 46.79018949 41.25276613 44.96336538 38 43 C37.10055664 42.46101074 36.20111328 41.92202148 35.27441406 41.36669922 C32.37090593 39.58760374 29.49655508 37.76767795 26.625 35.9375 C24.50457195 34.60310825 22.38346745 33.26979086 20.26171875 31.9375 C19.21032715 31.27621094 18.15893555 30.61492188 17.07568359 29.93359375 C16.06070801 29.29550781 15.04573242 28.65742187 14 28 C13.0713916 27.41605469 12.1427832 26.83210938 11.18603516 26.23046875 C-7.65849957 14.39963468 -7.65849957 14.39963468 -29 9 C-34.5089954 16.49677724 -39.31162103 24.57901563 -40.5 33.9375 C-39.92554087 37.45606216 -39.37397245 39.31970852 -37 42 C-31.10096074 44.22678965 -25.50051969 44.2702308 -19.25 44.375 C-8.88312634 44.71387599 0.5607931 45.65644036 8.4375 53.09765625 C12.32386218 57.82930221 15.42101405 63.39456322 16.75 69.375 C18.56796098 73.19271807 21.42072997 73.77084809 25.18359375 75.44140625 C30.49156502 78.37882724 36.25101617 83.50203234 39 89 C42.61383671 87.35089111 45.13277274 85.2134736 48.0234375 82.53515625 C50 81 50 81 53.06640625 79.78515625 C56.42522295 77.74124249 57.0405359 76.23724466 58.04980469 72.50439453 C58.21899414 71.80169434 58.38818359 71.09899414 58.5625 70.375 C58.96839635 68.91994276 59.38113212 67.46677559 59.80078125 66.015625 C60.0013916 65.31888672 60.20200195 64.62214844 60.40869141 63.90429688 C64.14386736 51.87524136 74.30658286 42.10830369 85 36 C98.45558037 29.52450195 113.91551414 27.18130451 128.421875 31.96484375 C144.09689447 38.25860157 154.77998741 47.25075931 161.8125 62.8125 C167.49549356 77.47949988 167.20652332 92.56438027 161 107 C155.16158752 118.78077296 147.26937934 126.42771254 136 133 C132.61467835 134.75335076 132.61467835 134.75335076 132.2265625 138.60546875 C132.01787775 140.13171847 131.81790747 141.659176 131.625 143.1875 C128.48149243 164.50154692 119.8898011 182.14285317 102.625 195.375 C78.69737381 211.6985077 44.23504275 216.88032819 16 211.8125 C-1.1057303 207.79312075 -15.0972355 200.3733707 -24.75390625 185.25390625 C-30.98600671 173.74248259 -33.89097269 161.06759948 -33 148 C-33.9075 147.95875 -34.815 147.9175 -35.75 147.875 C-44.1862756 146.65756998 -53.42025957 141.45023702 -59 135 C-66.22781175 124.73684271 -68.89280384 114.98033295 -67.4375 102.5 C-66.10842279 94.95369583 -63.39959273 88.51274246 -57.125 83.875 C-52.27810469 82.51786931 -48.37237868 81.87228478 -43.78125 84.0546875 C-40.88739134 85.82665168 -38.40259197 87.59740803 -36 90 C-35.52433594 89.5875 -35.04867187 89.175 -34.55859375 88.75 C-25.67164574 81.41785873 -11.94879793 72 0 72 C-0.804375 70.3603125 -0.804375 70.3603125 -1.625 68.6875 C-1.92664063 68.07261719 -2.22828125 67.45773438 -2.5390625 66.82421875 C-5.25006039 63.43909571 -8.90263115 62.16262743 -13.10864258 61.53930664 C-14.73515747 61.4753772 -14.73515747 61.4753772 -16.39453125 61.41015625 C-17.59787109 61.34763672 -18.80121094 61.28511719 -20.04101562 61.22070312 C-22.54347913 61.11573184 -25.04608667 61.0141367 -27.54882812 60.91601562 C-35.9183415 60.47363344 -42.61954974 59.46723775 -49.3046875 54.17578125 C-55.34097675 47.01331863 -57.6411088 40.42094788 -57 31 C-56.57593814 28.26481744 -55.9459976 25.61501316 -55.25 22.9375 C-55.09273438 22.26912109 -54.93546875 21.60074219 -54.7734375 20.91210938 C-53.5501349 16.07065407 -51.62760568 12.24501842 -49 8 C-67.82615539 10.06440656 -83.60042272 17.60042272 -97 31 C-97.71027344 31.71027344 -98.42054687 32.42054687 -99.15234375 33.15234375 C-112.65812386 47.48765354 -118.86868616 66.24233922 -119.03125 85.75 C-118.18570703 106.0430312 -110.76384636 124.1502486 -97 139 C-96.42765625 139.51046875 -95.8553125 140.0209375 -95.265625 140.546875 C-93.30329684 142.79991844 -93.52945626 145.18988549 -93.65625 148.05859375 C-94 150 -94 150 -95.5625 152.5 C-99.10616452 154.68071663 -100.89099694 154.75331723 -105 154 C-119.24588209 145.79603048 -128.76818007 124.89209596 -132.921875 109.66894531 C-139.00090322 84.83473342 -135.93049947 58.60950631 -123.12109375 36.38671875 C-120.11177869 31.58179029 -116.70371118 27.27949822 -113 23 C-112.33097656 22.15050781 -111.66195312 21.30101563 -110.97265625 20.42578125 C-85.33665099 -11.09889057 -35.11733659 -17.25241245 0 0 Z M81.75 59.375 C74.49793863 68.32183658 71.88349169 78.59765886 73 90 C75.43647258 101.19946771 80.62705442 108.39930172 89.36328125 115.5546875 C91.93545513 117.82605823 91.9952754 118.93503678 92.25 122.4375 C92 126 92 126 91 127.9375 C87.78676014 129.64453367 84.51333029 129.55190718 81 129 C78.54586365 127.45896012 76.92977618 126.24462873 74.9375 124.25 C74.42509766 123.75701416 73.91269531 123.26402832 73.38476562 122.75610352 C65.88416706 115.2353548 61.52864842 105.90651606 58 96 C53.65107489 98.93846291 51.23952797 101.90941946 50 107 C48.77729083 115.51865507 50.88088362 122.53410156 55 130 C56.55446964 131.99166422 58.04752023 133.36413857 60 135 C62.46324069 138.69486103 62.38991688 140.63293092 62 145 C61 146.9375 61 146.9375 59 148 C54.641673 148.49206918 52.21909107 148.66759749 48.375 146.5625 C41.15134597 138.76855749 37.81527224 130.1892857 34.85546875 120.12890625 C31.05223079 107.28513445 26.69952597 95.73798521 15.0625 88.0625 C6.80187411 85.19656857 -0.99410725 87.70655134 -8.66015625 91.21875 C-17.25583234 95.67118653 -25.243922 101.37919524 -32.25 108.0625 C-35.38950885 110.27442669 -37.30414543 110.90999958 -41.10546875 110.69921875 C-44.35374161 109.50037165 -45.47060976 106.91398515 -46.9921875 103.9453125 C-47.95865146 101.83962912 -47.95865146 101.83962912 -50 100 C-52.04065442 106.12196326 -51.87552194 113.41951428 -49.8125 119.5 C-45.63473615 125.2624329 -40.79775719 129.73408094 -34 132 C-33.01 132 -32.02 132 -31 132 C-30.67128906 131.24976563 -30.34257812 130.49953125 -30.00390625 129.7265625 C-26.50416475 122.19595341 -22.63096038 115.20844017 -16 110 C-12.75386935 108.95740595 -11.44709321 109.22737566 -8 110 C-6 111.0625 -6 111.0625 -5 113 C-4.58399089 117.12093728 -4.4994667 119.26441542 -6.86328125 122.73828125 C-7.67152344 123.58777344 -8.47976562 124.43726563 -9.3125 125.3125 C-17.34025442 134.64034672 -17.81330944 144.03274862 -17.16845703 155.96386719 C-16.15549362 168.20751186 -10.82854278 178.5601352 -2 187 C11.18467024 197.94356735 30.42418303 198.03773786 46.64453125 196.79785156 C67.99155842 194.70268038 87.90033828 189.01479273 103 173 C112.46390736 161.40026919 115.20215728 147.12270569 117.01269531 132.65063477 C117.11549805 131.84295654 117.21830078 131.03527832 117.32421875 130.203125 C117.40760498 129.48801758 117.49099121 128.77291016 117.5769043 128.03613281 C118.05406126 125.73983213 118.79000999 124.00657357 120 122 C122.03125 121.015625 122.03125 121.015625 124.5 120.25 C135.07949977 116.29604554 141.94372506 108.9689057 147 99 C150.72657788 89.05820491 150.86641794 79.2233732 146.92578125 69.29296875 C141.61906084 58.12709332 133.45093982 50.98436808 121.86328125 46.6953125 C106.36846422 42.93258749 92.28600023 47.84057581 81.75 59.375 Z " fill="#000000" transform="translate(207,17)"/>
<path d="M0 0 C4.00697419 2.8546737 6.3331407 5.67941605 8.83984375 9.8984375 C9.17966782 10.46702484 9.51949188 11.03561218 9.86961365 11.62142944 C13.23130953 17.28944743 16.43069908 23.0500606 19.58609009 28.83496094 C20.94351183 31.32350383 22.30849191 33.80787777 23.67277527 36.29266357 C24.38101732 37.58285658 25.08887205 38.87326227 25.79634094 40.16387939 C29.28670275 46.53039536 32.80333814 52.88220278 36.32907104 59.22918701 C37.29195834 60.96301163 38.25353747 62.69756253 39.21508789 64.43212891 C39.8002417 65.48577637 40.38539551 66.53942383 40.98828125 67.625 C41.49915283 68.54539062 42.01002441 69.46578125 42.53637695 70.4140625 C43.01937256 71.26742187 43.50236816 72.12078125 44 73 C44.38937744 73.86713623 44.77875488 74.73427246 45.17993164 75.62768555 C47.86282994 79.12463025 51.04036145 79.95577485 55.1328125 81.33203125 C55.9252536 81.6135051 56.7176947 81.89497894 57.53414917 82.1849823 C60.05900666 83.07725826 62.59158198 83.94486803 65.125 84.8125 C66.83778963 85.41445281 68.55003682 86.01795144 70.26171875 86.62304688 C77.01949996 89.5225994 77.01949996 89.5225994 84 91 C83.84853516 90.42668945 83.69707031 89.85337891 83.54101562 89.26269531 C76.41493811 61.93144723 76.41493811 61.93144723 80.8984375 51.875 C84.73512003 45.34447654 89.6656761 40.26463334 97 38 C105.99739347 36.05461763 113.11763367 37.55881684 121.25 41.625 C127.53722859 47.05487924 130.99227587 54.77158637 134.59106445 62.12353516 C139.85624718 72.84714788 144.62386085 81.40787588 154 89 C159.63559169 93.81755878 165.06422285 98.83065624 170.4375 103.9375 C174.85477627 108.1316478 179.26184001 112.27998415 183.9375 116.1875 C205.52021283 135.31195017 210.18451274 161.67225786 213 189 C213.10489746 187.97398682 213.10489746 187.97398682 213.21191406 186.92724609 C215.86619635 161.54940561 215.86619635 161.54940561 220 150 C220.29648437 149.11828125 220.59296875 148.2365625 220.8984375 147.328125 C225.9398306 133.45352175 235.78598377 121.35745219 246.88745117 111.83447266 C250.42018577 108.76675421 253.79431359 105.53279022 257.1875 102.3125 C265.62440206 94.32658061 265.62440206 94.32658061 269.81640625 90.50390625 C270.39946533 89.97176514 270.98252441 89.43962402 271.58325195 88.89135742 C272.65298952 87.91814224 273.72551204 86.94797447 274.80151367 85.98168945 C282.85130036 78.65137678 287.00093013 70.51334778 291.68969727 60.80957031 C296.07499837 51.77704948 300.47293281 44.23281288 309.3125 39.0625 C317.84086216 36.60517531 325.86669186 35.97270065 334 40 C340.5182556 44.37625022 345.01914526 49.34604608 347 57 C348.45593913 68.31818029 345.26338927 79.32413589 342.62988281 90.23730469 C341.87932181 93.35703626 341.15686029 96.48231975 340.4375 99.609375 C334.01431466 127.02785393 334.01431466 127.02785393 326 138 C322.81333914 139.59333043 319.46800147 139.38375426 316 139 C313.32342243 137.44585818 313.08112616 136.28740346 312.24194336 133.31445312 C311.94140245 129.1972549 313.243178 126.65016273 315.06640625 123.09375 C319.54943238 113.61413683 321.88540609 103.76278349 324.2277832 93.57910156 C324.94383176 90.47252969 325.68599449 87.37302436 326.43164062 84.2734375 C326.90257186 82.27640189 327.37202718 80.27901753 327.83984375 78.28125 C328.05849594 77.36653931 328.27714813 76.45182861 328.50242615 75.50939941 C329.7073006 70.21334244 330.41104751 65.43467007 330 60 C327.57902228 56.65335433 325.91240083 55.30413361 322 54 C318.19696646 54 316.90971785 54.53793105 314 57 C309.04923883 63.78894667 305.65205364 71.59694657 302.01757812 79.13085938 C298.34039115 86.63437797 294.45762263 91.74601038 288.11865234 97.17041016 C284.75508178 100.07506536 281.54170633 103.13525305 278.3125 106.1875 C273.83211405 110.40888898 269.34348671 114.61842057 264.80029297 118.7722168 C262.69091556 120.70501448 260.59591824 122.65292858 258.50390625 124.60449219 C257.50917731 125.52752313 256.50922766 126.44496265 255.50390625 127.35644531 C236.29269368 144.82234216 232.46541259 166.02695284 230 190.75 C229.75103431 193.11757503 229.50068554 195.48500499 229.24902344 197.85229492 C227.96034199 210.08381887 226.7664715 222.32479088 225.578125 234.56640625 C225.46488892 235.73088287 225.35165283 236.8953595 225.23498535 238.09512329 C224.6946382 243.66690206 224.16276757 249.23923343 223.6484375 254.81347656 C223.50375031 256.34825905 223.50375031 256.34825905 223.35614014 257.91404724 C223.17802947 259.80347685 223.00417287 261.69331523 222.83575439 263.58363342 C221.44574849 278.16804442 221.44574849 278.16804442 218.64093018 281.72212219 C217 283 217 283 213.625 283.5 C208.92874242 282.85224033 207.86601024 281.74764362 205 278 C204.04004452 274.69156795 203.77002965 271.38084033 203.48608398 267.95581055 C203.38448975 266.94690262 203.28289551 265.93799469 203.17822266 264.89851379 C202.84711647 261.5628892 202.54704096 258.22518739 202.24609375 254.88671875 C202.0184813 252.55542492 201.7885514 250.22435629 201.55641174 247.89350891 C200.94904259 241.74794785 200.36625535 235.60032985 199.79064941 229.45172119 C198.87110602 219.65030403 197.92357152 209.85169787 196.95881844 200.054636 C196.6287059 196.65266569 196.3145831 193.2494958 196.00205994 189.84587097 C194.63508981 175.45329572 193.21387641 160.61050788 186.3125 147.625 C185.96856201 146.96201904 185.62462402 146.29903809 185.27026367 145.6159668 C182.00310902 139.57301988 177.90428501 134.79930032 173 130 C171.93814177 128.91859009 170.87837311 127.83512581 169.8203125 126.75 C164.73844562 121.57441767 159.58462082 116.59901811 154.09936523 111.84985352 C149.64672184 107.92641137 145.38837786 103.78978735 141.09179688 99.69726562 C140.01961914 98.68116211 140.01961914 98.68116211 138.92578125 97.64453125 C138.29067627 97.03971924 137.65557129 96.43490723 137.0012207 95.81176758 C134.97618888 93.9145556 134.97618888 93.9145556 132.46777344 92.15258789 C129.58606682 89.63893462 128.29332831 87.32821607 126.58984375 83.9140625 C126.29566055 83.33465912 126.00147736 82.75525574 125.69837952 82.15829468 C124.76688791 80.31925098 123.85149136 78.47279431 122.9375 76.625 C122.01721277 74.78587672 121.09352544 72.94856602 120.16590881 71.11312866 C119.32402401 69.44410537 118.49168244 67.77027829 117.65991211 66.09619141 C113.74993882 58.61291135 113.74993882 58.61291135 107 54 C103.2622144 54.07628134 101.56412097 54.52735811 98.6875 56.9375 C95.72960842 60.55270082 95.64230543 63.47357458 96 68 C96.57260694 71.43057513 97.3560384 74.80066183 98.16015625 78.18359375 C98.38771103 79.15676041 98.61526581 80.12992706 98.84971619 81.13258362 C99.33406241 83.19019892 99.82264301 85.24682152 100.31518555 87.30249023 C101.05180938 90.39265247 101.76386402 93.48778296 102.47460938 96.58398438 C104.80165428 106.47972119 107.24085042 115.89739815 111.90065002 124.98326111 C113.93683605 129.07933082 114.24447046 131.59084716 113 136 C111.9375 137.875 111.9375 137.875 110 139 C103.20171674 139.75536481 103.20171674 139.75536481 99.8125 137.625 C96.45433697 132.76145355 93.35139126 127.65647824 92.56787109 121.7331543 C91.82873525 117.50557079 90.9090662 114.17771857 88 111 C80.17579397 106.16360584 70.78645225 103.87861747 62.0625 101.1875 C58.44037467 100.04200859 54.82583947 98.88070646 51.22105408 97.68171692 C48.98465396 96.94051428 46.73755514 96.23061268 44.47975159 95.55741882 C36.86956984 93.07245923 33.62522706 90.08389108 30 83 C29.36908447 81.92572754 28.73816895 80.85145508 28.08813477 79.74462891 C27.54471436 78.74866699 27.00129395 77.75270508 26.44140625 76.7265625 C25.81540527 75.58485596 25.1894043 74.44314941 24.54443359 73.2668457 C24.0599173 72.37650131 24.0599173 72.37650131 23.56561279 71.46817017 C22.5379035 69.57980515 21.50522428 67.69423523 20.47119141 65.80932617 C19.03202498 63.1856274 17.5943605 60.56111498 16.15771484 57.93603516 C13.06772073 52.2945355 9.95460384 46.66589649 6.83370972 41.04144287 C5.90389792 39.36461468 4.97644689 37.68647809 4.04907227 36.00830078 C-2.14197009 22.86615756 -2.14197009 22.86615756 -12 13 C-16.42627318 12.35617845 -18.44619886 12.6923327 -22.375 14.875 C-25.03793194 16.73102809 -25.03793194 16.73102809 -26 19 C-26.57083863 26.49503709 -24.96872734 31.90138708 -22.1875 38.8125 C-21.78673752 39.84376007 -21.38597504 40.87502014 -20.97306824 41.93753052 C-19.66330948 45.2976147 -18.33226365 48.64878244 -17 52 C-16.08639723 54.3261699 -15.17405533 56.65283538 -14.26293945 58.97998047 C-12.41184295 63.70378912 -10.55294267 68.42443008 -8.68994141 73.14355469 C-6.19659797 79.47608477 -3.76650967 85.83108196 -1.35546875 92.1953125 C-0.29971885 94.9652785 0.75739779 97.73471788 1.81518555 100.50390625 C2.47239406 102.23114997 3.12549233 103.95996406 3.77416992 105.69042969 C10.05127947 122.41594063 10.05127947 122.41594063 22.0625 135.375 C26.48464386 138.80837918 30.77093754 142.33469736 35 146 C40.01177475 150.32089292 45.08543144 154.55101848 50.22265625 158.72265625 C53.34396367 161.28204054 56.4245003 163.88593791 59.5 166.5 C63.46903543 169.87283589 67.46017021 173.21176645 71.5 176.5 C76.10089175 180.24491189 80.63351633 184.06321371 85.15307617 187.90527344 C89.47729753 191.57477794 93.85731527 195.17093189 98.26953125 198.734375 C99.62111328 199.85585938 99.62111328 199.85585938 101 201 C101.65479843 201.39183975 102.30959686 201.7836795 102.98423767 202.18739319 C106.80293585 204.78767064 108.72623342 206.74860165 109.73188782 211.3454895 C109.99383831 215.60947337 110.00738062 219.80608901 109.921875 224.07421875 C109.91710067 225.64646296 109.91529666 227.21871873 109.9163208 228.79096985 C109.91008395 232.07565411 109.87710616 235.35858023 109.82324219 238.64282227 C109.75511088 242.8498285 109.73999048 247.05491482 109.74302292 251.26240826 C109.74193497 254.50450422 109.71999566 257.74618156 109.69101715 260.9881382 C109.67830562 262.53943532 109.67040906 264.09077972 109.66744232 265.64212608 C109.65875736 267.80870703 109.62373449 269.97326033 109.58105469 272.1394043 C109.5581839 273.98637154 109.5581839 273.98637154 109.53485107 275.87065125 C108.90039881 279.58275451 108.00221574 280.78627279 105 283 C101.5625 283.5625 101.5625 283.5625 98 283 C94.85255737 280.49553236 93.20139788 279.00251217 92.39872742 275.00700378 C92.415382 273.34487602 92.415382 273.34487602 92.43237305 271.64916992 C92.4327507 270.3882402 92.43312836 269.12731049 92.43351746 267.82817078 C92.45904676 266.46225994 92.48512667 265.09635931 92.51171875 263.73046875 C92.52105141 262.32515218 92.52816539 260.91981928 92.53315735 259.51448059 C92.55219228 255.82661541 92.60126029 252.13974449 92.65667725 248.45227051 C92.70794696 244.68511402 92.7306877 240.91779589 92.75585938 237.15039062 C92.80938463 229.7664752 92.89465218 222.38337724 93 215 C92.40324463 214.72164307 91.80648926 214.44328613 91.19165039 214.15649414 C87.88104258 212.40954648 85.23134105 209.89652147 82.4375 207.4375 C81.17793997 206.34276361 79.91751466 205.24902202 78.65625 204.15625 C78.03492187 203.61742187 77.41359375 203.07859375 76.7734375 202.5234375 C74.36225841 200.4521603 71.90532091 198.44078991 69.4375 196.4375 C65.41641909 193.17221697 61.44654838 189.85442156 57.5 186.5 C53.53096457 183.12716411 49.53982979 179.78823355 45.5 176.5 C40.8954642 172.75212202 36.35980809 168.93016556 31.8359375 165.0859375 C28.4194046 162.18755177 24.97495162 159.328449 21.5 156.5 C20.61828125 155.77683594 19.7365625 155.05367187 18.828125 154.30859375 C17.34826048 153.10058279 15.86706509 151.89407498 14.37304688 150.70361328 C-0.25657324 139.04274788 -6.79891938 126.09789179 -13.40625 108.74609375 C-14.00949348 107.17426331 -14.00949348 107.17426331 -14.62492371 105.57067871 C-15.9198655 102.19418712 -17.21001743 98.81588897 -18.5 95.4375 C-19.39269871 93.10674253 -20.28568563 90.77609543 -21.17895508 88.44555664 C-23.38281341 82.69349314 -25.58282496 76.9399672 -27.78179932 71.18603516 C-29.57432756 66.49792581 -31.37112789 61.81145767 -33.16796875 57.125 C-34.34148737 54.06263076 -35.51461577 51.00011226 -36.6875 47.9375 C-37.09500488 46.87364578 -37.09500488 46.87364578 -37.51074219 45.78829956 C-38.26180796 43.82659637 -39.01194811 41.86454225 -39.76171875 39.90234375 C-40.17381592 38.82460693 -40.58591309 37.74687012 -41.01049805 36.63647461 C-43.81417876 29.16621849 -44.34860978 20.7831534 -42.1640625 13.03515625 C-38.85811688 5.83529481 -33.51157763 0.32341636 -26.25 -2.9375 C-17.28526554 -5.74996571 -8.12420489 -4.5619452 0 0 Z " fill="#000000" transform="translate(43,221)"/>
<path d="M0 0 C6.1860134 4.89868464 9.02615104 9.76369381 10.31103516 17.52856445 C11.1802946 31.40167999 5.60612687 43.23046535 0.44567871 55.866539 C-0.83954807 59.02974758 -2.0943248 62.20498218 -3.3515625 65.37939453 C-5.3529257 70.42469289 -7.3693306 75.46363722 -9.39550781 80.49902344 C-11.84126817 86.59239557 -14.22197086 92.70780018 -16.55859375 98.84375 C-16.87748566 99.67869995 -17.19637756 100.5136499 -17.52493286 101.37390137 C-18.69002682 104.42547481 -19.85477315 107.47714333 -21.01031494 110.53234863 C-27.27485463 127.05247976 -34.25803608 139.03817025 -48.203125 150.109375 C-51.42152111 152.67567778 -54.55970381 155.32161449 -57.69140625 157.9921875 C-62.54020198 162.11412661 -67.44303785 166.1621202 -72.37890625 170.1796875 C-75.50940291 172.75365142 -78.60313086 175.36787836 -81.69140625 177.9921875 C-86.54100006 182.11320384 -91.44301431 186.16210104 -96.37890625 190.1796875 C-99.50941214 192.75365901 -102.60278916 195.36826978 -105.69140625 197.9921875 C-109.88709932 201.5491072 -114.08621018 205.10132533 -118.31640625 208.6171875 C-119.61964844 209.70386719 -119.61964844 209.70386719 -120.94921875 210.8125 C-123.19140625 212.4921875 -123.19140625 212.4921875 -126.19140625 213.4921875 C-126.1825238 214.27035324 -126.17364136 215.04851898 -126.16448975 215.8502655 C-126.0842647 223.19202885 -126.0234021 230.53357898 -125.98415756 237.87566662 C-125.96330298 241.65013043 -125.93502535 245.42423135 -125.88964844 249.19848633 C-125.84611305 252.842472 -125.82225312 256.48610914 -125.81189728 260.13033485 C-125.80451956 261.51901039 -125.79011224 262.90766735 -125.76848602 264.29619408 C-125.73935608 266.24439181 -125.73777154 268.19294197 -125.73730469 270.14135742 C-125.72842224 271.2494426 -125.71953979 272.35752777 -125.71038818 273.49919128 C-126.30274879 277.18498438 -127.60718095 278.84885023 -130.19140625 281.4921875 C-132.19140625 282.15625 -132.19140625 282.15625 -134.19140625 282.1171875 C-134.85140625 282.13007813 -135.51140625 282.14296875 -136.19140625 282.15625 C-139.33016053 281.11408549 -140.39220911 279.21114532 -142.19140625 276.4921875 C-142.70606995 273.31178284 -142.70606995 273.31178284 -142.72485352 269.68579102 C-142.73346909 269.02170227 -142.74208466 268.35761353 -142.7509613 267.67340088 C-142.77357284 265.48889639 -142.76689207 263.30567995 -142.7578125 261.12109375 C-142.7630506 259.5956128 -142.76932776 258.0701351 -142.77659607 256.54466248 C-142.78699153 253.3511529 -142.78245201 250.15808914 -142.76782227 246.96459961 C-142.75064207 242.88099917 -142.77412272 238.79880682 -142.80931187 234.7153635 C-142.8313209 231.56592056 -142.82983598 228.41681269 -142.82154655 225.26731682 C-142.8207288 223.76228224 -142.82755855 222.25722264 -142.84231758 220.75226021 C-142.95213838 207.5263523 -142.95213838 207.5263523 -139.80444336 203.65869141 C-138.94214111 202.94374512 -138.07983887 202.22879883 -137.19140625 201.4921875 C-136.38703125 200.77675781 -135.58265625 200.06132812 -134.75390625 199.32421875 C-133.90828125 198.65777344 -133.06265625 197.99132812 -132.19140625 197.3046875 C-127.96849644 193.92749484 -123.80640167 190.49884211 -119.69140625 186.9921875 C-114.84245065 182.87043279 -109.9397795 178.82225875 -105.00390625 174.8046875 C-101.87340959 172.23072358 -98.77968164 169.61649664 -95.69140625 166.9921875 C-90.84181244 162.87117116 -85.93979819 158.82227396 -81.00390625 154.8046875 C-77.87340834 152.23072255 -74.77972763 149.61644414 -71.69140625 146.9921875 C-57.68201957 135.09127168 -57.68201957 135.09127168 -51.75765991 130.68003845 C-44.16926823 124.21058058 -40.55340662 114.25791774 -37.15234375 105.14453125 C-36.70852859 103.98552811 -36.26471344 102.82652496 -35.80744934 101.63240051 C-34.62513092 98.53822057 -33.45343318 95.44029899 -32.28692245 92.34013367 C-31.07651263 89.13073631 -29.85273427 85.92644566 -28.63012695 82.72167969 C-26.69662393 77.64941643 -24.77044414 72.57444847 -22.84912109 67.49755859 C-20.55516309 61.44121823 -18.2355419 55.39527162 -15.8984375 49.35546875 C-15.28523676 47.76769127 -14.67211438 46.17988352 -14.05908203 44.59204102 C-13.22926472 42.44277569 -12.39889894 40.2937391 -11.56585693 38.14572144 C-10.8264953 36.23666186 -10.09276501 34.3254241 -9.359375 32.4140625 C-8.96000732 31.37862305 -8.56063965 30.34318359 -8.14916992 29.27636719 C-6.61771954 24.82450377 -5.89567016 22.4451149 -7.31640625 17.8671875 C-9.37505119 14.1616266 -10.21151438 12.87649772 -14.19140625 11.4921875 C-17.40649658 11.25251713 -20.18492519 11.29268392 -23.19140625 12.4921875 C-28.69361817 17.81869854 -31.89917915 24.88132985 -35.50390625 31.5546875 C-36.20369737 32.83763788 -36.90423171 34.12018311 -37.60546875 35.40234375 C-39.06639971 38.07531735 -40.52410592 40.75000744 -41.97900391 43.42626953 C-45.19574527 49.34143747 -48.43169464 55.24599053 -51.67709351 61.14547729 C-52.65798955 62.93134733 -53.63450468 64.71955712 -54.6105957 66.50805664 C-57.78318771 72.28461167 -61.0204397 78.02078893 -64.3984375 83.6796875 C-65.02468018 84.73542969 -65.65092285 85.79117188 -66.29614258 86.87890625 C-69.28933968 91.00607124 -72.45803947 92.07362498 -77.19140625 93.4921875 C-79.37996357 94.40632692 -81.56740181 95.32314868 -83.75390625 96.2421875 C-88.91099361 98.18814453 -92.72150253 99.38726265 -98.19140625 98.4921875 C-100.69140625 96.9296875 -100.69140625 96.9296875 -102.19140625 94.4921875 C-102.75390625 91.0546875 -102.75390625 91.0546875 -102.19140625 87.4921875 C-98.97211924 83.37075864 -96.45180233 82.09044758 -91.36889648 81.09350586 C-84.95119008 79.68965507 -80.4863926 77.54344855 -76.75 72.01171875 C-73.87219701 67.1229209 -71.37630243 62.04557956 -68.90283203 56.94287109 C-66.15252497 51.39753014 -63.12217384 46.01181805 -60.105896 40.60794067 C-58.73140604 38.14090432 -57.36885738 35.6673649 -56.00610352 33.1938324 C-52.3748363 26.60627719 -48.72630245 20.02876194 -45.00390625 13.4921875 C-44.58286621 12.73969727 -44.16182617 11.98720703 -43.72802734 11.21191406 C-40.47999267 5.56373054 -36.75151543 1.18505754 -31.12890625 -2.2578125 C-30.47792969 -2.66515625 -29.82695312 -3.0725 -29.15625 -3.4921875 C-19.56221132 -8.45133274 -8.43711806 -5.80521849 0 0 Z " fill="#000000" transform="translate(502.19140625,222.5078125)"/>
</svg>
