<?xml version="1.0" encoding="UTF-8"?>
<svg version="1.1" xmlns="http://www.w3.org/2000/svg" width="512" height="512">
<path d="M0 0 C11.75957808 9.81969883 19.57985533 21.78083861 21.375 37.2265625 C21.52212985 40.51179061 21.55508571 43.77412088 21.53125 47.0625 C21.5350769 48.25625244 21.53890381 49.45000488 21.54284668 50.67993164 C21.54554813 53.1840907 21.53831216 55.68827884 21.52148438 58.19238281 C21.50005144 61.99088401 21.52134915 65.78749403 21.546875 69.5859375 C21.54423141 72.03646244 21.5391058 74.48698622 21.53125 76.9375 C21.53934692 78.05455322 21.54744385 79.17160645 21.55578613 80.32250977 C21.37914219 95.42810644 15.83725128 109.34687678 5 120 C-0.40316293 124.8312065 -9.57465675 132 -17 132 C-16.84660156 133.06863281 -16.69320312 134.13726562 -16.53515625 135.23828125 C-15.83292546 140.8722281 -15.64648632 146.51746123 -15.4375 152.1875 C-15.39431641 153.23486328 -15.35113281 154.28222656 -15.30664062 155.36132812 C-15.09328857 160.87800272 -14.97813379 166.3825316 -14.98852539 171.90356445 C-14.99101036 173.62601128 -14.99101036 173.62601128 -14.99354553 175.383255 C-14.99567551 176.24678085 -14.99780548 177.1103067 -15 178 C-14.22849609 177.98889694 -13.45699219 177.97779388 -12.66210938 177.96635437 C-5.36545013 177.8658656 1.93087018 177.78989096 9.2280426 177.74093914 C12.97899063 177.71492553 16.72936343 177.67968151 20.47998047 177.62280273 C24.10454908 177.56818407 27.72856701 177.53851762 31.35351562 177.52561378 C32.73137065 177.51642689 34.10919801 177.49848712 35.48681641 177.47134972 C42.78627675 177.33337323 48.56933892 177.3110455 54.66430664 181.63044739 C56 183 56 183 57 186 C62.33145854 182.81079217 62.33145854 182.81079217 66 178 C65.29781227 174.79206406 65.29781227 174.79206406 63.75 171.5 C58.24530239 158.59651527 57.82780941 143.03469473 62.75390625 129.7734375 C71.5704572 110.15039306 90.82142436 94.86534061 105.79833984 79.79663086 C108.44817005 77.12883932 111.08916858 74.45273158 113.72314453 71.76928711 C116.93210885 68.50019098 120.15550305 65.2460099 123.38980865 62.00198936 C124.61173532 60.7715226 125.82853471 59.53594115 127.03993988 58.29511452 C128.72864759 56.5675319 130.43529102 54.8598063 132.14746094 53.15551758 C132.88327644 52.38970116 132.88327644 52.38970116 133.63395691 51.6084137 C137.20947557 48.10611632 140.00704953 47.03108254 145 47 C146.90748596 47.91215515 146.90748596 47.91215515 148.50219727 49.51049805 C149.17509796 50.16424408 149.84799866 50.81799011 150.54129028 51.49154663 C151.35266449 52.31933624 152.1640387 53.14712585 153 54 C154.06606198 55.04835477 155.13425761 56.09454235 156.20407104 57.1390686 C160.15260586 61.00858653 164.05887723 64.91962304 167.96484375 68.83203125 C169.40818434 70.27469741 170.85167329 71.71721517 172.29530334 73.15959167 C175.30502225 76.16784301 178.31294157 79.177879 181.31958008 82.18920898 C185.1787745 86.05413104 189.04248267 89.91450484 192.90752316 93.7735796 C195.88177398 96.7442256 198.85364981 99.71723833 201.82480049 102.69098473 C203.24947216 104.11632429 204.67488928 105.54091914 206.10105705 106.96476173 C208.0853396 108.94651576 210.06640733 110.93142756 212.04663086 112.91723633 C212.63826523 113.50684647 213.2298996 114.0964566 213.83946228 114.70393372 C218.78680029 119.67726345 218.78680029 119.67726345 219.43598938 123.70497131 C218.80690235 128.45935276 216.37210823 130.45653252 213.02416992 133.72045898 C212.38834991 134.36358032 211.75252991 135.00670166 211.09744263 135.66931152 C208.98965673 137.79331713 206.86090037 139.89482138 204.73046875 141.99609375 C203.25364163 143.47188299 201.77785177 144.94871089 200.30305481 146.42652893 C197.20429882 149.52510538 194.09546132 152.61308053 190.97875977 155.69360352 C187.00551689 159.6217097 183.054541 163.57131555 179.11059093 167.52880764 C176.06138004 170.58474307 173.00219595 173.6305341 169.93984413 176.67329597 C168.48093537 178.12455974 167.02464942 179.57846549 165.57115746 181.03515434 C151.12560589 195.48600831 136.74644027 206.83026784 115.32421875 207.03515625 C106.96618623 206.68512629 99.75008508 205.10237545 92 202 C91.06414062 201.62746094 90.12828125 201.25492188 89.1640625 200.87109375 C88.44992187 200.58363281 87.73578125 200.29617187 87 200 C86.51273437 200.54785156 86.02546875 201.09570312 85.5234375 201.66015625 C80.03319843 207.79924175 74.44303617 213.83437182 68.78662109 219.82055664 C68.20992676 220.43406982 67.63323242 221.04758301 67.0390625 221.6796875 C66.52553223 222.22351074 66.01200195 222.76733398 65.48291016 223.32763672 C62.12430802 227.11532599 60.63247944 229.3606557 60.34313965 234.53451538 C60.23853298 236.23127128 60.23853298 236.23127128 60.13181305 237.96230507 C60.06962334 239.20499342 60.00743362 240.44768177 59.94335938 241.72802734 C59.86691257 243.06274226 59.78935392 244.39739387 59.71077728 245.73198509 C59.49973784 249.38695027 59.30717041 253.04267198 59.11922836 256.69888973 C58.99999627 259.0000719 58.87659808 261.30099198 58.7517395 263.60187531 C58.20504129 273.68141962 57.68829058 283.76232096 57.1829071 293.84401321 C56.89997709 299.48711672 56.61230855 305.12997324 56.32385254 310.77279663 C55.50556123 326.79127551 54.69115117 342.80994487 53.88623047 358.82910156 C53.43865363 367.7357817 52.98612012 376.64219582 52.52813292 385.54834688 C52.24053443 391.14622921 51.9588914 396.74436761 51.68180084 402.3427794 C51.50804381 405.82343931 51.32844835 409.30378025 51.14724159 412.78405952 C51.06502611 414.3850288 50.98513875 415.98611978 50.90787315 417.58733559 C49.46680631 447.3525322 49.46680631 447.3525322 38.0625 457.9375 C8.91085622 481.19330571 -68.95714279 469.53801681 -104 466 C-115.73485785 464.60079479 -125.68386679 463.02124176 -134 454 C-140.5861987 445.42221866 -141.36826887 436.85291385 -141.97607422 426.33154297 C-142.09721745 424.37941297 -142.09721745 424.37941297 -142.22080803 422.38784599 C-142.49492592 417.92603009 -142.7490902 413.46317375 -143 409 C-143.04509107 408.20099935 -143.09018213 407.40199869 -143.1366396 406.5787859 C-143.86424231 393.64631332 -144.54755864 380.71155914 -145.2220788 367.77622461 C-145.38483799 364.65648834 -145.54813016 361.53678037 -145.71157455 358.41707993 C-146.22610314 348.59388033 -146.73898679 338.7705971 -147.24928963 328.94717705 C-147.83263292 317.71771554 -148.42148948 306.48856103 -149.01510537 295.25963795 C-149.47818268 286.49377969 -149.93638918 277.72767498 -150.39101112 268.96137416 C-150.6607568 263.76187942 -150.93240319 258.5625027 -151.2091713 253.36337662 C-153.17248574 216.41195492 -153.17248574 216.41195492 -153.38232422 201.78076172 C-153.40787447 200.86905275 -153.43342472 199.95734379 -153.45974922 199.01800728 C-153.47360428 192.45001779 -151.85273308 187.00589995 -147.25390625 182.16015625 C-146.69574219 181.79792969 -146.13757813 181.43570313 -145.5625 181.0625 C-144.72912109 180.49208984 -144.72912109 180.49208984 -143.87890625 179.91015625 C-141.62619966 178.81892832 -139.45243828 178.45610979 -137 178 C-137.24234375 177.10168457 -137.4846875 176.20336914 -137.734375 175.27783203 C-138.63090064 171.94991162 -139.52519363 168.6214081 -140.41796875 165.29248047 C-140.8050928 163.85083311 -141.19310962 162.40942518 -141.58203125 160.96826172 C-142.14036246 158.89873301 -142.69549498 156.8283692 -143.25 154.7578125 C-143.58515625 153.5114502 -143.9203125 152.26508789 -144.265625 150.98095703 C-145 148 -145 148 -145 146 C-146.11375 145.9175 -147.2275 145.835 -148.375 145.75 C-163.4813909 143.78191386 -176.16798108 133.0563365 -185.26367188 121.37744141 C-201.83876189 98.69608823 -206.36551194 69.66678428 -202.17285156 42.22216797 C-199.54748078 27.8537769 -193.97460985 13.19369944 -182.4765625 3.6953125 C-174.68720514 -1.63683433 -166.29254432 -3.158582 -157 -2 C-138.91709675 1.92803425 -123.47397911 15.98367159 -113.609375 31.2890625 C-112.81273437 32.63097656 -112.81273437 32.63097656 -112 34 C-111.64744141 34.58362305 -111.29488281 35.16724609 -110.93164062 35.76855469 C-97.61282465 57.95542652 -90.74706019 82.20247283 -96.5625 108 C-99.07918612 118.01397146 -103.75701695 127.55007457 -111 135 C-111.66 135.33 -112.32 135.66 -113 136 C-112.40833194 141.36793151 -111.1196125 146.0559504 -109.27734375 151.12109375 C-109.04245239 151.7824231 -108.80756104 152.44375244 -108.56555176 153.12512207 C-107.69674105 155.56515938 -106.81646589 158.00110244 -105.9375 160.4375 C-103.978125 165.903125 -102.01875 171.36875 -100 177 C-83.83 177 -67.66 177 -51 177 C-50.37244149 161.9385958 -49.85890507 147.05012538 -50 132 C-50.89460937 131.59910156 -51.78921875 131.19820312 -52.7109375 130.78515625 C-68.77172736 123.33974222 -78.83804384 112.79307418 -85.0546875 96.078125 C-87.10361397 89.40641403 -87.1879436 82.92507634 -87.23828125 76.00390625 C-87.246353 74.93816879 -87.25442474 73.87243134 -87.26274109 72.7743988 C-87.27654527 70.51929329 -87.28728374 68.2641672 -87.29516602 66.0090332 C-87.30664128 63.72739437 -87.32702159 61.44578144 -87.35668945 59.16430664 C-87.63631975 37.62964959 -85.93157471 20.78939703 -70.62109375 4.39453125 C-50.77127997 -13.73950131 -22.01648593 -14.84895673 0 0 Z M-33 3 C-43.23091886 10.30532616 -45.4944376 24.1172893 -47.64013672 35.83520508 C-51.60182844 59.66717282 -52.82017083 95.6284327 -38.1875 116.4375 C-37.465625 117.283125 -36.74375 118.12875 -36 119 C-29.02700056 116.67566685 -25.34401434 107.1062364 -22.1875 100.875 C-10.57281599 77.14776978 -14.56502621 42.50838163 -22.32666016 17.95117188 C-24.53077639 11.56418965 -27.25986757 6.77208703 -33 3 Z M-63 15 C-69.76448339 23.08123397 -74.0551915 31.41183759 -74.17700195 42.07470703 C-74.18983719 43.05988312 -74.20267242 44.0450592 -74.21589661 45.06008911 C-74.22328354 46.11533783 -74.23067047 47.17058655 -74.23828125 48.2578125 C-74.246353 49.35664764 -74.25442474 50.45548279 -74.26274109 51.58761597 C-74.27655589 53.91256139 -74.28728965 56.23752687 -74.29516602 58.5625 C-74.30667003 60.92681877 -74.32709656 63.29111189 -74.35668945 65.65527344 C-74.3996028 69.08546462 -74.4155695 72.51488535 -74.42578125 75.9453125 C-74.44328934 76.98841583 -74.46079742 78.03151917 -74.47883606 79.10623169 C-74.44440236 90.92427992 -70.32007206 101.61996521 -61.94140625 110.078125 C-57.89622299 113.73642264 -57.89622299 113.73642264 -53 116 C-53.18175781 115.36835938 -53.36351562 114.73671875 -53.55078125 114.0859375 C-62.72810272 81.42408572 -63.57423435 48.85673398 -55 16 C-54.32859507 13.33449942 -53.66457838 10.66721411 -53 8 C-56.39955409 8 -60.63950348 12.86032412 -63 15 Z M-12 9 C-11.00511017 13.50395612 -10.0022366 18.00562181 -8.96484375 22.5 C-8.62239583 24 -8.27994792 25.5 -7.9375 27 C-7.76412109 27.7425 -7.59074219 28.485 -7.41210938 29.25 C-4.99827983 39.9041442 -4.75872686 50.43099642 -4.75 61.3125 C-4.74898788 62.44641678 -4.74898788 62.44641678 -4.74795532 63.60324097 C-4.77394164 81.96002287 -7.27664742 98.53585696 -13 116 C-4.72222197 113.17769958 0.51440096 106.52408123 4.4375 98.9375 C8.2965308 90.92258988 9.30960486 83.56218535 9.30078125 74.796875 C9.30506638 73.83783264 9.3093515 72.87879028 9.31376648 71.89068604 C9.31948269 69.87032862 9.32003014 67.84995064 9.31567383 65.82958984 C9.31252344 62.7727459 9.3359744 59.71688022 9.36132812 56.66015625 C9.41545877 40.49786688 8.42552647 26.73405434 -3.38671875 14.53515625 C-7.15472028 10.58166854 -7.15472028 10.58166854 -12 9 Z M-179.96875 19.390625 C-192.20425528 37.12173858 -192.57144082 60.46622173 -189 81 C-185.13302397 99.90739496 -176.68939674 116.26484146 -161 128 C-153.25998533 132.72743411 -144.71491435 135.33179135 -135.65625 133.53515625 C-125.71074178 130.94134315 -118.30074183 125.85077994 -113 117 C-104.75483978 101.70699656 -105.45060162 84.38817371 -110 68 C-115.01471354 52.58618498 -123.19492117 39.0682625 -134 27 C-134.63421875 26.27167969 -135.2684375 25.54335938 -135.921875 24.79296875 C-142.89379131 17.25926579 -152.17978854 11.00783847 -162.625 10.5625 C-170.50020339 10.67649571 -175.01015642 13.36947566 -179.96875 19.390625 Z M126.93432617 95.41870117 C126.45567108 95.88859467 125.97701599 96.35848816 125.4838562 96.84262085 C123.9074265 98.39707026 122.34996227 99.96906916 120.79296875 101.54296875 C119.70225317 102.63031582 118.6107963 103.71691977 117.51863098 104.80281067 C115.23344237 107.08062978 112.95753665 109.36724213 110.68774414 111.66040039 C107.7779716 114.59866022 104.84632732 117.51390101 101.90735912 120.42292309 C99.64979561 122.66241605 97.40428061 124.91368566 95.16222572 127.16869545 C94.08580805 128.24844778 93.00566581 129.32450025 91.92177391 130.3967495 C90.40831453 131.89750464 88.91181906 133.41336773 87.41870117 134.93432617 C86.56330246 135.79370285 85.70790375 136.65307953 84.82658386 137.53849792 C82.79540777 139.85771003 82.79540777 139.85771003 82.64961243 142.69941711 C82.84817411 145.03801985 82.84817411 145.03801985 84.1875 146.875 C85.97211914 148.22633207 85.97211914 148.22633207 88.30340576 147.84783936 C91.76564069 146.75927401 93.38978224 145.11804976 95.95800781 142.55957031 C96.42530304 142.09928436 96.89259827 141.63899841 97.37405396 141.1647644 C98.91060377 139.64576975 100.43211543 138.11266875 101.953125 136.578125 C103.01917098 135.51477464 104.08581005 134.45201858 105.15301514 133.38983154 C107.38526875 131.16346963 109.61014141 128.9300477 111.83007812 126.69140625 C114.67362616 123.82506914 117.53475507 120.97706502 120.40166092 118.13411331 C122.60681422 115.94342668 124.80233593 113.74328624 126.99507904 111.54018402 C128.04629833 110.48629986 129.10048761 109.43536946 130.15769196 108.38748932 C131.63489198 106.92046895 133.0986288 105.44119668 134.55957031 103.95800781 C135.39498352 103.11941223 136.23039673 102.28081665 137.09112549 101.41680908 C139.13605714 98.82773926 139.78406216 97.26886401 140 94 C138.98029682 92.06345052 138.98029682 92.06345052 137 91 C132.10292031 90.25415603 130.32939332 92.03934944 126.93432617 95.41870117 Z M143.9284668 113.34277344 C143.46102554 113.80451965 142.99358429 114.26626587 142.51197815 114.74200439 C140.97602425 116.2668751 139.46269129 117.81221397 137.94921875 119.359375 C136.885114 120.42705786 135.8198959 121.49363216 134.75361633 122.55914307 C132.52446286 124.79298404 130.30573446 127.03652573 128.09448242 129.28808594 C125.26053784 132.17303114 122.40721084 135.03779926 119.54652691 137.8962059 C117.3468808 140.09666796 115.15514171 142.30486354 112.96598244 144.5157547 C111.91639976 145.57487882 110.86499477 146.63220025 109.81174278 147.68767548 C108.34163469 149.1642928 106.88182693 150.65037022 105.42456055 152.13964844 C104.17596504 153.40539703 104.17596504 153.40539703 102.90214539 154.69671631 C101.05432323 156.93422069 100.15789828 158.11862115 100 161 C101.85164036 163.75256794 101.85164036 163.75256794 104 166 C108.66822978 165.52791464 110.68261442 163.81844555 113.95800781 160.54370117 C114.42530304 160.08180893 114.89259827 159.61991669 115.37405396 159.14402771 C116.91047475 157.6200776 118.43195715 156.08213279 119.953125 154.54296875 C121.01909784 153.47715093 122.08573799 152.41200013 123.15301514 151.3474884 C125.38511641 149.11677034 127.61009247 146.87924874 129.83007812 144.63647461 C132.6753057 141.76284566 135.53584707 138.9050642 138.40166092 136.05198193 C140.60517763 133.85542121 142.80126123 131.65155066 144.99507904 129.44530678 C146.04717969 128.38869209 147.10137514 127.33415897 148.15769196 126.28175926 C149.63247834 124.80988469 151.09718894 123.32866913 152.55957031 121.84448242 C153.39498352 121.00366623 154.23039673 120.16285004 155.09112549 119.29655457 C156.94838993 117.06209174 157.75658962 115.86640241 158 113 C157.05945016 110.63450124 157.05945016 110.63450124 155 109 C149.65168109 108.27370126 147.65453728 109.59765748 143.9284668 113.34277344 Z M151.06640625 142.73046875 C150.14786362 143.64331131 149.22932098 144.55615387 148.28294373 145.49665833 C146.35575474 147.41343573 144.43082684 149.33245386 142.50708008 151.25268555 C140.04355474 153.71067879 137.57084637 156.15921895 135.095994 158.60579967 C132.72542087 160.95330728 130.36539891 163.31132721 128.00390625 165.66796875 C127.11546524 166.54406296 126.22702423 167.42015717 125.31166077 168.32279968 C124.49668625 169.1407753 123.68171173 169.95875092 122.84204102 170.80151367 C122.12226578 171.51764328 121.40249054 172.23377289 120.66090393 172.97160339 C118.93350825 175.08120375 118.15320557 176.27941093 118 179 C120.35426499 181.77122275 120.35426499 181.77122275 123 184 C127.24776025 182.60696558 129.71499968 180.66402094 132.86621094 177.52197266 C133.80358093 176.59405914 134.74095093 175.66614563 135.70672607 174.71011353 C136.71632589 173.69514451 137.72553291 172.67978467 138.734375 171.6640625 C139.77814676 170.6223128 140.82236342 169.58100869 141.86700439 168.54013062 C144.05052582 166.3610243 146.22854834 164.17660378 148.40283203 161.98828125 C151.18922417 159.18477656 153.98889695 156.39498403 156.79281235 153.60901833 C158.94979649 151.46287581 161.09958291 149.30963786 163.24726105 147.15418625 C164.27689722 146.12255023 165.30876275 145.09313426 166.34288788 144.06599808 C167.78630827 142.63019996 169.21909463 141.18373519 170.65136719 139.73681641 C171.87783966 138.50676376 171.87783966 138.50676376 173.12908936 137.25186157 C174.96648145 135.04034353 175.87226045 133.8635183 176 131 C173.77069744 128.18731921 173.77069744 128.18731921 171 126 C164.38609884 126 155.50605247 138.31240388 151.06640625 142.73046875 Z M-36 134 C-36.96951606 143.18951018 -37.38235782 152.38546581 -37.75390625 161.61328125 C-37.81953666 163.19745199 -37.88537192 164.78161425 -37.95140076 166.36576843 C-38.08833096 169.66443368 -38.22347206 172.9631654 -38.35717773 176.26196289 C-38.52817161 180.4795053 -38.70266296 184.69689382 -38.87835789 188.91424274 C-39.01406636 192.17677163 -39.14845405 195.43935381 -39.2823925 198.7019558 C-39.3462989 200.25722611 -39.41048993 201.81248476 -39.47497749 203.36773109 C-39.56473788 205.5397826 -39.65284558 207.71189495 -39.74047852 209.8840332 C-39.79075699 211.11660355 -39.84103546 212.34917389 -39.89283752 213.61909485 C-39.99190784 216.74469756 -40 219.8728276 -40 223 C-35.38 223 -30.76 223 -26 223 C-25.67809219 205.39492166 -26.59701351 187.82732429 -27.39068604 170.24603271 C-27.574716 166.14918254 -27.75392797 162.0521216 -27.93359375 157.95507812 C-28.28445376 149.96984306 -28.64049605 141.98485056 -29 134 C-31.31 134 -33.62 134 -36 134 Z M-132 146 C-130.16663153 153.35709191 -128.331833 160.71382607 -126.49541378 168.07015705 C-125.64188414 171.48940001 -124.78877173 174.90874571 -123.93676758 178.32836914 C-119.38932796 196.57845427 -114.75821379 214.80348976 -110 233 C-108.03964825 232.55037804 -106.08175691 232.09001752 -104.125 231.625 C-102.48917969 231.24214844 -102.48917969 231.24214844 -100.8203125 230.8515625 C-97.89591545 230.21093785 -97.89591545 230.21093785 -96 228 C-96.323741 227.06303032 -96.323741 227.06303032 -96.65402222 226.10713196 C-99.39448299 218.17563456 -102.13480177 210.24408811 -104.875 202.3125 C-105.09210758 201.68407574 -105.30921516 201.05565147 -105.53290176 200.40818405 C-112.02807103 181.60757019 -118.52087228 162.80614933 -125 144 C-128.10551666 144 -129.35261084 144.5393715 -132 146 Z M74 189 C73.5153125 189.49628906 73.030625 189.99257812 72.53125 190.50390625 C71.52578125 191.52291016 71.52578125 191.52291016 70.5 192.5625 C69.8503125 193.22378906 69.200625 193.88507813 68.53125 194.56640625 C66.4666942 196.55131098 64.37196489 198.43982178 62.2109375 200.31640625 C58.08325291 203.90145508 54.09605523 207.61817531 50.125 211.375 C44.95671563 216.24277499 39.75819054 221.06521561 34.4609375 225.79296875 C29.60092798 230.15154872 24.80603188 234.58208409 20 239 C21.98 241.31 23.96 243.62 26 246 C31.1760324 241.71546933 35.82170317 237.18563923 40.375 232.25 C41.03346924 231.54190186 41.69193848 230.83380371 42.37036133 230.10424805 C46.54382261 225.60639523 50.67275168 221.07053868 54.7578125 216.4921875 C57.49743368 213.44710333 60.27859825 210.44205845 63.0625 207.4375 C67.77484584 202.34957027 72.42261273 197.21014375 77 192 C76.01 191.01 75.02 190.02 74 189 Z M-96 190 C-93.75914471 198.2164694 -91.48089596 206.33796877 -88.875 214.4375 C-88.36453125 216.17290039 -88.36453125 216.17290039 -87.84375 217.94335938 C-86.02923622 224.01295885 -86.02923622 224.01295885 -81.86425781 228.49658203 C-79.52976878 229.49756616 -79.52976878 229.49756616 -77.15356445 230.24951172 C-73.81602099 231.41260078 -72.13330799 233.23576913 -70 236 C-68.80757038 238.5410517 -67.97297338 241.12128791 -67.1875 243.8125 C-66.97158203 244.50537109 -66.75566406 245.19824219 -66.53320312 245.91210938 C-66.00819297 247.60380878 -65.50211263 249.30136365 -65 251 C-64.67 251 -64.34 251 -64 251 C-63.98582031 250.24976563 -63.97164062 249.49953125 -63.95703125 248.7265625 C-63.61490739 241.38476946 -62.55071445 234.96673249 -58 229 C-56.99267822 228.46149414 -55.98535645 227.92298828 -54.94750977 227.36816406 C-51.64306699 225.22541479 -51.64306699 225.22541479 -51.22705078 221.33300781 C-51.18681422 219.8735631 -51.17723588 218.41301236 -51.1953125 216.953125 C-51.18169678 216.26911621 -51.16808105 215.58510742 -51.15405273 214.88037109 C-51.1120711 212.33724212 -51.1215672 209.79347315 -51.125 207.25 C-51.08375 201.5575 -51.0425 195.865 -51 190 C-65.85 190 -80.7 190 -96 190 Z M-14 190 C-14.00183198 193.5104166 -14.00293144 197.02083307 -14.00390625 200.53125 C-14.00442993 201.51770508 -14.00495361 202.50416016 -14.00549316 203.52050781 C-14.97239355 215.90979734 -14.97239355 215.90979734 -11.41015625 227.04296875 C-9.67607933 228.53590614 -7.90548567 229.74368714 -6 231 C-5.67 231.66 -5.34 232.32 -5 233 C-3.10353002 232.88506243 -1.20781668 232.75760358 0.6875 232.625 C2.27111328 232.52058594 2.27111328 232.52058594 3.88671875 232.4140625 C9.49538585 231.66811681 12.45640136 229.90828301 16.3125 225.8125 C19.66472372 222.27438587 23.18132358 219.0620111 26.86157227 215.87573242 C30.42370734 212.75118809 33.86452245 209.49936883 37.3125 206.25 C38.01439453 205.59128906 38.71628906 204.93257812 39.43945312 204.25390625 C42.32996086 201.53699431 45.20723977 198.81778591 48 196 C46.63016497 192.83884224 46.0109362 192.0072908 43 190 C40.39221661 189.70944456 40.39221661 189.70944456 37.42700195 189.77294922 C36.28604568 189.77310028 35.14508942 189.77325134 33.96955872 189.77340698 C32.73823715 189.78372955 31.50691559 189.79405212 30.23828125 189.8046875 C28.97735153 189.8075174 27.71642181 189.81034729 26.4172821 189.81326294 C23.06839578 189.82256875 19.71978209 189.84053297 16.37097168 189.8626709 C12.95241653 189.88314614 9.5338332 189.89226824 6.11523438 189.90234375 C-0.58991919 189.9244182 -7.29494385 189.95790638 -14 190 Z M-135 190 C-138.52381687 192.54604597 -138.52381687 192.54604597 -141 196 C-141.04038527 197.58811844 -141.01135907 199.17820894 -140.94921875 200.765625 C-140.91119141 201.78285645 -140.87316406 202.80008789 -140.83398438 203.84814453 C-140.78564453 204.97075684 -140.73730469 206.09336914 -140.6875 207.25 C-140.64044922 208.41772949 -140.59339844 209.58545898 -140.54492188 210.78857422 C-140.09388245 221.57036537 -139.55424644 232.34808709 -139 243.125 C-138.95829681 243.94778442 -138.91659363 244.77056885 -138.87362671 245.61828613 C-138.25257912 257.83477485 -138.25257912 257.83477485 -137 270 C-132.71 270 -128.42 270 -124 270 C-124.309375 268.411875 -124.61875 266.82375 -124.9375 265.1875 C-125.11152344 264.29417969 -125.28554687 263.40085937 -125.46484375 262.48046875 C-125.97741153 259.88602829 -125.97741153 259.88602829 -127 257 C-127.44029487 251.38624036 -126.49590996 246.98154869 -124 242 C-123.47038162 241.39894943 -122.94076324 240.79789886 -122.39509583 240.17863464 C-120.78135312 238.11368044 -120.78135312 238.11368044 -121.0813446 235.7414093 C-121.29515274 234.918358 -121.50896088 234.0953067 -121.72924805 233.24731445 C-121.96326828 232.30986893 -122.19728851 231.3724234 -122.43840027 230.40657043 C-122.71009537 229.402285 -122.98179047 228.39799957 -123.26171875 227.36328125 C-123.52757278 226.3280986 -123.79342682 225.29291595 -124.06733704 224.22636414 C-124.6329351 222.03946265 -125.20765873 219.8549041 -125.79077148 217.67260742 C-126.68548838 214.32003769 -127.55104993 210.9609631 -128.41210938 207.59960938 C-128.96444941 205.47872414 -129.5184301 203.35826537 -130.07421875 201.23828125 C-130.33579269 200.22792313 -130.59736664 199.217565 -130.86686707 198.17658997 C-131.1166481 197.24860092 -131.36642914 196.32061188 -131.6237793 195.36450195 C-131.8415654 194.54383743 -132.0593515 193.72317291 -132.28373718 192.87763977 C-132.83325281 190.80158502 -132.83325281 190.80158502 -135 190 Z M-49.37841797 237.59204102 C-51.57533061 240.85433391 -51.4569551 243.03964936 -51.390625 246.953125 C-51.38063477 248.16129883 -51.37064453 249.36947266 -51.36035156 250.61425781 C-51.32393555 252.14405273 -51.28751953 253.67384766 -51.25 255.25 C-51.1675 260.1175 -51.085 264.985 -51 270 C-38.79 270 -26.58 270 -14 270 C-13.938125 265.483125 -13.87625 260.96625 -13.8125 256.3125 C-13.78518799 254.89622314 -13.75787598 253.47994629 -13.72973633 252.02075195 C-13.71849731 250.33405396 -13.71849731 250.33405396 -13.70703125 248.61328125 C-13.68346558 246.89298706 -13.68346558 246.89298706 -13.65942383 245.13793945 C-14.03824533 241.64762202 -14.91158098 239.79355001 -17 237 C-21.56758365 234.71620817 -27.86041124 235.72477395 -32.875 235.6875 C-34.16792969 235.65849609 -35.46085938 235.62949219 -36.79296875 235.59960938 C-38.03433594 235.59123047 -39.27570313 235.58285156 -40.5546875 235.57421875 C-42.26374268 235.55234497 -42.26374268 235.55234497 -44.00732422 235.5300293 C-47.05166543 235.79315471 -47.05166543 235.79315471 -49.37841797 237.59204102 Z M42.75 247.0625 C41.49063045 248.3660124 40.24051175 249.67852853 39 251 C38.22076172 251.79277344 38.22076172 251.79277344 37.42578125 252.6015625 C32.92109508 257.84197105 33.51077241 263.37912001 34 270 C37.63 270 41.26 270 45 270 C45.71113221 266.44433895 46.16358474 263.47652675 46.31640625 259.91796875 C46.35830078 258.98662109 46.40019531 258.05527344 46.44335938 257.09570312 C46.48267578 256.13599609 46.52199219 255.17628906 46.5625 254.1875 C46.60568359 253.20845703 46.64886719 252.22941406 46.69335938 251.22070312 C46.7990226 248.81392973 46.90112327 246.40706017 47 244 C45.14425911 244 43.99847596 245.82759443 42.75 247.0625 Z M-136 282 C-136 292.79857017 -135.9616013 303.44286949 -135.4050293 314.20141602 C-135.34157318 315.49656631 -135.27811707 316.79171661 -135.21273804 318.12611389 C-135.04144975 321.61338201 -134.86433485 325.10032748 -134.68529105 328.58720517 C-134.57315432 330.77467018 -134.46217459 332.96219105 -134.35154152 335.14973259 C-133.96414732 342.80492355 -133.57133921 350.4598173 -133.17407227 358.11450195 C-132.80563673 365.21692741 -132.45029205 372.31993053 -132.10066098 379.42330414 C-131.79790822 385.56095904 -131.48539331 391.69806856 -131.16549617 397.83485359 C-130.97548539 401.48375124 -130.78944176 405.13274214 -130.61356163 408.78235054 C-130.41751614 412.84342529 -130.20120675 416.90318214 -129.9831543 420.96313477 C-129.92848495 422.15549744 -129.87381561 423.34786011 -129.81748962 424.57635498 C-129.40140337 431.93017081 -128.89966009 439.43347763 -124.09765625 445.33984375 C-123.42605469 445.86707031 -122.75445312 446.39429688 -122.0625 446.9375 C-121.39347656 447.48277344 -120.72445312 448.02804687 -120.03515625 448.58984375 C-115.15064693 451.97431182 -111.02384003 452.52512682 -105.1875 453.0625 C-104.42501953 453.14048828 -103.66253906 453.21847656 -102.87695312 453.29882812 C-90.11735131 454.55710997 -77.42901102 455.16099328 -64.609375 455.16796875 C-63.17091849 455.17120123 -61.73246226 455.17456658 -60.29400635 455.17805481 C-57.29560591 455.18398748 -54.29723401 455.18590113 -51.29882812 455.18530273 C-48.28769858 455.18522203 -45.27672297 455.19208563 -42.265625 455.20581055 C-27.13092163 455.27363256 -12.05739924 455.21319188 3.046875 454.11328125 C4.11697815 454.03554977 5.1870813 453.9578183 6.28961182 453.87773132 C20.32626354 453.00900426 20.32626354 453.00900426 32 446 C36.0376742 440.50974789 37.07432255 435.46632088 37.42396545 428.79989624 C37.49265335 427.52675064 37.56134125 426.25360504 37.6321106 424.94187927 C37.70411416 423.53335948 37.77604154 422.12483578 37.84790039 420.71630859 C37.92652856 419.23127998 38.00550137 417.74626958 38.08479309 416.26127625 C38.2990127 412.23069602 38.50836606 408.19987606 38.71682668 404.16899443 C38.93562088 399.95371477 39.15878219 395.73866634 39.38145447 391.52359009 C39.75467689 384.44717485 40.12505317 377.37061552 40.4934082 370.29394531 C41.01333875 360.30535199 41.53834034 350.31703 42.06438458 340.32875705 C42.47225301 332.58120016 42.87887716 324.83357787 43.28515625 317.0859375 C43.3288293 316.25315513 43.37250235 315.42037276 43.41749883 314.56235456 C43.668111 309.78149532 43.91807265 305.00060281 44.16708183 300.21965981 C44.24269479 298.76918563 44.31848269 297.31872056 44.39445496 295.86826515 C44.49780623 293.89424821 44.60043301 291.92019338 44.70301819 289.94613647 C44.76071412 288.83964941 44.81841005 287.73316235 44.87785435 286.59314537 C44.94991735 285.0632519 45 283.53158973 45 282 C-14.73 282 -74.46 282 -136 282 Z " fill="#000000" transform="translate(248,27)"/>
</svg>
