<?xml version="1.0" encoding="UTF-8"?>
<svg version="1.1" xmlns="http://www.w3.org/2000/svg" width="512" height="512">
<path d="M0 0 C0.83072021 0.00829834 1.66144043 0.01659668 2.51733398 0.02514648 C15.5335665 0.38201655 25.64385879 6.0722579 34.6875 15.3125 C52.64335688 36.75070489 56.94900017 66.57187013 59.625 93.4375 C60.635625 92.674375 61.64625 91.91125 62.6875 91.125 C63.42484375 90.57585937 64.1621875 90.02671875 64.921875 89.4609375 C66.90176731 87.97887938 68.86740377 86.48347723 70.828125 84.9765625 C115.97032161 50.65144646 171.27728267 37.03805204 227.2578125 44.46484375 C273.8440336 51.23911079 313.07359276 73.98202963 346.0625 106.75 C346.64185303 107.32459961 347.22120605 107.89919922 347.81811523 108.49121094 C348.37184814 109.04711914 348.92558105 109.60302734 349.49609375 110.17578125 C349.98005615 110.66087158 350.46401855 111.14596191 350.96264648 111.64575195 C353.29138679 114.1557571 355.43872524 116.8023895 357.625 119.4375 C357.62719984 118.6108915 357.62719984 118.6108915 357.62944412 117.76758385 C357.66652844 104.34624263 357.72581633 90.92515676 357.80890274 77.50401878 C357.84841381 71.01357384 357.88058469 64.52326531 357.89599609 58.03271484 C357.91113845 51.76910271 357.94554175 45.50586553 357.99330902 39.2424202 C358.00814767 36.85265995 358.01604243 34.46284618 358.01688385 32.07304001 C358.01924767 28.72585816 358.04628217 25.37971741 358.07910156 22.03271484 C358.0740712 21.04440674 358.06904083 20.05609863 358.06385803 19.0378418 C358.15046249 13.32984634 358.76276824 9.93871491 362.625 5.4375 C368.79121486 0.00535834 373.44253268 -0.25977982 381.58251953 0.21533203 C396.94128526 1.88596039 411.29284468 10.41367522 422.625 20.4375 C423.23730469 20.95570312 423.84960938 21.47390625 424.48046875 22.0078125 C438.65498834 34.91732919 446.77608123 55.52433981 447.84568787 74.31437683 C447.89511605 75.7422501 447.94038085 77.17027165 447.98217773 78.59838867 C448.00840871 79.38891632 448.03463968 80.17944397 448.06166553 80.993927 C448.14766202 83.61433611 448.22814783 86.23488384 448.30859375 88.85546875 C448.36871887 90.72252925 448.42917141 92.58957924 448.4899292 94.45661926 C448.65206084 99.47161713 448.80925305 104.48675785 448.96514511 109.50195312 C449.09535643 113.67900117 449.22779126 117.85597759 449.36018085 122.03295708 C449.66080195 131.51975218 449.95763064 141.00665991 450.25195312 150.49365234 C450.48201823 157.905625 450.71646096 165.31742819 450.95898438 172.72900391 C452.79373414 228.80960135 452.79373414 228.80960135 452.97647095 253.16577148 C452.99180486 255.01284157 453.01329132 256.859874 453.0418396 258.70678711 C453.25120283 273.34460818 451.05426524 285.2486746 440.84765625 296.375 C436.00833347 300.96691364 428.55921899 306.4375 421.625 306.4375 C421.78360473 307.12726645 421.94220945 307.81703291 422.10562038 308.52770138 C422.67478043 311.7163924 422.83405739 314.75633297 422.93507385 317.99427795 C422.95634604 318.63936811 422.97761823 319.28445827 422.99953502 319.94909662 C423.06952511 322.10275747 423.13351404 324.25655372 423.19750977 326.41040039 C423.24656171 327.95816155 423.29597896 329.50591117 423.34573364 331.0536499 C423.47968388 335.25432497 423.60838025 339.45514623 423.7360394 343.65601659 C423.8707023 348.06140974 424.00985138 352.46666135 424.14842224 356.87193298 C424.38069251 364.2770843 424.60973347 371.68232989 424.83666992 379.08764648 C425.09834316 387.6257951 425.36420757 396.16380468 425.63255268 404.70174605 C425.91889621 413.81325008 426.20235849 422.92484206 426.48487735 432.03646541 C426.56607387 434.64946002 426.64777682 437.26243839 426.72958565 439.87541389 C426.85860929 444.00150389 426.98567226 448.12765005 427.11128616 452.25384521 C427.15741123 453.7597949 427.2041496 455.26572596 427.25158119 456.77163506 C428.35569259 491.88894394 428.35569259 491.88894394 417.95703125 503.26171875 C408.70951541 511.66278006 398.76589489 513.14103624 386.68359375 512.61230469 C377.05894328 511.79503124 370.79605752 505.72442023 364.375 499.125 C359.39909112 491.48342565 358.0335351 484.19609734 358.07910156 475.20458984 C358.06876389 474.13023682 358.05842621 473.05588379 358.04777527 471.94897461 C358.01850489 468.43197304 358.01685139 464.91555093 358.015625 461.3984375 C358.00063278 458.94649163 357.98390345 456.49455581 357.96551514 454.04263306 C357.92194694 447.61476154 357.90186569 441.18702625 357.88677979 434.7590332 C357.86717086 428.18953431 357.82520504 421.62018171 357.78515625 415.05078125 C357.70996806 402.17973721 357.65884735 389.30871579 357.625 376.4375 C357.23526505 376.85621872 356.84553009 377.27493744 356.44398499 377.7063446 C354.64164395 379.64203072 352.83840467 381.57687793 351.03515625 383.51171875 C350.42240845 384.17006714 349.80966064 384.82841553 349.17834473 385.50671387 C339.28917236 396.11367506 329.46441166 406.00985353 317.625 414.4375 C316.80322266 415.03377197 316.80322266 415.03377197 315.96484375 415.64208984 C272.4049288 447.03605407 216.98296398 459.30593187 164.125 451.046875 C120.01049734 443.60255268 81.25981231 423.19658333 49.625 391.75 C48.84801758 390.97857666 48.07103516 390.20715332 47.27050781 389.41235352 C41.97741115 384.05266628 37.24108107 378.38513605 32.625 372.4375 C32.57044729 383.36270788 32.69062263 394.27017188 32.99539185 405.19114876 C33.06477996 407.67941587 33.13121919 410.16774828 33.19702148 412.65611267 C33.33718036 417.93747726 33.48085048 423.21874304 33.625 428.5 C33.79238468 434.63701781 33.95822484 440.77407086 34.12063599 446.91122246 C34.18536482 449.33035718 34.2526364 451.74941165 34.32006836 454.16847229 C34.51979136 461.51959495 34.676614 468.87053593 34.72265625 476.22436523 C34.73176025 477.48361313 34.74086426 478.74286102 34.75024414 480.04026794 C34.37492495 490.22075533 29.74600595 498.81360525 22.375 505.75 C13.18635689 512.89009281 2.88207437 513.78672754 -8.375 512.4375 C-11.79879738 511.5910612 -14.43289255 510.35887629 -17.375 508.4375 C-18.06851563 508.025 -18.76203125 507.6125 -19.4765625 507.1875 C-26.91187623 502.28631942 -30.95552864 494.86909424 -33.375 486.4375 C-33.6263504 483.17050838 -33.6263504 483.17050838 -33.62414551 479.52293396 C-33.62559161 478.83868241 -33.62703772 478.15443086 -33.62852764 477.44944441 C-33.62904554 475.12554362 -33.61308226 472.8021038 -33.59570312 470.47827148 C-33.59252107 469.646141 -33.58933901 468.81401052 -33.58606052 467.95666397 C-33.48797484 442.41085181 -32.71096114 416.87154275 -32.02019849 391.33636144 C-31.82018872 383.93541506 -31.6262205 376.53431335 -31.43247765 369.1332007 C-31.08706761 355.94408066 -30.73716796 342.75508397 -30.38427734 329.56616211 C-30.04232376 316.78562685 -29.70258892 304.00503564 -29.36572266 291.22436523 C-29.34481369 290.43110964 -29.32390472 289.63785405 -29.30236214 288.8205604 C-29.19743836 284.83940091 -29.09255698 280.8582403 -28.98769665 276.87707913 C-28.12336648 244.06371042 -27.25168004 211.25054112 -26.375 178.4375 C-27.48109619 178.13658447 -28.58719238 177.83566895 -29.72680664 177.52563477 C-39.19765779 174.7007948 -47.14390781 165.84702086 -52.1015625 157.546875 C-53.6697561 154.53408927 -55.10469943 151.58889463 -56.375 148.4375 C-56.64570312 147.79796387 -56.91640625 147.15842773 -57.1953125 146.49951172 C-60.38917932 137.76746469 -59.83368314 128.59937249 -59.75 119.4375 C-59.74567963 118.55000061 -59.74135925 117.66250122 -59.73690796 116.74810791 C-59.53661742 81.63524114 -56.3557268 39.14922568 -30.8125 12.375 C-21.85881619 4.01098687 -12.30556717 -0.15987796 0 0 Z M-22.2421875 30.45703125 C-39.15823595 54.0961246 -41.52059924 88.20824616 -41.67016602 116.24438477 C-41.6817365 117.75001383 -41.7022677 119.25560029 -41.73168945 120.76098633 C-41.90474114 129.66589727 -41.75704607 137.41339202 -37.375 145.4375 C-36.65376953 146.79101562 -36.65376953 146.79101562 -35.91796875 148.171875 C-30.97583335 155.52098701 -26.95674335 160.05007235 -18.125 162.125 C-17.10921875 162.31449219 -16.0934375 162.50398437 -15.046875 162.69921875 C-12.19935616 163.48603317 -11.1254296 164.10169946 -9.375 166.4375 C-8.04771862 170.41934415 -8.33803589 174.17167027 -8.44651794 178.31459045 C-8.46624369 179.2260742 -8.48596944 180.13755795 -8.50629294 181.07666242 C-8.57372117 184.12425073 -8.64897056 187.17159324 -8.72436523 190.21899414 C-8.77427263 192.38684034 -8.82380506 194.5546952 -8.87298489 196.72255802 C-9.03191202 203.62775221 -9.20250082 210.53263334 -9.375 217.4375 C-9.41581814 219.08403132 -9.41581814 219.08403132 -9.45746088 220.76382589 C-9.82038723 235.39446949 -10.20275659 250.02457209 -10.59190559 264.65453911 C-10.79140626 272.15709708 -10.98814341 279.65972619 -11.18443298 287.16236877 C-11.75934403 309.12521604 -12.33648237 331.08800121 -12.91996796 353.05062222 C-13.21698977 364.23369092 -13.51056964 375.41684752 -13.8014726 386.60007721 C-13.96344607 392.82174633 -14.12693033 399.04336659 -14.29438972 405.26489067 C-14.67391071 419.3900016 -15.02942713 433.51518536 -15.31739283 447.642488 C-15.35520892 449.47726683 -15.39428958 451.31202012 -15.43475866 453.14674234 C-15.54140174 457.98429938 -15.62949395 462.82119141 -15.67912567 467.65968907 C-15.70378729 469.6951065 -15.74739106 471.73026776 -15.79183292 473.76534939 C-15.826916 480.54914159 -15.5990888 485.00108369 -11.375 490.4375 C-6.58375698 494.17466955 -2.79825915 495.09618403 3.26171875 494.8203125 C8.35642595 493.99505414 10.92543895 491.36394571 13.9375 487.375 C16.86061338 482.28661746 16.69922436 478.05088469 16.55348206 472.34632874 C16.52389343 470.94628524 16.52389343 470.94628524 16.49370706 469.51795805 C16.42630583 466.3999322 16.35106182 463.28214793 16.27563477 460.16430664 C16.22574518 457.94936679 16.17621215 455.73441888 16.12701511 453.51946354 C15.96852023 446.49192116 15.79814856 439.46469485 15.625 432.4375 C15.59778791 431.32840822 15.57057582 430.21931643 15.54253912 429.07661581 C15.18163758 414.41200805 14.79832934 399.74801855 14.40809441 385.08416557 C14.20849015 377.58180483 14.01180318 370.07936906 13.81556702 362.57691956 C13.24079251 340.61554328 12.66321311 318.65424396 12.08003204 296.69308948 C11.78311364 285.50886126 11.48953237 274.32454773 11.1985274 263.14016396 C11.03650061 256.91798423 10.87299297 250.69585215 10.70561028 244.47381401 C10.32725977 230.38583188 9.97207967 216.29777379 9.68260717 202.20765829 C9.62680668 199.52437788 9.56716517 196.84120183 9.50734329 194.15800858 C9.42356627 190.26802881 9.36174377 186.37838892 9.32087433 182.48772633 C9.29611223 180.49062046 9.2525131 178.49377532 9.20816708 176.49700832 C9.20199651 175.33869031 9.19582594 174.1803723 9.18946838 172.98695374 C9.17665109 172.00060472 9.16383379 171.0142557 9.15062809 169.99801731 C9.76502953 166.68166261 11.02557864 165.51606481 13.625 163.4375 C16.140625 162.63671875 16.140625 162.63671875 18.875 162.125 C24.92914042 160.64581749 28.40633319 157.91732238 32.625 153.4375 C33.346875 152.695 34.06875 151.9525 34.8125 151.1875 C49.73888222 128.54057525 42.597092 93.73954311 37.74609375 68.6796875 C34.53910552 53.19091464 29.01647312 32.69250634 15.58203125 22.95703125 C1.44052206 13.76118648 -11.94092041 18.30727895 -22.2421875 30.45703125 Z M376.625 18.4375 C376.53350003 77.57360317 376.46298143 136.70970465 376.42073868 195.84586371 C376.41574926 202.82302385 376.41056306 209.80018383 376.40527344 216.77734375 C376.4047504 217.47166105 376.40422737 218.16597835 376.40368848 218.88133556 C376.38663814 241.39275975 376.35658922 263.90414381 376.31981112 286.41554368 C376.28102164 310.20124392 376.25701885 333.9869131 376.24864602 357.77264488 C376.24314996 372.02494052 376.22577382 386.277121 376.19333413 400.5293812 C376.17223559 410.29474856 376.16578938 420.06005614 376.17099449 429.82544465 C376.17356352 435.46460904 376.16954875 441.10357179 376.1481781 446.74270058 C376.12876769 451.90210114 376.12769417 457.06116375 376.14140442 462.22057961 C376.14309987 464.09012896 376.13797917 465.95969907 376.12546727 467.82920732 C376.10947497 470.3655997 376.1180283 472.90076317 376.13280869 475.4371357 C376.12230063 476.16739424 376.11179258 476.89765279 376.1009661 477.65004039 C376.16777307 482.70392723 377.47485481 485.53247795 380.625 489.4375 C385.596482 493.8171389 388.4969758 494.79955226 395.01953125 494.71484375 C399.19832535 494.27002459 401.26422623 492.99168806 404.625 490.4375 C408.75226081 485.22411793 409.79624559 481.49208907 409.60253906 474.97338867 C409.57199432 473.85528305 409.54144958 472.73717743 409.50997925 471.58518982 C409.47059235 470.35438187 409.43120544 469.12357391 409.390625 467.85546875 C409.33408249 465.88617149 409.33408249 465.88617149 409.27639771 463.87709045 C409.17135532 460.22805991 409.05918151 456.57927758 408.94585419 452.93049622 C408.85085845 449.83946786 408.76030979 446.74831614 408.6698513 443.65715218 C408.12160951 424.92957783 407.52473169 406.20352209 406.92372131 387.47757912 C406.82047983 384.25912251 406.71751984 381.040657 406.61462402 377.82218933 C406.31086329 368.32919558 406.00579926 358.83626091 405.69143105 349.34361172 C405.5601314 345.36339856 405.43128688 341.38310812 405.30291367 337.40279961 C405.24294729 335.56117583 405.18191529 333.71958634 405.11966324 331.87803841 C404.95118673 326.88847175 404.79979765 321.89909674 404.68297577 316.90803528 C404.64293296 315.20168148 404.59916488 313.49541248 404.55237579 311.78923035 C404.48535878 309.16908168 404.44018162 306.54940614 404.40087891 303.92871094 C404.37794455 303.13349155 404.35501019 302.33827217 404.33138084 301.51895523 C404.30214756 298.23256784 404.38611885 295.87560251 405.97640991 292.95904541 C408.25764206 290.853611 410.21338339 290.60391226 413.25 290.0625 C421.18241788 288.26883356 427.13965107 285.2016519 431.625 278.25 C435.54131044 271.35566183 434.81866964 264.23664989 434.80859375 256.55078125 C434.8085327 255.74711939 434.80847164 254.94345753 434.80840874 254.11544228 C434.77719999 226.58455353 433.74986777 199.05732533 432.90001428 171.54206288 C432.66225887 163.83381149 432.43274447 156.12532018 432.20319569 148.41682088 C432.02447023 142.42594828 431.84371534 136.43513661 431.66265178 130.44433427 C431.61974144 129.02399325 431.57689304 127.60365037 431.53411031 126.1833055 C431.2814165 117.79717018 431.02073563 109.41134955 430.7431221 101.02599716 C430.66409213 98.62510151 430.58698519 96.22414183 430.51176071 93.82312393 C430.40322421 90.40045042 430.28576117 86.978197 430.16577148 83.5559082 C430.12028341 82.05492348 430.12028341 82.05492348 430.07387638 80.52361584 C429.40629168 62.52645774 423.29247118 46.97585597 410.51171875 34.09765625 C402.4097747 26.63158873 391.5406526 20.16305689 380.4362793 18.87841797 C379.17855713 18.73291504 377.92083496 18.58741211 376.625 18.4375 Z M87.625 95.4375 C87.04250488 95.86353516 86.46000977 96.28957031 85.85986328 96.72851562 C82.26777133 99.36904061 78.78050571 102.10388612 75.36865234 104.97363281 C74.17887317 105.97250091 72.97808544 106.95836573 71.76806641 107.93261719 C63.69118719 114.30193335 63.69118719 114.30193335 59.69921875 123.3984375 C59.48277903 126.13466717 59.49963686 128.83952833 59.56640625 131.58203125 C59.75933741 144.27690181 53.53387494 156.74216794 45.609375 166.40234375 C40.10805183 172.04444881 33.81717459 175.40672268 26.625 178.4375 C26.51243794 192.85472531 26.86671089 207.25257529 27.24609375 221.6640625 C27.31109182 224.18541121 27.37595428 226.70676342 27.44068909 229.2281189 C27.57631198 234.49114686 27.71344318 239.75413332 27.85180664 245.01708984 C27.99251031 250.36990344 28.13120112 255.72276424 28.26782227 261.07568359 C28.4344916 267.60522817 28.60320256 274.13471655 28.77357674 280.6641655 C28.83753561 283.12362541 28.90092385 285.58310025 28.96368217 288.04259109 C29.13607718 294.77507811 29.3250203 301.50672889 29.53342819 308.23819733 C29.6259287 311.46994654 29.69387982 314.70164666 29.76052856 317.934021 C29.81744389 319.9890782 29.87517604 322.044113 29.93383789 324.09912109 C29.94665771 325.02158442 29.95947752 325.94404774 29.97268581 326.89446449 C30.28744591 336.35601261 34.16655792 342.94246918 39.625 350.4375 C40.09437988 351.10861816 40.56375977 351.77973633 41.04736328 352.47119141 C47.56108193 361.7712007 54.73514009 370.28094061 62.625 378.4375 C63.09905273 378.93733398 63.57310547 379.43716797 64.06152344 379.95214844 C97.44220044 415.11669596 145.03734095 433.81058428 193.05078125 435.5625 C242.50593009 436.41242737 289.86445497 417.35862214 325.625 383.4375 C326.11436035 382.98068848 326.6037207 382.52387695 327.10791016 382.05322266 C335.65467316 374.03347899 343.2325233 365.38295846 349.95698643 355.76845932 C351.06108919 354.22553504 352.21692947 352.71825473 353.42256832 351.25329971 C359.95648215 342.56651059 359.64034885 334.47994267 359.57836914 324.07714844 C359.59278906 322.23779396 359.61012736 320.39846043 359.63014221 318.55915833 C359.67466284 313.58968775 359.67486948 308.62116505 359.66407323 303.65154171 C359.6588221 299.48940597 359.67473643 295.32745461 359.69032282 291.16535306 C359.72649374 281.33746305 359.72591662 271.51004359 359.70239258 261.68212891 C359.67885086 251.57563425 359.71750059 241.4707325 359.78692919 231.36448455 C359.84449815 222.6591102 359.86292536 213.95423751 359.85057729 205.24868226 C359.84361219 200.06178991 359.85100622 194.87598525 359.8962574 189.68926239 C359.93716702 184.80627226 359.92876844 179.92569434 359.88413048 175.04276085 C359.87577937 173.26233525 359.88407159 171.48173176 359.91126251 169.70149422 C360.08554068 157.3709789 357.70331866 149.74113123 349.93893707 140.08400488 C348.55834695 138.35397654 347.25118799 136.58371749 345.9530344 134.7911644 C334.02732783 118.32840093 318.54779754 103.66180449 301.625 92.4375 C301.02977539 92.04062988 300.43455078 91.64375977 299.82128906 91.23486328 C236.30277495 49.59108129 149.16855037 49.44575907 87.625 95.4375 Z " fill="#000000" transform="translate(59.375,-0.4375)"/>
<path d="M0 0 C5.5959017 3.06190848 8.78306834 6.47544631 10.703125 12.51513672 C21.73979847 54.12374944 8.01908207 110.3362275 -12.375 146.8125 C-25.12567236 167.16072326 -44.10809731 180.61545942 -67.43359375 186.13671875 C-87.62348497 190.32981741 -109.47248531 187.60868296 -127.22265625 176.71484375 C-134.68771701 171.81228299 -134.68771701 171.81228299 -137.6875 168.8125 C-141.08618381 169.13717101 -142.61401671 170.49180102 -144.9375 172.875 C-156.95546123 183.70903568 -173.43940322 188.52910552 -189.39453125 188.1015625 C-207.45948925 186.5157892 -223.48073205 179.25133995 -235.92578125 165.9453125 C-250.7102904 148.04654976 -257.26564498 123.3622784 -260.6875 100.8125 C-260.873125 99.67039062 -261.05875 98.52828125 -261.25 97.3515625 C-261.97941467 91.29383584 -261.87349904 85.17912489 -261.87280273 79.08642578 C-261.87498789 76.94934111 -261.8931914 74.81277495 -261.91210938 72.67578125 C-261.99684963 52.03725474 -261.99684963 52.03725474 -256.6875 45.8125 C-252.13649167 42.37602432 -248.38320081 40.99740359 -242.66015625 41.23046875 C-237.43932314 42.2526818 -232.77768116 44.66427664 -227.9765625 46.87890625 C-214.73358824 52.9433619 -200.93407802 55.99890602 -186.67138672 58.63305664 C-179.11740067 60.04111324 -171.87097303 61.79652411 -164.52441406 64.03857422 C-161.69522524 64.94409383 -161.69522524 64.94409383 -158.6875 64.8125 C-157.21254432 62.78434884 -157.21254432 62.78434884 -155.8125 60.125 C-148.1667158 47.68657539 -137.75689316 39.04880861 -124.6875 32.8125 C-123.74390625 32.35617188 -122.8003125 31.89984375 -121.828125 31.4296875 C-106.44716369 24.82003115 -89.02654547 22.4348251 -72.6875 19.25 C-52.85749519 15.33604228 -35.01556472 9.19605011 -16.56787109 0.85400391 C-10.48475085 -1.86990192 -6.31788405 -2.03457283 0 0 Z M-14.52734375 19.7890625 C-15.49728271 20.20969971 -16.46722168 20.63033691 -17.46655273 21.0637207 C-18.50884033 21.51706787 -19.55112793 21.97041504 -20.625 22.4375 C-37.51923968 29.59761366 -54.15738698 34.07583258 -72.1484375 37.53125 C-110.55627017 44.29735558 -110.55627017 44.29735558 -139.41430664 68.58520508 C-148.84444142 82.86683052 -152.27807197 99.97001908 -149 116.8203125 C-144.28684758 135.94785606 -133.72843475 151.15653912 -116.9375 161.5625 C-100.43586653 170.7932988 -83.65634605 171.46414282 -65.6875 166.8125 C-56.86042282 164.00485136 -49.89539191 159.55593133 -42.6875 153.8125 C-41.71683594 153.08933594 -41.71683594 153.08933594 -40.7265625 152.3515625 C-19.28738676 135.56885932 -12.29986893 101.02328927 -7.6875 75.8125 C-7.55472656 75.10303223 -7.42195312 74.39356445 -7.28515625 73.66259766 C-5.44022768 63.28487442 -5.51375267 52.81761604 -5.5 42.3125 C-5.49882172 41.6135965 -5.49764343 40.91469299 -5.49642944 40.1946106 C-5.49786585 32.6739218 -5.65595596 25.27262651 -6.6875 17.8125 C-9.96094346 17.8125 -11.55761298 18.4779978 -14.52734375 19.7890625 Z M-242.6875 60.8125 C-250.78672301 85.11016903 -239.42612668 120.13612204 -229.5078125 142.46875 C-222.53759936 156.12075366 -210.9271562 164.06594793 -196.6875 168.8125 C-184.27843981 171.85145352 -172.07236793 168.79083687 -161.1796875 162.5078125 C-157.54093112 160.03254562 -154.56298004 157.12960667 -151.6875 153.8125 C-152.13480469 153.09707031 -152.58210938 152.38164062 -153.04296875 151.64453125 C-166.30750574 129.78208542 -168.74925516 107.79975289 -165.6875 82.8125 C-176.71406179 79.43844166 -187.65299424 76.52011623 -199 74.4375 C-214.04966115 71.63202838 -228.69737652 67.05186255 -242.6875 60.8125 Z " fill="#000000" transform="translate(380.6875,154.1875)"/>
</svg>
