<?xml version="1.0" encoding="UTF-8"?>
<svg version="1.1" xmlns="http://www.w3.org/2000/svg" width="512" height="512">
<path d="M0 0 C4.88304759 4.89871596 9.16045266 10.11644465 13.29296875 15.65625 C13.70414948 16.1823436 14.1153302 16.70843719 14.53897095 17.25047302 C15.9375 19.25 15.9375 19.25 17.44613647 22.1832428 C21.02115386 28.34634759 21.02115386 28.34634759 26.95469856 31.92626572 C33.04589367 32.97777031 39.21903579 32.64571854 45.37109375 32.46484375 C47.37448804 32.45218423 49.37792881 32.44557602 51.38136292 32.44471741 C56.64129736 32.42961241 61.89783435 32.34728036 67.15673828 32.24609375 C75.56742447 32.09296337 83.97873648 32.03110805 92.39061165 31.99069405 C95.31508291 31.96532954 98.23718449 31.90440029 101.16099548 31.83885193 C111.38774 31.68441363 119.99405342 31.60672605 127.84934998 39.06529236 C132.39017608 43.88219525 134.17452747 48.49400145 134.24389648 55.13500977 C134.26787758 56.87821251 134.26787758 56.87821251 134.29234314 58.65663147 C134.30038719 60.53009499 134.30038719 60.53009499 134.30859375 62.44140625 C134.31762222 63.73763412 134.3266507 65.033862 134.33595276 66.36936951 C134.35241691 69.11386597 134.36013706 71.85824092 134.36303711 74.6027832 C134.36839224 78.08715664 134.40596083 81.57035483 134.45178127 85.05439854 C134.48905061 88.41255745 134.49008447 91.77054817 134.49609375 95.12890625 C134.51562607 96.36371231 134.53515839 97.59851837 134.55528259 98.8707428 C134.49789237 110.05280211 131.23973739 119.57571517 124.01171875 128.21484375 C114.0942951 137.94549859 101.84944197 140.33772106 88.59057617 142.31884766 C86.8008992 142.5950721 86.8008992 142.5950721 84.97506714 142.87687683 C81.73444449 143.37567167 78.49294525 143.86819108 75.25094008 144.357903 C71.84521791 144.87396783 68.44078504 145.39840296 65.03620911 145.92196655 C58.59764401 146.91086524 52.15802431 147.89270397 45.7179597 148.87178457 C36.26185408 150.30972766 26.80741213 151.75853705 17.35293293 153.20712852 C15.95536685 153.4212426 14.55780006 153.63535206 13.16023254 153.84945679 C12.47781236 153.95401385 11.79539219 154.05857091 11.09229261 154.16629636 C6.39550031 154.88563572 1.6982274 155.60176571 -2.9992218 156.31680298 C-4.24476334 156.50679367 -5.49030487 156.69678436 -6.77359009 156.89253235 C-9.09750077 157.24698885 -11.42154353 157.60058099 -13.7457428 157.95314026 C-14.77310547 158.11004837 -15.80046814 158.26695648 -16.85896301 158.42861938 C-17.74841016 158.56391367 -18.6378573 158.69920795 -19.55425739 158.83860207 C-25.66963204 159.61957505 -25.66963204 159.61957505 -30.078125 163.5390625 C-30.60220947 164.22500488 -31.12629395 164.91094727 -31.66625977 165.61767578 C-32.20951904 166.36259277 -32.75277832 167.10750977 -33.3125 167.875 C-33.88605225 168.6469873 -34.45960449 169.41897461 -35.05053711 170.21435547 C-47.99535588 187.89127908 -62.99166551 210.86209585 -68.0625 232.25 C-67.08603516 232.3001123 -66.10957031 232.35022461 -65.10351562 232.40185547 C-61.39795186 232.59359591 -57.69283511 232.79308061 -53.98779297 232.99462891 C-52.39968491 233.07999731 -50.81147 233.16340583 -49.22314453 233.24462891 C-24.09219784 234.5338035 -0.88502243 237.44547333 17.171875 256.94140625 C27.71139891 269.0647582 31.93732232 283.87786476 34.1875 299.5 C34.36023438 300.63824219 34.53296875 301.77648437 34.7109375 302.94921875 C35.1292722 305.71487591 35.53797319 308.48157468 35.9375 311.25 C36.51081055 311.26458252 37.08412109 311.27916504 37.67480469 311.29418945 C69.1830502 312.18837652 69.1830502 312.18837652 79.94140625 323.32421875 C87.30178573 332.12901509 88.80834291 340.75351081 88.17153931 352.04852295 C87.49650785 358.39816688 85.47021122 364.51540191 83.56738281 370.58544922 C82.81111345 373.00443497 82.09100034 375.43210797 81.375 377.86328125 C76.62664629 393.65536424 70.61670027 406.36512768 55.9375 415.125 C40.04272623 422.8760151 20.12170789 422.60317754 2.8125 424.3125 C-2.29503177 424.81696718 -7.40162883 425.32974098 -12.5078125 425.84765625 C-13.665159 425.95916519 -14.82250549 426.07067413 -16.0149231 426.18556213 C-21.5550276 426.74830808 -26.82898279 427.28549524 -32.0625 429.25 C-34.34367746 432.82053863 -34.32006277 436.09612208 -34.0625 440.25 C-33.01661034 443.08091847 -33.01661034 443.08091847 -31.47265625 445.83984375 C-30.93576172 446.87173828 -30.39886719 447.90363281 -29.84570312 448.96679688 C-29.27787109 450.02962891 -28.71003906 451.09246094 -28.125 452.1875 C-21.14194346 465.29968503 -21.14194346 465.29968503 -21.0625 471.25 C-22.40812399 474.19755732 -23.14804544 475.79277272 -26.0625 477.25 C-31.80909864 477.71343537 -31.80909864 477.71343537 -34.0625 477.25 C-37.08089226 474.60848698 -38.86145791 472.10154471 -40.53515625 468.4765625 C-40.95990234 467.5690625 -41.38464844 466.6615625 -41.82226562 465.7265625 C-42.25216797 464.78554688 -42.68207031 463.84453125 -43.125 462.875 C-43.99049351 461.01283863 -44.85636905 459.15085477 -45.72265625 457.2890625 C-46.32811279 455.97470215 -46.32811279 455.97470215 -46.94580078 454.63378906 C-47.86014258 452.68196718 -48.82715712 450.75489861 -49.80859375 448.8359375 C-52.75208472 442.76556048 -53.07451201 436.14190906 -51.37890625 429.62109375 C-48.12974883 420.79039619 -43.59054751 415.4660742 -35.11865234 411.38061523 C-29.18207177 409.18439342 -22.94264224 408.78494873 -16.6875 408.1875 C-15.20543 408.03003122 -13.72357975 407.87048204 -12.24194336 407.70898438 C-7.51775261 407.19926732 -2.79049618 406.72290658 1.9375 406.25 C7.6368707 405.6772153 13.33494334 405.09417068 19.03131104 404.49221802 C21.31786111 404.25590525 23.60561405 404.03730922 25.89404297 403.82006836 C36.52958379 402.75132162 47.25137446 401.30213151 54.9375 393.25 C60.06769074 386.39255911 62.25243825 378.7892157 64.5871582 370.66943359 C65.24809238 368.38160324 65.93610179 366.10316921 66.62695312 363.82421875 C70.77541267 350.80966911 70.77541267 350.80966911 68.3125 337.875 C64.13539753 333.25820253 59.97903972 330.57432672 53.77441406 330.07641602 C53.00838867 330.05248779 52.24236328 330.02855957 51.453125 330.00390625 C50.59976562 329.97103516 49.74640625 329.93816406 48.8671875 329.90429688 C47.09646631 329.84363806 45.32562841 329.7862858 43.5546875 329.73242188 C35.60148818 329.41596575 28.19162613 328.65129075 21.9375 323.25 C17.83692212 316.54352052 16.89488734 310.16308399 15.9375 302.4375 C13.93748941 286.46519319 9.77380636 273.66037185 -2.8125 262.875 C-17.83999335 251.69601105 -36.50115864 251.9240659 -54.4375 250.625 C-56.25263644 250.49001667 -58.06774092 250.35460278 -59.8828125 250.21875 C-64.27568985 249.89088053 -68.66895545 249.56879871 -73.0625 249.25 C-73.52064087 250.67143311 -73.52064087 250.67143311 -73.98803711 252.12158203 C-77.01273308 260.92832008 -84.98661194 268.670555 -93.16796875 272.828125 C-100.86839577 276.0921306 -107.63042075 278.21646756 -116.0625 277.25 C-118.6875 275.75 -118.6875 275.75 -120.0625 273.25 C-120.5986935 270.46635716 -120.79312369 268.00058331 -120.0625 265.25 C-116.97826658 261.04705219 -113.20454104 260.24969675 -108.375 259.0625 C-100.75834005 256.91741039 -95.66060523 253.93623559 -91.0625 247.25 C-87.96141106 241.30914985 -86.04718852 235.22812702 -85.74609375 228.53125 C-85.70411865 227.60771729 -85.66214355 226.68418457 -85.61889648 225.73266602 C-85.57966064 224.74838623 -85.5404248 223.76410645 -85.5 222.75 C-85.4575415 221.73929443 -85.41508301 220.72858887 -85.37133789 219.68725586 C-84.99070741 209.87281001 -84.96569875 200.06994882 -85.0625 190.25 C-102.25479022 204.58615169 -119.37857186 219.43016958 -133.0625 237.25 C-133.50770996 237.81879883 -133.95291992 238.38759766 -134.41162109 238.97363281 C-180.25203292 297.60347303 -197.51154737 367.273286 -193.4375 440.625 C-193.04748247 447.76371378 -193.10078685 454.69398656 -193.8125 461.8125 C-193.88645996 462.58062012 -193.96041992 463.34874023 -194.03662109 464.14013672 C-194.58202506 468.70085992 -195.62964144 472.26281513 -198.0625 476.25 C-201.27876531 477.85813266 -204.57473287 477.70492615 -208.0625 477.25 C-210.5625 475.9375 -210.5625 475.9375 -212.0625 473.25 C-212.69498735 468.28176604 -212.13457918 463.28794014 -211.7890625 458.3125 C-211.74225342 457.61084717 -211.69544434 456.90919434 -211.6472168 456.1862793 C-211.50754029 454.17127778 -211.34618185 452.15781358 -211.18359375 450.14453125 C-210.9461446 445.30364966 -211.331022 440.5258122 -211.66864014 435.69641113 C-212.19813975 427.81939633 -212.26266748 419.95498778 -212.25 412.0625 C-212.24906342 411.29831757 -212.24812683 410.53413513 -212.24716187 409.74679565 C-212.03586273 329.77475827 -178.8034159 255.85487696 -123.0625 199.25 C-116.3160868 192.61125256 -109.223586 186.4177617 -101.84375 180.4921875 C-97.67462494 177.1311232 -93.59113148 173.66944499 -89.49609375 170.21875 C-85.4716733 166.96303907 -82.6723064 166.90685316 -77.60546875 166.97265625 C-73.83158627 167.38424712 -71.82242813 168.69201783 -69.0625 171.25 C-66.56545705 175.21082675 -65.75764103 178.67099761 -65.0625 183.25 C-64.71469482 182.69538086 -64.36688965 182.14076172 -64.00854492 181.56933594 C-62.42416115 179.04509033 -60.83710892 176.52253298 -59.25 174 C-58.70279297 173.12730469 -58.15558594 172.25460938 -57.59179688 171.35546875 C-57.06005859 170.51113281 -56.52832031 169.66679687 -55.98046875 168.796875 C-55.49344482 168.02182617 -55.0064209 167.24677734 -54.50463867 166.44824219 C-53.10339254 164.31233223 -51.61797473 162.27554686 -50.0625 160.25 C-51.5784375 159.693125 -51.5784375 159.693125 -53.125 159.125 C-53.85332031 158.84785156 -54.58164062 158.57070312 -55.33203125 158.28515625 C-57.38604931 157.50645126 -59.44723179 156.74660373 -61.51171875 155.99609375 C-74.6633135 151.10052036 -90.10982834 143.17900748 -98.0625 131.25 C-98.62801375 126.88746537 -98.55572651 124.95247412 -96 121.3125 C-92.25624896 118.68390884 -90.57587036 118.70820711 -86.0625 119.25 C-83.51400293 120.64868474 -81.42802808 122.4618797 -79.25 124.375 C-78.01882321 125.39449963 -76.78443822 126.41013736 -75.546875 127.421875 C-74.95068359 127.91236328 -74.35449219 128.40285156 -73.74023438 128.90820312 C-59.95802724 139.93075994 -44.03986147 143.55775842 -26.75830841 141.94085121 C-23.42606086 141.50842899 -20.10948577 141.01499219 -16.79003906 140.4934082 C-15.54584702 140.30636826 -14.30165497 140.11932831 -13.01976013 139.92662048 C-9.65298034 139.41782686 -6.28792912 138.8997268 -2.92344761 138.37607598 C-0.09849559 137.93750771 2.72740163 137.5052004 5.55328679 137.07269257 C12.22342788 136.05153603 18.89176002 135.01912706 25.55908203 133.97973633 C32.40834348 132.91220837 39.26049648 131.86498245 46.11435676 130.82742816 C52.03172623 129.93084278 57.94697529 129.02110748 63.86074853 128.10110158 C67.37867441 127.5539815 70.89717357 127.01180044 74.41783905 126.48256874 C78.34248923 125.891971 82.26256299 125.27396807 86.18261719 124.65356445 C87.33091507 124.48452606 88.47921295 124.31548767 89.66230774 124.1413269 C98.37317981 122.72719394 106.50544218 120.45293912 112.4375 113.5625 C116.22972247 107.8741663 116.97643676 101.7870927 116.95166016 95.08203125 C116.9469873 93.81746094 116.94231445 92.55289063 116.9375 91.25 C116.36644531 91.07762314 115.79539062 90.90524628 115.20703125 90.72764587 C109.22897363 88.9186434 103.26041278 87.08055547 97.29638672 85.22583008 C95.07372644 84.53874081 92.84880054 83.85893432 90.62158203 83.18676758 C87.40805096 82.21551915 84.20376092 81.21778563 81 80.21484375 C80.01322266 79.92286606 79.02644531 79.63088837 78.00976562 79.33006287 C70.17937899 76.83380008 64.41864678 73.12679185 59.9375 66.125 C58.66807048 62.62708296 58.83815407 59.19701125 58.875 55.5078125 C58.88402344 54.33621582 58.89304687 53.16461914 58.90234375 51.95751953 C58.91974609 50.61729736 58.91974609 50.61729736 58.9375 49.25 C57.11375854 49.2814209 57.11375854 49.2814209 55.25317383 49.31347656 C50.73392557 49.38598316 46.21472854 49.43183856 41.69506836 49.46972656 C39.74055327 49.48981774 37.7860981 49.51709589 35.83178711 49.55175781 C33.01921792 49.60038601 30.20744473 49.6229936 27.39453125 49.640625 C26.52351273 49.66127014 25.6524942 49.68191528 24.75508118 49.70318604 C20.66939545 49.70469051 18.52035179 49.61636398 14.98950195 47.39697266 C12.55279588 44.84749101 10.42136413 42.20327597 8.3125 39.375 C7.43683721 38.21436115 6.5605113 37.05422236 5.68359375 35.89453125 C5.2335498 35.29592285 4.78350586 34.69731445 4.31982422 34.08056641 C-14.70726597 8.88361793 -35.31365435 -10.25875978 -67.60571289 -14.79931641 C-73.11890351 -15.49630474 -78.50485303 -15.82857856 -84.0625 -15.75 C-83.4025 -15.275625 -82.7425 -14.80125 -82.0625 -14.3125 C-79.51268813 -11.04555354 -79.41655994 -8.93827054 -79.6171875 -4.87890625 C-80.0625 -2.75 -80.0625 -2.75 -82.125 -0.1875 C-85.98189443 1.69991642 -87.80007502 2.03144458 -92.0625 1.25 C-94.39803233 -0.34616456 -96.52134581 -2.12125796 -98.69921875 -3.92578125 C-106.89627693 -10.25309723 -115.9906536 -10.83466038 -126.0625 -9.75 C-137.73279777 -6.72184693 -146.36063107 3.23796439 -154.59985352 11.44921875 C-155.74200321 12.58045427 -156.8845309 13.71130826 -158.02740479 14.84181213 C-161.11300561 17.89708489 -164.19199971 20.95892714 -167.26883435 24.02302551 C-169.19653034 25.94260251 -171.12525241 27.86114306 -173.05424309 29.77941895 C-179.10485015 35.797358 -185.1510696 41.81965903 -191.19147545 47.84783745 C-198.13554291 54.77765996 -205.09416511 61.69241822 -212.06572205 68.59458256 C-217.47370749 73.95060742 -222.86800303 79.32017807 -228.25238746 84.69992733 C-231.45950655 87.9036661 -234.67196701 91.10154656 -237.89898872 94.2852478 C-240.93769093 97.28386161 -243.95887451 100.29912349 -246.96812439 103.32728386 C-248.06690201 104.42731539 -249.17154181 105.52153214 -250.28280449 106.60894966 C-260.56484868 116.68306367 -268.24109192 127.82900054 -268.4375 142.6875 C-268.48685104 154.75202359 -264.62572953 164.56591844 -256.0625 173.25 C-246.028103 181.74502928 -231.7695871 185.87488959 -218.6953125 185.5 C-204.12830509 184.11678268 -190.80959787 180.27979765 -179.0625 171.25 C-178.29679688 170.6725 -177.53109375 170.095 -176.7421875 169.5 C-162.47292094 157.75423717 -153.09381312 140.08581657 -144.0625 124.25 C-143.65547852 123.54584961 -143.24845703 122.84169922 -142.82910156 122.11621094 C-136.50141935 111.08917714 -131.80719402 99.5529443 -127.2265625 87.70703125 C-122.97863654 76.86075769 -122.97863654 76.86075769 -119.0625 74.25 C-116.04699073 73.91494341 -113.96366456 73.68961409 -111.0625 74.25 C-108.0211248 76.75913454 -107.17832879 78.30593311 -106.69921875 82.2109375 C-106.83709563 87.76447293 -109.2780772 92.75430072 -111.375 97.8125 C-111.82431885 98.91150635 -112.2736377 100.0105127 -112.73657227 101.14282227 C-124.19718991 128.71132512 -139.11901742 156.65330939 -160.0625 178.25 C-160.63097656 178.88035156 -161.19945312 179.51070312 -161.78515625 180.16015625 C-175.94125677 195.38716745 -197.30295446 201.83630483 -217.41796875 203.4375 C-231.92967351 203.87312341 -245.89902729 200.02547365 -259.0625 194.25 C-267.19121285 203.5948195 -274.74105532 213.26310255 -282.0625 223.25 C-282.59665527 223.97380859 -283.13081055 224.69761719 -283.68115234 225.44335938 C-291.55756134 236.1262511 -299.0174443 247.00163508 -306.0625 258.25 C-306.50271484 258.9502832 -306.94292969 259.65056641 -307.39648438 260.37207031 C-322.63498545 284.69805707 -336.74452294 309.90999208 -348.55078125 336.0859375 C-348.93138702 336.92750397 -349.3119928 337.76907043 -349.70413208 338.63613892 C-351.58992447 342.8145986 -353.45479433 347.00075376 -355.29003906 351.20166016 C-355.97553894 352.73877295 -356.66139447 354.27572721 -357.34765625 355.8125 C-357.64924149 356.52062836 -357.95082672 357.22875671 -358.2615509 357.95834351 C-360.1551158 362.15420514 -361.75803127 364.47040952 -366.0625 366.25 C-369.76787805 366.18611417 -372.07967965 366.04259706 -375 363.6875 C-377.02698936 359.03734794 -376.66814061 355.02050465 -375.06225586 350.32592773 C-373.63636029 346.92870499 -372.12222549 343.58789148 -370.5625 340.25 C-370.00498868 339.031441 -369.44843656 337.81244271 -368.89282227 336.59301758 C-365.14616353 328.41034114 -361.23688475 320.32041624 -357.11376953 312.32177734 C-355.92216143 309.97342938 -354.77038941 307.607619 -353.62109375 305.23828125 C-346.76254991 291.16422916 -339.1072993 277.67623023 -331.0625 264.25 C-330.1261424 262.66936542 -329.18993315 261.08864294 -328.25390625 259.5078125 C-313.49082012 234.77194987 -296.480771 211.37879451 -278.0625 189.25 C-277.57410645 188.66299316 -277.08571289 188.07598633 -276.58251953 187.47119141 C-275.4100892 186.06336966 -274.23643466 184.65656758 -273.0625 183.25 C-274.63167767 179.94851233 -276.50926569 176.91535739 -278.4375 173.8125 C-286.63983218 159.54831899 -288.14540263 144.50091842 -285.40234375 128.3671875 C-281.50936606 114.37943217 -272.95075918 104.39327401 -262.92358398 94.43237305 C-261.70288772 93.20160346 -260.48323644 91.96979671 -259.26454163 90.73704529 C-255.97835025 87.41975257 -252.67662391 84.11836167 -249.37071872 80.82072806 C-246.60046959 78.05466449 -243.83786623 75.28102526 -241.07511288 72.50747806 C-234.55163409 65.95893502 -228.01521666 59.42351155 -221.47045898 52.89624023 C-214.74427292 46.18757191 -208.04034005 39.45724408 -201.34700149 32.7158162 C-195.57511901 26.90402784 -189.78961691 21.10604558 -183.99319893 15.31872779 C-180.54213372 11.87281904 -177.09625537 8.42212177 -173.66345024 4.95801353 C-170.43274031 1.69904698 -167.18518732 -1.54218454 -163.92453575 -4.77118492 C-162.73909611 -5.95062532 -161.55943362 -7.13590938 -160.38647079 -8.32775879 C-150.05057761 -18.81743374 -138.12708191 -27.53269759 -122.75 -28.125 C-117.37060188 -28.48901942 -112.35230793 -29.51035468 -107.125 -30.75 C-67.75611623 -39.87270381 -28.61926612 -27.98378678 0 0 Z M75.9375 49.25 C75.9375 52.55 75.9375 55.85 75.9375 59.25 C84.3295716 63.33624191 93.0778166 65.86062802 102 68.5 C103.54899155 68.96299528 105.09782118 69.42653262 106.64648438 69.890625 C110.40831863 71.01667494 114.17226803 72.1353665 117.9375 73.25 C117.99170701 70.68721301 118.03127007 68.12558517 118.0625 65.5625 C118.07925781 64.84126953 118.09601563 64.12003906 118.11328125 63.37695312 C118.16019661 58.23972164 117.50101719 54.79830069 114.83666992 50.45581055 C111.67107937 48.44593116 108.17954912 48.88625263 104.55078125 48.95703125 C103.32526802 48.96339851 103.32526802 48.96339851 102.07499695 48.96989441 C99.46632893 48.98668309 96.85843438 49.02433481 94.25 49.0625 C92.48113095 49.07754663 90.71224979 49.09123508 88.94335938 49.10351562 C84.60777504 49.13658714 80.27276864 49.1883701 75.9375 49.25 Z " fill="#000000" transform="translate(377.0625,33.75)"/>
<path d="M0 0 C3.12578143 1.6720747 5.39281175 3.7856235 7 7 C7.51512617 11.09157355 7.94367269 15.23589546 5.953125 18.95703125 C3.55501226 21.85592636 1.60351712 23.79811835 -2.171875 24.2734375 C-9.98876369 24.58137554 -9.98876369 24.58137554 -13.5625 21.625 C-17.3057723 17.59378368 -17.39037018 14.90519941 -17.359375 9.55078125 C-16.78039966 5.44131496 -15.00085071 3.78650423 -12 1 C-8.27533151 -0.86233425 -4.05504687 -0.57130829 0 0 Z " fill="#000000" transform="translate(348,327)"/>
<path d="M0 0 C3.12578143 1.6720747 5.39281175 3.7856235 7 7 C7.51512617 11.09157355 7.94367269 15.23589546 5.953125 18.95703125 C3.55501226 21.85592636 1.60351712 23.79811835 -2.171875 24.2734375 C-9.98876369 24.58137554 -9.98876369 24.58137554 -13.5625 21.625 C-17.3057723 17.59378368 -17.39037018 14.90519941 -17.359375 9.55078125 C-16.78039966 5.44131496 -15.00085071 3.78650423 -12 1 C-8.27533151 -0.86233425 -4.05504687 -0.57130829 0 0 Z " fill="#000000" transform="translate(338,66)"/>
</svg>
