<?xml version="1.0" encoding="UTF-8"?>
<svg version="1.1" xmlns="http://www.w3.org/2000/svg" width="512" height="512">
<path d="M0 0 C1.2801297 -0.01475876 1.2801297 -0.01475876 2.58612061 -0.02981567 C57.46880282 -0.53191662 105.31203189 14.3740612 145.16015625 53.23828125 C157.61672068 66.01682472 167.43394488 80.61408957 175.91015625 96.23828125 C176.48378906 97.26695313 177.05742187 98.295625 177.6484375 99.35546875 C187.21369894 117.34255809 193.34787547 137.23388165 196.91015625 157.23828125 C197.07241699 158.13708008 197.23467773 159.03587891 197.40185547 159.96191406 C201.8584211 185.89185941 202.45437783 215.03607884 196.0546875 240.6640625 C194.68226208 245.5792147 194.68226208 245.5792147 195.984375 250.28125 C197.03686327 251.60945308 198.1232488 252.91135047 199.23828125 254.1875 C206.07264662 262.57077528 205.80146386 273.71814587 205.14208984 283.97900391 C204.58731871 289.38305876 202.98767339 294.24950655 200.91015625 299.23828125 C200.55953125 300.11742187 200.20890625 300.9965625 199.84765625 301.90234375 C195.15112003 312.43693542 184.80870453 324.2238272 174.45458984 329.48632812 C169.28839613 332.02509148 169.28839613 332.02509148 165.79711914 336.38964844 C165.14011601 339.00494989 164.74524687 341.56265098 164.41015625 344.23828125 C157.49155549 384.07108393 138.72652036 421.90780712 110.91015625 451.23828125 C110.42627441 451.7600293 109.94239258 452.28177734 109.44384766 452.81933594 C87.91643916 475.92679888 56.94645444 494.81820294 24.61547852 496.39941406 C-5.53308975 496.77298612 -5.53308975 496.77298612 -18.08984375 493.23828125 C-19.31832031 492.89796875 -20.54679688 492.55765625 -21.8125 492.20703125 C-41.36358339 486.22241834 -58.64843549 475.48816828 -74.08984375 462.23828125 C-74.74597656 461.70460938 -75.40210938 461.1709375 -76.078125 460.62109375 C-79.88496086 457.49796899 -83.11288445 454.096846 -86.29296875 450.33984375 C-87.46031332 448.97455814 -88.65726568 447.63385354 -89.88671875 446.32421875 C-101.51148992 433.88283142 -110.2888427 419.28403806 -118.08984375 404.23828125 C-118.43466797 403.59052734 -118.77949219 402.94277344 -119.13476562 402.27539062 C-124.16166346 392.76054112 -127.83584537 382.7921129 -131.27734375 372.61328125 C-131.6046196 371.64677139 -131.6046196 371.64677139 -131.93850708 370.66073608 C-134.85046722 361.96755262 -136.94564651 353.33947273 -138.52734375 344.30078125 C-139.73155901 337.36166163 -139.73155901 337.36166163 -143.48046875 331.5859375 C-146.23092601 329.8098893 -146.23092601 329.8098893 -149.18359375 328.55078125 C-154.33846805 326.2227735 -158.09580532 322.16586314 -162.08984375 318.23828125 C-163.17458984 317.17287109 -163.17458984 317.17287109 -164.28125 316.0859375 C-175.48193831 304.33265356 -179.6107576 290.1131709 -179.51171875 274.23291016 C-179.25001196 265.58797715 -177.47712732 258.83318836 -171.71484375 252.23828125 C-169.95441692 250.01668467 -169.10266865 248.89468275 -169.046875 246.0390625 C-169.61935298 243.07427816 -170.35745888 240.16782073 -171.08984375 237.23828125 C-177.57539729 206.54050258 -175.06838044 173.88515362 -168.15234375 143.55078125 C-167.91177246 142.47997314 -167.67120117 141.40916504 -167.42333984 140.3059082 C-167.1805127 139.31034912 -166.93768555 138.31479004 -166.6875 137.2890625 C-166.47617432 136.40903564 -166.26484863 135.52900879 -166.04711914 134.62231445 C-164.88557414 131.72956083 -163.46950242 130.22871866 -161.08984375 128.23828125 C-157.46420709 127.08116317 -155.82721973 126.90311035 -152.33984375 128.48828125 C-150.08984375 130.23828125 -150.08984375 130.23828125 -148.08984375 133.23828125 C-147.86837622 139.90836216 -150.03171293 146.79213957 -151.52734375 153.23828125 C-157.63777648 180.91121776 -158.10724054 209.31407888 -153.08984375 237.23828125 C-152.20296875 236.90828125 -151.31609375 236.57828125 -150.40234375 236.23828125 C-147.38061028 235.32605982 -145.20610669 235.05497167 -142.08984375 235.23828125 C-142.00347656 234.15675781 -141.91710937 233.07523438 -141.828125 231.9609375 C-137.76929001 185.87072464 -122.76754607 138.56028366 -87.08984375 107.23828125 C-75.61869559 97.74434909 -63.13771593 90.65200972 -48.88452148 86.39550781 C-36.07375267 82.79339437 -36.07375267 82.79339437 -27.578125 73.03515625 C-27.08699219 72.1121875 -26.59585938 71.18921875 -26.08984375 70.23828125 C-8.2910542 47.24100578 20.95903158 36.39067589 48.91015625 32.23828125 C58.55553874 31.03485603 68.22940876 30.10733584 77.91015625 29.23828125 C31.60700359 12.46177666 -17.92340023 13.29154789 -62.70410156 34.09179688 C-73.21452414 39.14265079 -82.66881519 45.50750865 -91.890625 52.62890625 C-94.35332918 54.43616203 -96.11404614 55.24223266 -99.15234375 55.73828125 C-103.02482659 55.07913524 -104.56801338 54.27931199 -107.08984375 51.23828125 C-108.11158026 47.98788198 -108.06174299 45.50147368 -107.08984375 42.23828125 C-90.34382705 18.25335243 -46.56252202 6.42050429 -19.50073242 1.60791016 C-12.95506585 0.60435176 -6.61592073 0.06286486 0 0 Z M-8.08984375 76.23828125 C-8.08984375 76.56828125 -8.08984375 76.89828125 -8.08984375 77.23828125 C-7.29626465 77.22780762 -6.50268555 77.21733398 -5.68505859 77.20654297 C41.18758055 76.6722855 84.38796429 81.79842468 119.91015625 115.23828125 C120.5134375 115.77710937 121.11671875 116.3159375 121.73828125 116.87109375 C153.34529251 146.26266029 161.85998239 194.72045027 167.91015625 235.23828125 C171.54015625 236.22828125 175.17015625 237.21828125 178.91015625 238.23828125 C179.39307946 235.90567102 179.87155484 233.57228537 180.34765625 231.23828125 C180.48236328 230.58988281 180.61707031 229.94148437 180.75585938 229.2734375 C180.88798828 228.62246094 181.02011719 227.97148437 181.15625 227.30078125 C181.27669678 226.71425781 181.39714355 226.12773437 181.52124023 225.5234375 C183.01901771 216.72293706 183.15302706 208.01570353 183.16015625 199.11328125 C183.16083099 198.35673248 183.16150574 197.60018372 183.16220093 196.82070923 C183.09061504 146.14258397 165.70054951 98.19901878 129.84765625 61.92578125 C129.18668945 61.25530762 128.52572266 60.58483398 127.84472656 59.89404297 C124.65637127 56.72702769 121.39111921 53.66934335 117.9140625 50.8203125 C117.33599854 50.34440674 116.75793457 49.86850098 116.16235352 49.37817383 C110.66404025 46.59534189 103.65136845 47.07215889 97.58984375 47.03515625 C96.81700546 47.02814194 96.04416718 47.02112762 95.24790955 47.01390076 C92.76026533 46.9964652 90.27285937 46.99004628 87.78515625 46.98828125 C86.50927139 46.98726913 86.50927139 46.98726913 85.20761108 46.98623657 C52.55898041 47.0273727 15.97008277 51.8813186 -8.08984375 76.23828125 Z M-76.08984375 121.23828125 C-76.86070312 121.87636719 -77.6315625 122.51445312 -78.42578125 123.171875 C-83.4117554 127.42072008 -87.36925984 131.85948704 -91.08984375 137.23828125 C-90.57067383 137.06159912 -90.05150391 136.88491699 -89.51660156 136.70288086 C-75.64318037 132.02509468 -61.60677547 127.68600858 -47.21484375 124.92578125 C-46.07934082 124.70547241 -46.07934082 124.70547241 -44.92089844 124.48071289 C-27.99952636 121.43465253 -11.24609555 120.86841089 5.91015625 120.92578125 C7.60409012 120.92851547 7.60409012 120.92851547 9.33224487 120.93130493 C25.7248264 120.97588748 41.72871551 121.40258681 57.91015625 124.23828125 C58.95703613 124.4098877 60.00391602 124.58149414 61.08251953 124.75830078 C76.14001341 127.25117482 90.68488684 130.88900178 105.25390625 135.41503906 C109.46354879 136.71971872 113.68717646 137.97757064 117.91015625 139.23828125 C106.13750806 118.46084886 82.08257281 105.35214775 59.67675781 99.07592773 C15.22977669 87.30092667 -39.76229567 90.28503335 -76.08984375 121.23828125 Z M-107.16186523 165.02734375 C-109.34051146 167.52573811 -110.21272557 169.55960485 -111.2734375 172.69140625 C-111.64122314 173.77276855 -112.00900879 174.85413086 -112.38793945 175.96826172 C-112.76394287 177.12986816 -113.13994629 178.29147461 -113.52734375 179.48828125 C-113.92203857 180.69758301 -114.3167334 181.90688477 -114.72338867 183.15283203 C-121.11147444 203.25145035 -124.08602458 223.75025211 -126.68847656 244.61645508 C-127.08984375 247.23828125 -127.08984375 247.23828125 -128.08984375 250.23828125 C-129.12882812 250.32464844 -130.1678125 250.41101563 -131.23828125 250.5 C-141.39813227 251.46963764 -150.37367568 252.81430722 -157.58984375 260.73828125 C-163.23298388 267.69377956 -162.77791095 275.74065135 -162.08984375 284.23828125 C-159.69717028 295.05969083 -152.8993958 306.18462495 -143.47509766 312.28320312 C-136.33870029 316.62945688 -136.33870029 316.62945688 -128.7890625 320.15625 C-125.8275669 322.04207593 -125.29110628 325.40254274 -124.49902344 328.69165039 C-124.25780762 329.96963501 -124.25780762 329.96963501 -124.01171875 331.2734375 C-123.82391846 332.23701172 -123.63611816 333.20058594 -123.44262695 334.19335938 C-123.2437085 335.21880859 -123.04479004 336.24425781 -122.83984375 337.30078125 C-113.26332176 384.41400755 -90.1348985 432.63612553 -49.08984375 460.23828125 C-23.57425522 476.54775607 5.10607372 483.98916949 35.13867188 477.77734375 C71.11856605 469.32678143 100.39329114 443.32167119 119.61303711 412.51586914 C135.17255218 386.71343457 145.11607524 358.56392637 150.66894531 328.98608398 C151.33720258 325.4965134 151.91084667 323.23724562 153.91015625 320.23828125 C156.04411262 319.13114797 158.21784045 318.09982336 160.41015625 317.11328125 C172.56227008 311.32760116 181.00566223 302.50542694 186.28515625 290.11328125 C188.7957433 282.5709269 189.53344099 274.0349546 186.95703125 266.421875 C183.22341702 259.25002741 178.1427826 255.96365283 170.74609375 253.109375 C166.71266664 251.87045731 162.6608082 251.31365025 158.4765625 250.828125 C155.4669161 250.13641023 154.73423569 249.69738489 152.91015625 247.23828125 C152.20581055 244.08154297 152.20581055 244.08154297 151.734375 240.16796875 C151.54777093 238.71123163 151.36091139 237.25452722 151.17382812 235.79785156 C151.08029053 235.03331665 150.98675293 234.26878174 150.89038086 233.4810791 C148.31816031 212.67483977 144.62054873 191.83446148 136.91015625 172.23828125 C136.57371094 171.24183594 136.23726563 170.24539062 135.890625 169.21875 C130.97667852 161.82359977 121.04687475 158.78077583 113.03515625 155.73828125 C111.53251221 155.16255371 111.53251221 155.16255371 109.99951172 154.57519531 C50.82581691 132.25996917 -54.28157772 119.3684835 -107.16186523 165.02734375 Z " fill="#000000" transform="translate(243.08984375,7.76171875)"/>
<path d="M0 0 C3.03721115 0.68789043 4.10571795 2.03837704 6.03515625 4.4609375 C7.10700996 6.82069921 8.03771627 9.09505945 8.91015625 11.5234375 C12.86091751 21.88711966 17.76050161 31.02414924 25.03515625 39.4609375 C25.65648438 40.21246094 26.2778125 40.96398437 26.91796875 41.73828125 C32.03834675 47.43299823 37.56259579 50.61335623 44.45092773 53.72290039 C48.30936187 55.47707493 51.38667458 57.01190721 54.03515625 60.4609375 C54.56640625 62.4609375 54.56640625 62.4609375 54.53515625 64.4609375 C54.550625 65.4509375 54.550625 65.4509375 54.56640625 66.4609375 C53.77320037 69.44712434 52.43699369 70.51514515 50.03515625 72.4609375 C46.74564892 74.32608452 43.30715433 75.87102535 39.87890625 77.4609375 C35.88326349 79.36930419 33.08842646 81.17280035 30.03515625 84.4609375 C29.37515625 84.4609375 28.71515625 84.4609375 28.03515625 84.4609375 C27.75929688 85.06164062 27.4834375 85.66234375 27.19921875 86.28125 C26.03515625 88.4609375 26.03515625 88.4609375 23.41015625 91.3359375 C15.95436041 99.89831131 11.33645991 110.42372114 7.38110352 120.95068359 C5.34075379 126.25720581 5.34075379 126.25720581 2.03515625 128.4609375 C-5.03694406 129.13447086 -5.03694406 129.13447086 -7.98828125 126.9921875 C-10.72816234 123.48340698 -12.06842426 119.71853855 -13.65234375 115.5859375 C-21.24606169 96.82225525 -31.6433384 82.59834773 -50.4609375 74.21484375 C-53.73827536 72.57434799 -55.74599583 71.34710811 -57.96484375 68.4609375 C-58.49609375 66.4609375 -58.49609375 66.4609375 -58.46484375 64.4609375 C-58.47515625 63.8009375 -58.48546875 63.1409375 -58.49609375 62.4609375 C-57.70572221 59.4854211 -56.35582051 58.39211103 -53.96484375 56.4609375 C-52.16821106 55.57071409 -50.36770081 54.6855445 -48.53320312 53.8762207 C-30.23054754 45.77699315 -20.4098348 30.61814589 -12.96484375 12.4609375 C-11.43592539 8.46830695 -11.43592539 8.46830695 -9.95703125 4.45703125 C-7.78966112 0.09669212 -4.42657884 0.18763918 0 0 Z M-2.96484375 32.4609375 C-4.35037202 34.51943665 -5.63372318 36.58192132 -6.90234375 38.7109375 C-13.02530026 48.59535532 -20.23752554 56.9760587 -29.96484375 63.4609375 C-29.96484375 64.1209375 -29.96484375 64.7809375 -29.96484375 65.4609375 C-28.53068977 66.68251333 -27.03968859 67.83761287 -25.52734375 68.9609375 C-16.49354873 76.05800919 -10.24189249 84.08735323 -4.59375 93.96875 C-4.05621094 94.79117188 -3.51867187 95.61359375 -2.96484375 96.4609375 C-2.30484375 96.4609375 -1.64484375 96.4609375 -0.96484375 96.4609375 C0.42068452 94.40243835 1.70403568 92.33995368 2.97265625 90.2109375 C9.09561276 80.32651968 16.30783804 71.9458163 26.03515625 65.4609375 C26.03515625 64.8009375 26.03515625 64.1409375 26.03515625 63.4609375 C24.60100227 62.23936167 23.11000109 61.08426213 21.59765625 59.9609375 C12.56386123 52.86386581 6.31220499 44.83452177 0.6640625 34.953125 C0.12652344 34.13070312 -0.41101563 33.30828125 -0.96484375 32.4609375 C-1.62484375 32.4609375 -2.28484375 32.4609375 -2.96484375 32.4609375 Z " fill="#000000" transform="translate(65.96484375,367.5390625)"/>
<path d="M0 0 C3.03823823 0.68812305 4.10756613 2.03577838 6.03515625 4.4609375 C7.08132722 6.81973048 7.99151945 9.10051838 8.84765625 11.5234375 C14.252426 25.80015503 21.18615174 34.27588344 34.77734375 41.1640625 C37.03515625 42.4609375 37.03515625 42.4609375 38.03515625 44.4609375 C38.62183378 51.73573889 38.62183378 51.73573889 36.34765625 54.546875 C33.90716733 56.56687427 31.57333335 57.84003196 28.72265625 59.2109375 C15.94664587 66.09032771 11.16191972 79.13598247 5.66015625 91.8984375 C4.03515625 95.4609375 4.03515625 95.4609375 2.03515625 96.4609375 C-5.19552971 97.04405734 -5.19552971 97.04405734 -8.046875 94.8828125 C-10.37628553 91.94139799 -11.54324138 88.89102209 -12.77734375 85.3984375 C-18.1821135 71.12171997 -25.11583924 62.64599156 -38.70703125 55.7578125 C-40.96484375 54.4609375 -40.96484375 54.4609375 -41.96484375 52.4609375 C-42.55144539 45.18707717 -42.55144539 45.18707717 -40.2734375 42.3671875 C-37.8469419 40.36358369 -35.56180718 39.16180904 -32.71484375 37.8359375 C-20.6910456 31.408322 -14.58002805 18.15058187 -10.21484375 5.7109375 C-8.15142586 0.34605099 -5.38362193 0.22820748 0 0 Z M-2.96484375 31.4609375 C-4.29856535 33.14207444 -5.55755491 34.88289228 -6.77734375 36.6484375 C-9.60371024 40.64344733 -12.34411942 44.17965608 -15.96484375 47.4609375 C-14.48382945 50.8450168 -12.53606207 53.20285003 -10.02734375 55.8984375 C-7.80445465 58.28752392 -5.98725392 60.42261987 -4.3359375 63.24609375 C-3.88347656 63.97699219 -3.43101562 64.70789063 -2.96484375 65.4609375 C-2.30484375 65.4609375 -1.64484375 65.4609375 -0.96484375 65.4609375 C0.36887785 63.77980056 1.62786741 62.03898272 2.84765625 60.2734375 C5.67402274 56.27842767 8.41443192 52.74221892 12.03515625 49.4609375 C10.55414195 46.0768582 8.60637457 43.71902497 6.09765625 41.0234375 C3.87476715 38.63435108 2.05756642 36.49925513 0.40625 33.67578125 C-0.27244141 32.57943359 -0.27244141 32.57943359 -0.96484375 31.4609375 C-1.62484375 31.4609375 -2.28484375 31.4609375 -2.96484375 31.4609375 Z " fill="#000000" transform="translate(465.96484375,335.5390625)"/>
<path d="M0 0 C3.03823823 0.68812305 4.10756613 2.03577838 6.03515625 4.4609375 C7.08132722 6.81973048 7.99151945 9.10051838 8.84765625 11.5234375 C14.252426 25.80015503 21.18615174 34.27588344 34.77734375 41.1640625 C37.03515625 42.4609375 37.03515625 42.4609375 38.03515625 44.4609375 C38.62183378 51.73573889 38.62183378 51.73573889 36.34765625 54.546875 C33.90716733 56.56687427 31.57333335 57.84003196 28.72265625 59.2109375 C15.94664587 66.09032771 11.16191972 79.13598247 5.66015625 91.8984375 C4.03515625 95.4609375 4.03515625 95.4609375 2.03515625 96.4609375 C-5.19552971 97.04405734 -5.19552971 97.04405734 -8.046875 94.8828125 C-10.37628553 91.94139799 -11.54324138 88.89102209 -12.77734375 85.3984375 C-18.1821135 71.12171997 -25.11583924 62.64599156 -38.70703125 55.7578125 C-40.96484375 54.4609375 -40.96484375 54.4609375 -41.96484375 52.4609375 C-42.55144539 45.18707717 -42.55144539 45.18707717 -40.2734375 42.3671875 C-37.8469419 40.36358369 -35.56180718 39.16180904 -32.71484375 37.8359375 C-20.6910456 31.408322 -14.58002805 18.15058187 -10.21484375 5.7109375 C-8.15142586 0.34605099 -5.38362193 0.22820748 0 0 Z M-2.96484375 31.4609375 C-4.29856535 33.14207444 -5.55755491 34.88289228 -6.77734375 36.6484375 C-9.60371024 40.64344733 -12.34411942 44.17965608 -15.96484375 47.4609375 C-14.48382945 50.8450168 -12.53606207 53.20285003 -10.02734375 55.8984375 C-7.80445465 58.28752392 -5.98725392 60.42261987 -4.3359375 63.24609375 C-3.88347656 63.97699219 -3.43101563 64.70789063 -2.96484375 65.4609375 C-2.30484375 65.4609375 -1.64484375 65.4609375 -0.96484375 65.4609375 C0.36887785 63.77980056 1.62786741 62.03898272 2.84765625 60.2734375 C5.67402274 56.27842767 8.41443192 52.74221892 12.03515625 49.4609375 C10.55414195 46.0768582 8.60637457 43.71902497 6.09765625 41.0234375 C3.87476715 38.63435108 2.05756642 36.49925513 0.40625 33.67578125 C-0.27244141 32.57943359 -0.27244141 32.57943359 -0.96484375 31.4609375 C-1.62484375 31.4609375 -2.28484375 31.4609375 -2.96484375 31.4609375 Z " fill="#000000" transform="translate(97.96484375,31.5390625)"/>
<path d="M0 0 C3.04297685 0.68919629 4.10762846 2.02802132 6.03515625 4.4609375 C7.07704219 6.86034774 7.98794148 9.18856176 8.84765625 11.6484375 C12.67386199 21.74645245 17.27519005 28.11539651 26.99609375 33.26953125 C29.03515625 34.4609375 29.03515625 34.4609375 30.03515625 36.4609375 C30.61242624 43.61908543 30.61242624 43.61908543 28.53515625 46.6484375 C26.03515625 48.4609375 26.03515625 48.4609375 24.234375 49.45703125 C14.67781302 54.81983982 10.61940474 63.48095775 7.07568359 73.45849609 C5.78707657 77.01024808 5.28267007 78.29592828 2.03515625 80.4609375 C-5.07138306 81.13775077 -5.07138306 81.13775077 -8.04296875 78.88671875 C-10.40002465 75.91165429 -11.54166033 72.80906093 -12.77734375 69.2734375 C-16.60354949 59.17542255 -21.20487755 52.80647849 -30.92578125 47.65234375 C-32.96484375 46.4609375 -32.96484375 46.4609375 -33.96484375 44.4609375 C-34.54128485 37.31306783 -34.54128485 37.31306783 -32.52734375 34.3359375 C-29.96484375 32.4609375 -29.96484375 32.4609375 -27.94140625 31.27734375 C-17.80580416 25.17176775 -13.79785672 16.04743014 -10.10546875 5.11328125 C-8.00395619 0.22654484 -4.91715076 0.20843414 0 0 Z M-2.96484375 31.4609375 C-4.77178131 33.24706061 -4.77178131 33.24706061 -6.58984375 35.4609375 C-7.22148437 36.2034375 -7.853125 36.9459375 -8.50390625 37.7109375 C-9.22707031 38.5771875 -9.22707031 38.5771875 -9.96484375 39.4609375 C-8.69104656 42.19900622 -7.31241187 44.42691125 -5.33984375 46.7109375 C-4.55609375 47.6184375 -3.77234375 48.5259375 -2.96484375 49.4609375 C1.30941205 47.8778798 3.30047419 44.95525346 6.03515625 41.4609375 C4.36113647 37.50416348 1.9036634 34.61629537 -0.96484375 31.4609375 C-1.62484375 31.4609375 -2.28484375 31.4609375 -2.96484375 31.4609375 Z " fill="#000000" transform="translate(465.96484375,23.5390625)"/>
<path d="M0 0 C1.5234375 1.3125 1.5234375 1.3125 3.0625 3 C13.93264022 14.79422373 28.78549558 20.1275354 44.5 21.25 C61.32239968 20.9239845 75.80157453 14.10311308 87.671875 2.34375 C89.65225687 0.42725142 91.2438418 -0.91872388 94.03515625 -1.21875 C97.2206828 -0.9874958 99.50946271 -0.39856155 102 1.625 C103.48973504 5.16312073 103.63759541 7.17442754 103 11 C101.03564228 14.05362773 98.595803 16.47684074 96 19 C95.05640625 19.99193359 95.05640625 19.99193359 94.09375 21.00390625 C84.70557444 30.22959416 71.84845166 35.75539097 59 38 C58.3090625 38.12890625 57.618125 38.2578125 56.90625 38.390625 C54.93155674 38.6981592 52.99475163 38.87695925 51 39 C50.15566406 39.05285156 49.31132812 39.10570312 48.44140625 39.16015625 C28.01067302 39.79775037 9.47656934 33.51825087 -5.64453125 19.55859375 C-12.86331195 12.47623095 -12.86331195 12.47623095 -13.3125 7.625 C-13 4 -13 4 -11.125 1.625 C-7.1001055 -1.4528605 -4.9462108 -1.29736677 0 0 Z " fill="#000000" transform="translate(211,373)"/>
<path d="M0 0 C4.40432776 4.35210253 7.401653 8.76128253 8.9765625 14.765625 C8.9765625 17.96105612 8.92434653 19.44883124 6.9765625 21.953125 C4.36342089 23.98556848 2.89244584 23.95159561 -0.4609375 23.890625 C-5.87680049 22.4653979 -8.04591855 19.24767713 -11.3359375 14.890625 C-16.37967903 9.37769821 -22.10531022 7.32889128 -29.50390625 6.8515625 C-36.07032886 7.1162555 -41.99731341 9.80110945 -47.0234375 13.953125 C-48.94103434 16.25505032 -50.74665802 18.60377306 -52.5078125 21.02734375 C-54.0234375 22.953125 -54.0234375 22.953125 -56.0234375 23.953125 C-59.90328003 24.20615821 -62.79707955 24.25766639 -66.0234375 21.953125 C-67.98882234 19.42620163 -68.0234375 17.93154806 -68.0234375 14.703125 C-65.79236311 6.33659604 -58.93043801 -0.11931976 -52.0234375 -5.046875 C-34.66886115 -14.17610527 -15.22295851 -12.73192894 0 0 Z " fill="#000000" transform="translate(345.0234375,223.046875)"/>
<path d="M0 0 C4.27581417 3.94478339 8.60233904 8.21081536 10.81640625 13.67578125 C10.74125576 17.88420889 10.46839228 19.94928253 7.62890625 23.11328125 C4.25365446 24.98842113 2.61564285 25.38813811 -1.18359375 24.67578125 C-3.87109375 22.36328125 -3.87109375 22.36328125 -6.18359375 19.67578125 C-6.78171875 19.11890625 -7.37984375 18.56203125 -7.99609375 17.98828125 C-9.18359375 16.67578125 -9.18359375 16.67578125 -9.18359375 14.67578125 C-10.05757812 14.24458984 -10.05757812 14.24458984 -10.94921875 13.8046875 C-12.32687852 13.10863213 -13.69436236 12.39142478 -15.04296875 11.640625 C-21.5370775 8.11180144 -26.98033661 6.88790327 -34.18359375 8.73828125 C-42.07637831 11.40968525 -46.75383509 15.71473193 -51.18359375 22.67578125 C-53.92112243 24.84692469 -55.18212231 24.67585869 -58.74609375 24.48828125 C-62.18359375 23.67578125 -62.18359375 23.67578125 -64.05859375 22.55078125 C-65.94930538 19.39959521 -66.24332894 17.37936282 -66.18359375 13.67578125 C-61.75908575 3.69824702 -52.73110603 -3.30993394 -42.86328125 -7.35546875 C-27.82685499 -12.79137795 -12.53459177 -10.12711276 0 0 Z " fill="#000000" transform="translate(224.18359375,222.32421875)"/>
<path d="M0 0 C1.88671875 1.078125 1.88671875 1.078125 3.8125 2.375 C12.80701414 8.29696065 22.4204634 8.99079947 33 8 C39.03973177 6.68915973 44.21594669 4.68283733 49.3125 1.1875 C52.3122278 -0.8435657 52.92762173 -1 56.8125 -1 C61.47826087 0.46376812 61.47826087 0.46376812 63 3 C63.95888703 6.69856425 64.4685524 8.97303584 62.859375 12.5 C57.24529174 20.04834724 46.22249871 23.74667402 37.24609375 25.5546875 C19.90305258 27.93387726 4.21288918 25.07328021 -10.125 14.75 C-12.54260737 12.49356646 -12.94556188 11.48994311 -13.3125 8.1875 C-12.92835642 4.2692355 -11.70743683 2.78706733 -9 0 C-5.76550476 -1.61724762 -3.48030294 -0.78587486 0 0 Z " fill="#000000" transform="translate(171,277)"/>
<path d="M0 0 C3.36138001 0.82656886 4.86912245 1.46595047 7.625 3.3125 C16.61516122 9.23159469 26.23728572 9.93681931 36.8125 8.9375 C42.34039706 7.70556866 47.53009341 6.03545736 52.1875 2.75 C55.22032619 0.65590573 57.13402573 0.01576541 60.8125 -0.0625 C64.34156067 1.54161848 65.64022908 2.67909362 67.8125 5.9375 C68.02917507 12.54608968 68.02917507 12.54608968 65.34375 15.6171875 C52.29224539 25.94071369 36.94377956 28.11726773 20.8125 26.9375 C11.28133491 25.61094018 0.91188741 21.92869281 -6.375 15.4375 C-8.54848061 12.43959571 -9.1875 10.64202558 -9.1875 6.9375 C-7.1532896 2.46223711 -5.19491468 -0.10186107 0 0 Z " fill="#000000" transform="translate(286.1875,276.0625)"/>
</svg>
