<?xml version="1.0" encoding="UTF-8"?>
<svg version="1.1" xmlns="http://www.w3.org/2000/svg" width="512" height="512">
<path d="M0 0 C7.53330197 4.08522346 13.81195073 10.14892371 20 16 C20.67804688 16.62519531 21.35609375 17.25039063 22.0546875 17.89453125 C72.99698697 66.48407392 86.93719819 147.9636792 91.60546875 215.03515625 C91.87201512 218.73856664 92.2921215 222.34980914 93 226 C93.99 225.34 94.98 224.68 96 224 C98.52775378 223.85901207 100.93907717 223.8333561 103.4621582 223.90332031 C105.03412011 223.92911585 106.60608586 223.95467853 108.17805481 223.9800415 C109.01193033 223.99694283 109.84580585 224.01384415 110.70495033 224.03125763 C115.14215636 224.11137077 119.57978284 224.12659956 124.01757812 224.15234375 C129.65596988 224.18786649 135.29189594 224.24219503 140.92895508 224.37353516 C145.49156367 224.47812645 150.05023496 224.51264809 154.61397362 224.50258636 C156.34156078 224.51116973 158.06922986 224.54443138 159.79580116 224.60428619 C167.51699216 224.86095739 174.06958833 225.00580262 180.2071228 219.81628418 C183.30345758 216.86369409 186.1160551 213.71640622 188.78552532 210.37462997 C191.0230796 207.84200477 192.39998342 207.96774327 195.875 207.6875 C198.72416486 207.53041677 199.75543473 207.82349781 202.10101318 209.51629639 C204.72877511 212.95317217 204.5315098 216.01459175 204.45410156 220.16503906 C204.45468567 220.9849231 204.45526978 221.80480713 204.45587158 222.64953613 C204.4530883 225.35533211 204.42198549 228.06002185 204.390625 230.765625 C204.38316346 232.6432027 204.37747012 234.52078819 204.37347412 236.39837646 C204.35821091 241.33709258 204.31892313 246.2753372 204.2746582 251.21386719 C204.22652113 257.14092261 204.20817476 263.0681358 204.18484497 268.99533081 C204.14607256 277.99721501 204.06942366 286.99806491 204 296 C230.4 296 256.8 296 284 296 C283.95359375 289.98265625 283.9071875 283.9653125 283.859375 277.765625 C283.83893915 273.95571194 283.81968361 270.14586636 283.8046875 266.3359375 C283.78076697 260.28729231 283.75245561 254.2388891 283.69824219 248.19042969 C283.65481161 243.31452532 283.6308686 238.4388804 283.62049103 233.56279755 C283.61309465 231.70161606 283.59865134 229.84044892 283.57707977 227.97937775 C283.54808256 225.37428496 283.54404241 222.77026702 283.54589844 220.16503906 C283.53151733 219.39395813 283.51713623 218.6228772 283.50231934 217.82843018 C283.52911122 214.357851 283.73100461 212.36870984 285.80244446 209.52940369 C288.43736779 207.69561092 290.53213763 207.30483364 293.73117065 207.48110962 C298.4532276 208.561063 302.22153656 211.45816753 306.16015625 214.16796875 C307.10886093 214.79979568 308.05756561 215.43162262 309.03501892 216.08259583 C312.05600024 218.1005556 315.05906288 220.14354436 318.0625 222.1875 C320.08547653 223.54397758 322.10955497 224.89881335 324.13476562 226.25195312 C329.44206131 229.80734293 334.73683341 233.37954747 340 237 C340.70712128 237.48360992 341.41424255 237.96721985 342.14279175 238.46548462 C346.88048769 241.76097538 346.88048769 241.76097538 348 244 C348.91638694 250.6438053 348.91638694 250.6438053 346.76489258 253.82788086 C345.93187622 254.73098999 345.93187622 254.73098999 345.08203125 255.65234375 C344.44668457 256.34392578 343.81133789 257.03550781 343.15673828 257.74804688 C339.21653436 261.86220138 335.22490028 265.91871955 331.1875 269.9375 C330.32962891 270.79923828 329.47175781 271.66097656 328.58789062 272.54882812 C327.76869141 273.36673828 326.94949219 274.18464844 326.10546875 275.02734375 C325.36449951 275.76718506 324.62353027 276.50702637 323.86010742 277.26928711 C320.73366355 280.17824637 318.23330867 280.35466617 313.9765625 280.26953125 C312 280 312 280 309.5 278.5 C307.80889775 275.68149626 307.24496102 273.43084277 307.43359375 270.1328125 C308.58746785 265.78787969 311.86157244 263.05569221 315 260 C315.88816406 259.10023438 316.77632813 258.20046875 317.69140625 257.2734375 C320.1102046 254.83055439 322.5470578 252.40852273 325 250 C322.28145829 247.12860855 319.56038468 244.89768249 316.234375 242.765625 C314.90019531 241.90517578 314.90019531 241.90517578 313.5390625 241.02734375 C312.61867188 240.44082031 311.69828125 239.85429687 310.75 239.25 C309.81414062 238.64800781 308.87828125 238.04601562 307.9140625 237.42578125 C305.61221002 235.94601894 303.30749196 234.47094667 301 233 C300.51849391 242.7880762 300.22787598 252.57707337 300.0625 262.375 C300.04965973 263.13098606 300.03681946 263.88697212 300.02359009 264.66586685 C299.52210081 298.30615761 304.60905688 330.56613946 310.66430664 363.57373047 C310.92461245 364.99491385 310.92461245 364.99491385 311.19017696 366.44480801 C312.01053166 370.90750763 312.8453723 375.36643109 313.71324158 379.82014465 C317.71508785 400.64778284 317.71508785 400.64778284 314.625 406.6875 C311.68206862 408.15896569 310.08620393 408.13716501 306.8359375 408.08203125 C305.93149902 408.07018799 305.02706055 408.05834473 304.09521484 408.04614258 C303.40379395 408.03091553 302.71237305 408.01568848 302 408 C302.07516846 408.66763367 302.15033691 409.33526733 302.2277832 410.02313232 C303.00899876 416.96564676 303.78713529 423.90850135 304.56347656 430.8515625 C304.85370023 433.44344818 305.14471155 436.03524578 305.43652344 438.62695312 C305.85558362 442.35003203 306.27181963 446.07341742 306.6875 449.796875 C306.81874268 450.95741394 306.94998535 452.11795288 307.08520508 453.31365967 C307.20532959 454.39447815 307.3254541 455.47529663 307.44921875 456.58886719 C307.55580811 457.53928894 307.66239746 458.48971069 307.7722168 459.46893311 C308 462 308 462 308 466 C308.53367187 466.13535156 309.06734375 466.27070313 309.6171875 466.41015625 C320.45252435 469.54078126 330.48350506 476.97800422 336.60546875 486.49609375 C340.12460784 493.28793362 341.50870774 500.4148418 340 508 C337.75373248 511.01624479 336.56820861 511.90945481 332.8125 512.50793457 C330.9253125 512.51270813 330.9253125 512.51270813 329 512.51757812 C328.30358398 512.5245874 327.60716797 512.53159668 326.88964844 512.53881836 C324.59269068 512.55639196 322.29696979 512.54477919 320 512.53125 C318.40103927 512.53394513 316.80208013 512.53782773 315.203125 512.54284668 C311.85400774 512.54874082 308.50531757 512.54018192 305.15625 512.52148438 C300.86521409 512.49869435 296.57517889 512.51181796 292.28417969 512.53577423 C288.98299634 512.5502348 285.68204989 512.54562515 282.38085938 512.53526306 C280.79882692 512.53259646 279.21677289 512.53586322 277.63476562 512.54518127 C275.42259837 512.55535179 273.212047 512.5398419 271 512.51757812 C269.1128125 512.51280457 269.1128125 512.51280457 267.1875 512.50793457 C264 512 264 512 261.59275818 510.29563904 C259.67639989 507.53359584 259.50961581 506.09248086 259.51586914 502.75219727 C259.49537758 501.15612892 259.49537758 501.15612892 259.47447205 499.52781677 C259.47357323 497.78348106 259.47357323 497.78348106 259.47265625 496.00390625 C259.26775639 484.68549815 258.53867237 473.53467329 257.37109375 462.27734375 C257.29401814 461.52812275 257.21694252 460.77890175 257.13753128 460.00697708 C256.66440655 455.42566175 256.17776889 450.84586969 255.68640137 446.26647949 C255.18206644 441.54739855 254.69033798 436.8269886 254.19754887 432.10669041 C253.81584873 428.45134089 253.43211812 424.79625057 253.04161072 421.14183044 C252.90469315 419.85100052 252.76777557 418.56017059 252.62670898 417.23022461 C252.50537094 416.09556259 252.3840329 414.96090057 252.25901794 413.79185486 C252 411 252 411 252 408 C250.02 407.67 248.04 407.34 246 407 C245.67 406.01 245.34 405.02 245 404 C244.34 404 243.68 404 243 404 C242.67 404.99 242.34 405.98 242 407 C240.02 407.33 238.04 407.66 236 408 C235.89453857 409.14549316 235.78907715 410.29098633 235.68041992 411.47119141 C235.27526683 415.86826858 234.86864558 420.26520903 234.46157837 424.66210938 C234.27877196 426.6383157 234.0962975 428.61455277 233.91415405 430.59082031 C232.09974321 450.26699038 232.09974321 450.26699038 231.1015625 459.5859375 C230.83849769 462.05728699 230.57547453 464.52864091 230.3125 467 C230.18697754 468.17369141 230.06145508 469.34738281 229.93212891 470.55664062 C228.95434495 480.21849475 228.57798515 489.86722986 228.55395508 499.578125 C228.53743896 500.62742187 228.52092285 501.67671875 228.50390625 502.7578125 C228.50205322 503.6770752 228.5002002 504.59633789 228.49829102 505.54345703 C227.82076223 508.88363079 226.67695195 509.90991235 224 512 C220.8125 512.50793457 220.8125 512.50793457 217 512.51757812 C216.30358398 512.5245874 215.60716797 512.53159668 214.88964844 512.53881836 C212.59269068 512.55639196 210.29696979 512.54477919 208 512.53125 C206.40103927 512.53394513 204.80208013 512.53782773 203.203125 512.54284668 C199.85400774 512.54874082 196.50531757 512.54018192 193.15625 512.52148438 C188.86521409 512.49869435 184.57517889 512.51181796 180.28417969 512.53577423 C176.98299634 512.5502348 173.68204989 512.54562515 170.38085938 512.53526306 C168.79882692 512.53259646 167.21677289 512.53586322 165.63476562 512.54518127 C163.42259837 512.55535179 161.212047 512.5398419 159 512.51757812 C157.1128125 512.51280457 157.1128125 512.51280457 155.1875 512.50793457 C151.43180657 511.90945723 150.24930855 511.01309192 148 508 C146.27667157 499.94288005 148.13415723 492.82514491 152.11328125 485.78515625 C158.09101283 476.96088582 167.27127109 468.85827362 177.859375 466.3125 C178.56578125 466.209375 179.2721875 466.10625 180 466 C180.14695312 464.24429688 180.14695312 464.24429688 180.296875 462.453125 C181.86589958 444.26620963 183.9415442 426.13658359 186 408 C185.3085791 408.01522705 184.6171582 408.0304541 183.90478516 408.04614258 C183.00034668 408.05798584 182.0959082 408.0698291 181.1640625 408.08203125 C180.2663916 408.0972583 179.3687207 408.11248535 178.44384766 408.12817383 C176 408 176 408 173.375 406.6875 C169.03667598 398.2080485 173.05739447 386.06268165 174.77768135 377.1486969 C175.66080749 372.5446867 176.49612054 367.93194091 177.33569336 363.31982422 C177.51251616 362.3505109 177.68933897 361.38119759 177.87152004 360.38251114 C183.67091958 328.49939809 188.53616209 297.35312263 187.9375 264.875 C187.92465973 264.17404961 187.91181946 263.47309921 187.89859009 262.7509079 C187.73533114 254.49446042 187.44700657 246.24613935 187 238 C185.515 238.99 185.515 238.99 184 240 C181.17672295 240.19476848 178.45242374 240.27294733 175.62890625 240.25878906 C174.34800613 240.26404602 174.34800613 240.26404602 173.04122925 240.26940918 C170.21490379 240.27822094 167.38882807 240.27237929 164.5625 240.265625 C162.60099235 240.26697181 160.63948502 240.26891247 158.67797852 240.27142334 C154.56556014 240.27437385 150.4532286 240.27007928 146.34082031 240.26074219 C141.06457101 240.24934772 135.78852516 240.25590758 130.51228333 240.26788712 C126.46145082 240.27510767 122.41066671 240.27281688 118.35983276 240.26763153 C116.41413346 240.26629558 114.4684298 240.26794086 112.5227356 240.27259064 C109.80540295 240.27765904 107.08840167 240.2699412 104.37109375 240.25878906 C103.16004471 240.26486176 103.16004471 240.26486176 101.92453003 240.27105713 C98.08638179 240.24181529 96.27033697 240.18022465 93 238 C92.99413376 238.72692551 92.98826752 239.45385101 92.98222351 240.20280457 C91.60930863 403.50353432 91.60930863 403.50353432 51.3125 497.75 C50.95623535 498.39364502 50.5999707 499.03729004 50.23291016 499.70043945 C44.47098969 509.76450516 44.47098969 509.76450516 40 512 C34.4960128 512.52611642 31.57870539 512.39634036 27.13061523 508.74829102 C26.59251221 508.27447998 26.05440918 507.80066895 25.5 507.3125 C24.91613525 506.82644287 24.33227051 506.34038574 23.73071289 505.83959961 C22.47454696 504.79309829 21.22479802 503.73885522 19.98095703 502.67773438 C17.20893232 500.33002008 14.38137772 498.05356793 11.5546875 495.7722168 C9.52985942 494.13708406 7.51187149 492.49392595 5.49609375 490.84765625 C2.67759113 488.54797112 -0.15465125 486.26644862 -3 484 C-5.76655418 485.29108381 -8.04962067 486.7064804 -10.3984375 488.65234375 C-11.03628174 489.17658936 -11.67412598 489.70083496 -12.33129883 490.2409668 C-13.00572021 490.80082275 -13.6801416 491.36067871 -14.375 491.9375 C-15.8026354 493.11028859 -17.23103635 494.28214582 -18.66015625 495.453125 C-19.38090332 496.04416016 -20.10165039 496.63519531 -20.84423828 497.24414062 C-24.13898945 499.92770239 -27.47036735 502.56331683 -30.8125 505.1875 C-31.39241699 505.64439209 -31.97233398 506.10128418 -32.56982422 506.57202148 C-40.21365852 512.56421309 -40.21365852 512.56421309 -46.01953125 512.36328125 C-49.55179476 511.71535126 -50.83325524 509.77787789 -53 507 C-53.74636719 506.09894531 -53.74636719 506.09894531 -54.5078125 505.1796875 C-97.41632971 449.49840238 -100.05178426 352.26467876 -100.203125 284.74609375 C-100.20595238 283.86818743 -100.20877975 282.99028111 -100.21169281 282.08577156 C-100.22653316 277.42998094 -100.23585508 272.77422004 -100.24023438 268.1184082 C-100.24459243 264.35789141 -100.25840262 260.59760749 -100.28125 256.8371582 C-100.71768541 183.4333376 -92.17291512 101.30296291 -48 40 C-47.30390625 39.01902344 -46.6078125 38.03804687 -45.890625 37.02734375 C-40.42003034 29.51012591 -34.3919604 22.72528349 -28 16 C-27.40703125 15.34257812 -26.8140625 14.68515625 -26.203125 14.0078125 C-19.87881388 7.21387431 -9.81252181 -2.57377621 0 0 Z M-17.3125 30 C-73.53458473 86.9449401 -83.644664 180.35331516 -83.984375 264.37402344 C-83.74335461 298.35299078 -81.73679393 332.22815846 -78 366 C-73.8655178 366 -71.87738919 363.81611647 -68.8125 361.3125 C-68.19955078 360.82136719 -67.58660156 360.33023437 -66.95507812 359.82421875 C-64.96327309 358.22434306 -62.98081935 356.61345174 -61 355 C-59.67060286 353.92053603 -58.3411758 352.84110893 -57.01171875 351.76171875 C-54.99449733 350.12249564 -52.9781839 348.48220231 -50.96411133 346.83911133 C-46.12504047 342.8954522 -41.23465428 339.02395734 -36.31323242 335.18383789 C-30.89420522 330.94390424 -25.56072485 326.60098315 -20.24023438 322.23828125 C-19.60021484 321.71492188 -18.96019531 321.1915625 -18.30078125 320.65234375 C-17.73528564 320.18820068 -17.16979004 319.72405762 -16.5871582 319.24584961 C-15.11373886 318.08928002 -13.55853877 317.03902584 -12 316 C-11.54956397 313.81111926 -11.54956397 313.81111926 -11.63085651 311.22486687 C-11.62488337 310.21070005 -11.61891022 309.19653324 -11.61275607 308.1516341 C-11.6214946 307.02908477 -11.63023312 305.90653545 -11.63923645 304.74996948 C-11.63667318 303.56403045 -11.6341099 302.37809141 -11.63146895 301.15621483 C-11.62736867 297.85407973 -11.63679383 294.55247315 -11.65180314 291.25040174 C-11.66471978 287.69348464 -11.66037715 284.13658482 -11.65809631 280.57965088 C-11.6565208 274.41363504 -11.66595896 268.2477142 -11.68280983 262.08172226 C-11.70715771 253.16667272 -11.71500077 244.25166926 -11.7187738 235.33659007 C-11.72534492 220.87361862 -11.74532394 206.41069783 -11.77368164 191.94775391 C-11.80120516 177.89567316 -11.82244708 163.84360616 -11.83520508 149.79150391 C-11.83599325 148.92580064 -11.83678142 148.06009737 -11.83759347 147.16816066 C-11.84150849 142.82532135 -11.84529964 138.48248195 -11.84902918 134.13964248 C-11.88014563 98.0930592 -11.93299935 62.04653354 -12 26 C-14.09159834 26 -15.94781769 28.6766717 -17.3125 30 Z M4 26 C3.63346307 62.72260837 3.35168813 99.44494036 3.18295473 136.1690091 C3.16294436 140.50842768 3.14223512 144.84784265 3.12109375 149.18725586 C3.11689678 150.05112411 3.11269982 150.91499236 3.10837567 151.80503843 C3.03882774 165.77744761 2.91271816 179.74879932 2.76555526 193.72058197 C2.61572068 208.06608615 2.52701633 222.41103806 2.49458408 236.75729257 C2.47267087 245.60441952 2.40357793 254.44855752 2.27333653 263.29476378 C2.18849648 269.36807863 2.1632545 275.43985771 2.18397796 281.51372155 C2.19419122 285.01501407 2.17900717 288.51110287 2.0927124 292.01145935 C1.18968426 307.24446341 1.18968426 307.24446341 7.4380188 320.42397499 C10.69410815 323.33597999 14.1734945 325.63785642 17.96505928 327.79062426 C21.21736863 329.72348844 24.07672469 332.11074463 27 334.5 C28.14399796 335.39817596 29.28962652 336.2942823 30.4375 337.1875 C34.32943567 340.24544945 38.165191 343.37091355 42 346.5 C47.20364307 350.74084615 52.42207962 354.96099092 57.6875 359.125 C58.25146484 359.57423828 58.81542969 360.02347656 59.39648438 360.48632812 C62.4763723 362.91076227 65.59106396 365.06468566 69 367 C71.18933048 364.81066952 70.6695616 359.95780221 70.9375 356.91015625 C71.02249756 355.97763535 71.10749512 355.04511444 71.19506836 354.08433533 C71.3753761 352.094586 71.55344523 350.10463279 71.72949219 348.11450195 C71.99368625 345.1337348 72.26574168 342.15377053 72.5390625 339.17382812 C79.91231107 257.81221426 78.60357509 173.4044155 41 76 C40.58137695 75.16823242 40.16275391 74.33646484 39.73144531 73.47949219 C30.79384066 55.96867744 19.6004032 38.32109219 4 26 Z M203 312 C200.855 324.643125 198.71 337.28625 196.5 350.3125 C195.82130859 354.30512939 195.14261719 358.29775879 194.44335938 362.41137695 C193.8376235 365.98916415 193.8376235 365.98916415 193.23254395 369.56706238 C192.9626172 371.16125098 192.69171447 372.75527451 192.42004395 374.34916687 C192.00885591 376.7627507 191.60076281 379.17683933 191.19335938 381.59106445 C191.07157066 382.30163404 190.94978195 383.01220362 190.82430267 383.74430561 C190.35515264 386.54087889 190 389.15775585 190 392 C202.87 392 215.74 392 229 392 C229.72316406 386.78123047 229.72316406 386.78123047 230.4609375 381.45703125 C230.93272103 378.08433786 231.40668427 374.71195749 231.88085938 371.33959961 C232.20898769 368.99747026 232.53485249 366.65502262 232.85839844 364.31225586 C233.32411102 360.94298246 233.79797783 357.57494124 234.2734375 354.20703125 C234.41623138 353.16102249 234.55902527 352.11501373 234.70614624 351.03730774 C234.84614044 350.05666855 234.98613464 349.07602936 235.13037109 348.06567383 C235.25028412 347.20629715 235.37019714 346.34692047 235.4937439 345.46150208 C236.04514015 342.78052101 236.8222521 340.47055812 238 338 C241.11549872 336.44225064 244.6044388 336.43519378 248 337 C250.67819053 338.84007947 251.04048916 340.15912321 251.85473633 343.35913086 C252.0893144 344.74640273 252.31001574 346.13606615 252.51953125 347.52734375 C252.64165482 348.27636459 252.76377838 349.02538544 252.88960266 349.79710388 C253.27515394 352.19595317 253.64040061 354.5971316 254 357 C254.11728455 357.77514954 254.23456909 358.55029907 254.35540771 359.34893799 C255.16695093 364.74887082 255.93174826 370.15448536 256.6875 375.5625 C257.450625 380.986875 258.21375 386.41125 259 392 C271.87 392 284.74 392 298 392 C295.62272966 374.66409172 292.76598535 357.43371907 289.8125 340.1875 C288.224375 330.885625 286.63625 321.58375 285 312 C257.94 312 230.88 312 203 312 Z M4 338 C3.62512508 354.72476963 3.34356529 371.44816373 3.17100525 388.17612743 C3.08872654 395.9446173 2.97671261 403.71048765 2.79296875 411.47729492 C2.63276341 418.25240365 2.53010519 425.02561514 2.49458408 431.8025654 C2.47383479 435.38744858 2.42563709 438.96690831 2.30831909 442.55003929 C1.14418447 458.57560723 1.14418447 458.57560723 7.41137695 472.51968384 C10.6554538 475.42955297 14.12903434 477.67990341 17.93391418 479.78486061 C21.34408589 481.79050526 24.29098908 484.33657762 27.3125 486.875 C30.2611481 489.32868531 30.2611481 489.32868531 33 491 C36.04821507 490.32333029 36.04821507 490.32333029 37.20751953 488.20361328 C38.53170863 485.51837564 39.8479385 482.83310596 41.125 480.125 C41.85251465 478.58307983 41.85251465 478.58307983 42.59472656 477.01000977 C55.64293168 448.58722504 62.18273446 417.75886041 67 387 C66.175 386.35675781 65.35 385.71351563 64.5 385.05078125 C57.94824513 379.92933907 51.44263942 374.75819219 45 369.5 C39.48509456 364.99929202 33.9287726 360.56045074 28.31323242 356.18603516 C25.06765023 353.64988759 21.85832761 351.07590045 18.67578125 348.4609375 C17.58620117 347.56665039 17.58620117 347.56665039 16.47460938 346.65429688 C15.05999767 345.49014939 13.64840667 344.32231912 12.24023438 343.15039062 C11.60021484 342.62380859 10.96019531 342.09722656 10.30078125 341.5546875 C9.73528564 341.08530762 9.16979004 340.61592773 8.5871582 340.13232422 C6.87922151 338.79666095 6.87922151 338.79666095 4 338 Z M-19.0625 342.6875 C-19.99545898 343.42419922 -19.99545898 343.42419922 -20.94726562 344.17578125 C-26.35004977 348.45500133 -31.69555978 352.80357361 -37.03540039 357.16088867 C-41.32191496 360.65339392 -45.64213055 364.09704962 -50 367.5 C-55.29280816 371.63529403 -60.53446022 375.83014097 -65.75 380.0625 C-66.44222656 380.62324219 -67.13445312 381.18398438 -67.84765625 381.76171875 C-68.81251953 382.54675781 -68.81251953 382.54675781 -69.796875 383.34765625 C-70.36760742 383.81179932 -70.93833984 384.27594238 -71.52636719 384.75415039 C-73.13257555 386.07693057 -73.13257555 386.07693057 -75 388 C-74.75969419 390.46202649 -74.40104468 392.74128693 -73.91015625 395.15625 C-73.77118423 395.88193176 -73.63221222 396.60761353 -73.48902893 397.35528564 C-73.0270907 399.73975444 -72.54633712 402.11988419 -72.0625 404.5 C-71.90005798 405.31343872 -71.73761597 406.12687744 -71.57025146 406.96496582 C-65.69419571 436.33007592 -58.0162261 464.87247657 -43 491 C-38.53287005 489.55475208 -35.45019459 487.07349841 -32 484 C-30.9823788 483.10051952 -29.96134569 482.20488896 -28.9375 481.3125 C-28.12027718 480.55421402 -28.12027718 480.55421402 -27.2865448 479.78060913 C-25 478 -25 478 -21.81636047 476.52310181 C-17.57999103 474.2222348 -14.47779382 472.20314505 -12 468 C-9.67818926 459.21850712 -10.44349138 449.75132249 -10.68187881 440.73527861 C-10.76363601 437.11880771 -10.77081949 433.50217063 -10.78620911 429.88491821 C-10.82647641 423.04865989 -10.93295064 416.2151325 -11.06375247 409.38007224 C-11.20950579 401.59319354 -11.28064499 393.80617821 -11.34579313 386.01827312 C-11.48135975 370.01060515 -11.7097303 354.00565588 -12 338 C-14.40251044 338 -17.17518804 341.18905167 -19.0625 342.6875 Z M204 408 C202.67740071 410.64519859 202.58678567 412.98380704 202.27563477 415.9309082 C202.14202042 417.17592606 202.00840607 418.42094391 201.8707428 419.70368958 C201.80087725 420.37104441 201.7310117 421.03839924 201.65902901 421.72597694 C201.43984407 423.81567497 201.21532236 425.90473549 200.98924255 427.99369812 C200.34724958 433.93369289 199.71406698 439.87460867 199.08666992 445.81616211 C198.70256448 449.45012178 198.311445 453.08327229 197.91609001 456.7160244 C197.76706539 458.09876835 197.62076188 459.48180844 197.47726631 460.8651371 C197.27599309 462.80441978 197.06506968 464.74269347 196.85375977 466.6809082 C196.73686295 467.78296097 196.61996613 468.88501373 196.49952698 470.02046204 C196.00781914 472.95336104 195.2948892 475.32788911 194 478 C192.24755859 479.19091797 192.24755859 479.19091797 190.1484375 479.9921875 C189.38265381 480.3013208 188.61687012 480.6104541 187.82788086 480.92895508 C187.01843018 481.2411499 186.20897949 481.55334473 185.375 481.875 C178.76426462 484.60604579 172.55301514 487.21723157 168 493 C167.67 493.99 167.34 494.98 167 496 C181.85 496 196.7 496 212 496 C212.10183594 492.38289063 212.20367187 488.76578125 212.30859375 485.0390625 C212.83853638 469.78422413 214.30620945 454.65060404 215.85003662 439.47387695 C216.2111685 435.90633803 216.56312776 432.33789336 216.91601562 428.76953125 C217.60204631 421.84547322 218.29852804 414.92251338 219 408 C214.05 408 209.1 408 204 408 Z M269 408 C269.176521 409.70647705 269.35304199 411.4129541 269.53491211 413.17114258 C270.12888619 418.93380417 270.71455604 424.6972805 271.2950964 430.46130848 C271.64592191 433.94172698 271.99965036 437.42178888 272.36108398 440.90112305 C274.2674219 459.27790884 275.50355115 477.51827745 276 496 C290.85 496 305.7 496 321 496 C315.77668904 487.29448174 308.70418745 484.09928087 299.46020508 480.62353516 C294.29648815 478.56692054 294.29648815 478.56692054 292.83998108 475.78190613 C291.91574139 472.72094666 291.48358049 469.8612065 291.14624023 466.6809082 C291.00947372 465.42643387 290.87270721 464.17195953 290.73179626 462.87947083 C290.59069106 461.51991155 290.44962447 460.16034826 290.30859375 458.80078125 C290.15764279 457.40016353 290.00594387 455.99962624 289.85353088 454.59916687 C289.4549662 450.92302394 289.06432277 447.24608772 288.67602539 443.56884766 C288.05271002 437.67255218 287.42023625 431.77725548 286.78227425 425.88252831 C286.56101111 423.82327907 286.34490282 421.76353366 286.1292572 419.70368958 C285.99564285 418.45867172 285.8620285 417.21365387 285.72436523 415.9309082 C285.60826401 414.83124222 285.49216278 413.73157623 285.37254333 412.59858704 C285.14277977 410.02242895 285.14277977 410.02242895 284 408 C279.05 408 274.1 408 269 408 Z " fill="#000000" transform="translate(116,0)"/>
<path d="M0 0 C2.26953125 1.39453125 2.26953125 1.39453125 4 4 C4.48624212 7.43030699 4.37583226 10.79445243 4.25 14.25 C4.23195313 15.18585937 4.21390625 16.12171875 4.1953125 17.0859375 C4.14825673 19.39167015 4.08253713 21.69530945 4 24 C4.94206299 23.97905273 5.88412598 23.95810547 6.85473633 23.93652344 C10.40155114 23.86772511 13.94764135 23.81790186 17.49487305 23.78027344 C19.02037859 23.76034689 20.54580968 23.73319515 22.07104492 23.69824219 C35.82078842 23.39138871 46.70613815 25.17315645 57 35 C67.27434363 45.76262927 68.66654104 57.16779023 68.52148438 71.41821289 C68.49982952 73.95749106 68.52148058 76.49400502 68.546875 79.03320312 C68.54423513 80.65625621 68.53911721 82.27930759 68.53125 83.90234375 C68.53934692 84.65652084 68.54744385 85.41069794 68.55578613 86.18772888 C68.49407488 89.63806337 68.23947104 91.66344876 66.21679688 94.50610352 C64 96 64 96 60 96 C60.02094727 96.99217529 60.04189453 97.98435059 60.06347656 99.0065918 C60.13685595 102.75074349 60.18214836 106.49483426 60.21972656 110.23950195 C60.23962238 111.84833526 60.26674929 113.45709842 60.30175781 115.06567383 C60.52517848 125.60915812 59.70872758 134.03209008 56 144 C55.64525851 145.32779794 55.30238465 146.65930898 55 148 C68.93552486 157.1027123 82.94455665 166.08379328 97 175 C104.3400287 179.65621835 111.6749972 184.32017326 119 189 C119.95438965 189.6089209 120.9087793 190.2178418 121.89208984 190.84521484 C124.70243681 192.64135816 127.50814053 194.44452619 130.3125 196.25 C131.17311035 196.79922119 132.0337207 197.34844238 132.92041016 197.91430664 C133.70593262 198.4221167 134.49145508 198.92992676 135.30078125 199.453125 C135.99341064 199.89817383 136.68604004 200.34322266 137.3996582 200.80175781 C139 202 139 202 140 204 C140.12485922 205.49878878 140.19014091 207.00276209 140.22460938 208.50634766 C140.24712769 209.44137115 140.269646 210.37639465 140.29284668 211.3397522 C140.36392995 215.632832 140.42140959 219.9257378 140.45996094 224.21923828 C140.4865299 226.47921993 140.52741262 228.73908121 140.58300781 230.99853516 C140.66237284 234.26254128 140.69531272 237.5242312 140.71875 240.7890625 C140.75174194 241.79143951 140.78473389 242.79381653 140.81872559 243.8265686 C140.80070803 250.19476724 139.66613093 253.48629955 135.14147949 257.98696899 C134.43479126 258.65126923 133.72810303 259.31556946 133 260 C131.45268868 261.60435806 129.90929844 263.2125039 128.36914062 264.82373047 C123.75915398 269.52210641 119.1252956 274.19694362 114.48486328 278.86523438 C112.4878732 280.87563421 110.49843774 282.89308802 108.51513672 284.91699219 C105.63882834 287.85213049 102.74226892 290.7664778 99.84375 293.6796875 C98.96126587 294.584841 98.07878174 295.48999451 97.16955566 296.4225769 C89.29619135 304.26915656 89.29619135 304.26915656 83 305 C79.6875 304.0625 79.6875 304.0625 77 302 C75.4375 298.6875 75.4375 298.6875 75 295 C76.783046 290.57602931 78.90181468 287.79853465 82.47143555 284.67993164 C83.37214279 283.87950943 84.27285004 283.07908722 85.20085144 282.25440979 C86.65410576 280.97025429 86.65410576 280.97025429 88.13671875 279.66015625 C90.18792797 277.78113177 92.22370048 275.88564424 94.25976562 273.99023438 C97.44640758 271.02383306 100.64490892 268.082565 103.9387207 265.23510742 C114.08277605 256.42804585 123.77524258 247.90678506 124.89846516 233.76165104 C124.98851939 231.67055553 125.00951551 229.59285843 124.99609375 227.5 C124.99228195 226.18286514 124.98847015 224.86573029 124.98454285 223.50868225 C124.63074787 218.36036467 124.2097749 214.51266475 120.93109131 210.4131012 C116.79605831 206.82025407 112.32900568 204.02874057 107.2734375 201.90234375 C101.10815224 199.1274904 95.62893129 195.72394251 90 192 C88.18065687 190.83758302 86.35902841 189.6787353 84.53515625 188.5234375 C80.74960399 186.11463331 76.96601402 183.70278147 73.18359375 181.2890625 C63.50268964 175.11424202 53.81366914 168.96226691 44 163 C43.29875 163.45890625 42.5975 163.9178125 41.875 164.390625 C29.1048147 172.64960354 19.59578627 176.35732052 4.25 176.375 C3.1465625 176.39949219 2.043125 176.42398438 0.90625 176.44921875 C-10.87026038 176.49068534 -22.89567961 173.09139971 -32 165.28515625 C-33.87556061 163.77650351 -33.87556061 163.77650351 -35.89892578 164.24633789 C-38.26920652 165.09656525 -39.70047838 166.14600425 -41.6171875 167.7734375 C-42.30022949 168.34610352 -42.98327148 168.91876953 -43.68701172 169.50878906 C-44.77006592 170.43256348 -44.77006592 170.43256348 -45.875 171.375 C-47.39475812 172.6497205 -48.91560883 173.92313941 -50.4375 175.1953125 C-51.19933594 175.8337207 -51.96117187 176.47212891 -52.74609375 177.12988281 C-56.07763755 179.89414035 -59.46680383 182.58117206 -62.875 185.25 C-63.4510498 185.70294434 -64.02709961 186.15588867 -64.62060547 186.62255859 C-69.72634179 190.61521057 -72.33036226 192.25087064 -78.88647461 192.29052734 C-79.5827446 192.29724457 -80.27901459 192.30396179 -80.99638367 192.31088257 C-83.29844291 192.32988325 -85.60021098 192.33378763 -87.90234375 192.3359375 C-89.50273255 192.34236358 -91.10312016 192.34909179 -92.70350647 192.35610962 C-96.05846887 192.36808724 -99.41332827 192.37178991 -102.76831055 192.37060547 C-107.06714864 192.37040215 -111.36532658 192.39771468 -115.66400814 192.43214989 C-118.96943699 192.45438728 -122.2747061 192.45844401 -125.5802021 192.45738602 C-127.16504761 192.45974635 -128.74989723 192.46859424 -130.33466911 192.48405075 C-132.55162688 192.50364979 -134.76714996 192.49789847 -136.98413086 192.48583984 C-138.87584267 192.4901149 -138.87584267 192.4901149 -140.80577087 192.49447632 C-144.55993104 191.91332098 -145.72884023 190.98314231 -148 188 C-148.53125 186 -148.53125 186 -148.5 184 C-148.51546875 183.01 -148.51546875 183.01 -148.53125 182 C-147.74925816 179.05603073 -146.35581052 177.89891558 -144 176 C-141.16572571 175.57522583 -141.16572571 175.57522583 -137.84887695 175.67626953 C-136.60270096 175.70173859 -135.35652496 175.72720764 -134.07258606 175.75344849 C-133.40808756 175.77534367 -132.74358906 175.79723885 -132.05895424 175.81979752 C-129.95745134 175.88375072 -127.85802154 175.9137517 -125.75566101 175.93331909 C-119.78002099 175.99052618 -113.80672105 176.07109519 -107.83374023 176.26367188 C-86.94819962 177.42727098 -86.94819962 177.42727098 -68.9140625 168.3203125 C-67.1055368 166.53170809 -65.38507374 164.70365688 -63.69868469 162.79980469 C-60.8006962 159.72930356 -57.43291557 157.27517055 -54.0625 154.75 C-49.88430872 151.54676436 -49.88430872 151.54676436 -46 148 C-46.26554687 147.443125 -46.53109375 146.88625 -46.8046875 146.3125 C-47.15789062 145.549375 -47.51109375 144.78625 -47.875 144 C-48.22304688 143.2575 -48.57109375 142.515 -48.9296875 141.75 C-51.51727151 135.10160897 -52.23538149 129.3334395 -51.9921875 122.29296875 C-51.97350904 120.63740143 -51.95798271 118.98179608 -51.9453125 117.32617188 C-51.91885639 114.75674446 -51.87522865 112.19349803 -51.77734375 109.62573242 C-51.11278357 98.89762319 -51.11278357 98.89762319 -55.56689453 89.58959961 C-58.49564054 86.77311083 -61.74557747 84.42402629 -65 82 C-67.00633868 79.81788185 -68.47951599 77.67449579 -70.125 75.1875 C-70.82882812 74.14980469 -71.53265625 73.11210938 -72.2578125 72.04296875 C-75.01942258 67.21943904 -76.29678665 62.92814804 -76.375 57.375 C-76.40335937 56.45460937 -76.43171875 55.53421875 -76.4609375 54.5859375 C-76 52 -76 52 -74.4296875 49.6796875 C-71.08967819 47.37067785 -68.76763587 47.60119867 -64.75 47.75 C-63.48671875 47.78609375 -62.2234375 47.8221875 -60.921875 47.859375 C-59.95765625 47.90578125 -58.9934375 47.9521875 -58 48 C-58.33 47.34 -58.66 46.68 -59 46 C-59.78461152 34.72401155 -59.75719821 25.0709963 -54 15 C-53.61972656 14.33226562 -53.23945313 13.66453125 -52.84765625 12.9765625 C-51.438587 10.71141721 -50.41721301 9.20860651 -48 8 C-41.31797235 7.07834101 -41.31797235 7.07834101 -37.765625 9.5625 C-36.36583209 10.82946585 -34.99643806 12.13106617 -33.6640625 13.46875 C-32.13160895 15.22571046 -32.13160895 15.22571046 -30 15 C-28.64891077 13.47074515 -27.34430917 11.90027447 -26.0625 10.3125 C-19.58132661 2.99002045 -10.14914814 -2.62322011 0 0 Z M-13 22 C-16.07393767 26.05870213 -18.84201531 30.26937817 -20.75 35 C-22 38 -22 38 -24 39 C-30.65678433 39.91817715 -30.65678433 39.91817715 -34.234375 37.47265625 C-35.63241072 36.22513898 -37.00175237 34.94448721 -38.3359375 33.62890625 C-39.91919221 31.91286972 -39.91919221 31.91286972 -42 31 C-43.29327354 37.46636772 -42.77274792 41.98637789 -40 48 C-39.443125 48.680625 -38.88625 49.36125 -38.3125 50.0625 C-36.09894743 53.33012522 -36.63054306 56.12070216 -37 60 C-38.01171875 61.703125 -38.01171875 61.703125 -40 63 C-42.79251583 63.37674518 -45.38779201 63.60191941 -48.1875 63.6875 C-48.93708984 63.72166016 -49.68667969 63.75582031 -50.45898438 63.79101562 C-52.30546838 63.87334294 -54.15270994 63.93835281 -56 64 C-54.20500231 67.16415508 -52.4436606 69.79827987 -49.8125 72.3125 C-48.884375 73.199375 -47.95625 74.08625 -47 75 C-43.17225513 73.1987083 -39.86044134 70.87310342 -36.4140625 68.4375 C-31.19495648 65.32968282 -26.17990895 64.61074254 -20.1875 64.625 C-19.48189941 64.62661133 -18.77629883 64.62822266 -18.04931641 64.62988281 C-10.57633903 64.80515154 -5.63087339 67.03083724 0.25 71.375 C2.84378956 73.32057517 2.84378956 73.32057517 5.5 72.5 C7.34834333 71.390994 9.15574862 70.21310732 10.9375 69 C16.32730586 65.48012679 21.39198801 64.60978581 27.75 64.625 C28.45302246 64.62661133 29.15604492 64.62822266 29.88037109 64.62988281 C38.47910885 64.83118445 45.14933121 67.95213878 52 73 C52.28417984 64.04833519 51.90090646 56.17677812 46 49 C38.09819937 41.15464081 30.60550171 39.8961862 19.64453125 39.7890625 C18.03709868 39.76102342 16.42967691 39.73235922 14.82226562 39.703125 C12.30737275 39.66171541 9.7926885 39.62479393 7.27758789 39.59863281 C4.83698977 39.57109567 2.39728627 39.52526717 -0.04296875 39.4765625 C-0.79611862 39.47330963 -1.54926849 39.47005676 -2.32524109 39.46670532 C-7.48672846 39.3447527 -7.48672846 39.3447527 -9.96533203 37.67993164 C-11.68977371 34.88005359 -11.53907978 32.0480609 -11.6875 28.8125 C-11.75324219 27.54019531 -11.81898438 26.26789062 -11.88671875 24.95703125 C-11.94279297 23.49330078 -11.94279297 23.49330078 -12 22 C-12.33 22 -12.66 22 -13 22 Z M-34.72998047 88.62524414 C-37.44577116 93.7033864 -36.68198157 99.58303638 -36.5 105.1875 C-36.4896875 106.43853516 -36.479375 107.68957031 -36.46875 108.97851562 C-36.21215989 124.38194074 -34.40902403 139.65604645 -23 151 C-12.65616497 158.76619125 -1.13886857 160.96080102 11.5625 159.375 C20.59374505 157.78567269 29.15310435 153.91460546 34.9140625 146.5546875 C43.31944092 133.39009938 44.22214207 120.82849553 44.5 105.5 C44.58121094 103.57994141 44.58121094 103.57994141 44.6640625 101.62109375 C44.75413879 95.39939545 44.7950989 91.04618797 40.62109375 86.1875 C36.60926732 82.32290137 33.72874777 81.19838089 28.1875 80.5625 C23.2046344 80.72202677 19.71369909 82.77736856 16 86 C14.26756268 88.0390634 12.71990912 90.10896187 11.2265625 92.328125 C10 94 10 94 8 95 C0.79069767 95.58139535 0.79069767 95.58139535 -2.125 93.4375 C-3.053125 92.2309375 -3.053125 92.2309375 -4 91 C-9.59707003 83.85377142 -9.59707003 83.85377142 -17.9453125 80.72265625 C-25.0917269 80.38299777 -30.19375303 83.2017984 -34.72998047 88.62524414 Z " fill="#000000" transform="translate(356,16)"/>
<path d="M0 0 C5.28 0 10.56 0 16 0 C16 5.28 16 10.56 16 16 C10.72 16 5.44 16 0 16 C0 10.72 0 5.44 0 0 Z " fill="#000000" transform="translate(368,112)"/>
<path d="M0 0 C5.28 0 10.56 0 16 0 C16 5.28 16 10.56 16 16 C10.72 16 5.44 16 0 16 C0 10.72 0 5.44 0 0 Z " fill="#000000" transform="translate(336,112)"/>
</svg>
